ISO-10303-21;
HEADER;
FILE_DESCRIPTION (( 'STEP AP214' ),
    '1' );
FILE_NAME ('04024D225MAT2A.STEP',
    '2019-12-28T10:39:10',
    ( '' ),
    ( '' ),
    'SwSTEP 2.0',
    'SolidWorks 2018',
    '' );
FILE_SCHEMA (( 'AUTOMOTIVE_DESIGN' ));
ENDSEC;

DATA;
#1 = CARTESIAN_POINT ( 'NONE',  ( -0.4749999999999999778, 0.5350000000000001421, -0.2249999999999998945 ) ) ;
#2 = EDGE_CURVE ( 'NONE', #176, #1027, #701, .T. ) ;
#3 = ADVANCED_FACE ( 'NONE', ( #145 ), #833, .T. ) ;
#4 = PLANE ( 'NONE',  #74 ) ;
#5 = EDGE_CURVE ( 'NONE', #1208, #1075, #717, .T. ) ;
#6 = FACE_OUTER_BOUND ( 'NONE', #1002, .T. ) ;
#7 = SURFACE_SIDE_STYLE ('',( #111 ) ) ;
#8 = PRODUCT ( '04024D225MAT2A', '04024D225MAT2A', '', ( #776 ) ) ;
#9 = SPHERICAL_SURFACE ( 'NONE', #619, 0.02500000000000000139 ) ;
#10 = VECTOR ( 'NONE', #853, 1000.000000000000000 ) ;
#11 = UNCERTAINTY_MEASURE_WITH_UNIT (LENGTH_MEASURE( 1.000000000000000082E-05 ), #310, 'distance_accuracy_value', 'NONE');
#12 = CARTESIAN_POINT ( 'NONE',  ( 0.5000000000000000000, 0.02499999999999995628, -0.2249999999999998945 ) ) ;
#13 = VERTEX_POINT ( 'NONE', #49 ) ;
#14 = PRESENTATION_STYLE_ASSIGNMENT (( #485 ) ) ;
#15 = ORIENTED_EDGE ( 'NONE', *, *, #73, .T. ) ;
#16 = CARTESIAN_POINT ( 'NONE',  ( 0.4999999999999997780, 0.5350000000000001421, 0.2249999999999999500 ) ) ;
#17 = EDGE_LOOP ( 'NONE', ( #1130, #953, #1139, #917 ) ) ;
#18 = AXIS2_PLACEMENT_3D ( 'NONE', #1166, #1076, #675 ) ;
#19 = DIRECTION ( 'NONE',  ( 0.0000000000000000000, -1.000000000000000000, 0.0000000000000000000 ) ) ;
#20 = CARTESIAN_POINT ( 'NONE',  ( -0.4749999999999999778, 0.02499999999999995628, -0.2499999999999998890 ) ) ;
#21 = CARTESIAN_POINT ( 'NONE',  ( 0.4749999999999997558, 0.02499999999999995628, 0.2499999999999999445 ) ) ;
#22 = EDGE_CURVE ( 'NONE', #193, #703, #925, .T. ) ;
#23 = CARTESIAN_POINT ( 'NONE',  ( 0.2499999999940882844, 0.02499999999999995628, -0.2250000000000000056 ) ) ;
#24 = DIRECTION ( 'NONE',  ( -0.0000000000000000000, -1.000000000000000000, -0.0000000000000000000 ) ) ;
#25 = ADVANCED_FACE ( 'NONE', ( #1276 ), #190, .T. ) ;
#26 = CYLINDRICAL_SURFACE ( 'NONE', #945, 0.02500000000000001180 ) ;
#27 = FACE_OUTER_BOUND ( 'NONE', #666, .T. ) ;
#28 = ORIENTED_EDGE ( 'NONE', *, *, #433, .F. ) ;
#29 = VECTOR ( 'NONE', #719, 1000.000000000000000 ) ;
#30 = DIRECTION ( 'NONE',  ( -1.000000000000000000, 0.0000000000000000000, 2.168404344971007635E-16 ) ) ;
#31 = ORIENTED_EDGE ( 'NONE', *, *, #1080, .T. ) ;
#32 = VERTEX_POINT ( 'NONE', #1223 ) ;
#33 = ADVANCED_FACE ( 'NONE', ( #806 ), #1120, .T. ) ;
#34 = ORIENTED_EDGE ( 'NONE', *, *, #367, .T. ) ;
#35 = AXIS2_PLACEMENT_3D ( 'NONE', #1219, #150, #746 ) ;
#36 = VERTEX_POINT ( 'NONE', #56 ) ;
#37 = DIRECTION ( 'NONE',  ( 1.000000000000000000, -0.0000000000000000000, -2.168404344971007635E-16 ) ) ;
#38 = EDGE_CURVE ( 'NONE', #382, #432, #1059, .T. ) ;
#39 = ADVANCED_FACE ( 'NONE', ( #939 ), #1179, .T. ) ;
#40 = DIRECTION ( 'NONE',  ( 0.0000000000000000000, 1.000000000000000000, 0.0000000000000000000 ) ) ;
#41 = AXIS2_PLACEMENT_3D ( 'NONE', #52, #30, #228 ) ;
#42 = DIRECTION ( 'NONE',  ( 0.0000000000000000000, 0.0000000000000000000, 1.000000000000000000 ) ) ;
#43 = CYLINDRICAL_SURFACE ( 'NONE', #912, 0.02500000000000001180 ) ;
#44 = CIRCLE ( 'NONE', #364, 0.01666666666666667337 ) ;
#45 = CARTESIAN_POINT ( 'NONE',  ( -0.4749999999999999778, 0.5600000000000000533, -0.2249999999999998945 ) ) ;
#46 = VERTEX_POINT ( 'NONE', #353 ) ;
#47 = CARTESIAN_POINT ( 'NONE',  ( 0.4749999999999997558, 0.02499999999999995628, 0.2249999999999999500 ) ) ;
#48 = VERTEX_POINT ( 'NONE', #494 ) ;
#49 = CARTESIAN_POINT ( 'NONE',  ( -0.4749999999999997558, 0.5350000000000001421, 0.2499999999999999445 ) ) ;
#50 = EDGE_LOOP ( 'NONE', ( #1108, #304, #68, #519 ) ) ;
#51 = EDGE_CURVE ( 'NONE', #471, #32, #262, .T. ) ;
#52 = CARTESIAN_POINT ( 'NONE',  ( -0.5000000000000000000, 0.02499999999999995628, -0.2249999999999998945 ) ) ;
#53 = ORIENTED_EDGE ( 'NONE', *, *, #571, .F. ) ;
#54 = CARTESIAN_POINT ( 'NONE',  ( 0.4749999999999998668, 0.5350000000000001421, 2.059984127722458918E-16 ) ) ;
#55 = AXIS2_PLACEMENT_3D ( 'NONE', #257, #475, #778 ) ;
#56 = CARTESIAN_POINT ( 'NONE',  ( 0.2499999999999997780, 0.0000000000000000000, 0.2249999999999999500 ) ) ;
#57 = CARTESIAN_POINT ( 'NONE',  ( 500000.0000000000582, 0.008333333333333333218, -0.2250000000433680647 ) ) ;
#58 = CIRCLE ( 'NONE', #690, 0.02500000000000001180 ) ;
#59 = CIRCLE ( 'NONE', #843, 0.02500000000000001180 ) ;
#60 = ORIENTED_EDGE ( 'NONE', *, *, #800, .T. ) ;
#61 = LINE ( 'NONE', #343, #1274 ) ;
#62 = DIRECTION ( 'NONE',  ( 1.000000000000000000, 0.0000000000000000000, 0.0000000000000000000 ) ) ;
#63 = ORIENTED_EDGE ( 'NONE', *, *, #1047, .F. ) ;
#64 = DIRECTION ( 'NONE',  ( -1.000000000000000000, -0.0000000000000000000, 8.673617379884035472E-17 ) ) ;
#65 = EDGE_LOOP ( 'NONE', ( #1178, #15, #1225 ) ) ;
#66 = EDGE_CURVE ( 'NONE', #220, #882, #1157, .T. ) ;
#67 = DIRECTION ( 'NONE',  ( 0.0000000000000000000, 0.0000000000000000000, -1.000000000000000000 ) ) ;
#68 = ORIENTED_EDGE ( 'NONE', *, *, #345, .T. ) ;
#69 = EDGE_CURVE ( 'NONE', #365, #1208, #429, .T. ) ;
#70 = PRODUCT_DEFINITION_SHAPE ( 'NONE', 'NONE',  #114 ) ;
#71 = AXIS2_PLACEMENT_3D ( 'NONE', #407, #211, #897 ) ;
#72 = DIRECTION ( 'NONE',  ( 0.0000000000000000000, -1.000000000000000000, 0.0000000000000000000 ) ) ;
#73 = EDGE_CURVE ( 'NONE', #220, #476, #729, .T. ) ;
#74 = AXIS2_PLACEMENT_3D ( 'NONE', #392, #101, #724 ) ;
#75 = CIRCLE ( 'NONE', #266, 0.02500000000000001180 ) ;
#76 = LINE ( 'NONE', #621, #727 ) ;
#77 =( NAMED_UNIT ( * ) SI_UNIT ( $, .STERADIAN. ) SOLID_ANGLE_UNIT ( ) );
#78 = VERTEX_POINT ( 'NONE', #1071 ) ;
#79 = ORIENTED_EDGE ( 'NONE', *, *, #973, .T. ) ;
#80 = ORIENTED_EDGE ( 'NONE', *, *, #1202, .T. ) ;
#81 = ORIENTED_EDGE ( 'NONE', *, *, #1204, .F. ) ;
#82 = CARTESIAN_POINT ( 'NONE',  ( 0.4999999999999997780, 0.02499999999999995628, 0.2249999999999999500 ) ) ;
#83 = PLANE ( 'NONE',  #284 ) ;
#84 =( NAMED_UNIT ( * ) PLANE_ANGLE_UNIT ( ) SI_UNIT ( $, .RADIAN. ) );
#85 = DIRECTION ( 'NONE',  ( 0.0000000000000000000, -1.000000000000000000, 0.0000000000000000000 ) ) ;
#86 = CARTESIAN_POINT ( 'NONE',  ( -0.5000000000000000000, 0.5350000000000001421, -0.2499999999999998890 ) ) ;
#87 = DIRECTION ( 'NONE',  ( -1.000000000000000000, 0.0000000000000000000, -4.336808689942019708E-16 ) ) ;
#88 = DIRECTION ( 'NONE',  ( -1.000000000000000000, 0.0000000000000000000, 1.084202172485504681E-16 ) ) ;
#89 = EDGE_CURVE ( 'NONE', #901, #163, #676, .T. ) ;
#90 = LINE ( 'NONE', #796, #860 ) ;
#91 = VECTOR ( 'NONE', #1250, 1000.000000000000000 ) ;
#92 = ADVANCED_FACE ( 'NONE', ( #414 ), #334, .T. ) ;
#93 = AXIS2_PLACEMENT_3D ( 'NONE', #181, #276, #468 ) ;
#94 = EDGE_LOOP ( 'NONE', ( #204, #455, #1106, #628 ) ) ;
#95 = DIRECTION ( 'NONE',  ( -1.000000000000000000, -0.0000000000000000000, 8.673617379884035472E-17 ) ) ;
#96 = ORIENTED_EDGE ( 'NONE', *, *, #586, .F. ) ;
#97 = EDGE_LOOP ( 'NONE', ( #521, #612, #460, #850 ) ) ;
#98 = ORIENTED_EDGE ( 'NONE', *, *, #749, .F. ) ;
#99 =( NAMED_UNIT ( * ) PLANE_ANGLE_UNIT ( ) SI_UNIT ( $, .RADIAN. ) );
#100 = DIRECTION ( 'NONE',  ( 2.168404344971007635E-16, -0.0000000000000000000, 1.000000000000000000 ) ) ;
#101 = DIRECTION ( 'NONE',  ( -2.168404344971007635E-16, 0.0000000000000000000, 1.000000000000000000 ) ) ;
#102 = AXIS2_PLACEMENT_3D ( 'NONE', #535, #1237, #1229 ) ;
#103 = CARTESIAN_POINT ( 'NONE',  ( 0.2499999999999997780, 0.5350000000000001421, 0.2249999999999999500 ) ) ;
#104 = VECTOR ( 'NONE', #1088, 1000.000000000000000 ) ;
#105 = EDGE_CURVE ( 'NONE', #915, #1119, #914, .T. ) ;
#106 = DIRECTION ( 'NONE',  ( 1.000000000000000000, 0.0000000000000000000, 1.084202172485504681E-16 ) ) ;
#107 = DIRECTION ( 'NONE',  ( 0.0000000000000000000, -1.000000000000000000, 0.0000000000000000000 ) ) ;
#108 = VECTOR ( 'NONE', #64, 1000.000000000000000 ) ;
#109 = AXIS2_PLACEMENT_3D ( 'NONE', #226, #134, #421 ) ;
#110 = VERTEX_POINT ( 'NONE', #1165 ) ;
#111 = SURFACE_STYLE_FILL_AREA ( #1101 ) ;
#112 = SURFACE_SIDE_STYLE ('',( #1015 ) ) ;
#113 = ORIENTED_EDGE ( 'NONE', *, *, #1186, .F. ) ;
#114 = PRODUCT_DEFINITION ( 'UNKNOWN', '', #536, #269 ) ;
#115 = ORIENTED_EDGE ( 'NONE', *, *, #586, .T. ) ;
#116 = MANIFOLD_SOLID_BREP ( 'Boss-Extrude2', #488 ) ;
#117 = ADVANCED_FACE ( 'NONE', ( #1258 ), #4, .F. ) ;
#118 = CARTESIAN_POINT ( 'NONE',  ( 500000.0000000000582, 0.008333333333333296788, 0.2249999999566318354 ) ) ;
#119 = EDGE_CURVE ( 'NONE', #48, #1042, #984, .T. ) ;
#120 = DIRECTION ( 'NONE',  ( 1.000000000000000000, 0.0000000000000000000, -8.673617379884036705E-17 ) ) ;
#121 = CARTESIAN_POINT ( 'NONE',  ( 0.2499999999940882844, 0.02499999999999995628, 0.2416666666666665853 ) ) ;
#122 = CARTESIAN_POINT ( 'NONE',  ( 0.2499999999940882844, 0.5350000000000001421, 0.2416666666666665575 ) ) ;
#123 = VECTOR ( 'NONE', #383, 1000.000000000000000 ) ;
#124 = DIRECTION ( 'NONE',  ( 0.0000000000000000000, 1.000000000000000000, 0.0000000000000000000 ) ) ;
#125 = LINE ( 'NONE', #773, #737 ) ;
#126 = SURFACE_STYLE_FILL_AREA ( #1055 ) ;
#127 = VERTEX_POINT ( 'NONE', #121 ) ;
#128 = VECTOR ( 'NONE', #748, 1000.000000000000000 ) ;
#129 = ORIENTED_EDGE ( 'NONE', *, *, #730, .F. ) ;
#130 = PLANE ( 'NONE',  #391 ) ;
#131 = ORIENTED_EDGE ( 'NONE', *, *, #5, .F. ) ;
#132 = DIRECTION ( 'NONE',  ( 1.000000000000000000, 0.0000000000000000000, 0.0000000000000000000 ) ) ;
#133 = DIRECTION ( 'NONE',  ( -1.000000000000000000, -0.0000000000000000000, -2.168404344971007635E-16 ) ) ;
#134 = DIRECTION ( 'NONE',  ( 1.000000000000000000, 0.0000000000000000000, 1.084202172485504681E-16 ) ) ;
#135 = EDGE_CURVE ( 'NONE', #232, #721, #491, .T. ) ;
#136 = AXIS2_PLACEMENT_3D ( 'NONE', #919, #837, #247 ) ;
#137 = AXIS2_PLACEMENT_3D ( 'NONE', #1185, #489, #694 ) ;
#138 = LINE ( 'NONE', #1196, #910 ) ;
#139 = DIRECTION ( 'NONE',  ( 0.0000000000000000000, 0.0000000000000000000, 1.000000000000000000 ) ) ;
#140 = VERTEX_POINT ( 'NONE', #1001 ) ;
#141 = DIRECTION ( 'NONE',  ( 0.0000000000000000000, 0.0000000000000000000, -1.000000000000000000 ) ) ;
#142 = LINE ( 'NONE', #267, #274 ) ;
#143 = EDGE_CURVE ( 'NONE', #1043, #365, #236, .T. ) ;
#144 = ORIENTED_EDGE ( 'NONE', *, *, #714, .T. ) ;
#145 = FACE_OUTER_BOUND ( 'NONE', #554, .T. ) ;
#146 = EDGE_LOOP ( 'NONE', ( #531, #886, #34, #650 ) ) ;
#147 = ADVANCED_FACE ( 'NONE', ( #663 ), #130, .T. ) ;
#148 = DIRECTION ( 'NONE',  ( -1.000000000000000000, 0.0000000000000000000, 0.0000000000000000000 ) ) ;
#149 = CARTESIAN_POINT ( 'NONE',  ( 0.0000000000000000000, 0.0000000000000000000, 0.0000000000000000000 ) ) ;
#150 = DIRECTION ( 'NONE',  ( -4.336808689942019708E-16, 0.0000000000000000000, 1.000000000000000000 ) ) ;
#151 = DIRECTION ( 'NONE',  ( 1.000000000000000000, 0.0000000000000000000, 4.336808689942019215E-16 ) ) ;
#152 = DIRECTION ( 'NONE',  ( 4.336808689942019708E-16, -0.0000000000000000000, -1.000000000000000000 ) ) ;
#153 = AXIS2_PLACEMENT_3D ( 'NONE', #317, #947, #1231 ) ;
#154 = FACE_OUTER_BOUND ( 'NONE', #582, .T. ) ;
#155 = CYLINDRICAL_SURFACE ( 'NONE', #137, 0.02500000000000001180 ) ;
#156 = FACE_OUTER_BOUND ( 'NONE', #786, .T. ) ;
#157 = DIRECTION ( 'NONE',  ( 0.0000000000000000000, 0.0000000000000000000, -1.000000000000000000 ) ) ;
#158 = EDGE_CURVE ( 'NONE', #295, #1260, #982, .T. ) ;
#159 = ORIENTED_EDGE ( 'NONE', *, *, #484, .F. ) ;
#160 = ORIENTED_EDGE ( 'NONE', *, *, #611, .F. ) ;
#161 = EDGE_CURVE ( 'NONE', #163, #172, #896, .T. ) ;
#162 = CARTESIAN_POINT ( 'NONE',  ( 0.4749999999999997558, 0.5350000000000001421, 0.2499999999999999445 ) ) ;
#163 = VERTEX_POINT ( 'NONE', #21 ) ;
#164 = AXIS2_PLACEMENT_3D ( 'NONE', #978, #1050, #562 ) ;
#165 = CARTESIAN_POINT ( 'NONE',  ( -0.2499999999999997780, 0.02499999999999995628, -0.2416666666666665575 ) ) ;
#166 = CARTESIAN_POINT ( 'NONE',  ( 0.4999999999999997780, 0.5600000000000000533, 0.2249999999999999500 ) ) ;
#167 = SHAPE_DEFINITION_REPRESENTATION ( #70, #643 ) ;
#168 = DIRECTION ( 'NONE',  ( 0.0000000000000000000, 1.000000000000000000, 0.0000000000000000000 ) ) ;
#169 = CIRCLE ( 'NONE', #932, 0.02500000000000001180 ) ;
#170 = CARTESIAN_POINT ( 'NONE',  ( -0.4749999999999998668, 0.0000000000000000000, 2.059984127722458918E-16 ) ) ;
#171 = EDGE_LOOP ( 'NONE', ( #490, #614, #337 ) ) ;
#172 = VERTEX_POINT ( 'NONE', #810 ) ;
#173 = ORIENTED_EDGE ( 'NONE', *, *, #1173, .F. ) ;
#174 = EDGE_CURVE ( 'NONE', #13, #1105, #456, .T. ) ;
#175 = DIRECTION ( 'NONE',  ( -1.000000000000000000, 0.0000000000000000000, 4.336808689942019215E-16 ) ) ;
#176 = VERTEX_POINT ( 'NONE', #308 ) ;
#177 = ORIENTED_EDGE ( 'NONE', *, *, #1133, .F. ) ;
#178 = AXIS2_PLACEMENT_3D ( 'NONE', #589, #784, #575 ) ;
#179 = DIRECTION ( 'NONE',  ( 1.000000000000000000, -0.0000000000000000000, -1.084202172485504681E-16 ) ) ;
#180 = DIRECTION ( 'NONE',  ( -0.0000000000000000000, -0.0000000000000000000, -1.000000000000000000 ) ) ;
#181 = CARTESIAN_POINT ( 'NONE',  ( 0.4749999999999997558, 0.5350000000000001421, 0.2249999999999999500 ) ) ;
#182 = SURFACE_STYLE_USAGE ( .BOTH. , #286 ) ;
#183 = LINE ( 'NONE', #1218, #394 ) ;
#184 = AXIS2_PLACEMENT_3D ( 'NONE', #1151, #677, #544 ) ;
#185 = LINE ( 'NONE', #750, #783 ) ;
#186 = CARTESIAN_POINT ( 'NONE',  ( 0.2499999999940882844, 0.5516666666666667496, -0.2250000000000000056 ) ) ;
#187 = CARTESIAN_POINT ( 'NONE',  ( -0.4749999999999999778, 0.02500000000000000139, -0.2249999999999998945 ) ) ;
#188 = VECTOR ( 'NONE', #1235, 1000.000000000000000 ) ;
#189 = ORIENTED_EDGE ( 'NONE', *, *, #890, .T. ) ;
#190 = CYLINDRICAL_SURFACE ( 'NONE', #35, 0.02500000000000001180 ) ;
#191 = ORIENTED_EDGE ( 'NONE', *, *, #500, .F. ) ;
#192 = DIRECTION ( 'NONE',  ( 1.000000000000000000, 0.0000000000000000000, 1.084202172485504681E-16 ) ) ;
#193 = VERTEX_POINT ( 'NONE', #911 ) ;
#194 = DIRECTION ( 'NONE',  ( -1.000000000000000000, 0.0000000000000000000, 0.0000000000000000000 ) ) ;
#195 = DIRECTION ( 'NONE',  ( 0.0000000000000000000, 0.0000000000000000000, -1.000000000000000000 ) ) ;
#196 = AXIS2_PLACEMENT_3D ( 'NONE', #570, #769, #668 ) ;
#197 = CARTESIAN_POINT ( 'NONE',  ( -0.2499999999999998335, 0.0000000000000000000, -0.2249999999999999500 ) ) ;
#198 = EDGE_CURVE ( 'NONE', #1119, #432, #331, .T. ) ;
#199 = AXIS2_PLACEMENT_3D ( 'NONE', #501, #1184, #406 ) ;
#200 = VECTOR ( 'NONE', #975, 1000.000000000000000 ) ;
#201 = DIRECTION ( 'NONE',  ( -0.0000000000000000000, 1.000000000000000000, 0.0000000000000000000 ) ) ;
#202 = VECTOR ( 'NONE', #133, 1000.000000000000000 ) ;
#203 = AXIS2_PLACEMENT_3D ( 'NONE', #762, #180, #1046 ) ;
#204 = ORIENTED_EDGE ( 'NONE', *, *, #669, .F. ) ;
#205 = CARTESIAN_POINT ( 'NONE',  ( -0.5000000000000000000, 0.5600000000000000533, -0.2249999999999998945 ) ) ;
#206 = CARTESIAN_POINT ( 'NONE',  ( -0.2499999999999997780, 0.5350000000000001421, 0.2499999999999999445 ) ) ;
#207 = ORIENTED_EDGE ( 'NONE', *, *, #542, .T. ) ;
#208 = ORIENTED_EDGE ( 'NONE', *, *, #564, .T. ) ;
#209 = DIRECTION ( 'NONE',  ( 0.0000000000000000000, 0.0000000000000000000, -1.000000000000000000 ) ) ;
#210 = ORIENTED_EDGE ( 'NONE', *, *, #908, .T. ) ;
#211 = DIRECTION ( 'NONE',  ( 1.000000000000000000, 0.0000000000000000000, -8.673617379884036705E-17 ) ) ;
#212 = CARTESIAN_POINT ( 'NONE',  ( 0.2499999999999998335, 0.5600000000000000533, -0.2499999999999999445 ) ) ;
#213 = MECHANICAL_DESIGN_GEOMETRIC_PRESENTATION_REPRESENTATION (  '', ( #1116 ), #300 ) ;
#214 = CARTESIAN_POINT ( 'NONE',  ( 0.4999999999999997780, 0.02499999999999995628, 0.2499999999999999445 ) ) ;
#215 = CIRCLE ( 'NONE', #658, 0.02500000000000001180 ) ;
#216 = CARTESIAN_POINT ( 'NONE',  ( 0.4749999999999999778, 0.02499999999999995628, -0.2249999999999998945 ) ) ;
#217 = DIRECTION ( 'NONE',  ( 1.000000000000000000, 0.0000000000000000000, -4.336808689942019708E-16 ) ) ;
#218 = CIRCLE ( 'NONE', #547, 0.02500000000000001180 ) ;
#219 = CYLINDRICAL_SURFACE ( 'NONE', #1135, 0.02500000000000001180 ) ;
#220 = VERTEX_POINT ( 'NONE', #16 ) ;
#221 = EDGE_LOOP ( 'NONE', ( #1081, #981, #728, #1058 ) ) ;
#222 = CARTESIAN_POINT ( 'NONE',  ( -0.4999999999999997780, 0.02499999999999995628, 0.2249999999999999500 ) ) ;
#223 = ORIENTED_EDGE ( 'NONE', *, *, #22, .F. ) ;
#224 = ORIENTED_EDGE ( 'NONE', *, *, #325, .T. ) ;
#225 = EDGE_CURVE ( 'NONE', #295, #1043, #1140, .T. ) ;
#226 = CARTESIAN_POINT ( 'NONE',  ( 0.2499999999999998335, 0.5350000000000001421, -0.2249999999999999500 ) ) ;
#227 = AXIS2_PLACEMENT_3D ( 'NONE', #991, #905, #1187 ) ;
#228 = DIRECTION ( 'NONE',  ( 0.0000000000000000000, 0.0000000000000000000, 1.000000000000000000 ) ) ;
#229 = ADVANCED_FACE ( 'NONE', ( #802 ), #324, .F. ) ;
#230 = DIRECTION ( 'NONE',  ( 0.0000000000000000000, -1.000000000000000000, 0.0000000000000000000 ) ) ;
#231 = PRESENTATION_STYLE_ASSIGNMENT (( #768 ) ) ;
#232 = VERTEX_POINT ( 'NONE', #1198 ) ;
#233 = FACE_OUTER_BOUND ( 'NONE', #1275, .T. ) ;
#234 = PRESENTATION_LAYER_ASSIGNMENT (  '', '', ( #1089 ) ) ;
#235 = VERTEX_POINT ( 'NONE', #313 ) ;
#236 = CIRCLE ( 'NONE', #856, 0.01666666666666662133 ) ;
#237 = ORIENTED_EDGE ( 'NONE', *, *, #611, .T. ) ;
#238 = ORIENTED_EDGE ( 'NONE', *, *, #51, .T. ) ;
#239 = PLANE ( 'NONE',  #558 ) ;
#240 = EDGE_CURVE ( 'NONE', #36, #901, #427, .T. ) ;
#241 = PRESENTATION_LAYER_ASSIGNMENT (  '', '', ( #1116 ) ) ;
#242 = DIRECTION ( 'NONE',  ( 4.336808689942019708E-16, 0.0000000000000000000, -1.000000000000000000 ) ) ;
#243 = VECTOR ( 'NONE', #877, 1000.000000000000000 ) ;
#244 = MANIFOLD_SOLID_BREP ( 'Mirror2', #704 ) ;
#245 = FACE_OUTER_BOUND ( 'NONE', #1118, .T. ) ;
#246 = DIRECTION ( 'NONE',  ( 0.0000000000000000000, 0.0000000000000000000, 1.000000000000000000 ) ) ;
#247 = DIRECTION ( 'NONE',  ( 0.0000000000000000000, 0.0000000000000000000, -1.000000000000000000 ) ) ;
#248 = LINE ( 'NONE', #549, #754 ) ;
#249 = ADVANCED_FACE ( 'NONE', ( #302 ), #661, .T. ) ;
#250 = EDGE_CURVE ( 'NONE', #163, #1062, #645, .T. ) ;
#251 = ORIENTED_EDGE ( 'NONE', *, *, #259, .F. ) ;
#252 = ORIENTED_EDGE ( 'NONE', *, *, #1114, .F. ) ;
#253 = ORIENTED_EDGE ( 'NONE', *, *, #654, .T. ) ;
#254 = DIRECTION ( 'NONE',  ( 1.000000000000000000, 0.0000000000000000000, 0.0000000000000000000 ) ) ;
#255 = CARTESIAN_POINT ( 'NONE',  ( -0.2499999999999997780, 0.5600000000000000533, 0.2499999999999999445 ) ) ;
#256 = LINE ( 'NONE', #122, #1150 ) ;
#257 = CARTESIAN_POINT ( 'NONE',  ( -0.2499999999999997780, 0.02499999999999995628, 0.2249999999999999500 ) ) ;
#258 = LINE ( 'NONE', #980, #874 ) ;
#259 = EDGE_CURVE ( 'NONE', #901, #808, #399, .T. ) ;
#260 = ORIENTED_EDGE ( 'NONE', *, *, #1074, .T. ) ;
#261 = EDGE_LOOP ( 'NONE', ( #774, #31, #755, #115 ) ) ;
#262 = CIRCLE ( 'NONE', #1246, 0.02500000000000001180 ) ;
#263 = MECHANICAL_DESIGN_GEOMETRIC_PRESENTATION_REPRESENTATION (  '', ( #956 ), #454 ) ;
#264 = ORIENTED_EDGE ( 'NONE', *, *, #1086, .F. ) ;
#265 = DIRECTION ( 'NONE',  ( 0.0000000000000000000, 0.0000000000000000000, 1.000000000000000000 ) ) ;
#266 = AXIS2_PLACEMENT_3D ( 'NONE', #395, #106, #385 ) ;
#267 = CARTESIAN_POINT ( 'NONE',  ( 0.4749999999999997558, 0.5600000000000000533, 0.2499999999999999445 ) ) ;
#268 = EDGE_CURVE ( 'NONE', #721, #78, #1040, .T. ) ;
#269 = PRODUCT_DEFINITION_CONTEXT ( 'detailed design', #686, 'design' ) ;
#270 = PRESENTATION_LAYER_ASSIGNMENT (  '', '', ( #956 ) ) ;
#271 = SPHERICAL_SURFACE ( 'NONE', #804, 0.02500000000000000139 ) ;
#272 = DIRECTION ( 'NONE',  ( -1.084202172485504681E-16, -0.0000000000000000000, -1.000000000000000000 ) ) ;
#273 = CIRCLE ( 'NONE', #422, 0.02500000000000001180 ) ;
#274 = VECTOR ( 'NONE', #72, 1000.000000000000000 ) ;
#275 = ORIENTED_EDGE ( 'NONE', *, *, #143, .T. ) ;
#276 = DIRECTION ( 'NONE',  ( 0.0000000000000000000, -1.000000000000000000, 0.0000000000000000000 ) ) ;
#277 = EDGE_LOOP ( 'NONE', ( #566, #522, #1261, #662 ) ) ;
#278 = DIRECTION ( 'NONE',  ( 4.336808689942019708E-16, -0.0000000000000000000, 1.000000000000000000 ) ) ;
#279 = ORIENTED_EDGE ( 'NONE', *, *, #309, .F. ) ;
#280 = DIRECTION ( 'NONE',  ( 0.0000000000000000000, -1.000000000000000000, -0.0000000000000000000 ) ) ;
#281 = CARTESIAN_POINT ( 'NONE',  ( 0.2499999999999997780, 0.5350000000000001421, 0.2499999999999999445 ) ) ;
#282 = DIRECTION ( 'NONE',  ( 0.0000000000000000000, 0.0000000000000000000, -1.000000000000000000 ) ) ;
#283 = CARTESIAN_POINT ( 'NONE',  ( -0.2499999999999997780, 0.5350000000000001421, -0.2249999999999999500 ) ) ;
#284 = AXIS2_PLACEMENT_3D ( 'NONE', #480, #100, #578 ) ;
#285 = FACE_OUTER_BOUND ( 'NONE', #17, .T. ) ;
#286 = SURFACE_SIDE_STYLE ('',( #561 ) ) ;
#287 = ADVANCED_FACE ( 'NONE', ( #595 ), #239, .F. ) ;
#288 = EDGE_LOOP ( 'NONE', ( #625, #958, #223, #159, #129, #627, #1000, #1240 ) ) ;
#289 = CYLINDRICAL_SURFACE ( 'NONE', #588, 0.02500000000000001180 ) ;
#290 = CARTESIAN_POINT ( 'NONE',  ( -0.2499999999999998335, 0.5350000000000001421, -0.2499999999999999445 ) ) ;
#291 = ORIENTED_EDGE ( 'NONE', *, *, #1008, .T. ) ;
#292 = ORIENTED_EDGE ( 'NONE', *, *, #225, .F. ) ;
#293 = VERTEX_POINT ( 'NONE', #924 ) ;
#294 = DIRECTION ( 'NONE',  ( -0.0000000000000000000, 1.000000000000000000, -0.0000000000000000000 ) ) ;
#295 = VERTEX_POINT ( 'NONE', #329 ) ;
#296 = PLANE ( 'NONE',  #18 ) ;
#297 = CARTESIAN_POINT ( 'NONE',  ( 0.4749999999999999778, 0.02500000000000000139, -0.2249999999999998945 ) ) ;
#298 = EDGE_CURVE ( 'NONE', #432, #293, #44, .T. ) ;
#299 = CARTESIAN_POINT ( 'NONE',  ( -0.5000000000000000000, 0.5600000000000000533, -0.2499999999999998890 ) ) ;
#300 =( GEOMETRIC_REPRESENTATION_CONTEXT ( 3 ) GLOBAL_UNCERTAINTY_ASSIGNED_CONTEXT ( ( #11 ) ) GLOBAL_UNIT_ASSIGNED_CONTEXT ( ( #310, #410, #1112 ) ) REPRESENTATION_CONTEXT ( 'NONE', 'WORKASPACE' ) );
#301 = CYLINDRICAL_SURFACE ( 'NONE', #486, 0.02500000000000001180 ) ;
#302 = FACE_OUTER_BOUND ( 'NONE', #97, .T. ) ;
#303 = CARTESIAN_POINT ( 'NONE',  ( -0.4749999999999999778, 0.02499999999999995628, -0.2249999999999998945 ) ) ;
#304 = ORIENTED_EDGE ( 'NONE', *, *, #1214, .F. ) ;
#305 = ORIENTED_EDGE ( 'NONE', *, *, #66, .T. ) ;
#306 = DIRECTION ( 'NONE',  ( 0.0000000000000000000, 0.0000000000000000000, -1.000000000000000000 ) ) ;
#307 = ORIENTED_EDGE ( 'NONE', *, *, #73, .F. ) ;
#308 = CARTESIAN_POINT ( 'NONE',  ( -0.2499999999999997780, 0.5600000000000000533, 0.2249999999999999500 ) ) ;
#309 = EDGE_CURVE ( 'NONE', #140, #471, #76, .T. ) ;
#310 =( LENGTH_UNIT ( ) NAMED_UNIT ( * ) SI_UNIT ( .MILLI., .METRE. ) );
#311 = DIRECTION ( 'NONE',  ( -1.000000000000000000, 0.0000000000000000000, 0.0000000000000000000 ) ) ;
#312 = DIRECTION ( 'NONE',  ( 0.0000000000000000000, 0.0000000000000000000, 1.000000000000000000 ) ) ;
#313 = CARTESIAN_POINT ( 'NONE',  ( 0.4749999999999999778, 0.5350000000000001421, -0.2499999999999998890 ) ) ;
#314 = DIRECTION ( 'NONE',  ( 0.0000000000000000000, 0.0000000000000000000, -1.000000000000000000 ) ) ;
#315 = LINE ( 'NONE', #1134, #1117 ) ;
#316 = VECTOR ( 'NONE', #272, 1000.000000000000000 ) ;
#317 = CARTESIAN_POINT ( 'NONE',  ( 500000.0000000000582, 0.008333333333333333218, 0.2249999999566318354 ) ) ;
#318 = ORIENTED_EDGE ( 'NONE', *, *, #840, .F. ) ;
#319 = FACE_OUTER_BOUND ( 'NONE', #171, .T. ) ;
#320 = AXIS2_PLACEMENT_3D ( 'NONE', #103, #793, #1161 ) ;
#321 = EDGE_LOOP ( 'NONE', ( #79, #260, #926 ) ) ;
#322 = ORIENTED_EDGE ( 'NONE', *, *, #51, .F. ) ;
#323 = ORIENTED_EDGE ( 'NONE', *, *, #656, .T. ) ;
#324 = PLANE ( 'NONE',  #199 ) ;
#325 = EDGE_CURVE ( 'NONE', #703, #915, #1093, .T. ) ;
#326 = EDGE_CURVE ( 'NONE', #1174, #163, #142, .T. ) ;
#327 = CARTESIAN_POINT ( 'NONE',  ( -0.4999999999999997780, 0.5350000000000001421, 0.2499999999999999445 ) ) ;
#328 = AXIS2_PLACEMENT_3D ( 'NONE', #346, #434, #1024 ) ;
#329 = CARTESIAN_POINT ( 'NONE',  ( 0.2499999999940882844, 0.008333333333333296788, 0.2249999999999998945 ) ) ;
#330 = FACE_OUTER_BOUND ( 'NONE', #221, .T. ) ;
#331 = LINE ( 'NONE', #1188, #29 ) ;
#332 = EDGE_CURVE ( 'NONE', #821, #1039, #1025, .T. ) ;
#333 = ORIENTED_EDGE ( 'NONE', *, *, #699, .F. ) ;
#334 = CYLINDRICAL_SURFACE ( 'NONE', #495, 0.02500000000000001180 ) ;
#335 = DIRECTION ( 'NONE',  ( -1.084202172485504681E-16, -0.0000000000000000000, -1.000000000000000000 ) ) ;
#336 = VERTEX_POINT ( 'NONE', #951 ) ;
#337 = ORIENTED_EDGE ( 'NONE', *, *, #1239, .F. ) ;
#338 = CARTESIAN_POINT ( 'NONE',  ( 0.4749999999999999778, 0.5350000000000001421, -0.2249999999999998945 ) ) ;
#339 = CARTESIAN_POINT ( 'NONE',  ( -0.2499999999999997780, 0.5350000000000001421, 0.2416666666666666130 ) ) ;
#340 = LINE ( 'NONE', #470, #243 ) ;
#341 = FACE_OUTER_BOUND ( 'NONE', #398, .T. ) ;
#342 = EDGE_CURVE ( 'NONE', #46, #176, #879, .T. ) ;
#343 = CARTESIAN_POINT ( 'NONE',  ( 500000.0000000000582, 0.02499999999999995628, -0.2416666667100346721 ) ) ;
#344 = LINE ( 'NONE', #369, #657 ) ;
#345 = EDGE_CURVE ( 'NONE', #1230, #172, #1209, .T. ) ;
#346 = CARTESIAN_POINT ( 'NONE',  ( -0.4749999999999999778, 0.02500000000000000139, -0.2249999999999998945 ) ) ;
#347 = ORIENTED_EDGE ( 'NONE', *, *, #69, .F. ) ;
#348 = VECTOR ( 'NONE', #942, 1000.000000000000000 ) ;
#349 = ORIENTED_EDGE ( 'NONE', *, *, #929, .F. ) ;
#350 = ORIENTED_EDGE ( 'NONE', *, *, #920, .T. ) ;
#351 = AXIS2_PLACEMENT_3D ( 'NONE', #497, #702, #807 ) ;
#352 = EDGE_LOOP ( 'NONE', ( #291, #718, #318, #173 ) ) ;
#353 = CARTESIAN_POINT ( 'NONE',  ( -0.4749999999999997558, 0.5600000000000000533, 0.2249999999999999500 ) ) ;
#354 = CARTESIAN_POINT ( 'NONE',  ( -0.4749999999999997558, 0.5350000000000001421, 0.2249999999999999500 ) ) ;
#355 = EDGE_CURVE ( 'NONE', #732, #235, #380, .T. ) ;
#356 = CYLINDRICAL_SURFACE ( 'NONE', #386, 0.02500000000000001180 ) ;
#357 = CIRCLE ( 'NONE', #1233, 0.02500000000000001180 ) ;
#358 = EDGE_CURVE ( 'NONE', #1062, #220, #613, .T. ) ;
#359 = ORIENTED_EDGE ( 'NONE', *, *, #772, .T. ) ;
#360 = CARTESIAN_POINT ( 'NONE',  ( -0.2499999999999997780, 0.5350000000000001421, 0.2249999999999999500 ) ) ;
#361 = VECTOR ( 'NONE', #513, 1000.000000000000000 ) ;
#362 = EDGE_LOOP ( 'NONE', ( #986, #565, #81, #743 ) ) ;
#363 = ORIENTED_EDGE ( 'NONE', *, *, #987, .T. ) ;
#364 = AXIS2_PLACEMENT_3D ( 'NONE', #360, #653, #67 ) ;
#365 = VERTEX_POINT ( 'NONE', #647 ) ;
#366 = DIRECTION ( 'NONE',  ( 1.000000000000000000, 0.0000000000000000000, 0.0000000000000000000 ) ) ;
#367 = EDGE_CURVE ( 'NONE', #1174, #476, #580, .T. ) ;
#368 = DIRECTION ( 'NONE',  ( 0.0000000000000000000, 1.000000000000000000, 0.0000000000000000000 ) ) ;
#369 = CARTESIAN_POINT ( 'NONE',  ( 0.2499999999999998335, 0.5600000000000000533, -0.2499999999999999445 ) ) ;
#370 = AXIS2_PLACEMENT_3D ( 'NONE', #303, #990, #1085 ) ;
#371 = PLANE ( 'NONE',  #184 ) ;
#372 = CIRCLE ( 'NONE', #733, 0.01666666666666667337 ) ;
#373 =( NAMED_UNIT ( * ) SI_UNIT ( $, .STERADIAN. ) SOLID_ANGLE_UNIT ( ) );
#374 = FILL_AREA_STYLE_COLOUR ( '', #1171 ) ;
#375 = ADVANCED_FACE ( 'NONE', ( #233 ), #946, .T. ) ;
#376 = CIRCLE ( 'NONE', #203, 0.02500000000000001180 ) ;
#377 = VECTOR ( 'NONE', #871, 1000.000000000000000 ) ;
#378 = ORIENTED_EDGE ( 'NONE', *, *, #1086, .T. ) ;
#379 = DIRECTION ( 'NONE',  ( -1.000000000000000000, 0.0000000000000000000, 0.0000000000000000000 ) ) ;
#380 = LINE ( 'NONE', #859, #128 ) ;
#381 = ORIENTED_EDGE ( 'NONE', *, *, #943, .T. ) ;
#382 = VERTEX_POINT ( 'NONE', #745 ) ;
#383 = DIRECTION ( 'NONE',  ( -1.000000000000000000, 0.0000000000000000000, 2.168404344971007635E-16 ) ) ;
#384 = ADVANCED_FACE ( 'NONE', ( #1128 ), #289, .T. ) ;
#385 = DIRECTION ( 'NONE',  ( 0.0000000000000000000, 0.0000000000000000000, 1.000000000000000000 ) ) ;
#386 = AXIS2_PLACEMENT_3D ( 'NONE', #418, #19, #404 ) ;
#387 = PLANE ( 'NONE',  #993 ) ;
#388 = DIRECTION ( 'NONE',  ( 0.0000000000000000000, 1.000000000000000000, 0.0000000000000000000 ) ) ;
#389 = DIRECTION ( 'NONE',  ( 0.0000000000000000000, 0.0000000000000000000, 1.000000000000000000 ) ) ;
#390 = ADVANCED_FACE ( 'NONE', ( #319 ), #517, .T. ) ;
#391 = AXIS2_PLACEMENT_3D ( 'NONE', #918, #124, #707 ) ;
#392 = CARTESIAN_POINT ( 'NONE',  ( 0.5000000000000000000, 0.5600000000000000533, -0.2499999999999998890 ) ) ;
#393 = AXIS2_PLACEMENT_3D ( 'NONE', #45, #842, #157 ) ;
#394 = VECTOR ( 'NONE', #1203, 1000.000000000000000 ) ;
#395 = CARTESIAN_POINT ( 'NONE',  ( 0.2499999999999997780, 0.02499999999999995628, 0.2249999999999999500 ) ) ;
#396 = CARTESIAN_POINT ( 'NONE',  ( -0.4749999999999999778, 0.5350000000000001421, -0.2499999999999998890 ) ) ;
#397 = CIRCLE ( 'NONE', #55, 0.02500000000000001180 ) ;
#398 = EDGE_LOOP ( 'NONE', ( #472, #922, #665, #862 ) ) ;
#399 = LINE ( 'NONE', #1211, #861 ) ;
#400 = ORIENTED_EDGE ( 'NONE', *, *, #631, .F. ) ;
#401 = COLOUR_RGB ( '',0.4862745098039215619, 0.2352941176470588203, 0.01568627450980392135 ) ;
#402 = CARTESIAN_POINT ( 'NONE',  ( 500000.0000000000582, 0.5350000000000001421, 0.2416666666232984984 ) ) ;
#403 = ORIENTED_EDGE ( 'NONE', *, *, #929, .T. ) ;
#404 = DIRECTION ( 'NONE',  ( 0.0000000000000000000, 0.0000000000000000000, -1.000000000000000000 ) ) ;
#405 = PLANE ( 'NONE',  #1205 ) ;
#406 = DIRECTION ( 'NONE',  ( 1.000000000000000000, 0.0000000000000000000, -8.673617379884035472E-17 ) ) ;
#407 = CARTESIAN_POINT ( 'NONE',  ( -0.2499999999999997780, 0.02499999999999995628, 0.2249999999999999500 ) ) ;
#408 = DIRECTION ( 'NONE',  ( -4.336808689942019708E-16, 0.0000000000000000000, -1.000000000000000000 ) ) ;
#409 = VECTOR ( 'NONE', #567, 1000.000000000000000 ) ;
#410 =( NAMED_UNIT ( * ) PLANE_ANGLE_UNIT ( ) SI_UNIT ( $, .RADIAN. ) );
#411 = FACE_OUTER_BOUND ( 'NONE', #428, .T. ) ;
#412 = LINE ( 'NONE', #1163, #469 ) ;
#413 = ORIENTED_EDGE ( 'NONE', *, *, #240, .F. ) ;
#414 = FACE_OUTER_BOUND ( 'NONE', #94, .T. ) ;
#415 = ORIENTED_EDGE ( 'NONE', *, *, #1186, .T. ) ;
#416 = CARTESIAN_POINT ( 'NONE',  ( -0.4749999999999999778, 0.5350000000000001421, -0.2249999999999998945 ) ) ;
#417 = ORIENTED_EDGE ( 'NONE', *, *, #1031, .T. ) ;
#418 = CARTESIAN_POINT ( 'NONE',  ( 0.4749999999999999778, 0.5600000000000000533, -0.2249999999999998945 ) ) ;
#419 = PLANE ( 'NONE',  #777 ) ;
#420 = ADVANCED_FACE ( 'NONE', ( #788 ), #560, .F. ) ;
#421 = DIRECTION ( 'NONE',  ( 0.0000000000000000000, 0.0000000000000000000, 1.000000000000000000 ) ) ;
#422 = AXIS2_PLACEMENT_3D ( 'NONE', #448, #1236, #652 ) ;
#423 = CYLINDRICAL_SURFACE ( 'NONE', #477, 0.01666666666666667337 ) ;
#424 = AXIS2_PLACEMENT_3D ( 'NONE', #848, #557, #944 ) ;
#425 = CYLINDRICAL_SURFACE ( 'NONE', #528, 0.02500000000000001180 ) ;
#426 = ORIENTED_EDGE ( 'NONE', *, *, #484, .T. ) ;
#427 = LINE ( 'NONE', #906, #1013 ) ;
#428 = EDGE_LOOP ( 'NONE', ( #940, #1212, #518, #938 ) ) ;
#429 = LINE ( 'NONE', #593, #899 ) ;
#430 = ORIENTED_EDGE ( 'NONE', *, *, #631, .T. ) ;
#431 = CARTESIAN_POINT ( 'NONE',  ( -4.878909776184766872E-17, 0.5350000000000001421, -0.2250000000000000056 ) ) ;
#432 = VERTEX_POINT ( 'NONE', #1245 ) ;
#433 = EDGE_CURVE ( 'NONE', #365, #703, #61, .T. ) ;
#434 = DIRECTION ( 'NONE',  ( 0.0000000000000000000, -0.0000000000000000000, -1.000000000000000000 ) ) ;
#435 = EDGE_CURVE ( 'NONE', #1105, #1039, #248, .T. ) ;
#436 = ADVANCED_FACE ( 'NONE', ( #156 ), #1073, .T. ) ;
#437 = DIRECTION ( 'NONE',  ( 0.0000000000000000000, 0.0000000000000000000, -1.000000000000000000 ) ) ;
#438 = LINE ( 'NONE', #1251, #503 ) ;
#439 = EDGE_CURVE ( 'NONE', #1075, #1119, #412, .T. ) ;
#440 = FACE_OUTER_BOUND ( 'NONE', #1227, .T. ) ;
#441 = CIRCLE ( 'NONE', #227, 0.02500000000000001180 ) ;
#442 = DIRECTION ( 'NONE',  ( 0.0000000000000000000, -1.000000000000000000, -0.0000000000000000000 ) ) ;
#443 = ORIENTED_EDGE ( 'NONE', *, *, #1074, .F. ) ;
#444 = CARTESIAN_POINT ( 'NONE',  ( -0.2499999999999997780, 0.02499999999999995628, -0.2249999999999999500 ) ) ;
#445 = VERTEX_POINT ( 'NONE', #1048 ) ;
#446 = ORIENTED_EDGE ( 'NONE', *, *, #539, .T. ) ;
#447 = CARTESIAN_POINT ( 'NONE',  ( 0.4749999999999999778, 0.5350000000000001421, -0.2249999999999998945 ) ) ;
#448 = CARTESIAN_POINT ( 'NONE',  ( -0.4749999999999999778, 0.02499999999999995628, -0.2249999999999998945 ) ) ;
#449 = CARTESIAN_POINT ( 'NONE',  ( 0.2499999999999997780, 0.5600000000000000533, 0.2499999999999999445 ) ) ;
#450 = CARTESIAN_POINT ( 'NONE',  ( 0.5000000000000000000, 0.02499999999999995628, -0.2249999999999998945 ) ) ;
#451 = FILL_AREA_STYLE_COLOUR ( '', #624 ) ;
#452 = DIRECTION ( 'NONE',  ( 0.0000000000000000000, 0.0000000000000000000, 1.000000000000000000 ) ) ;
#453 = LINE ( 'NONE', #605, #202 ) ;
#454 =( GEOMETRIC_REPRESENTATION_CONTEXT ( 3 ) GLOBAL_UNCERTAINTY_ASSIGNED_CONTEXT ( ( #1232 ) ) GLOBAL_UNIT_ASSIGNED_CONTEXT ( ( #779, #781, #373 ) ) REPRESENTATION_CONTEXT ( 'NONE', 'WORKASPACE' ) );
#455 = ORIENTED_EDGE ( 'NONE', *, *, #435, .F. ) ;
#456 = LINE ( 'NONE', #822, #1056 ) ;
#457 = EDGE_LOOP ( 'NONE', ( #1210, #792, #1181, #252, #189, #534, #726, #1144 ) ) ;
#458 = DIRECTION ( 'NONE',  ( -1.000000000000000000, -0.0000000000000000000, -0.0000000000000000000 ) ) ;
#459 = CARTESIAN_POINT ( 'NONE',  ( -0.2499999999999997780, 0.5600000000000000533, 0.2249999999999999500 ) ) ;
#460 = ORIENTED_EDGE ( 'NONE', *, *, #510, .F. ) ;
#461 = ORIENTED_EDGE ( 'NONE', *, *, #89, .F. ) ;
#462 = AXIS2_PLACEMENT_3D ( 'NONE', #863, #555, #265 ) ;
#463 = DIRECTION ( 'NONE',  ( 0.0000000000000000000, -1.000000000000000000, 0.0000000000000000000 ) ) ;
#464 = MANIFOLD_SOLID_BREP ( 'Fillet1', #644 ) ;
#465 = CYLINDRICAL_SURFACE ( 'NONE', #41, 0.02500000000000001180 ) ;
#466 = LINE ( 'NONE', #57, #108 ) ;
#467 = CARTESIAN_POINT ( 'NONE',  ( 0.2499999999940882844, 0.008333333333333333218, -0.2250000000000000056 ) ) ;
#468 = DIRECTION ( 'NONE',  ( -1.000000000000000000, 0.0000000000000000000, 0.0000000000000000000 ) ) ;
#469 = VECTOR ( 'NONE', #95, 1000.000000000000000 ) ;
#470 = CARTESIAN_POINT ( 'NONE',  ( -0.5000000000000000000, 0.02499999999999995628, -0.2499999999999998890 ) ) ;
#471 = VERTEX_POINT ( 'NONE', #197 ) ;
#472 = ORIENTED_EDGE ( 'NONE', *, *, #135, .T. ) ;
#473 = ORIENTED_EDGE ( 'NONE', *, *, #765, .F. ) ;
#474 = ADVANCED_FACE ( 'NONE', ( #1224 ), #569, .F. ) ;
#475 = DIRECTION ( 'NONE',  ( 1.000000000000000000, -0.0000000000000000000, -1.084202172485504681E-16 ) ) ;
#476 = VERTEX_POINT ( 'NONE', #1127 ) ;
#477 = AXIS2_PLACEMENT_3D ( 'NONE', #1072, #581, #1267 ) ;
#478 = DIRECTION ( 'NONE',  ( 1.000000000000000000, 0.0000000000000000000, 0.0000000000000000000 ) ) ;
#479 =( NAMED_UNIT ( * ) PLANE_ANGLE_UNIT ( ) SI_UNIT ( $, .RADIAN. ) );
#480 = CARTESIAN_POINT ( 'NONE',  ( -0.5000000000000000000, 0.5600000000000000533, -0.2499999999999998890 ) ) ;
#481 = CARTESIAN_POINT ( 'NONE',  ( -0.4749999999999997558, 0.5350000000000001421, 0.2249999999999999500 ) ) ;
#482 = CARTESIAN_POINT ( 'NONE',  ( -0.2499999999999998335, 0.5600000000000000533, -0.2499999999999999445 ) ) ;
#483 = ADVANCED_FACE ( 'NONE', ( #1207 ), #425, .T. ) ;
#484 = EDGE_CURVE ( 'NONE', #1260, #193, #545, .T. ) ;
#485 = SURFACE_STYLE_USAGE ( .BOTH. , #112 ) ;
#486 = AXIS2_PLACEMENT_3D ( 'NONE', #722, #813, #306 ) ;
#487 = FACE_OUTER_BOUND ( 'NONE', #288, .T. ) ;
#488 = CLOSED_SHELL ( 'NONE', ( #375, #782, #229, #39, #1206, #1067, #791, #1200, #797, #436 ) ) ;
#489 = DIRECTION ( 'NONE',  ( -1.000000000000000000, 0.0000000000000000000, -2.168404344971007635E-16 ) ) ;
#490 = ORIENTED_EDGE ( 'NONE', *, *, #734, .T. ) ;
#491 = CIRCLE ( 'NONE', #109, 0.02500000000000001180 ) ;
#492 = DIRECTION ( 'NONE',  ( 1.084202172485504681E-16, -0.0000000000000000000, -1.000000000000000000 ) ) ;
#493 = ORIENTED_EDGE ( 'NONE', *, *, #22, .T. ) ;
#494 = CARTESIAN_POINT ( 'NONE',  ( 0.2499999999999998335, 0.0000000000000000000, -0.2249999999999999500 ) ) ;
#495 = AXIS2_PLACEMENT_3D ( 'NONE', #989, #1158, #209 ) ;
#496 = CARTESIAN_POINT ( 'NONE',  ( 0.2499999999999998335, 0.5350000000000001421, -0.2499999999999999445 ) ) ;
#497 = CARTESIAN_POINT ( 'NONE',  ( -0.4749999999999997558, 0.5350000000000001421, 0.2249999999999999500 ) ) ;
#498 = ADVANCED_FACE ( 'NONE', ( #27 ), #505, .T. ) ;
#499 = DIRECTION ( 'NONE',  ( -8.673617379884035472E-17, -5.314716531791687085E-17, -1.000000000000000000 ) ) ;
#500 = EDGE_CURVE ( 'NONE', #1208, #915, #1254, .T. ) ;
#501 = CARTESIAN_POINT ( 'NONE',  ( 500000.0000000000582, 0.02499999999999995975, -0.2416666667100346999 ) ) ;
#502 = ADVANCED_FACE ( 'NONE', ( #1153 ), #817, .T. ) ;
#503 = VECTOR ( 'NONE', #278, 1000.000000000000000 ) ;
#504 = LINE ( 'NONE', #931, #1192 ) ;
#505 = SPHERICAL_SURFACE ( 'NONE', #1160, 0.02500000000000000139 ) ;
#506 = EDGE_CURVE ( 'NONE', #220, #1174, #725, .T. ) ;
#507 = ORIENTED_EDGE ( 'NONE', *, *, #616, .T. ) ;
#508 = PLANE ( 'NONE',  #1084 ) ;
#509 = EDGE_LOOP ( 'NONE', ( #847, #1094, #789, #790 ) ) ;
#510 = EDGE_CURVE ( 'NONE', #13, #46, #169, .T. ) ;
#511 = ORIENTED_EDGE ( 'NONE', *, *, #1252, .F. ) ;
#512 = ADVANCED_FACE ( 'NONE', ( #738 ), #642, .T. ) ;
#513 = DIRECTION ( 'NONE',  ( -1.000000000000000000, -0.0000000000000000000, 8.673617379884035472E-17 ) ) ;
#514 = CYLINDRICAL_SURFACE ( 'NONE', #720, 0.02500000000000001180 ) ;
#515 = VECTOR ( 'NONE', #294, 1000.000000000000000 ) ;
#516 = ORIENTED_EDGE ( 'NONE', *, *, #669, .T. ) ;
#517 = SPHERICAL_SURFACE ( 'NONE', #893, 0.02500000000000000139 ) ;
#518 = ORIENTED_EDGE ( 'NONE', *, *, #198, .T. ) ;
#519 = ORIENTED_EDGE ( 'NONE', *, *, #161, .F. ) ;
#520 = CARTESIAN_POINT ( 'NONE',  ( 0.2499999999940882844, 0.5350000000000001421, -0.2416666666666666408 ) ) ;
#521 = ORIENTED_EDGE ( 'NONE', *, *, #564, .F. ) ;
#522 = ORIENTED_EDGE ( 'NONE', *, *, #358, .T. ) ;
#523 = AXIS2_PLACEMENT_3D ( 'NONE', #1137, #1241, #855 ) ;
#524 = AXIS2_PLACEMENT_3D ( 'NONE', #705, #604, #1096 ) ;
#525 = EDGE_CURVE ( 'NONE', #127, #1182, #610, .T. ) ;
#526 = DIRECTION ( 'NONE',  ( -1.000000000000000000, 0.0000000000000000000, 0.0000000000000000000 ) ) ;
#527 = DIRECTION ( 'NONE',  ( -0.0000000000000000000, -0.0000000000000000000, 1.000000000000000000 ) ) ;
#528 = AXIS2_PLACEMENT_3D ( 'NONE', #763, #366, #1146 ) ;
#529 = LINE ( 'NONE', #212, #576 ) ;
#530 = DIRECTION ( 'NONE',  ( 0.0000000000000000000, -0.0000000000000000000, 1.000000000000000000 ) ) ;
#531 = ORIENTED_EDGE ( 'NONE', *, *, #1114, .T. ) ;
#532 = EDGE_LOOP ( 'NONE', ( #832, #852, #969, #697 ) ) ;
#533 = CARTESIAN_POINT ( 'NONE',  ( 0.5000000000000000000, 0.5600000000000000533, -0.2249999999999998945 ) ) ;
#534 = ORIENTED_EDGE ( 'NONE', *, *, #135, .F. ) ;
#535 = CARTESIAN_POINT ( 'NONE',  ( 0.4749999999999997558, 0.5350000000000001421, 0.2249999999999999500 ) ) ;
#536 = PRODUCT_DEFINITION_FORMATION_WITH_SPECIFIED_SOURCE ( 'ANY', '', #8, .NOT_KNOWN. ) ;
#537 = CARTESIAN_POINT ( 'NONE',  ( 500000.0000000000582, 0.5516666666666667496, 0.2249999999566318354 ) ) ;
#538 = DIRECTION ( 'NONE',  ( 0.0000000000000000000, 0.0000000000000000000, 1.000000000000000000 ) ) ;
#539 = EDGE_CURVE ( 'NONE', #127, #295, #715, .T. ) ;
#540 = CARTESIAN_POINT ( 'NONE',  ( -0.4749999999999998668, 0.5350000000000001421, 2.059984127722458918E-16 ) ) ;
#541 = CARTESIAN_POINT ( 'NONE',  ( 500000.0000000000582, 0.02499999999999995628, -0.2250000000433680647 ) ) ;
#542 = EDGE_CURVE ( 'NONE', #1256, #471, #1271, .T. ) ;
#543 = VECTOR ( 'NONE', #744, 1000.000000000000000 ) ;
#544 = DIRECTION ( 'NONE',  ( -1.084202172485504681E-16, 0.0000000000000000000, 1.000000000000000000 ) ) ;
#545 = LINE ( 'NONE', #670, #876 ) ;
#546 = DIRECTION ( 'NONE',  ( 0.0000000000000000000, 1.000000000000000000, 0.0000000000000000000 ) ) ;
#547 = AXIS2_PLACEMENT_3D ( 'NONE', #839, #442, #1054 ) ;
#548 = ORIENTED_EDGE ( 'NONE', *, *, #1080, .F. ) ;
#549 = CARTESIAN_POINT ( 'NONE',  ( -0.4999999999999997780, 0.02499999999999995628, 0.2499999999999999445 ) ) ;
#550 = VECTOR ( 'NONE', #1123, 1000.000000000000000 ) ;
#551 = DIRECTION ( 'NONE',  ( -1.000000000000000000, -0.0000000000000000000, 8.673617379884035472E-17 ) ) ;
#552 = ORIENTED_EDGE ( 'NONE', *, *, #332, .T. ) ;
#553 = EDGE_LOOP ( 'NONE', ( #253, #333, #1280, #548 ) ) ;
#554 = EDGE_LOOP ( 'NONE', ( #823, #1273, #1016, #895 ) ) ;
#555 = DIRECTION ( 'NONE',  ( -1.000000000000000000, -0.0000000000000000000, 8.673617379884035472E-17 ) ) ;
#556 = ORIENTED_EDGE ( 'NONE', *, *, #174, .F. ) ;
#557 = DIRECTION ( 'NONE',  ( 1.000000000000000000, 0.0000000000000000000, 1.084202172485504681E-16 ) ) ;
#558 = AXIS2_PLACEMENT_3D ( 'NONE', #149, #40, #246 ) ;
#559 = DIRECTION ( 'NONE',  ( 0.0000000000000000000, 0.0000000000000000000, -1.000000000000000000 ) ) ;
#560 = PLANE ( 'NONE',  #523 ) ;
#561 = SURFACE_STYLE_FILL_AREA ( #1066 ) ;
#562 = DIRECTION ( 'NONE',  ( 0.0000000000000000000, 0.0000000000000000000, -1.000000000000000000 ) ) ;
#563 = FACE_OUTER_BOUND ( 'NONE', #362, .T. ) ;
#564 = EDGE_CURVE ( 'NONE', #176, #821, #441, .T. ) ;
#565 = ORIENTED_EDGE ( 'NONE', *, *, #1202, .F. ) ;
#566 = ORIENTED_EDGE ( 'NONE', *, *, #250, .T. ) ;
#567 = DIRECTION ( 'NONE',  ( 1.000000000000000000, -0.0000000000000000000, -0.0000000000000000000 ) ) ;
#568 = CARTESIAN_POINT ( 'NONE',  ( 0.0000000000000000000, 0.5600000000000000533, 0.0000000000000000000 ) ) ;
#569 = PLANE ( 'NONE',  #1189 ) ;
#570 = CARTESIAN_POINT ( 'NONE',  ( -0.4749999999999997558, 0.5350000000000001421, 0.2249999999999999500 ) ) ;
#571 = EDGE_CURVE ( 'NONE', #232, #1042, #344, .T. ) ;
#572 = AXIS2_PLACEMENT_3D ( 'NONE', #297, #107, #1006 ) ;
#573 = CARTESIAN_POINT ( 'NONE',  ( 500000.0000000000582, 0.02499999999999995628, 0.2416666666232985261 ) ) ;
#574 = CARTESIAN_POINT ( 'NONE',  ( -0.2499999999999997780, 0.0000000000000000000, 0.2249999999999999500 ) ) ;
#575 = DIRECTION ( 'NONE',  ( -1.000000000000000000, 0.0000000000000000000, 0.0000000000000000000 ) ) ;
#576 = VECTOR ( 'NONE', #492, 1000.000000000000000 ) ;
#577 = DIRECTION ( 'NONE',  ( -1.000000000000000000, -0.0000000000000000000, -2.168404344971007635E-16 ) ) ;
#578 = DIRECTION ( 'NONE',  ( 1.000000000000000000, 0.0000000000000000000, -2.168404344971007635E-16 ) ) ;
#579 = ORIENTED_EDGE ( 'NONE', *, *, #818, .T. ) ;
#580 = CIRCLE ( 'NONE', #102, 0.02500000000000001180 ) ;
#581 = DIRECTION ( 'NONE',  ( -1.000000000000000000, -0.0000000000000000000, 8.673617379884035472E-17 ) ) ;
#582 = EDGE_LOOP ( 'NONE', ( #417, #1097, #615 ) ) ;
#583 = VERTEX_POINT ( 'NONE', #12 ) ;
#584 = CARTESIAN_POINT ( 'NONE',  ( 0.2499999999940882844, 0.5350000000000001421, 0.2249999999999998945 ) ) ;
#585 = ORIENTED_EDGE ( 'NONE', *, *, #1155, .T. ) ;
#586 = EDGE_CURVE ( 'NONE', #805, #336, #1104, .T. ) ;
#587 = CARTESIAN_POINT ( 'NONE',  ( 0.4749999999999999778, 0.5350000000000001421, -0.2249999999999998945 ) ) ;
#588 = AXIS2_PLACEMENT_3D ( 'NONE', #540, #641, #175 ) ;
#589 = CARTESIAN_POINT ( 'NONE',  ( 0.4749999999999997558, 0.5350000000000001421, 0.2249999999999999500 ) ) ;
#590 = AXIS2_PLACEMENT_3D ( 'NONE', #568, #368, #854 ) ;
#591 = CARTESIAN_POINT ( 'NONE',  ( -0.4749999999999997558, 0.02499999999999995628, 0.2499999999999999445 ) ) ;
#592 = DIRECTION ( 'NONE',  ( -5.762227209913173844E-33, -1.000000000000000000, 5.314716531791687085E-17 ) ) ;
#593 = CARTESIAN_POINT ( 'NONE',  ( 0.2499999999940882844, 0.02499999999999995975, -0.2416666666666666408 ) ) ;
#594 = CIRCLE ( 'NONE', #1102, 0.02500000000000001180 ) ;
#595 = FACE_OUTER_BOUND ( 'NONE', #1028, .T. ) ;
#596 = PLANE ( 'NONE',  #524 ) ;
#597 = ORIENTED_EDGE ( 'NONE', *, *, #749, .T. ) ;
#598 = VECTOR ( 'NONE', #335, 1000.000000000000000 ) ;
#599 = ADVANCED_FACE ( 'NONE', ( #995 ), #387, .F. ) ;
#600 = ORIENTED_EDGE ( 'NONE', *, *, #143, .F. ) ;
#601 = DIRECTION ( 'NONE',  ( 1.000000000000000000, -0.0000000000000000000, -0.0000000000000000000 ) ) ;
#602 = AXIS2_PLACEMENT_3D ( 'NONE', #587, #885, #379 ) ;
#603 = DIRECTION ( 'NONE',  ( -1.000000000000000000, 0.0000000000000000000, 0.0000000000000000000 ) ) ;
#604 = DIRECTION ( 'NONE',  ( 0.0000000000000000000, -1.000000000000000000, 0.0000000000000000000 ) ) ;
#605 = CARTESIAN_POINT ( 'NONE',  ( 4.878909776184766872E-17, 0.0000000000000000000, -0.2250000000000000056 ) ) ;
#606 = DIRECTION ( 'NONE',  ( 1.000000000000000000, 0.0000000000000000000, 1.084202172485504681E-16 ) ) ;
#607 = AXIS2_PLACEMENT_3D ( 'NONE', #1266, #962, #866 ) ;
#608 = LINE ( 'NONE', #170, #1021 ) ;
#609 = DIRECTION ( 'NONE',  ( -0.0000000000000000000, -1.000000000000000000, -0.0000000000000000000 ) ) ;
#610 = LINE ( 'NONE', #573, #377 ) ;
#611 = EDGE_CURVE ( 'NONE', #808, #48, #453, .T. ) ;
#612 = ORIENTED_EDGE ( 'NONE', *, *, #342, .F. ) ;
#613 = LINE ( 'NONE', #166, #348 ) ;
#614 = ORIENTED_EDGE ( 'NONE', *, *, #510, .T. ) ;
#615 = ORIENTED_EDGE ( 'NONE', *, *, #654, .F. ) ;
#616 = EDGE_CURVE ( 'NONE', #974, #32, #138, .T. ) ;
#617 = VERTEX_POINT ( 'NONE', #20 ) ;
#618 = DIRECTION ( 'NONE',  ( 0.0000000000000000000, 0.0000000000000000000, -1.000000000000000000 ) ) ;
#619 = AXIS2_PLACEMENT_3D ( 'NONE', #1264, #684, #62 ) ;
#620 = UNCERTAINTY_MEASURE_WITH_UNIT (LENGTH_MEASURE( 1.000000000000000082E-05 ), #688, 'distance_accuracy_value', 'NONE');
#621 = CARTESIAN_POINT ( 'NONE',  ( -4.878909776184766872E-17, 0.0000000000000000000, -0.2250000000000000056 ) ) ;
#622 = AXIS2_PLACEMENT_3D ( 'NONE', #47, #736, #937 ) ;
#623 = VECTOR ( 'NONE', #1270, 1000.000000000000000 ) ;
#624 = COLOUR_RGB ( '',0.7921568627450980005, 0.8196078431372548767, 0.9333333333333333481 ) ;
#625 = ORIENTED_EDGE ( 'NONE', *, *, #105, .F. ) ;
#626 = COLOUR_RGB ( '',0.7921568627450980005, 0.8196078431372548767, 0.9333333333333333481 ) ;
#627 = ORIENTED_EDGE ( 'NONE', *, *, #637, .F. ) ;
#628 = ORIENTED_EDGE ( 'NONE', *, *, #921, .F. ) ;
#629 = ADVANCED_FACE ( 'NONE', ( #785 ), #219, .T. ) ;
#630 = ORIENTED_EDGE ( 'NONE', *, *, #250, .F. ) ;
#631 = EDGE_CURVE ( 'NONE', #901, #1062, #1010, .T. ) ;
#632 = DIRECTION ( 'NONE',  ( -1.000000000000000000, 0.0000000000000000000, -0.0000000000000000000 ) ) ;
#633 = CARTESIAN_POINT ( 'NONE',  ( 0.0000000000000000000, 0.5350000000000001421, 0.2249999999999999500 ) ) ;
#634 = DIRECTION ( 'NONE',  ( -1.000000000000000000, 0.0000000000000000000, 0.0000000000000000000 ) ) ;
#635 = CARTESIAN_POINT ( 'NONE',  ( -0.5000000000000000000, 0.02499999999999995628, -0.2249999999999998945 ) ) ;
#636 = DIRECTION ( 'NONE',  ( 1.000000000000000000, 0.0000000000000000000, 2.168404344971007635E-16 ) ) ;
#637 = EDGE_CURVE ( 'NONE', #293, #1182, #1138, .T. ) ;
#638 = CYLINDRICAL_SURFACE ( 'NONE', #462, 0.01666666666666664562 ) ;
#639 = CARTESIAN_POINT ( 'NONE',  ( 0.4749999999999997558, 0.0000000000000000000, 0.2249999999999999500 ) ) ;
#640 = FACE_OUTER_BOUND ( 'NONE', #1014, .T. ) ;
#641 = DIRECTION ( 'NONE',  ( -4.336808689942019708E-16, 0.0000000000000000000, -1.000000000000000000 ) ) ;
#642 = SPHERICAL_SURFACE ( 'NONE', #867, 0.02500000000000000139 ) ;
#643 = ADVANCED_BREP_SHAPE_REPRESENTATION ( '04024D225MAT2A', ( #464, #244, #116, #607 ), #1199 ) ;
#644 = CLOSED_SHELL ( 'NONE', ( #599, #872, #1277, #696, #1020, #1109, #249, #883, #92, #390, #689, #894, #384, #902, #1170, #1100, #498, #928 ) ) ;
#645 = CIRCLE ( 'NONE', #622, 0.02500000000000001180 ) ;
#646 = VERTEX_POINT ( 'NONE', #1122 ) ;
#647 = CARTESIAN_POINT ( 'NONE',  ( 0.2499999999940882844, 0.02499999999999995628, -0.2416666666666666130 ) ) ;
#648 = ORIENTED_EDGE ( 'NONE', *, *, #358, .F. ) ;
#649 = DIRECTION ( 'NONE',  ( 0.0000000000000000000, 0.0000000000000000000, 1.000000000000000000 ) ) ;
#650 = ORIENTED_EDGE ( 'NONE', *, *, #815, .T. ) ;
#651 = DIRECTION ( 'NONE',  ( -1.084202172485504681E-16, 0.0000000000000000000, 1.000000000000000000 ) ) ;
#652 = DIRECTION ( 'NONE',  ( 0.0000000000000000000, 0.0000000000000000000, 1.000000000000000000 ) ) ;
#653 = DIRECTION ( 'NONE',  ( 1.000000000000000000, 0.0000000000000000000, -8.673617379884036705E-17 ) ) ;
#654 = EDGE_CURVE ( 'NONE', #110, #716, #59, .T. ) ;
#655 = DIRECTION ( 'NONE',  ( -0.0000000000000000000, -1.000000000000000000, -0.0000000000000000000 ) ) ;
#656 = EDGE_CURVE ( 'NONE', #974, #1027, #846, .T. ) ;
#657 = VECTOR ( 'NONE', #280, 1000.000000000000000 ) ;
#658 = AXIS2_PLACEMENT_3D ( 'NONE', #787, #85, #977 ) ;
#659 = EDGE_LOOP ( 'NONE', ( #207, #238, #1078, #323, #878, #208, #552, #516 ) ) ;
#660 = DIRECTION ( 'NONE',  ( 1.000000000000000000, 0.0000000000000000000, 0.0000000000000000000 ) ) ;
#661 = CYLINDRICAL_SURFACE ( 'NONE', #760, 0.02500000000000001180 ) ;
#662 = ORIENTED_EDGE ( 'NONE', *, *, #326, .T. ) ;
#663 = FACE_OUTER_BOUND ( 'NONE', #532, .T. ) ;
#664 = DIRECTION ( 'NONE',  ( -4.336808689942019708E-16, 0.0000000000000000000, -1.000000000000000000 ) ) ;
#665 = ORIENTED_EDGE ( 'NONE', *, *, #1047, .T. ) ;
#666 = EDGE_LOOP ( 'NONE', ( #403, #674, #473 ) ) ;
#667 = DIRECTION ( 'NONE',  ( 4.336808689942019708E-16, 0.0000000000000000000, -1.000000000000000000 ) ) ;
#668 = DIRECTION ( 'NONE',  ( 1.000000000000000000, 0.0000000000000000000, 0.0000000000000000000 ) ) ;
#669 = EDGE_CURVE ( 'NONE', #1039, #1256, #397, .T. ) ;
#670 = CARTESIAN_POINT ( 'NONE',  ( -0.2499999999999997780, 0.008333333333333333218, 0.2249999999999999500 ) ) ;
#671 = CARTESIAN_POINT ( 'NONE',  ( 0.4749999999999999778, 0.5350000000000001421, -0.2249999999999998945 ) ) ;
#672 = APPLICATION_PROTOCOL_DEFINITION ( 'draft international standard', 'automotive_design', 1998, #869 ) ;
#673 = LINE ( 'NONE', #327, #543 ) ;
#674 = ORIENTED_EDGE ( 'NONE', *, *, #840, .T. ) ;
#675 = DIRECTION ( 'NONE',  ( 0.0000000000000000000, -0.0000000000000000000, 1.000000000000000000 ) ) ;
#676 = CIRCLE ( 'NONE', #795, 0.02500000000000001180 ) ;
#677 = DIRECTION ( 'NONE',  ( 1.000000000000000000, 0.0000000000000000000, 1.084202172485504681E-16 ) ) ;
#678 = AXIS2_PLACEMENT_3D ( 'NONE', #712, #311, #960 ) ;
#679 = CARTESIAN_POINT ( 'NONE',  ( 0.4749999999999997558, 0.02500000000000000139, 0.2249999999999999500 ) ) ;
#680 = ORIENTED_EDGE ( 'NONE', *, *, #687, .T. ) ;
#681 = ADVANCED_FACE ( 'NONE', ( #949 ), #371, .F. ) ;
#682 = EDGE_LOOP ( 'NONE', ( #997, #363, #881 ) ) ;
#683 = EDGE_CURVE ( 'NONE', #336, #110, #968, .T. ) ;
#684 = DIRECTION ( 'NONE',  ( 0.0000000000000000000, 1.000000000000000000, 0.0000000000000000000 ) ) ;
#685 = DIRECTION ( 'NONE',  ( 0.0000000000000000000, 1.000000000000000000, 0.0000000000000000000 ) ) ;
#686 = APPLICATION_CONTEXT ( 'automotive_design' ) ;
#687 = EDGE_CURVE ( 'NONE', #1075, #382, #258, .T. ) ;
#688 =( LENGTH_UNIT ( ) NAMED_UNIT ( * ) SI_UNIT ( .MILLI., .METRE. ) );
#689 = ADVANCED_FACE ( 'NONE', ( #1222 ), #9, .T. ) ;
#690 = AXIS2_PLACEMENT_3D ( 'NONE', #216, #907, #312 ) ;
#691 = CARTESIAN_POINT ( 'NONE',  ( -0.4999999999999997780, 0.5600000000000000533, 0.2249999999999999500 ) ) ;
#692 = FILL_AREA_STYLE_COLOUR ( '', #401 ) ;
#693 = CARTESIAN_POINT ( 'NONE',  ( -0.2499999999999997780, 0.5516666666666667496, -0.2249999999999999500 ) ) ;
#694 = DIRECTION ( 'NONE',  ( 2.168404344971007142E-16, 0.0000000000000000000, -1.000000000000000000 ) ) ;
#695 = VECTOR ( 'NONE', #1216, 1000.000000000000000 ) ;
#696 = ADVANCED_FACE ( 'NONE', ( #640 ), #83, .F. ) ;
#697 = ORIENTED_EDGE ( 'NONE', *, *, #268, .F. ) ;
#698 = VECTOR ( 'NONE', #812, 1000.000000000000000 ) ;
#699 = EDGE_CURVE ( 'NONE', #617, #716, #185, .T. ) ;
#700 = ORIENTED_EDGE ( 'NONE', *, *, #1018, .T. ) ;
#701 = LINE ( 'NONE', #1115, #598 ) ;
#702 = DIRECTION ( 'NONE',  ( 0.0000000000000000000, 1.000000000000000000, -0.0000000000000000000 ) ) ;
#703 = VERTEX_POINT ( 'NONE', #165 ) ;
#704 = CLOSED_SHELL ( 'NONE', ( #474, #420, #681, #117, #147, #287, #483, #629, #3, #502, #512, #816, #999, #25, #33, #1079, #827, #1154 ) ) ;
#705 = CARTESIAN_POINT ( 'NONE',  ( 500000.0000000000582, 0.5516666666666667496, -0.2250000000433680647 ) ) ;
#706 = EDGE_CURVE ( 'NONE', #36, #48, #125, .T. ) ;
#707 = DIRECTION ( 'NONE',  ( 0.0000000000000000000, 0.0000000000000000000, 1.000000000000000000 ) ) ;
#708 = UNCERTAINTY_MEASURE_WITH_UNIT (LENGTH_MEASURE( 1.000000000000000082E-05 ), #1069, 'distance_accuracy_value', 'NONE');
#709 = STYLED_ITEM ( 'NONE', ( #948 ), #643 ) ;
#710 = CARTESIAN_POINT ( 'NONE',  ( 500000.0000000000582, 0.5350000000000001421, 0.2416666666232984984 ) ) ;
#711 = CIRCLE ( 'NONE', #678, 0.02500000000000001180 ) ;
#712 = CARTESIAN_POINT ( 'NONE',  ( -0.4749999999999999778, 0.5350000000000001421, -0.2249999999999998945 ) ) ;
#713 = CIRCLE ( 'NONE', #328, 0.02500000000000001180 ) ;
#714 = EDGE_CURVE ( 'NONE', #78, #476, #90, .T. ) ;
#715 = CIRCLE ( 'NONE', #164, 0.01666666666666667337 ) ;
#716 = VERTEX_POINT ( 'NONE', #396 ) ;
#717 = CIRCLE ( 'NONE', #136, 0.01666666666666667337 ) ;
#718 = ORIENTED_EDGE ( 'NONE', *, *, #1269, .F. ) ;
#719 = DIRECTION ( 'NONE',  ( 0.0000000000000000000, 0.0000000000000000000, 1.000000000000000000 ) ) ;
#720 = AXIS2_PLACEMENT_3D ( 'NONE', #941, #747, #1228 ) ;
#721 = VERTEX_POINT ( 'NONE', #1191 ) ;
#722 = CARTESIAN_POINT ( 'NONE',  ( -0.4749999999999997558, 0.5600000000000000533, 0.2249999999999999500 ) ) ;
#723 = CARTESIAN_POINT ( 'NONE',  ( -0.4999999999999997780, 0.5600000000000000533, 0.2499999999999999445 ) ) ;
#724 = DIRECTION ( 'NONE',  ( -1.000000000000000000, 0.0000000000000000000, -2.168404344971007635E-16 ) ) ;
#725 = CIRCLE ( 'NONE', #888, 0.02500000000000001180 ) ;
#726 = ORIENTED_EDGE ( 'NONE', *, *, #571, .T. ) ;
#727 = VECTOR ( 'NONE', #37, 1000.000000000000000 ) ;
#728 = ORIENTED_EDGE ( 'NONE', *, *, #1252, .T. ) ;
#729 = CIRCLE ( 'NONE', #178, 0.02500000000000001180 ) ;
#730 = EDGE_CURVE ( 'NONE', #1182, #1260, #830, .T. ) ;
#731 = ORIENTED_EDGE ( 'NONE', *, *, #908, .F. ) ;
#732 = VERTEX_POINT ( 'NONE', #1279 ) ;
#733 = AXIS2_PLACEMENT_3D ( 'NONE', #584, #192, #282 ) ;
#734 = EDGE_CURVE ( 'NONE', #336, #13, #1103, .T. ) ;
#735 = CARTESIAN_POINT ( 'NONE',  ( -0.4749999999999997558, 0.02500000000000000139, 0.2249999999999999500 ) ) ;
#736 = DIRECTION ( 'NONE',  ( -0.0000000000000000000, 1.000000000000000000, -0.0000000000000000000 ) ) ;
#737 = VECTOR ( 'NONE', #794, 1000.000000000000000 ) ;
#738 = FACE_OUTER_BOUND ( 'NONE', #1083, .T. ) ;
#739 = ORIENTED_EDGE ( 'NONE', *, *, #66, .F. ) ;
#740 = EDGE_LOOP ( 'NONE', ( #347, #970, #224, #191 ) ) ;
#741 = DIRECTION ( 'NONE',  ( 4.336808689942019708E-16, -0.0000000000000000000, -1.000000000000000000 ) ) ;
#742 = VERTEX_POINT ( 'NONE', #1041 ) ;
#743 = ORIENTED_EDGE ( 'NONE', *, *, #1168, .F. ) ;
#744 = DIRECTION ( 'NONE',  ( -1.000000000000000000, -0.0000000000000000000, -0.0000000000000000000 ) ) ;
#745 = CARTESIAN_POINT ( 'NONE',  ( 0.2499999999940882844, 0.5516666666666667496, 0.2249999999999998945 ) ) ;
#746 = DIRECTION ( 'NONE',  ( -1.000000000000000000, 0.0000000000000000000, 0.0000000000000000000 ) ) ;
#747 = DIRECTION ( 'NONE',  ( 4.336808689942019708E-16, -0.0000000000000000000, 1.000000000000000000 ) ) ;
#748 = DIRECTION ( 'NONE',  ( -0.0000000000000000000, 1.000000000000000000, -0.0000000000000000000 ) ) ;
#749 = EDGE_CURVE ( 'NONE', #742, #293, #1253, .T. ) ;
#750 = CARTESIAN_POINT ( 'NONE',  ( -0.4749999999999999778, 0.5600000000000000533, -0.2499999999999998890 ) ) ;
#751 = AXIS2_PLACEMENT_3D ( 'NONE', #904, #179, #389 ) ;
#752 = FACE_OUTER_BOUND ( 'NONE', #553, .T. ) ;
#753 = DIRECTION ( 'NONE',  ( 0.0000000000000000000, 0.0000000000000000000, 1.000000000000000000 ) ) ;
#754 = VECTOR ( 'NONE', #1034, 1000.000000000000000 ) ;
#755 = ORIENTED_EDGE ( 'NONE', *, *, #1269, .T. ) ;
#756 = VECTOR ( 'NONE', #1201, 1000.000000000000000 ) ;
#757 = EDGE_LOOP ( 'NONE', ( #53, #177, #1244, #770 ) ) ;
#758 = ORIENTED_EDGE ( 'NONE', *, *, #525, .F. ) ;
#759 = ORIENTED_EDGE ( 'NONE', *, *, #706, .T. ) ;
#760 = AXIS2_PLACEMENT_3D ( 'NONE', #633, #933, #139 ) ;
#761 = DIRECTION ( 'NONE',  ( 1.000000000000000000, -0.0000000000000000000, 0.0000000000000000000 ) ) ;
#762 = CARTESIAN_POINT ( 'NONE',  ( -0.4749999999999997558, 0.02499999999999995628, 0.2249999999999999500 ) ) ;
#763 = CARTESIAN_POINT ( 'NONE',  ( 0.0000000000000000000, 0.5350000000000001421, 0.2249999999999999500 ) ) ;
#764 = APPLICATION_PROTOCOL_DEFINITION ( 'draft international standard', 'automotive_design', 1998, #686 ) ;
#765 = EDGE_CURVE ( 'NONE', #617, #983, #845, .T. ) ;
#766 = LINE ( 'NONE', #1148, #409 ) ;
#767 = FACE_OUTER_BOUND ( 'NONE', #352, .T. ) ;
#768 = SURFACE_STYLE_USAGE ( .BOTH. , #971 ) ;
#769 = DIRECTION ( 'NONE',  ( -0.0000000000000000000, 0.0000000000000000000, -1.000000000000000000 ) ) ;
#770 = ORIENTED_EDGE ( 'NONE', *, *, #1141, .F. ) ;
#771 = ORIENTED_EDGE ( 'NONE', *, *, #637, .T. ) ;
#772 = EDGE_CURVE ( 'NONE', #742, #127, #256, .T. ) ;
#773 = CARTESIAN_POINT ( 'NONE',  ( 0.2499999999999998335, 0.0000000000000000000, -0.2499999999999999445 ) ) ;
#774 = ORIENTED_EDGE ( 'NONE', *, *, #683, .T. ) ;
#775 = DIRECTION ( 'NONE',  ( 0.0000000000000000000, 0.0000000000000000000, 1.000000000000000000 ) ) ;
#776 = PRODUCT_CONTEXT ( 'NONE', #869, 'mechanical' ) ;
#777 = AXIS2_PLACEMENT_3D ( 'NONE', #723, #437, #838 ) ;
#778 = DIRECTION ( 'NONE',  ( 0.0000000000000000000, 0.0000000000000000000, 1.000000000000000000 ) ) ;
#779 =( LENGTH_UNIT ( ) NAMED_UNIT ( * ) SI_UNIT ( .MILLI., .METRE. ) );
#780 = DIRECTION ( 'NONE',  ( 1.000000000000000000, 0.0000000000000000000, -8.673617379884036705E-17 ) ) ;
#781 =( NAMED_UNIT ( * ) PLANE_ANGLE_UNIT ( ) SI_UNIT ( $, .RADIAN. ) );
#782 = ADVANCED_FACE ( 'NONE', ( #487 ), #405, .F. ) ;
#783 = VECTOR ( 'NONE', #870, 1000.000000000000000 ) ;
#784 = DIRECTION ( 'NONE',  ( 0.0000000000000000000, 0.0000000000000000000, 1.000000000000000000 ) ) ;
#785 = FACE_OUTER_BOUND ( 'NONE', #277, .T. ) ;
#786 = EDGE_LOOP ( 'NONE', ( #131, #1077, #1017, #1243 ) ) ;
#787 = CARTESIAN_POINT ( 'NONE',  ( -0.4749999999999997558, 0.02499999999999995628, 0.2249999999999999500 ) ) ;
#788 = FACE_OUTER_BOUND ( 'NONE', #50, .T. ) ;
#789 = ORIENTED_EDGE ( 'NONE', *, *, #542, .F. ) ;
#790 = ORIENTED_EDGE ( 'NONE', *, *, #921, .T. ) ;
#791 = ADVANCED_FACE ( 'NONE', ( #1023 ), #508, .F. ) ;
#792 = ORIENTED_EDGE ( 'NONE', *, *, #1057, .F. ) ;
#793 = DIRECTION ( 'NONE',  ( 1.000000000000000000, 0.0000000000000000000, 1.084202172485504681E-16 ) ) ;
#794 = DIRECTION ( 'NONE',  ( 1.084202172485504681E-16, -0.0000000000000000000, -1.000000000000000000 ) ) ;
#795 = AXIS2_PLACEMENT_3D ( 'NONE', #1172, #1087, #889 ) ;
#796 = CARTESIAN_POINT ( 'NONE',  ( 0.4749999999999997558, 0.5600000000000000533, 0.2499999999999999445 ) ) ;
#797 = ADVANCED_FACE ( 'NONE', ( #411 ), #596, .F. ) ;
#798 = LINE ( 'NONE', #205, #623 ) ;
#799 = DIRECTION ( 'NONE',  ( -1.000000000000000000, -0.0000000000000000000, 8.673617379884035472E-17 ) ) ;
#800 = EDGE_CURVE ( 'NONE', #732, #808, #58, .T. ) ;
#801 = VECTOR ( 'NONE', #1177, 1000.000000000000000 ) ;
#802 = FACE_OUTER_BOUND ( 'NONE', #740, .T. ) ;
#803 = SURFACE_STYLE_USAGE ( .BOTH. , #7 ) ;
#804 = AXIS2_PLACEMENT_3D ( 'NONE', #1, #388, #1175 ) ;
#805 = VERTEX_POINT ( 'NONE', #222 ) ;
#806 = FACE_OUTER_BOUND ( 'NONE', #809, .T. ) ;
#807 = DIRECTION ( 'NONE',  ( 0.0000000000000000000, 0.0000000000000000000, 1.000000000000000000 ) ) ;
#808 = VERTEX_POINT ( 'NONE', #1003 ) ;
#809 = EDGE_LOOP ( 'NONE', ( #1121, #1143, #60, #237 ) ) ;
#810 = CARTESIAN_POINT ( 'NONE',  ( 0.2499999999999997780, 0.02499999999999995628, 0.2499999999999999445 ) ) ;
#811 = CARTESIAN_POINT ( 'NONE',  ( 0.4749999999999997558, 0.5600000000000000533, 0.2249999999999999500 ) ) ;
#812 = DIRECTION ( 'NONE',  ( 1.084202172485504681E-16, 0.0000000000000000000, -1.000000000000000000 ) ) ;
#813 = DIRECTION ( 'NONE',  ( 0.0000000000000000000, -1.000000000000000000, 0.0000000000000000000 ) ) ;
#814 = VECTOR ( 'NONE', #799, 1000.000000000000000 ) ;
#815 = EDGE_CURVE ( 'NONE', #476, #445, #936, .T. ) ;
#816 = ADVANCED_FACE ( 'NONE', ( #341 ), #155, .T. ) ;
#817 = SPHERICAL_SURFACE ( 'NONE', #93, 0.02500000000000000139 ) ;
#818 = EDGE_CURVE ( 'NONE', #583, #1062, #909, .T. ) ;
#819 = EDGE_LOOP ( 'NONE', ( #322, #279, #349, #113 ) ) ;
#820 = PRESENTATION_STYLE_ASSIGNMENT (( #803 ) ) ;
#821 = VERTEX_POINT ( 'NONE', #206 ) ;
#822 = CARTESIAN_POINT ( 'NONE',  ( -0.4749999999999997558, 0.5600000000000000533, 0.2499999999999999445 ) ) ;
#823 = ORIENTED_EDGE ( 'NONE', *, *, #1057, .T. ) ;
#824 = AXIS2_PLACEMENT_3D ( 'NONE', #857, #559, #1145 ) ;
#825 = ORIENTED_EDGE ( 'NONE', *, *, #1018, .F. ) ;
#826 = ORIENTED_EDGE ( 'NONE', *, *, #699, .T. ) ;
#827 = ADVANCED_FACE ( 'NONE', ( #1009 ), #967, .T. ) ;
#828 = DIRECTION ( 'NONE',  ( 0.0000000000000000000, 0.0000000000000000000, 1.000000000000000000 ) ) ;
#829 = FACE_OUTER_BOUND ( 'NONE', #659, .T. ) ;
#830 = CIRCLE ( 'NONE', #71, 0.01666666666666667337 ) ;
#831 = VECTOR ( 'NONE', #761, 1000.000000000000000 ) ;
#832 = ORIENTED_EDGE ( 'NONE', *, *, #890, .F. ) ;
#833 = CYLINDRICAL_SURFACE ( 'NONE', #1111, 0.02500000000000001180 ) ;
#834 = AXIS2_PLACEMENT_3D ( 'NONE', #444, #1045, #1035 ) ;
#835 = ORIENTED_EDGE ( 'NONE', *, *, #225, .T. ) ;
#836 = DIRECTION ( 'NONE',  ( 1.000000000000000000, 0.0000000000000000000, 2.168404344971007635E-16 ) ) ;
#837 = DIRECTION ( 'NONE',  ( 1.000000000000000000, 0.0000000000000000000, 1.084202172485504681E-16 ) ) ;
#838 = DIRECTION ( 'NONE',  ( -1.000000000000000000, 0.0000000000000000000, -0.0000000000000000000 ) ) ;
#839 = CARTESIAN_POINT ( 'NONE',  ( 0.4749999999999999778, 0.02499999999999995628, -0.2249999999999998945 ) ) ;
#840 = EDGE_CURVE ( 'NONE', #140, #983, #713, .T. ) ;
#841 = DIRECTION ( 'NONE',  ( -1.000000000000000000, -0.0000000000000000000, 8.673617379884035472E-17 ) ) ;
#842 = DIRECTION ( 'NONE',  ( 0.0000000000000000000, -1.000000000000000000, 0.0000000000000000000 ) ) ;
#843 = AXIS2_PLACEMENT_3D ( 'NONE', #416, #24, #42 ) ;
#844 = DIRECTION ( 'NONE',  ( -1.000000000000000000, -0.0000000000000000000, 8.673617379884035472E-17 ) ) ;
#845 = CIRCLE ( 'NONE', #370, 0.02500000000000001180 ) ;
#846 = CIRCLE ( 'NONE', #751, 0.02500000000000001180 ) ;
#847 = ORIENTED_EDGE ( 'NONE', *, *, #1173, .T. ) ;
#848 = CARTESIAN_POINT ( 'NONE',  ( 0.2499999999999998335, 0.5600000000000000533, -0.2499999999999999445 ) ) ;
#849 = CARTESIAN_POINT ( 'NONE',  ( 0.5000000000000000000, 0.5350000000000001421, -0.2499999999999998890 ) ) ;
#850 = ORIENTED_EDGE ( 'NONE', *, *, #884, .F. ) ;
#851 = ORIENTED_EDGE ( 'NONE', *, *, #355, .T. ) ;
#852 = ORIENTED_EDGE ( 'NONE', *, *, #815, .F. ) ;
#853 = DIRECTION ( 'NONE',  ( 0.0000000000000000000, 1.000000000000000000, 0.0000000000000000000 ) ) ;
#854 = DIRECTION ( 'NONE',  ( 0.0000000000000000000, -0.0000000000000000000, 1.000000000000000000 ) ) ;
#855 = DIRECTION ( 'NONE',  ( 1.000000000000000000, 0.0000000000000000000, 0.0000000000000000000 ) ) ;
#856 = AXIS2_PLACEMENT_3D ( 'NONE', #23, #606, #618 ) ;
#857 = CARTESIAN_POINT ( 'NONE',  ( -0.4749999999999999778, 0.5350000000000001421, -0.2249999999999998945 ) ) ;
#858 = AXIS2_PLACEMENT_3D ( 'NONE', #482, #88, #976 ) ;
#859 = CARTESIAN_POINT ( 'NONE',  ( 0.4749999999999999778, 0.5600000000000000533, -0.2499999999999998890 ) ) ;
#860 = VECTOR ( 'NONE', #996, 1000.000000000000000 ) ;
#861 = VECTOR ( 'NONE', #152, 1000.000000000000000 ) ;
#862 = ORIENTED_EDGE ( 'NONE', *, *, #1133, .T. ) ;
#863 = CARTESIAN_POINT ( 'NONE',  ( 500000.0000000000582, 0.02499999999999995628, 0.2249999999566318354 ) ) ;
#864 = ORIENTED_EDGE ( 'NONE', *, *, #943, .F. ) ;
#865 = ORIENTED_EDGE ( 'NONE', *, *, #69, .T. ) ;
#866 = DIRECTION ( 'NONE',  ( 1.000000000000000000, 0.0000000000000000000, 0.0000000000000000000 ) ) ;
#867 = AXIS2_PLACEMENT_3D ( 'NONE', #679, #1068, #966 ) ;
#868 = CARTESIAN_POINT ( 'NONE',  ( 0.5000000000000000000, 0.5600000000000000533, -0.2499999999999998890 ) ) ;
#869 = APPLICATION_CONTEXT ( 'automotive_design' ) ;
#870 = DIRECTION ( 'NONE',  ( -0.0000000000000000000, 1.000000000000000000, -0.0000000000000000000 ) ) ;
#871 = DIRECTION ( 'NONE',  ( -1.000000000000000000, -0.0000000000000000000, 8.673617379884035472E-17 ) ) ;
#872 = ADVANCED_FACE ( 'NONE', ( #285 ), #419, .F. ) ;
#873 = FACE_OUTER_BOUND ( 'NONE', #509, .T. ) ;
#874 = VECTOR ( 'NONE', #651, 1000.000000000000000 ) ;
#875 = DIRECTION ( 'NONE',  ( 0.0000000000000000000, 0.0000000000000000000, 1.000000000000000000 ) ) ;
#876 = VECTOR ( 'NONE', #1065, 1000.000000000000000 ) ;
#877 = DIRECTION ( 'NONE',  ( 4.336808689942019708E-16, -0.0000000000000000000, 1.000000000000000000 ) ) ;
#878 = ORIENTED_EDGE ( 'NONE', *, *, #2, .F. ) ;
#879 = LINE ( 'NONE', #459, #831 ) ;
#880 = DIRECTION ( 'NONE',  ( 1.000000000000000000, -0.0000000000000000000, -1.084202172485504681E-16 ) ) ;
#881 = ORIENTED_EDGE ( 'NONE', *, *, #1155, .F. ) ;
#882 = VERTEX_POINT ( 'NONE', #900 ) ;
#883 = ADVANCED_FACE ( 'NONE', ( #440 ), #301, .T. ) ;
#884 = EDGE_CURVE ( 'NONE', #821, #13, #673, .T. ) ;
#885 = DIRECTION ( 'NONE',  ( 0.0000000000000000000, -1.000000000000000000, 0.0000000000000000000 ) ) ;
#886 = ORIENTED_EDGE ( 'NONE', *, *, #1214, .T. ) ;
#887 =( NAMED_UNIT ( * ) SI_UNIT ( $, .STERADIAN. ) SOLID_ANGLE_UNIT ( ) );
#888 = AXIS2_PLACEMENT_3D ( 'NONE', #1152, #961, #775 ) ;
#889 = DIRECTION ( 'NONE',  ( 0.0000000000000000000, 0.0000000000000000000, 1.000000000000000000 ) ) ;
#890 = EDGE_CURVE ( 'NONE', #445, #721, #529, .T. ) ;
#891 = CIRCLE ( 'NONE', #320, 0.02500000000000001180 ) ;
#892 = CARTESIAN_POINT ( 'NONE',  ( -0.2499999999999998335, 0.02499999999999995628, -0.2249999999999999500 ) ) ;
#893 = AXIS2_PLACEMENT_3D ( 'NONE', #354, #168, #660 ) ;
#894 = ADVANCED_FACE ( 'NONE', ( #563 ), #43, .T. ) ;
#895 = ORIENTED_EDGE ( 'NONE', *, *, #161, .T. ) ;
#896 = LINE ( 'NONE', #214, #756 ) ;
#897 = DIRECTION ( 'NONE',  ( 0.0000000000000000000, 0.0000000000000000000, -1.000000000000000000 ) ) ;
#898 = EDGE_LOOP ( 'NONE', ( #264, #1029, #1110, #98 ) ) ;
#899 = VECTOR ( 'NONE', #201, 1000.000000000000000 ) ;
#900 = CARTESIAN_POINT ( 'NONE',  ( 0.5000000000000000000, 0.5350000000000001421, -0.2249999999999998945 ) ) ;
#901 = VERTEX_POINT ( 'NONE', #639 ) ;
#902 = ADVANCED_FACE ( 'NONE', ( #767 ), #514, .T. ) ;
#903 =( GEOMETRIC_REPRESENTATION_CONTEXT ( 3 ) GLOBAL_UNCERTAINTY_ASSIGNED_CONTEXT ( ( #620 ) ) GLOBAL_UNIT_ASSIGNED_CONTEXT ( ( #688, #99, #887 ) ) REPRESENTATION_CONTEXT ( 'NONE', 'WORKASPACE' ) );
#904 = CARTESIAN_POINT ( 'NONE',  ( -0.2499999999999998335, 0.5350000000000001421, -0.2249999999999999500 ) ) ;
#905 = DIRECTION ( 'NONE',  ( 1.000000000000000000, -0.0000000000000000000, -1.084202172485504681E-16 ) ) ;
#906 = CARTESIAN_POINT ( 'NONE',  ( 0.0000000000000000000, 0.0000000000000000000, 0.2249999999999999500 ) ) ;
#907 = DIRECTION ( 'NONE',  ( -1.000000000000000000, 0.0000000000000000000, 0.0000000000000000000 ) ) ;
#908 = EDGE_CURVE ( 'NONE', #882, #78, #1268, .T. ) ;
#909 = LINE ( 'NONE', #985, #801 ) ;
#910 = VECTOR ( 'NONE', #609, 1000.000000000000000 ) ;
#911 = CARTESIAN_POINT ( 'NONE',  ( -0.2499999999999997780, 0.008333333333333333218, -0.2249999999999999500 ) ) ;
#912 = AXIS2_PLACEMENT_3D ( 'NONE', #431, #1221, #927 ) ;
#913 = ORIENTED_EDGE ( 'NONE', *, *, #539, .F. ) ;
#914 = CIRCLE ( 'NONE', #1019, 0.01666666666666667337 ) ;
#915 = VERTEX_POINT ( 'NONE', #1131 ) ;
#916 = DIRECTION ( 'NONE',  ( 0.0000000000000000000, -1.000000000000000000, 0.0000000000000000000 ) ) ;
#917 = ORIENTED_EDGE ( 'NONE', *, *, #884, .T. ) ;
#918 = CARTESIAN_POINT ( 'NONE',  ( 0.0000000000000000000, 0.5600000000000000533, 0.0000000000000000000 ) ) ;
#919 = CARTESIAN_POINT ( 'NONE',  ( 0.2499999999940882844, 0.5350000000000001421, -0.2250000000000000056 ) ) ;
#920 = EDGE_CURVE ( 'NONE', #882, #235, #357, .T. ) ;
#921 = EDGE_CURVE ( 'NONE', #1256, #954, #504, .T. ) ;
#922 = ORIENTED_EDGE ( 'NONE', *, *, #268, .T. ) ;
#923 = ORIENTED_EDGE ( 'NONE', *, *, #1031, .F. ) ;
#924 = CARTESIAN_POINT ( 'NONE',  ( -0.2499999999999997780, 0.5350000000000001421, 0.2416666666666666130 ) ) ;
#925 = CIRCLE ( 'NONE', #834, 0.01666666666666662133 ) ;
#926 = ORIENTED_EDGE ( 'NONE', *, *, #1008, .F. ) ;
#927 = DIRECTION ( 'NONE',  ( -2.168404344971007142E-16, 0.0000000000000000000, -1.000000000000000000 ) ) ;
#928 = ADVANCED_FACE ( 'NONE', ( #752 ), #994, .T. ) ;
#929 = EDGE_CURVE ( 'NONE', #617, #140, #273, .T. ) ;
#930 = CARTESIAN_POINT ( 'NONE',  ( 0.4749999999999999778, 0.02500000000000000139, -0.2249999999999998945 ) ) ;
#931 = CARTESIAN_POINT ( 'NONE',  ( 0.0000000000000000000, 0.0000000000000000000, 0.2249999999999999500 ) ) ;
#932 = AXIS2_PLACEMENT_3D ( 'NONE', #481, #194, #875 ) ;
#933 = DIRECTION ( 'NONE',  ( -1.000000000000000000, 0.0000000000000000000, 0.0000000000000000000 ) ) ;
#934 = CARTESIAN_POINT ( 'NONE',  ( -0.2499999999999997780, 0.02499999999999995628, 0.2416666666666666408 ) ) ;
#935 = LINE ( 'NONE', #290, #104 ) ;
#936 = LINE ( 'NONE', #1169, #1070 ) ;
#937 = DIRECTION ( 'NONE',  ( 0.0000000000000000000, 0.0000000000000000000, -1.000000000000000000 ) ) ;
#938 = ORIENTED_EDGE ( 'NONE', *, *, #38, .F. ) ;
#939 = FACE_OUTER_BOUND ( 'NONE', #1195, .T. ) ;
#940 = ORIENTED_EDGE ( 'NONE', *, *, #687, .F. ) ;
#941 = CARTESIAN_POINT ( 'NONE',  ( -0.4749999999999999778, 0.02499999999999995628, -0.2499999999999998890 ) ) ;
#942 = DIRECTION ( 'NONE',  ( -0.0000000000000000000, 1.000000000000000000, -0.0000000000000000000 ) ) ;
#943 = EDGE_CURVE ( 'NONE', #1043, #193, #466, .T. ) ;
#944 = DIRECTION ( 'NONE',  ( -1.084202172485504681E-16, 0.0000000000000000000, 1.000000000000000000 ) ) ;
#945 = AXIS2_PLACEMENT_3D ( 'NONE', #54, #242, #151 ) ;
#946 = PLANE ( 'NONE',  #424 ) ;
#947 = DIRECTION ( 'NONE',  ( 0.0000000000000000000, 1.000000000000000000, 0.0000000000000000000 ) ) ;
#948 = PRESENTATION_STYLE_ASSIGNMENT (( #182 ) ) ;
#949 = FACE_OUTER_BOUND ( 'NONE', #457, .T. ) ;
#950 = ORIENTED_EDGE ( 'NONE', *, *, #158, .T. ) ;
#951 = CARTESIAN_POINT ( 'NONE',  ( -0.4999999999999997780, 0.5350000000000001421, 0.2249999999999999500 ) ) ;
#952 = VECTOR ( 'NONE', #655, 1000.000000000000000 ) ;
#953 = ORIENTED_EDGE ( 'NONE', *, *, #435, .T. ) ;
#954 = VERTEX_POINT ( 'NONE', #1036 ) ;
#955 = EDGE_LOOP ( 'NONE', ( #739, #648, #972, #825 ) ) ;
#956 = STYLED_ITEM ( 'NONE', ( #231 ), #464 ) ;
#957 = CARTESIAN_POINT ( 'NONE',  ( 0.2499999999999998335, 0.02499999999999995628, -0.2499999999999999445 ) ) ;
#958 = ORIENTED_EDGE ( 'NONE', *, *, #325, .F. ) ;
#959 = CARTESIAN_POINT ( 'NONE',  ( -0.2499999999999997780, 0.02499999999999995975, -0.2416666666666665853 ) ) ;
#960 = DIRECTION ( 'NONE',  ( 0.0000000000000000000, 0.0000000000000000000, 1.000000000000000000 ) ) ;
#961 = DIRECTION ( 'NONE',  ( -0.0000000000000000000, -1.000000000000000000, -0.0000000000000000000 ) ) ;
#962 = DIRECTION ( 'NONE',  ( 0.0000000000000000000, 0.0000000000000000000, 1.000000000000000000 ) ) ;
#963 = AXIS2_PLACEMENT_3D ( 'NONE', #1107, #1011, #1007 ) ;
#964 = PRODUCT_RELATED_PRODUCT_CATEGORY ( 'part', '', ( #8 ) ) ;
#965 = LINE ( 'NONE', #1051, #123 ) ;
#966 = DIRECTION ( 'NONE',  ( -1.000000000000000000, 0.0000000000000000000, 0.0000000000000000000 ) ) ;
#967 = SPHERICAL_SURFACE ( 'NONE', #572, 0.02500000000000000139 ) ;
#968 = LINE ( 'NONE', #86, #188 ) ;
#969 = ORIENTED_EDGE ( 'NONE', *, *, #714, .F. ) ;
#970 = ORIENTED_EDGE ( 'NONE', *, *, #433, .T. ) ;
#971 = SURFACE_SIDE_STYLE ('',( #126 ) ) ;
#972 = ORIENTED_EDGE ( 'NONE', *, *, #818, .F. ) ;
#973 = EDGE_CURVE ( 'NONE', #954, #1105, #594, .T. ) ;
#974 = VERTEX_POINT ( 'NONE', #1030 ) ;
#975 = DIRECTION ( 'NONE',  ( 1.000000000000000000, 0.0000000000000000000, 2.168404344971007635E-16 ) ) ;
#976 = DIRECTION ( 'NONE',  ( 1.084202172485504681E-16, 0.0000000000000000000, 1.000000000000000000 ) ) ;
#977 = DIRECTION ( 'NONE',  ( 0.0000000000000000000, 0.0000000000000000000, -1.000000000000000000 ) ) ;
#978 = CARTESIAN_POINT ( 'NONE',  ( 0.2499999999940882844, 0.02499999999999995628, 0.2249999999999998945 ) ) ;
#979 = PLANE ( 'NONE',  #153 ) ;
#980 = CARTESIAN_POINT ( 'NONE',  ( 0.2499999999940882844, 0.5516666666666667496, -0.2250000000975781456 ) ) ;
#981 = ORIENTED_EDGE ( 'NONE', *, *, #1168, .T. ) ;
#982 = LINE ( 'NONE', #118, #361 ) ;
#983 = VERTEX_POINT ( 'NONE', #635 ) ;
#984 = CIRCLE ( 'NONE', #963, 0.02500000000000001180 ) ;
#985 = CARTESIAN_POINT ( 'NONE',  ( 0.5000000000000000000, 0.02499999999999995628, -0.2499999999999998890 ) ) ;
#986 = ORIENTED_EDGE ( 'NONE', *, *, #656, .F. ) ;
#987 = EDGE_CURVE ( 'NONE', #732, #583, #218, .T. ) ;
#988 = CARTESIAN_POINT ( 'NONE',  ( -0.2499999999999997780, 0.5350000000000001421, -0.2249999999999999500 ) ) ;
#989 = CARTESIAN_POINT ( 'NONE',  ( -0.4999999999999997780, 0.02499999999999995628, 0.2249999999999999500 ) ) ;
#990 = DIRECTION ( 'NONE',  ( 0.0000000000000000000, 1.000000000000000000, 0.0000000000000000000 ) ) ;
#991 = CARTESIAN_POINT ( 'NONE',  ( -0.2499999999999997780, 0.5350000000000001421, 0.2249999999999999500 ) ) ;
#992 = LINE ( 'NONE', #1262, #200 ) ;
#993 = AXIS2_PLACEMENT_3D ( 'NONE', #299, #217, #408 ) ;
#994 = CYLINDRICAL_SURFACE ( 'NONE', #393, 0.02500000000000001180 ) ;
#995 = FACE_OUTER_BOUND ( 'NONE', #261, .T. ) ;
#996 = DIRECTION ( 'NONE',  ( -4.336808689942019708E-16, 0.0000000000000000000, 1.000000000000000000 ) ) ;
#997 = ORIENTED_EDGE ( 'NONE', *, *, #800, .F. ) ;
#998 = EDGE_LOOP ( 'NONE', ( #400, #1126, #585, #579 ) ) ;
#999 = ADVANCED_FACE ( 'NONE', ( #245 ), #26, .T. ) ;
#1000 = ORIENTED_EDGE ( 'NONE', *, *, #298, .F. ) ;
#1001 = CARTESIAN_POINT ( 'NONE',  ( -0.4749999999999999778, 0.0000000000000000000, -0.2249999999999998945 ) ) ;
#1002 = EDGE_LOOP ( 'NONE', ( #1142, #700, #1012, #851 ) ) ;
#1003 = CARTESIAN_POINT ( 'NONE',  ( 0.4749999999999999778, 0.0000000000000000000, -0.2249999999999998945 ) ) ;
#1004 = FILL_AREA_STYLE_COLOUR ( '', #626 ) ;
#1005 = AXIS2_PLACEMENT_3D ( 'NONE', #930, #530, #132 ) ;
#1006 = DIRECTION ( 'NONE',  ( -1.000000000000000000, 0.0000000000000000000, 0.0000000000000000000 ) ) ;
#1007 = DIRECTION ( 'NONE',  ( 0.0000000000000000000, 0.0000000000000000000, 1.000000000000000000 ) ) ;
#1008 = EDGE_CURVE ( 'NONE', #954, #805, #376, .T. ) ;
#1009 = FACE_OUTER_BOUND ( 'NONE', #682, .T. ) ;
#1010 = CIRCLE ( 'NONE', #1255, 0.02500000000000001180 ) ;
#1011 = DIRECTION ( 'NONE',  ( 1.000000000000000000, 0.0000000000000000000, 1.084202172485504681E-16 ) ) ;
#1012 = ORIENTED_EDGE ( 'NONE', *, *, #987, .F. ) ;
#1013 = VECTOR ( 'NONE', #601, 1000.000000000000000 ) ;
#1014 = EDGE_LOOP ( 'NONE', ( #507, #415, #826, #80 ) ) ;
#1015 = SURFACE_STYLE_FILL_AREA ( #1167 ) ;
#1016 = ORIENTED_EDGE ( 'NONE', *, *, #89, .T. ) ;
#1017 = ORIENTED_EDGE ( 'NONE', *, *, #105, .T. ) ;
#1018 = EDGE_CURVE ( 'NONE', #882, #583, #315, .T. ) ;
#1019 = AXIS2_PLACEMENT_3D ( 'NONE', #283, #780, #195 ) ;
#1020 = ADVANCED_FACE ( 'NONE', ( #330 ), #1248, .T. ) ;
#1021 = VECTOR ( 'NONE', #664, 1000.000000000000000 ) ;
#1022 = CARTESIAN_POINT ( 'NONE',  ( 0.4999999999999997780, 0.02499999999999995628, 0.2249999999999999500 ) ) ;
#1023 = FACE_OUTER_BOUND ( 'NONE', #1159, .T. ) ;
#1024 = DIRECTION ( 'NONE',  ( -1.000000000000000000, 0.0000000000000000000, 0.0000000000000000000 ) ) ;
#1025 = LINE ( 'NONE', #255, #952 ) ;
#1026 = DIRECTION ( 'NONE',  ( 0.0000000000000000000, 0.0000000000000000000, 1.000000000000000000 ) ) ;
#1027 = VERTEX_POINT ( 'NONE', #1247 ) ;
#1028 = EDGE_LOOP ( 'NONE', ( #251, #413, #759, #160 ) ) ;
#1029 = ORIENTED_EDGE ( 'NONE', *, *, #38, .T. ) ;
#1030 = CARTESIAN_POINT ( 'NONE',  ( -0.2499999999999998335, 0.5350000000000001421, -0.2499999999999999445 ) ) ;
#1031 = EDGE_CURVE ( 'NONE', #110, #646, #1092, .T. ) ;
#1032 = CARTESIAN_POINT ( 'NONE',  ( 0.4749999999999997558, 0.02499999999999995628, 0.2249999999999999500 ) ) ;
#1033 = AXIS2_PLACEMENT_3D ( 'NONE', #338, #527, #254 ) ;
#1034 = DIRECTION ( 'NONE',  ( 1.000000000000000000, -0.0000000000000000000, 0.0000000000000000000 ) ) ;
#1035 = DIRECTION ( 'NONE',  ( 0.0000000000000000000, 0.0000000000000000000, -1.000000000000000000 ) ) ;
#1036 = CARTESIAN_POINT ( 'NONE',  ( -0.4749999999999997558, 0.0000000000000000000, 0.2249999999999999500 ) ) ;
#1037 = FACE_OUTER_BOUND ( 'NONE', #1162, .T. ) ;
#1038 = DIRECTION ( 'NONE',  ( -1.000000000000000000, -0.0000000000000000000, 8.673617379884035472E-17 ) ) ;
#1039 = VERTEX_POINT ( 'NONE', #1257 ) ;
#1040 = LINE ( 'NONE', #533, #1176 ) ;
#1041 = CARTESIAN_POINT ( 'NONE',  ( 0.2499999999940882844, 0.5350000000000001421, 0.2416666666666665575 ) ) ;
#1042 = VERTEX_POINT ( 'NONE', #957 ) ;
#1043 = VERTEX_POINT ( 'NONE', #467 ) ;
#1044 = ORIENTED_EDGE ( 'NONE', *, *, #525, .T. ) ;
#1045 = DIRECTION ( 'NONE',  ( 1.000000000000000000, 0.0000000000000000000, -8.673617379884036705E-17 ) ) ;
#1046 = DIRECTION ( 'NONE',  ( 1.000000000000000000, 0.0000000000000000000, 0.0000000000000000000 ) ) ;
#1047 = EDGE_CURVE ( 'NONE', #78, #235, #1053, .T. ) ;
#1048 = CARTESIAN_POINT ( 'NONE',  ( 0.2499999999999997780, 0.5600000000000000533, 0.2249999999999999500 ) ) ;
#1049 = AXIS2_PLACEMENT_3D ( 'NONE', #450, #636, #452 ) ;
#1050 = DIRECTION ( 'NONE',  ( 1.000000000000000000, 0.0000000000000000000, 1.084202172485504681E-16 ) ) ;
#1051 = CARTESIAN_POINT ( 'NONE',  ( -0.5000000000000000000, 0.02499999999999995628, -0.2499999999999998890 ) ) ;
#1052 = FACE_OUTER_BOUND ( 'NONE', #1129, .T. ) ;
#1053 = CIRCLE ( 'NONE', #1278, 0.02500000000000001180 ) ;
#1054 = DIRECTION ( 'NONE',  ( 0.0000000000000000000, 0.0000000000000000000, -1.000000000000000000 ) ) ;
#1055 = FILL_AREA_STYLE ('',( #451 ) ) ;
#1056 = VECTOR ( 'NONE', #230, 1000.000000000000000 ) ;
#1057 = EDGE_CURVE ( 'NONE', #172, #36, #75, .T. ) ;
#1058 = ORIENTED_EDGE ( 'NONE', *, *, #342, .T. ) ;
#1059 = LINE ( 'NONE', #537, #1194 ) ;
#1060 = ORIENTED_EDGE ( 'NONE', *, *, #683, .F. ) ;
#1061 = UNCERTAINTY_MEASURE_WITH_UNIT (LENGTH_MEASURE( 1.000000000000000082E-05 ), #1164, 'distance_accuracy_value', 'NONE');
#1062 = VERTEX_POINT ( 'NONE', #82 ) ;
#1063 = CARTESIAN_POINT ( 'NONE',  ( -0.2499999999999998335, 0.0000000000000000000, -0.2499999999999999445 ) ) ;
#1064 = PLANE ( 'NONE',  #858 ) ;
#1065 = DIRECTION ( 'NONE',  ( 0.0000000000000000000, 0.0000000000000000000, -1.000000000000000000 ) ) ;
#1066 = FILL_AREA_STYLE ('',( #374 ) ) ;
#1067 = ADVANCED_FACE ( 'NONE', ( #1037 ), #638, .T. ) ;
#1068 = DIRECTION ( 'NONE',  ( 0.0000000000000000000, -1.000000000000000000, 0.0000000000000000000 ) ) ;
#1069 =( LENGTH_UNIT ( ) NAMED_UNIT ( * ) SI_UNIT ( .MILLI., .METRE. ) );
#1070 = VECTOR ( 'NONE', #603, 1000.000000000000000 ) ;
#1071 = CARTESIAN_POINT ( 'NONE',  ( 0.4749999999999999778, 0.5600000000000000533, -0.2249999999999998945 ) ) ;
#1072 = CARTESIAN_POINT ( 'NONE',  ( 500000.0000000000582, 0.5350000000000001421, 0.2249999999566318354 ) ) ;
#1073 = CYLINDRICAL_SURFACE ( 'NONE', #1272, 0.01666666666666664562 ) ;
#1074 = EDGE_CURVE ( 'NONE', #1105, #805, #215, .T. ) ;
#1075 = VERTEX_POINT ( 'NONE', #186 ) ;
#1076 = DIRECTION ( 'NONE',  ( 0.0000000000000000000, 1.000000000000000000, 0.0000000000000000000 ) ) ;
#1077 = ORIENTED_EDGE ( 'NONE', *, *, #500, .T. ) ;
#1078 = ORIENTED_EDGE ( 'NONE', *, *, #616, .F. ) ;
#1079 = ADVANCED_FACE ( 'NONE', ( #1249 ), #1125, .T. ) ;
#1080 = EDGE_CURVE ( 'NONE', #110, #983, #798, .T. ) ;
#1081 = ORIENTED_EDGE ( 'NONE', *, *, #2, .T. ) ;
#1082 = DIRECTION ( 'NONE',  ( 0.0000000000000000000, 0.0000000000000000000, 1.000000000000000000 ) ) ;
#1083 = EDGE_LOOP ( 'NONE', ( #461, #430, #630 ) ) ;
#1084 = AXIS2_PLACEMENT_3D ( 'NONE', #710, #499, #1183 ) ;
#1085 = DIRECTION ( 'NONE',  ( 0.0000000000000000000, 0.0000000000000000000, -1.000000000000000000 ) ) ;
#1086 = EDGE_CURVE ( 'NONE', #382, #742, #372, .T. ) ;
#1087 = DIRECTION ( 'NONE',  ( -1.000000000000000000, -0.0000000000000000000, -0.0000000000000000000 ) ) ;
#1088 = DIRECTION ( 'NONE',  ( 1.000000000000000000, -0.0000000000000000000, -2.168404344971007635E-16 ) ) ;
#1089 = STYLED_ITEM ( 'NONE', ( #14 ), #116 ) ;
#1090 = LINE ( 'NONE', #496, #1238 ) ;
#1091 = DIRECTION ( 'NONE',  ( -8.673617379884036705E-17, 0.0000000000000000000, -1.000000000000000000 ) ) ;
#1092 = CIRCLE ( 'NONE', #824, 0.02500000000000001180 ) ;
#1093 = LINE ( 'NONE', #959, #10 ) ;
#1094 = ORIENTED_EDGE ( 'NONE', *, *, #309, .T. ) ;
#1095 = VECTOR ( 'NONE', #741, 1000.000000000000000 ) ;
#1096 = DIRECTION ( 'NONE',  ( 0.0000000000000000000, -0.0000000000000000000, -1.000000000000000000 ) ) ;
#1097 = ORIENTED_EDGE ( 'NONE', *, *, #1204, .T. ) ;
#1098 = CARTESIAN_POINT ( 'NONE',  ( 0.2499999999940882844, 0.008333333333333333218, 0.2249999999024217545 ) ) ;
#1099 = MECHANICAL_DESIGN_GEOMETRIC_PRESENTATION_REPRESENTATION (  '', ( #709 ), #1113 ) ;
#1100 = ADVANCED_FACE ( 'NONE', ( #154 ), #271, .T. ) ;
#1101 = FILL_AREA_STYLE ('',( #1004 ) ) ;
#1102 = AXIS2_PLACEMENT_3D ( 'NONE', #735, #148, #1026 ) ;
#1103 = CIRCLE ( 'NONE', #351, 0.02500000000000001180 ) ;
#1104 = LINE ( 'NONE', #691, #515 ) ;
#1105 = VERTEX_POINT ( 'NONE', #591 ) ;
#1106 = ORIENTED_EDGE ( 'NONE', *, *, #973, .F. ) ;
#1107 = CARTESIAN_POINT ( 'NONE',  ( 0.2499999999999998335, 0.02499999999999995628, -0.2249999999999999500 ) ) ;
#1108 = ORIENTED_EDGE ( 'NONE', *, *, #326, .F. ) ;
#1109 = ADVANCED_FACE ( 'NONE', ( #873 ), #296, .F. ) ;
#1110 = ORIENTED_EDGE ( 'NONE', *, *, #298, .T. ) ;
#1111 = AXIS2_PLACEMENT_3D ( 'NONE', #1022, #634, #141 ) ;
#1112 =( NAMED_UNIT ( * ) SI_UNIT ( $, .STERADIAN. ) SOLID_ANGLE_UNIT ( ) );
#1113 =( GEOMETRIC_REPRESENTATION_CONTEXT ( 3 ) GLOBAL_UNCERTAINTY_ASSIGNED_CONTEXT ( ( #708 ) ) GLOBAL_UNIT_ASSIGNED_CONTEXT ( ( #1069, #479, #1263 ) ) REPRESENTATION_CONTEXT ( 'NONE', 'WORKASPACE' ) );
#1114 = EDGE_CURVE ( 'NONE', #445, #1230, #891, .T. ) ;
#1115 = CARTESIAN_POINT ( 'NONE',  ( -0.2499999999999998335, 0.5600000000000000533, -0.2499999999999999445 ) ) ;
#1116 = STYLED_ITEM ( 'NONE', ( #820 ), #244 ) ;
#1117 = VECTOR ( 'NONE', #463, 1000.000000000000000 ) ;
#1118 = EDGE_LOOP ( 'NONE', ( #307, #305, #210, #144 ) ) ;
#1119 = VERTEX_POINT ( 'NONE', #693 ) ;
#1120 = CYLINDRICAL_SURFACE ( 'NONE', #1049, 0.02500000000000001180 ) ;
#1121 = ORIENTED_EDGE ( 'NONE', *, *, #119, .T. ) ;
#1122 = CARTESIAN_POINT ( 'NONE',  ( -0.4749999999999999778, 0.5600000000000000533, -0.2249999999999998945 ) ) ;
#1123 = DIRECTION ( 'NONE',  ( 0.0000000000000000000, -1.000000000000000000, -0.0000000000000000000 ) ) ;
#1124 = FACE_OUTER_BOUND ( 'NONE', #898, .T. ) ;
#1125 = SPHERICAL_SURFACE ( 'NONE', #602, 0.02500000000000000139 ) ;
#1126 = ORIENTED_EDGE ( 'NONE', *, *, #259, .T. ) ;
#1127 = CARTESIAN_POINT ( 'NONE',  ( 0.4749999999999997558, 0.5600000000000000533, 0.2249999999999999500 ) ) ;
#1128 = FACE_OUTER_BOUND ( 'NONE', #1197, .T. ) ;
#1129 = EDGE_LOOP ( 'NONE', ( #292, #950, #426, #864 ) ) ;
#1130 = ORIENTED_EDGE ( 'NONE', *, *, #174, .T. ) ;
#1131 = CARTESIAN_POINT ( 'NONE',  ( -0.2499999999999997780, 0.5350000000000001421, -0.2416666666666665853 ) ) ;
#1132 = ORIENTED_EDGE ( 'NONE', *, *, #730, .T. ) ;
#1133 = EDGE_CURVE ( 'NONE', #235, #232, #1090, .T. ) ;
#1134 = CARTESIAN_POINT ( 'NONE',  ( 0.5000000000000000000, 0.5600000000000000533, -0.2249999999999998945 ) ) ;
#1135 = AXIS2_PLACEMENT_3D ( 'NONE', #811, #916, #314 ) ;
#1136 = DIRECTION ( 'NONE',  ( 0.0000000000000000000, 0.0000000000000000000, 1.000000000000000000 ) ) ;
#1137 = CARTESIAN_POINT ( 'NONE',  ( 0.4999999999999997780, 0.5600000000000000533, 0.2499999999999999445 ) ) ;
#1138 = LINE ( 'NONE', #339, #695 ) ;
#1139 = ORIENTED_EDGE ( 'NONE', *, *, #332, .F. ) ;
#1140 = LINE ( 'NONE', #1098, #698 ) ;
#1141 = EDGE_CURVE ( 'NONE', #1042, #732, #992, .T. ) ;
#1142 = ORIENTED_EDGE ( 'NONE', *, *, #920, .F. ) ;
#1143 = ORIENTED_EDGE ( 'NONE', *, *, #1141, .T. ) ;
#1144 = ORIENTED_EDGE ( 'NONE', *, *, #119, .F. ) ;
#1145 = DIRECTION ( 'NONE',  ( -1.000000000000000000, 0.0000000000000000000, 0.0000000000000000000 ) ) ;
#1146 = DIRECTION ( 'NONE',  ( 0.0000000000000000000, 0.0000000000000000000, 1.000000000000000000 ) ) ;
#1147 = CARTESIAN_POINT ( 'NONE',  ( -0.2499999999999997780, 0.008333333333333296788, 0.2249999999999999500 ) ) ;
#1148 = CARTESIAN_POINT ( 'NONE',  ( 0.4999999999999997780, 0.5350000000000001421, 0.2499999999999999445 ) ) ;
#1149 = CIRCLE ( 'NONE', #1005, 0.02500000000000001180 ) ;
#1150 = VECTOR ( 'NONE', #592, 1000.000000000000000 ) ;
#1151 = CARTESIAN_POINT ( 'NONE',  ( 0.2499999999999998335, 0.5600000000000000533, -0.2499999999999999445 ) ) ;
#1152 = CARTESIAN_POINT ( 'NONE',  ( 0.4749999999999997558, 0.5350000000000001421, 0.2249999999999999500 ) ) ;
#1153 = FACE_OUTER_BOUND ( 'NONE', #65, .T. ) ;
#1154 = ADVANCED_FACE ( 'NONE', ( #6 ), #356, .T. ) ;
#1155 = EDGE_CURVE ( 'NONE', #808, #583, #1149, .T. ) ;
#1156 = ORIENTED_EDGE ( 'NONE', *, *, #5, .T. ) ;
#1157 = LINE ( 'NONE', #849, #1095 ) ;
#1158 = DIRECTION ( 'NONE',  ( 1.000000000000000000, -0.0000000000000000000, 0.0000000000000000000 ) ) ;
#1159 = EDGE_LOOP ( 'NONE', ( #1213, #597, #771, #758 ) ) ;
#1160 = AXIS2_PLACEMENT_3D ( 'NONE', #187, #685, #478 ) ;
#1161 = DIRECTION ( 'NONE',  ( 0.0000000000000000000, 0.0000000000000000000, 1.000000000000000000 ) ) ;
#1162 = EDGE_LOOP ( 'NONE', ( #913, #1044, #1132, #1215 ) ) ;
#1163 = CARTESIAN_POINT ( 'NONE',  ( 500000.0000000000582, 0.5516666666666667496, -0.2250000000433680647 ) ) ;
#1164 =( LENGTH_UNIT ( ) NAMED_UNIT ( * ) SI_UNIT ( .MILLI., .METRE. ) );
#1165 = CARTESIAN_POINT ( 'NONE',  ( -0.5000000000000000000, 0.5350000000000001421, -0.2249999999999998945 ) ) ;
#1166 = CARTESIAN_POINT ( 'NONE',  ( 0.0000000000000000000, 0.0000000000000000000, 0.0000000000000000000 ) ) ;
#1167 = FILL_AREA_STYLE ('',( #692 ) ) ;
#1168 = EDGE_CURVE ( 'NONE', #1027, #646, #183, .T. ) ;
#1169 = CARTESIAN_POINT ( 'NONE',  ( 0.2499999999999997780, 0.5600000000000000533, 0.2249999999999999500 ) ) ;
#1170 = ADVANCED_FACE ( 'NONE', ( #1190 ), #465, .T. ) ;
#1171 = COLOUR_RGB ( '',0.7921568627450980005, 0.8196078431372548767, 0.9333333333333333481 ) ;
#1172 = CARTESIAN_POINT ( 'NONE',  ( 0.4749999999999997558, 0.02500000000000000139, 0.2249999999999999500 ) ) ;
#1173 = EDGE_CURVE ( 'NONE', #954, #140, #608, .T. ) ;
#1174 = VERTEX_POINT ( 'NONE', #162 ) ;
#1175 = DIRECTION ( 'NONE',  ( 1.000000000000000000, 0.0000000000000000000, 0.0000000000000000000 ) ) ;
#1176 = VECTOR ( 'NONE', #836, 1000.000000000000000 ) ;
#1177 = DIRECTION ( 'NONE',  ( -4.336808689942019708E-16, 0.0000000000000000000, 1.000000000000000000 ) ) ;
#1178 = ORIENTED_EDGE ( 'NONE', *, *, #506, .F. ) ;
#1179 = CYLINDRICAL_SURFACE ( 'NONE', #1180, 0.01666666666666664562 ) ;
#1180 = AXIS2_PLACEMENT_3D ( 'NONE', #541, #841, #649 ) ;
#1181 = ORIENTED_EDGE ( 'NONE', *, *, #345, .F. ) ;
#1182 = VERTEX_POINT ( 'NONE', #934 ) ;
#1183 = DIRECTION ( 'NONE',  ( -1.000000000000000000, 0.0000000000000000000, 8.673617379884035472E-17 ) ) ;
#1184 = DIRECTION ( 'NONE',  ( 8.673617379884035472E-17, -0.0000000000000000000, 1.000000000000000000 ) ) ;
#1185 = CARTESIAN_POINT ( 'NONE',  ( 4.878909776184766872E-17, 0.5350000000000001421, -0.2250000000000000056 ) ) ;
#1186 = EDGE_CURVE ( 'NONE', #32, #617, #965, .T. ) ;
#1187 = DIRECTION ( 'NONE',  ( 0.0000000000000000000, 0.0000000000000000000, 1.000000000000000000 ) ) ;
#1188 = CARTESIAN_POINT ( 'NONE',  ( -0.2499999999999997780, 0.5516666666666667496, -0.2249999999999999500 ) ) ;
#1189 = AXIS2_PLACEMENT_3D ( 'NONE', #868, #87, #667 ) ;
#1190 = FACE_OUTER_BOUND ( 'NONE', #819, .T. ) ;
#1191 = CARTESIAN_POINT ( 'NONE',  ( 0.2499999999999998335, 0.5600000000000000533, -0.2249999999999999500 ) ) ;
#1192 = VECTOR ( 'NONE', #632, 1000.000000000000000 ) ;
#1193 = ORIENTED_EDGE ( 'NONE', *, *, #734, .F. ) ;
#1194 = VECTOR ( 'NONE', #551, 1000.000000000000000 ) ;
#1195 = EDGE_LOOP ( 'NONE', ( #600, #381, #493, #28 ) ) ;
#1196 = CARTESIAN_POINT ( 'NONE',  ( -0.2499999999999998335, 0.5600000000000000533, -0.2499999999999999445 ) ) ;
#1197 = EDGE_LOOP ( 'NONE', ( #1226, #511, #923, #1060 ) ) ;
#1198 = CARTESIAN_POINT ( 'NONE',  ( 0.2499999999999998335, 0.5350000000000001421, -0.2499999999999999445 ) ) ;
#1199 =( GEOMETRIC_REPRESENTATION_CONTEXT ( 3 ) GLOBAL_UNCERTAINTY_ASSIGNED_CONTEXT ( ( #1061 ) ) GLOBAL_UNIT_ASSIGNED_CONTEXT ( ( #1164, #84, #77 ) ) REPRESENTATION_CONTEXT ( 'NONE', 'WORKASPACE' ) );
#1200 = ADVANCED_FACE ( 'NONE', ( #1124 ), #423, .T. ) ;
#1201 = DIRECTION ( 'NONE',  ( -1.000000000000000000, 0.0000000000000000000, 0.0000000000000000000 ) ) ;
#1202 = EDGE_CURVE ( 'NONE', #716, #974, #935, .T. ) ;
#1203 = DIRECTION ( 'NONE',  ( -1.000000000000000000, 0.0000000000000000000, 2.168404344971007635E-16 ) ) ;
#1204 = EDGE_CURVE ( 'NONE', #646, #716, #711, .T. ) ;
#1205 = AXIS2_PLACEMENT_3D ( 'NONE', #988, #120, #1091 ) ;
#1206 = ADVANCED_FACE ( 'NONE', ( #1052 ), #979, .F. ) ;
#1207 = FACE_OUTER_BOUND ( 'NONE', #146, .T. ) ;
#1208 = VERTEX_POINT ( 'NONE', #520 ) ;
#1209 = LINE ( 'NONE', #449, #550 ) ;
#1210 = ORIENTED_EDGE ( 'NONE', *, *, #706, .F. ) ;
#1211 = CARTESIAN_POINT ( 'NONE',  ( 0.4749999999999998668, 0.0000000000000000000, 2.059984127722458918E-16 ) ) ;
#1212 = ORIENTED_EDGE ( 'NONE', *, *, #439, .T. ) ;
#1213 = ORIENTED_EDGE ( 'NONE', *, *, #772, .F. ) ;
#1214 = EDGE_CURVE ( 'NONE', #1230, #1174, #766, .T. ) ;
#1215 = ORIENTED_EDGE ( 'NONE', *, *, #158, .F. ) ;
#1216 = DIRECTION ( 'NONE',  ( 0.0000000000000000000, -1.000000000000000000, 5.314716531791687085E-17 ) ) ;
#1217 = MECHANICAL_DESIGN_GEOMETRIC_PRESENTATION_REPRESENTATION (  '', ( #1089 ), #903 ) ;
#1218 = CARTESIAN_POINT ( 'NONE',  ( -0.5000000000000000000, 0.5600000000000000533, -0.2249999999999998945 ) ) ;
#1219 = CARTESIAN_POINT ( 'NONE',  ( 0.4749999999999999778, 0.02499999999999995628, -0.2499999999999998890 ) ) ;
#1220 = CIRCLE ( 'NONE', #196, 0.02500000000000001180 ) ;
#1221 = DIRECTION ( 'NONE',  ( 1.000000000000000000, 0.0000000000000000000, -2.168404344971007635E-16 ) ) ;
#1222 = FACE_OUTER_BOUND ( 'NONE', #321, .T. ) ;
#1223 = CARTESIAN_POINT ( 'NONE',  ( -0.2499999999999998335, 0.02499999999999995628, -0.2499999999999999445 ) ) ;
#1224 = FACE_OUTER_BOUND ( 'NONE', #955, .T. ) ;
#1225 = ORIENTED_EDGE ( 'NONE', *, *, #367, .F. ) ;
#1226 = ORIENTED_EDGE ( 'NONE', *, *, #1239, .T. ) ;
#1227 = EDGE_LOOP ( 'NONE', ( #443, #556, #1193, #96 ) ) ;
#1228 = DIRECTION ( 'NONE',  ( 1.000000000000000000, 0.0000000000000000000, 0.0000000000000000000 ) ) ;
#1229 = DIRECTION ( 'NONE',  ( 0.0000000000000000000, 0.0000000000000000000, 1.000000000000000000 ) ) ;
#1230 = VERTEX_POINT ( 'NONE', #281 ) ;
#1231 = DIRECTION ( 'NONE',  ( 0.0000000000000000000, -0.0000000000000000000, 1.000000000000000000 ) ) ;
#1232 = UNCERTAINTY_MEASURE_WITH_UNIT (LENGTH_MEASURE( 1.000000000000000082E-05 ), #779, 'distance_accuracy_value', 'NONE');
#1233 = AXIS2_PLACEMENT_3D ( 'NONE', #447, #546, #538 ) ;
#1234 = CARTESIAN_POINT ( 'NONE',  ( 500000.0000000000582, 0.5350000000000001421, -0.2250000000433680647 ) ) ;
#1235 = DIRECTION ( 'NONE',  ( -4.336808689942019708E-16, -0.0000000000000000000, -1.000000000000000000 ) ) ;
#1236 = DIRECTION ( 'NONE',  ( -1.000000000000000000, -0.0000000000000000000, -0.0000000000000000000 ) ) ;
#1237 = DIRECTION ( 'NONE',  ( -1.000000000000000000, -0.0000000000000000000, -0.0000000000000000000 ) ) ;
#1238 = VECTOR ( 'NONE', #577, 1000.000000000000000 ) ;
#1239 = EDGE_CURVE ( 'NONE', #336, #46, #1220, .T. ) ;
#1240 = ORIENTED_EDGE ( 'NONE', *, *, #198, .F. ) ;
#1241 = DIRECTION ( 'NONE',  ( 0.0000000000000000000, 0.0000000000000000000, -1.000000000000000000 ) ) ;
#1242 = EDGE_LOOP ( 'NONE', ( #731, #350, #63 ) ) ;
#1243 = ORIENTED_EDGE ( 'NONE', *, *, #439, .F. ) ;
#1244 = ORIENTED_EDGE ( 'NONE', *, *, #355, .F. ) ;
#1245 = CARTESIAN_POINT ( 'NONE',  ( -0.2499999999999997780, 0.5516666666666667496, 0.2249999999999999500 ) ) ;
#1246 = AXIS2_PLACEMENT_3D ( 'NONE', #892, #880, #1082 ) ;
#1247 = CARTESIAN_POINT ( 'NONE',  ( -0.2499999999999998335, 0.5600000000000000533, -0.2249999999999999500 ) ) ;
#1248 = PLANE ( 'NONE',  #590 ) ;
#1249 = FACE_OUTER_BOUND ( 'NONE', #1242, .T. ) ;
#1250 = DIRECTION ( 'NONE',  ( -1.000000000000000000, -0.0000000000000000000, 8.673617379884035472E-17 ) ) ;
#1251 = CARTESIAN_POINT ( 'NONE',  ( -0.4749999999999997558, 0.5600000000000000533, 0.2499999999999999445 ) ) ;
#1252 = EDGE_CURVE ( 'NONE', #646, #46, #438, .T. ) ;
#1253 = LINE ( 'NONE', #402, #814 ) ;
#1254 = LINE ( 'NONE', #1259, #91 ) ;
#1255 = AXIS2_PLACEMENT_3D ( 'NONE', #1032, #828, #526 ) ;
#1256 = VERTEX_POINT ( 'NONE', #574 ) ;
#1257 = CARTESIAN_POINT ( 'NONE',  ( -0.2499999999999997780, 0.02499999999999995628, 0.2499999999999999445 ) ) ;
#1258 = FACE_OUTER_BOUND ( 'NONE', #757, .T. ) ;
#1259 = CARTESIAN_POINT ( 'NONE',  ( 500000.0000000000582, 0.5350000000000001421, -0.2416666667100346999 ) ) ;
#1260 = VERTEX_POINT ( 'NONE', #1147 ) ;
#1261 = ORIENTED_EDGE ( 'NONE', *, *, #506, .T. ) ;
#1262 = CARTESIAN_POINT ( 'NONE',  ( 0.5000000000000000000, 0.02499999999999995628, -0.2499999999999998890 ) ) ;
#1263 =( NAMED_UNIT ( * ) SI_UNIT ( $, .STERADIAN. ) SOLID_ANGLE_UNIT ( ) );
#1264 = CARTESIAN_POINT ( 'NONE',  ( -0.4749999999999997558, 0.02500000000000000139, 0.2249999999999999500 ) ) ;
#1265 = PRESENTATION_LAYER_ASSIGNMENT (  '', '', ( #709 ) ) ;
#1266 = CARTESIAN_POINT ( 'NONE',  ( 0.0000000000000000000, 0.0000000000000000000, 0.0000000000000000000 ) ) ;
#1267 = DIRECTION ( 'NONE',  ( 0.0000000000000000000, 0.0000000000000000000, 1.000000000000000000 ) ) ;
#1268 = CIRCLE ( 'NONE', #1033, 0.02500000000000001180 ) ;
#1269 = EDGE_CURVE ( 'NONE', #983, #805, #340, .T. ) ;
#1270 = DIRECTION ( 'NONE',  ( 0.0000000000000000000, -1.000000000000000000, 0.0000000000000000000 ) ) ;
#1271 = LINE ( 'NONE', #1063, #316 ) ;
#1272 = AXIS2_PLACEMENT_3D ( 'NONE', #1234, #1038, #753 ) ;
#1273 = ORIENTED_EDGE ( 'NONE', *, *, #240, .T. ) ;
#1274 = VECTOR ( 'NONE', #844, 1000.000000000000000 ) ;
#1275 = EDGE_LOOP ( 'NONE', ( #1156, #680, #378, #359, #446, #835, #275, #865 ) ) ;
#1276 = FACE_OUTER_BOUND ( 'NONE', #998, .T. ) ;
#1277 = ADVANCED_FACE ( 'NONE', ( #829 ), #1064, .F. ) ;
#1278 = AXIS2_PLACEMENT_3D ( 'NONE', #671, #458, #1136 ) ;
#1279 = CARTESIAN_POINT ( 'NONE',  ( 0.4749999999999999778, 0.02499999999999995628, -0.2499999999999998890 ) ) ;
#1280 = ORIENTED_EDGE ( 'NONE', *, *, #765, .T. ) ;
ENDSEC;
END-ISO-10303-21;
