%TF.GenerationSoftware,KiCad,Pcbnew,9.0.4*%
%TF.CreationDate,2025-12-30T15:29:52-05:00*%
%TF.ProjectId,sb-tpu,73622d74-7075-42e6-9b69-6361645f7063,rev?*%
%TF.SameCoordinates,Original*%
%TF.FileFunction,Drillmap*%
%TF.FilePolarity,Positive*%
%FSLAX45Y45*%
G04 Gerber Fmt 4.5, Leading zero omitted, Abs format (unit mm)*
G04 Created by KiCad (PCBNEW 9.0.4) date 2025-12-30 15:29:52*
%MOMM*%
%LPD*%
G01*
G04 APERTURE LIST*
%ADD10C,0.050000*%
%ADD11C,0.200000*%
%ADD12C,0.100000*%
G04 APERTURE END LIST*
D10*
X16300000Y-12046000D02*
X16300000Y-8254000D01*
X16300000Y-12046000D02*
G75*
G02*
X16046000Y-12300000I-254000J0D01*
G01*
X16046000Y-8000000D02*
G75*
G02*
X16300000Y-8254000I0J-254000D01*
G01*
X12254000Y-12300000D02*
G75*
G02*
X12000000Y-12046000I0J254000D01*
G01*
X12254000Y-8000000D02*
X16046000Y-8000000D01*
X12000000Y-8254000D02*
G75*
G02*
X12254000Y-8000000I254000J0D01*
G01*
X12000000Y-12046000D02*
X12000000Y-8254000D01*
X12254000Y-12300000D02*
X16046000Y-12300000D01*
D11*
D12*
X12501250Y-10448075D02*
X12561250Y-10508075D01*
X12561250Y-10448075D02*
X12501250Y-10508075D01*
X12562750Y-9878075D02*
G75*
G02*
X12499750Y-9878075I-31500J0D01*
G01*
X12499750Y-9878075D02*
G75*
G02*
X12562750Y-9878075I31500J0D01*
G01*
D11*
X12258277Y-12613984D02*
X12258277Y-12413984D01*
X12258277Y-12413984D02*
X12305896Y-12413984D01*
X12305896Y-12413984D02*
X12334467Y-12423508D01*
X12334467Y-12423508D02*
X12353515Y-12442555D01*
X12353515Y-12442555D02*
X12363039Y-12461603D01*
X12363039Y-12461603D02*
X12372562Y-12499698D01*
X12372562Y-12499698D02*
X12372562Y-12528269D01*
X12372562Y-12528269D02*
X12363039Y-12566365D01*
X12363039Y-12566365D02*
X12353515Y-12585412D01*
X12353515Y-12585412D02*
X12334467Y-12604460D01*
X12334467Y-12604460D02*
X12305896Y-12613984D01*
X12305896Y-12613984D02*
X12258277Y-12613984D01*
X12458277Y-12613984D02*
X12458277Y-12480650D01*
X12458277Y-12518746D02*
X12467801Y-12499698D01*
X12467801Y-12499698D02*
X12477324Y-12490174D01*
X12477324Y-12490174D02*
X12496372Y-12480650D01*
X12496372Y-12480650D02*
X12515420Y-12480650D01*
X12582086Y-12613984D02*
X12582086Y-12480650D01*
X12582086Y-12413984D02*
X12572562Y-12423508D01*
X12572562Y-12423508D02*
X12582086Y-12433031D01*
X12582086Y-12433031D02*
X12591610Y-12423508D01*
X12591610Y-12423508D02*
X12582086Y-12413984D01*
X12582086Y-12413984D02*
X12582086Y-12433031D01*
X12705896Y-12613984D02*
X12686848Y-12604460D01*
X12686848Y-12604460D02*
X12677324Y-12585412D01*
X12677324Y-12585412D02*
X12677324Y-12413984D01*
X12810658Y-12613984D02*
X12791610Y-12604460D01*
X12791610Y-12604460D02*
X12782086Y-12585412D01*
X12782086Y-12585412D02*
X12782086Y-12413984D01*
X13039229Y-12613984D02*
X13039229Y-12413984D01*
X13039229Y-12413984D02*
X13105896Y-12556841D01*
X13105896Y-12556841D02*
X13172562Y-12413984D01*
X13172562Y-12413984D02*
X13172562Y-12613984D01*
X13353515Y-12613984D02*
X13353515Y-12509222D01*
X13353515Y-12509222D02*
X13343991Y-12490174D01*
X13343991Y-12490174D02*
X13324943Y-12480650D01*
X13324943Y-12480650D02*
X13286848Y-12480650D01*
X13286848Y-12480650D02*
X13267801Y-12490174D01*
X13353515Y-12604460D02*
X13334467Y-12613984D01*
X13334467Y-12613984D02*
X13286848Y-12613984D01*
X13286848Y-12613984D02*
X13267801Y-12604460D01*
X13267801Y-12604460D02*
X13258277Y-12585412D01*
X13258277Y-12585412D02*
X13258277Y-12566365D01*
X13258277Y-12566365D02*
X13267801Y-12547317D01*
X13267801Y-12547317D02*
X13286848Y-12537793D01*
X13286848Y-12537793D02*
X13334467Y-12537793D01*
X13334467Y-12537793D02*
X13353515Y-12528269D01*
X13448753Y-12480650D02*
X13448753Y-12680650D01*
X13448753Y-12490174D02*
X13467801Y-12480650D01*
X13467801Y-12480650D02*
X13505896Y-12480650D01*
X13505896Y-12480650D02*
X13524943Y-12490174D01*
X13524943Y-12490174D02*
X13534467Y-12499698D01*
X13534467Y-12499698D02*
X13543991Y-12518746D01*
X13543991Y-12518746D02*
X13543991Y-12575888D01*
X13543991Y-12575888D02*
X13534467Y-12594936D01*
X13534467Y-12594936D02*
X13524943Y-12604460D01*
X13524943Y-12604460D02*
X13505896Y-12613984D01*
X13505896Y-12613984D02*
X13467801Y-12613984D01*
X13467801Y-12613984D02*
X13448753Y-12604460D01*
X13629705Y-12594936D02*
X13639229Y-12604460D01*
X13639229Y-12604460D02*
X13629705Y-12613984D01*
X13629705Y-12613984D02*
X13620182Y-12604460D01*
X13620182Y-12604460D02*
X13629705Y-12594936D01*
X13629705Y-12594936D02*
X13629705Y-12613984D01*
X13629705Y-12490174D02*
X13639229Y-12499698D01*
X13639229Y-12499698D02*
X13629705Y-12509222D01*
X13629705Y-12509222D02*
X13620182Y-12499698D01*
X13620182Y-12499698D02*
X13629705Y-12490174D01*
X13629705Y-12490174D02*
X13629705Y-12509222D01*
D12*
X11937500Y-12912500D02*
X11997500Y-12972500D01*
X11997500Y-12912500D02*
X11937500Y-12972500D01*
D11*
X12296372Y-12833984D02*
X12315420Y-12833984D01*
X12315420Y-12833984D02*
X12334467Y-12843508D01*
X12334467Y-12843508D02*
X12343991Y-12853031D01*
X12343991Y-12853031D02*
X12353515Y-12872079D01*
X12353515Y-12872079D02*
X12363039Y-12910174D01*
X12363039Y-12910174D02*
X12363039Y-12957793D01*
X12363039Y-12957793D02*
X12353515Y-12995888D01*
X12353515Y-12995888D02*
X12343991Y-13014936D01*
X12343991Y-13014936D02*
X12334467Y-13024460D01*
X12334467Y-13024460D02*
X12315420Y-13033984D01*
X12315420Y-13033984D02*
X12296372Y-13033984D01*
X12296372Y-13033984D02*
X12277324Y-13024460D01*
X12277324Y-13024460D02*
X12267801Y-13014936D01*
X12267801Y-13014936D02*
X12258277Y-12995888D01*
X12258277Y-12995888D02*
X12248753Y-12957793D01*
X12248753Y-12957793D02*
X12248753Y-12910174D01*
X12248753Y-12910174D02*
X12258277Y-12872079D01*
X12258277Y-12872079D02*
X12267801Y-12853031D01*
X12267801Y-12853031D02*
X12277324Y-12843508D01*
X12277324Y-12843508D02*
X12296372Y-12833984D01*
X12448753Y-13014936D02*
X12458277Y-13024460D01*
X12458277Y-13024460D02*
X12448753Y-13033984D01*
X12448753Y-13033984D02*
X12439229Y-13024460D01*
X12439229Y-13024460D02*
X12448753Y-13014936D01*
X12448753Y-13014936D02*
X12448753Y-13033984D01*
X12629705Y-12833984D02*
X12591610Y-12833984D01*
X12591610Y-12833984D02*
X12572562Y-12843508D01*
X12572562Y-12843508D02*
X12563039Y-12853031D01*
X12563039Y-12853031D02*
X12543991Y-12881603D01*
X12543991Y-12881603D02*
X12534467Y-12919698D01*
X12534467Y-12919698D02*
X12534467Y-12995888D01*
X12534467Y-12995888D02*
X12543991Y-13014936D01*
X12543991Y-13014936D02*
X12553515Y-13024460D01*
X12553515Y-13024460D02*
X12572562Y-13033984D01*
X12572562Y-13033984D02*
X12610658Y-13033984D01*
X12610658Y-13033984D02*
X12629705Y-13024460D01*
X12629705Y-13024460D02*
X12639229Y-13014936D01*
X12639229Y-13014936D02*
X12648753Y-12995888D01*
X12648753Y-12995888D02*
X12648753Y-12948269D01*
X12648753Y-12948269D02*
X12639229Y-12929222D01*
X12639229Y-12929222D02*
X12629705Y-12919698D01*
X12629705Y-12919698D02*
X12610658Y-12910174D01*
X12610658Y-12910174D02*
X12572562Y-12910174D01*
X12572562Y-12910174D02*
X12553515Y-12919698D01*
X12553515Y-12919698D02*
X12543991Y-12929222D01*
X12543991Y-12929222D02*
X12534467Y-12948269D01*
X12772562Y-12833984D02*
X12791610Y-12833984D01*
X12791610Y-12833984D02*
X12810658Y-12843508D01*
X12810658Y-12843508D02*
X12820182Y-12853031D01*
X12820182Y-12853031D02*
X12829705Y-12872079D01*
X12829705Y-12872079D02*
X12839229Y-12910174D01*
X12839229Y-12910174D02*
X12839229Y-12957793D01*
X12839229Y-12957793D02*
X12829705Y-12995888D01*
X12829705Y-12995888D02*
X12820182Y-13014936D01*
X12820182Y-13014936D02*
X12810658Y-13024460D01*
X12810658Y-13024460D02*
X12791610Y-13033984D01*
X12791610Y-13033984D02*
X12772562Y-13033984D01*
X12772562Y-13033984D02*
X12753515Y-13024460D01*
X12753515Y-13024460D02*
X12743991Y-13014936D01*
X12743991Y-13014936D02*
X12734467Y-12995888D01*
X12734467Y-12995888D02*
X12724943Y-12957793D01*
X12724943Y-12957793D02*
X12724943Y-12910174D01*
X12724943Y-12910174D02*
X12734467Y-12872079D01*
X12734467Y-12872079D02*
X12743991Y-12853031D01*
X12743991Y-12853031D02*
X12753515Y-12843508D01*
X12753515Y-12843508D02*
X12772562Y-12833984D01*
X12963039Y-12833984D02*
X12982086Y-12833984D01*
X12982086Y-12833984D02*
X13001134Y-12843508D01*
X13001134Y-12843508D02*
X13010658Y-12853031D01*
X13010658Y-12853031D02*
X13020182Y-12872079D01*
X13020182Y-12872079D02*
X13029705Y-12910174D01*
X13029705Y-12910174D02*
X13029705Y-12957793D01*
X13029705Y-12957793D02*
X13020182Y-12995888D01*
X13020182Y-12995888D02*
X13010658Y-13014936D01*
X13010658Y-13014936D02*
X13001134Y-13024460D01*
X13001134Y-13024460D02*
X12982086Y-13033984D01*
X12982086Y-13033984D02*
X12963039Y-13033984D01*
X12963039Y-13033984D02*
X12943991Y-13024460D01*
X12943991Y-13024460D02*
X12934467Y-13014936D01*
X12934467Y-13014936D02*
X12924943Y-12995888D01*
X12924943Y-12995888D02*
X12915420Y-12957793D01*
X12915420Y-12957793D02*
X12915420Y-12910174D01*
X12915420Y-12910174D02*
X12924943Y-12872079D01*
X12924943Y-12872079D02*
X12934467Y-12853031D01*
X12934467Y-12853031D02*
X12943991Y-12843508D01*
X12943991Y-12843508D02*
X12963039Y-12833984D01*
X13115420Y-13033984D02*
X13115420Y-12900650D01*
X13115420Y-12919698D02*
X13124943Y-12910174D01*
X13124943Y-12910174D02*
X13143991Y-12900650D01*
X13143991Y-12900650D02*
X13172563Y-12900650D01*
X13172563Y-12900650D02*
X13191610Y-12910174D01*
X13191610Y-12910174D02*
X13201134Y-12929222D01*
X13201134Y-12929222D02*
X13201134Y-13033984D01*
X13201134Y-12929222D02*
X13210658Y-12910174D01*
X13210658Y-12910174D02*
X13229705Y-12900650D01*
X13229705Y-12900650D02*
X13258277Y-12900650D01*
X13258277Y-12900650D02*
X13277324Y-12910174D01*
X13277324Y-12910174D02*
X13286848Y-12929222D01*
X13286848Y-12929222D02*
X13286848Y-13033984D01*
X13382086Y-13033984D02*
X13382086Y-12900650D01*
X13382086Y-12919698D02*
X13391610Y-12910174D01*
X13391610Y-12910174D02*
X13410658Y-12900650D01*
X13410658Y-12900650D02*
X13439229Y-12900650D01*
X13439229Y-12900650D02*
X13458277Y-12910174D01*
X13458277Y-12910174D02*
X13467801Y-12929222D01*
X13467801Y-12929222D02*
X13467801Y-13033984D01*
X13467801Y-12929222D02*
X13477324Y-12910174D01*
X13477324Y-12910174D02*
X13496372Y-12900650D01*
X13496372Y-12900650D02*
X13524943Y-12900650D01*
X13524943Y-12900650D02*
X13543991Y-12910174D01*
X13543991Y-12910174D02*
X13553515Y-12929222D01*
X13553515Y-12929222D02*
X13553515Y-13033984D01*
X13943991Y-12824460D02*
X13772563Y-13081603D01*
X14201134Y-12833984D02*
X14220182Y-12833984D01*
X14220182Y-12833984D02*
X14239229Y-12843508D01*
X14239229Y-12843508D02*
X14248753Y-12853031D01*
X14248753Y-12853031D02*
X14258277Y-12872079D01*
X14258277Y-12872079D02*
X14267801Y-12910174D01*
X14267801Y-12910174D02*
X14267801Y-12957793D01*
X14267801Y-12957793D02*
X14258277Y-12995888D01*
X14258277Y-12995888D02*
X14248753Y-13014936D01*
X14248753Y-13014936D02*
X14239229Y-13024460D01*
X14239229Y-13024460D02*
X14220182Y-13033984D01*
X14220182Y-13033984D02*
X14201134Y-13033984D01*
X14201134Y-13033984D02*
X14182086Y-13024460D01*
X14182086Y-13024460D02*
X14172563Y-13014936D01*
X14172563Y-13014936D02*
X14163039Y-12995888D01*
X14163039Y-12995888D02*
X14153515Y-12957793D01*
X14153515Y-12957793D02*
X14153515Y-12910174D01*
X14153515Y-12910174D02*
X14163039Y-12872079D01*
X14163039Y-12872079D02*
X14172563Y-12853031D01*
X14172563Y-12853031D02*
X14182086Y-12843508D01*
X14182086Y-12843508D02*
X14201134Y-12833984D01*
X14353515Y-13014936D02*
X14363039Y-13024460D01*
X14363039Y-13024460D02*
X14353515Y-13033984D01*
X14353515Y-13033984D02*
X14343991Y-13024460D01*
X14343991Y-13024460D02*
X14353515Y-13014936D01*
X14353515Y-13014936D02*
X14353515Y-13033984D01*
X14486848Y-12833984D02*
X14505896Y-12833984D01*
X14505896Y-12833984D02*
X14524944Y-12843508D01*
X14524944Y-12843508D02*
X14534467Y-12853031D01*
X14534467Y-12853031D02*
X14543991Y-12872079D01*
X14543991Y-12872079D02*
X14553515Y-12910174D01*
X14553515Y-12910174D02*
X14553515Y-12957793D01*
X14553515Y-12957793D02*
X14543991Y-12995888D01*
X14543991Y-12995888D02*
X14534467Y-13014936D01*
X14534467Y-13014936D02*
X14524944Y-13024460D01*
X14524944Y-13024460D02*
X14505896Y-13033984D01*
X14505896Y-13033984D02*
X14486848Y-13033984D01*
X14486848Y-13033984D02*
X14467801Y-13024460D01*
X14467801Y-13024460D02*
X14458277Y-13014936D01*
X14458277Y-13014936D02*
X14448753Y-12995888D01*
X14448753Y-12995888D02*
X14439229Y-12957793D01*
X14439229Y-12957793D02*
X14439229Y-12910174D01*
X14439229Y-12910174D02*
X14448753Y-12872079D01*
X14448753Y-12872079D02*
X14458277Y-12853031D01*
X14458277Y-12853031D02*
X14467801Y-12843508D01*
X14467801Y-12843508D02*
X14486848Y-12833984D01*
X14629706Y-12853031D02*
X14639229Y-12843508D01*
X14639229Y-12843508D02*
X14658277Y-12833984D01*
X14658277Y-12833984D02*
X14705896Y-12833984D01*
X14705896Y-12833984D02*
X14724944Y-12843508D01*
X14724944Y-12843508D02*
X14734467Y-12853031D01*
X14734467Y-12853031D02*
X14743991Y-12872079D01*
X14743991Y-12872079D02*
X14743991Y-12891127D01*
X14743991Y-12891127D02*
X14734467Y-12919698D01*
X14734467Y-12919698D02*
X14620182Y-13033984D01*
X14620182Y-13033984D02*
X14743991Y-13033984D01*
X14810658Y-12833984D02*
X14934467Y-12833984D01*
X14934467Y-12833984D02*
X14867801Y-12910174D01*
X14867801Y-12910174D02*
X14896372Y-12910174D01*
X14896372Y-12910174D02*
X14915420Y-12919698D01*
X14915420Y-12919698D02*
X14924944Y-12929222D01*
X14924944Y-12929222D02*
X14934467Y-12948269D01*
X14934467Y-12948269D02*
X14934467Y-12995888D01*
X14934467Y-12995888D02*
X14924944Y-13014936D01*
X14924944Y-13014936D02*
X14915420Y-13024460D01*
X14915420Y-13024460D02*
X14896372Y-13033984D01*
X14896372Y-13033984D02*
X14839229Y-13033984D01*
X14839229Y-13033984D02*
X14820182Y-13024460D01*
X14820182Y-13024460D02*
X14810658Y-13014936D01*
X15105896Y-12833984D02*
X15067801Y-12833984D01*
X15067801Y-12833984D02*
X15048753Y-12843508D01*
X15048753Y-12843508D02*
X15039229Y-12853031D01*
X15039229Y-12853031D02*
X15020182Y-12881603D01*
X15020182Y-12881603D02*
X15010658Y-12919698D01*
X15010658Y-12919698D02*
X15010658Y-12995888D01*
X15010658Y-12995888D02*
X15020182Y-13014936D01*
X15020182Y-13014936D02*
X15029706Y-13024460D01*
X15029706Y-13024460D02*
X15048753Y-13033984D01*
X15048753Y-13033984D02*
X15086848Y-13033984D01*
X15086848Y-13033984D02*
X15105896Y-13024460D01*
X15105896Y-13024460D02*
X15115420Y-13014936D01*
X15115420Y-13014936D02*
X15124944Y-12995888D01*
X15124944Y-12995888D02*
X15124944Y-12948269D01*
X15124944Y-12948269D02*
X15115420Y-12929222D01*
X15115420Y-12929222D02*
X15105896Y-12919698D01*
X15105896Y-12919698D02*
X15086848Y-12910174D01*
X15086848Y-12910174D02*
X15048753Y-12910174D01*
X15048753Y-12910174D02*
X15029706Y-12919698D01*
X15029706Y-12919698D02*
X15020182Y-12929222D01*
X15020182Y-12929222D02*
X15010658Y-12948269D01*
X15201134Y-12833984D02*
X15201134Y-12872079D01*
X15277325Y-12833984D02*
X15277325Y-12872079D01*
X15572563Y-13110174D02*
X15563039Y-13100650D01*
X15563039Y-13100650D02*
X15543991Y-13072079D01*
X15543991Y-13072079D02*
X15534468Y-13053031D01*
X15534468Y-13053031D02*
X15524944Y-13024460D01*
X15524944Y-13024460D02*
X15515420Y-12976841D01*
X15515420Y-12976841D02*
X15515420Y-12938746D01*
X15515420Y-12938746D02*
X15524944Y-12891127D01*
X15524944Y-12891127D02*
X15534468Y-12862555D01*
X15534468Y-12862555D02*
X15543991Y-12843508D01*
X15543991Y-12843508D02*
X15563039Y-12814936D01*
X15563039Y-12814936D02*
X15572563Y-12805412D01*
X15753515Y-13033984D02*
X15639229Y-13033984D01*
X15696372Y-13033984D02*
X15696372Y-12833984D01*
X15696372Y-12833984D02*
X15677325Y-12862555D01*
X15677325Y-12862555D02*
X15658277Y-12881603D01*
X15658277Y-12881603D02*
X15639229Y-12891127D01*
X15991610Y-13033984D02*
X15991610Y-12833984D01*
X16077325Y-13033984D02*
X16077325Y-12929222D01*
X16077325Y-12929222D02*
X16067801Y-12910174D01*
X16067801Y-12910174D02*
X16048753Y-12900650D01*
X16048753Y-12900650D02*
X16020182Y-12900650D01*
X16020182Y-12900650D02*
X16001134Y-12910174D01*
X16001134Y-12910174D02*
X15991610Y-12919698D01*
X16201134Y-13033984D02*
X16182087Y-13024460D01*
X16182087Y-13024460D02*
X16172563Y-13014936D01*
X16172563Y-13014936D02*
X16163039Y-12995888D01*
X16163039Y-12995888D02*
X16163039Y-12938746D01*
X16163039Y-12938746D02*
X16172563Y-12919698D01*
X16172563Y-12919698D02*
X16182087Y-12910174D01*
X16182087Y-12910174D02*
X16201134Y-12900650D01*
X16201134Y-12900650D02*
X16229706Y-12900650D01*
X16229706Y-12900650D02*
X16248753Y-12910174D01*
X16248753Y-12910174D02*
X16258277Y-12919698D01*
X16258277Y-12919698D02*
X16267801Y-12938746D01*
X16267801Y-12938746D02*
X16267801Y-12995888D01*
X16267801Y-12995888D02*
X16258277Y-13014936D01*
X16258277Y-13014936D02*
X16248753Y-13024460D01*
X16248753Y-13024460D02*
X16229706Y-13033984D01*
X16229706Y-13033984D02*
X16201134Y-13033984D01*
X16382087Y-13033984D02*
X16363039Y-13024460D01*
X16363039Y-13024460D02*
X16353515Y-13005412D01*
X16353515Y-13005412D02*
X16353515Y-12833984D01*
X16534468Y-13024460D02*
X16515420Y-13033984D01*
X16515420Y-13033984D02*
X16477325Y-13033984D01*
X16477325Y-13033984D02*
X16458277Y-13024460D01*
X16458277Y-13024460D02*
X16448753Y-13005412D01*
X16448753Y-13005412D02*
X16448753Y-12929222D01*
X16448753Y-12929222D02*
X16458277Y-12910174D01*
X16458277Y-12910174D02*
X16477325Y-12900650D01*
X16477325Y-12900650D02*
X16515420Y-12900650D01*
X16515420Y-12900650D02*
X16534468Y-12910174D01*
X16534468Y-12910174D02*
X16543991Y-12929222D01*
X16543991Y-12929222D02*
X16543991Y-12948269D01*
X16543991Y-12948269D02*
X16448753Y-12967317D01*
X16610658Y-13110174D02*
X16620182Y-13100650D01*
X16620182Y-13100650D02*
X16639230Y-13072079D01*
X16639230Y-13072079D02*
X16648753Y-13053031D01*
X16648753Y-13053031D02*
X16658277Y-13024460D01*
X16658277Y-13024460D02*
X16667801Y-12976841D01*
X16667801Y-12976841D02*
X16667801Y-12938746D01*
X16667801Y-12938746D02*
X16658277Y-12891127D01*
X16658277Y-12891127D02*
X16648753Y-12862555D01*
X16648753Y-12862555D02*
X16639230Y-12843508D01*
X16639230Y-12843508D02*
X16620182Y-12814936D01*
X16620182Y-12814936D02*
X16610658Y-12805412D01*
X16972563Y-13110174D02*
X16963039Y-13100650D01*
X16963039Y-13100650D02*
X16943992Y-13072079D01*
X16943992Y-13072079D02*
X16934468Y-13053031D01*
X16934468Y-13053031D02*
X16924944Y-13024460D01*
X16924944Y-13024460D02*
X16915420Y-12976841D01*
X16915420Y-12976841D02*
X16915420Y-12938746D01*
X16915420Y-12938746D02*
X16924944Y-12891127D01*
X16924944Y-12891127D02*
X16934468Y-12862555D01*
X16934468Y-12862555D02*
X16943992Y-12843508D01*
X16943992Y-12843508D02*
X16963039Y-12814936D01*
X16963039Y-12814936D02*
X16972563Y-12805412D01*
X17048753Y-12900650D02*
X17048753Y-13033984D01*
X17048753Y-12919698D02*
X17058277Y-12910174D01*
X17058277Y-12910174D02*
X17077325Y-12900650D01*
X17077325Y-12900650D02*
X17105896Y-12900650D01*
X17105896Y-12900650D02*
X17124944Y-12910174D01*
X17124944Y-12910174D02*
X17134468Y-12929222D01*
X17134468Y-12929222D02*
X17134468Y-13033984D01*
X17258277Y-13033984D02*
X17239230Y-13024460D01*
X17239230Y-13024460D02*
X17229706Y-13014936D01*
X17229706Y-13014936D02*
X17220182Y-12995888D01*
X17220182Y-12995888D02*
X17220182Y-12938746D01*
X17220182Y-12938746D02*
X17229706Y-12919698D01*
X17229706Y-12919698D02*
X17239230Y-12910174D01*
X17239230Y-12910174D02*
X17258277Y-12900650D01*
X17258277Y-12900650D02*
X17286849Y-12900650D01*
X17286849Y-12900650D02*
X17305896Y-12910174D01*
X17305896Y-12910174D02*
X17315420Y-12919698D01*
X17315420Y-12919698D02*
X17324944Y-12938746D01*
X17324944Y-12938746D02*
X17324944Y-12995888D01*
X17324944Y-12995888D02*
X17315420Y-13014936D01*
X17315420Y-13014936D02*
X17305896Y-13024460D01*
X17305896Y-13024460D02*
X17286849Y-13033984D01*
X17286849Y-13033984D02*
X17258277Y-13033984D01*
X17382087Y-12900650D02*
X17458277Y-12900650D01*
X17410658Y-12833984D02*
X17410658Y-13005412D01*
X17410658Y-13005412D02*
X17420182Y-13024460D01*
X17420182Y-13024460D02*
X17439230Y-13033984D01*
X17439230Y-13033984D02*
X17458277Y-13033984D01*
X17677325Y-12900650D02*
X17677325Y-13100650D01*
X17677325Y-12910174D02*
X17696373Y-12900650D01*
X17696373Y-12900650D02*
X17734468Y-12900650D01*
X17734468Y-12900650D02*
X17753515Y-12910174D01*
X17753515Y-12910174D02*
X17763039Y-12919698D01*
X17763039Y-12919698D02*
X17772563Y-12938746D01*
X17772563Y-12938746D02*
X17772563Y-12995888D01*
X17772563Y-12995888D02*
X17763039Y-13014936D01*
X17763039Y-13014936D02*
X17753515Y-13024460D01*
X17753515Y-13024460D02*
X17734468Y-13033984D01*
X17734468Y-13033984D02*
X17696373Y-13033984D01*
X17696373Y-13033984D02*
X17677325Y-13024460D01*
X17886849Y-13033984D02*
X17867801Y-13024460D01*
X17867801Y-13024460D02*
X17858277Y-13005412D01*
X17858277Y-13005412D02*
X17858277Y-12833984D01*
X18048754Y-13033984D02*
X18048754Y-12929222D01*
X18048754Y-12929222D02*
X18039230Y-12910174D01*
X18039230Y-12910174D02*
X18020182Y-12900650D01*
X18020182Y-12900650D02*
X17982087Y-12900650D01*
X17982087Y-12900650D02*
X17963039Y-12910174D01*
X18048754Y-13024460D02*
X18029706Y-13033984D01*
X18029706Y-13033984D02*
X17982087Y-13033984D01*
X17982087Y-13033984D02*
X17963039Y-13024460D01*
X17963039Y-13024460D02*
X17953515Y-13005412D01*
X17953515Y-13005412D02*
X17953515Y-12986365D01*
X17953515Y-12986365D02*
X17963039Y-12967317D01*
X17963039Y-12967317D02*
X17982087Y-12957793D01*
X17982087Y-12957793D02*
X18029706Y-12957793D01*
X18029706Y-12957793D02*
X18048754Y-12948269D01*
X18115420Y-12900650D02*
X18191611Y-12900650D01*
X18143992Y-12833984D02*
X18143992Y-13005412D01*
X18143992Y-13005412D02*
X18153515Y-13024460D01*
X18153515Y-13024460D02*
X18172563Y-13033984D01*
X18172563Y-13033984D02*
X18191611Y-13033984D01*
X18334468Y-13024460D02*
X18315420Y-13033984D01*
X18315420Y-13033984D02*
X18277325Y-13033984D01*
X18277325Y-13033984D02*
X18258277Y-13024460D01*
X18258277Y-13024460D02*
X18248754Y-13005412D01*
X18248754Y-13005412D02*
X18248754Y-12929222D01*
X18248754Y-12929222D02*
X18258277Y-12910174D01*
X18258277Y-12910174D02*
X18277325Y-12900650D01*
X18277325Y-12900650D02*
X18315420Y-12900650D01*
X18315420Y-12900650D02*
X18334468Y-12910174D01*
X18334468Y-12910174D02*
X18343992Y-12929222D01*
X18343992Y-12929222D02*
X18343992Y-12948269D01*
X18343992Y-12948269D02*
X18248754Y-12967317D01*
X18515420Y-13033984D02*
X18515420Y-12833984D01*
X18515420Y-13024460D02*
X18496373Y-13033984D01*
X18496373Y-13033984D02*
X18458277Y-13033984D01*
X18458277Y-13033984D02*
X18439230Y-13024460D01*
X18439230Y-13024460D02*
X18429706Y-13014936D01*
X18429706Y-13014936D02*
X18420182Y-12995888D01*
X18420182Y-12995888D02*
X18420182Y-12938746D01*
X18420182Y-12938746D02*
X18429706Y-12919698D01*
X18429706Y-12919698D02*
X18439230Y-12910174D01*
X18439230Y-12910174D02*
X18458277Y-12900650D01*
X18458277Y-12900650D02*
X18496373Y-12900650D01*
X18496373Y-12900650D02*
X18515420Y-12910174D01*
X18591611Y-13110174D02*
X18601135Y-13100650D01*
X18601135Y-13100650D02*
X18620182Y-13072079D01*
X18620182Y-13072079D02*
X18629706Y-13053031D01*
X18629706Y-13053031D02*
X18639230Y-13024460D01*
X18639230Y-13024460D02*
X18648754Y-12976841D01*
X18648754Y-12976841D02*
X18648754Y-12938746D01*
X18648754Y-12938746D02*
X18639230Y-12891127D01*
X18639230Y-12891127D02*
X18629706Y-12862555D01*
X18629706Y-12862555D02*
X18620182Y-12843508D01*
X18620182Y-12843508D02*
X18601135Y-12814936D01*
X18601135Y-12814936D02*
X18591611Y-12805412D01*
D12*
X11997500Y-13206500D02*
G75*
G02*
X11934500Y-13206500I-31500J0D01*
G01*
X11934500Y-13206500D02*
G75*
G02*
X11997500Y-13206500I31500J0D01*
G01*
D11*
X12296372Y-13097984D02*
X12315420Y-13097984D01*
X12315420Y-13097984D02*
X12334467Y-13107508D01*
X12334467Y-13107508D02*
X12343991Y-13117031D01*
X12343991Y-13117031D02*
X12353515Y-13136079D01*
X12353515Y-13136079D02*
X12363039Y-13174174D01*
X12363039Y-13174174D02*
X12363039Y-13221793D01*
X12363039Y-13221793D02*
X12353515Y-13259888D01*
X12353515Y-13259888D02*
X12343991Y-13278936D01*
X12343991Y-13278936D02*
X12334467Y-13288460D01*
X12334467Y-13288460D02*
X12315420Y-13297984D01*
X12315420Y-13297984D02*
X12296372Y-13297984D01*
X12296372Y-13297984D02*
X12277324Y-13288460D01*
X12277324Y-13288460D02*
X12267801Y-13278936D01*
X12267801Y-13278936D02*
X12258277Y-13259888D01*
X12258277Y-13259888D02*
X12248753Y-13221793D01*
X12248753Y-13221793D02*
X12248753Y-13174174D01*
X12248753Y-13174174D02*
X12258277Y-13136079D01*
X12258277Y-13136079D02*
X12267801Y-13117031D01*
X12267801Y-13117031D02*
X12277324Y-13107508D01*
X12277324Y-13107508D02*
X12296372Y-13097984D01*
X12448753Y-13278936D02*
X12458277Y-13288460D01*
X12458277Y-13288460D02*
X12448753Y-13297984D01*
X12448753Y-13297984D02*
X12439229Y-13288460D01*
X12439229Y-13288460D02*
X12448753Y-13278936D01*
X12448753Y-13278936D02*
X12448753Y-13297984D01*
X12629705Y-13097984D02*
X12591610Y-13097984D01*
X12591610Y-13097984D02*
X12572562Y-13107508D01*
X12572562Y-13107508D02*
X12563039Y-13117031D01*
X12563039Y-13117031D02*
X12543991Y-13145603D01*
X12543991Y-13145603D02*
X12534467Y-13183698D01*
X12534467Y-13183698D02*
X12534467Y-13259888D01*
X12534467Y-13259888D02*
X12543991Y-13278936D01*
X12543991Y-13278936D02*
X12553515Y-13288460D01*
X12553515Y-13288460D02*
X12572562Y-13297984D01*
X12572562Y-13297984D02*
X12610658Y-13297984D01*
X12610658Y-13297984D02*
X12629705Y-13288460D01*
X12629705Y-13288460D02*
X12639229Y-13278936D01*
X12639229Y-13278936D02*
X12648753Y-13259888D01*
X12648753Y-13259888D02*
X12648753Y-13212269D01*
X12648753Y-13212269D02*
X12639229Y-13193222D01*
X12639229Y-13193222D02*
X12629705Y-13183698D01*
X12629705Y-13183698D02*
X12610658Y-13174174D01*
X12610658Y-13174174D02*
X12572562Y-13174174D01*
X12572562Y-13174174D02*
X12553515Y-13183698D01*
X12553515Y-13183698D02*
X12543991Y-13193222D01*
X12543991Y-13193222D02*
X12534467Y-13212269D01*
X12715420Y-13097984D02*
X12839229Y-13097984D01*
X12839229Y-13097984D02*
X12772562Y-13174174D01*
X12772562Y-13174174D02*
X12801134Y-13174174D01*
X12801134Y-13174174D02*
X12820182Y-13183698D01*
X12820182Y-13183698D02*
X12829705Y-13193222D01*
X12829705Y-13193222D02*
X12839229Y-13212269D01*
X12839229Y-13212269D02*
X12839229Y-13259888D01*
X12839229Y-13259888D02*
X12829705Y-13278936D01*
X12829705Y-13278936D02*
X12820182Y-13288460D01*
X12820182Y-13288460D02*
X12801134Y-13297984D01*
X12801134Y-13297984D02*
X12743991Y-13297984D01*
X12743991Y-13297984D02*
X12724943Y-13288460D01*
X12724943Y-13288460D02*
X12715420Y-13278936D01*
X12963039Y-13097984D02*
X12982086Y-13097984D01*
X12982086Y-13097984D02*
X13001134Y-13107508D01*
X13001134Y-13107508D02*
X13010658Y-13117031D01*
X13010658Y-13117031D02*
X13020182Y-13136079D01*
X13020182Y-13136079D02*
X13029705Y-13174174D01*
X13029705Y-13174174D02*
X13029705Y-13221793D01*
X13029705Y-13221793D02*
X13020182Y-13259888D01*
X13020182Y-13259888D02*
X13010658Y-13278936D01*
X13010658Y-13278936D02*
X13001134Y-13288460D01*
X13001134Y-13288460D02*
X12982086Y-13297984D01*
X12982086Y-13297984D02*
X12963039Y-13297984D01*
X12963039Y-13297984D02*
X12943991Y-13288460D01*
X12943991Y-13288460D02*
X12934467Y-13278936D01*
X12934467Y-13278936D02*
X12924943Y-13259888D01*
X12924943Y-13259888D02*
X12915420Y-13221793D01*
X12915420Y-13221793D02*
X12915420Y-13174174D01*
X12915420Y-13174174D02*
X12924943Y-13136079D01*
X12924943Y-13136079D02*
X12934467Y-13117031D01*
X12934467Y-13117031D02*
X12943991Y-13107508D01*
X12943991Y-13107508D02*
X12963039Y-13097984D01*
X13115420Y-13297984D02*
X13115420Y-13164650D01*
X13115420Y-13183698D02*
X13124943Y-13174174D01*
X13124943Y-13174174D02*
X13143991Y-13164650D01*
X13143991Y-13164650D02*
X13172563Y-13164650D01*
X13172563Y-13164650D02*
X13191610Y-13174174D01*
X13191610Y-13174174D02*
X13201134Y-13193222D01*
X13201134Y-13193222D02*
X13201134Y-13297984D01*
X13201134Y-13193222D02*
X13210658Y-13174174D01*
X13210658Y-13174174D02*
X13229705Y-13164650D01*
X13229705Y-13164650D02*
X13258277Y-13164650D01*
X13258277Y-13164650D02*
X13277324Y-13174174D01*
X13277324Y-13174174D02*
X13286848Y-13193222D01*
X13286848Y-13193222D02*
X13286848Y-13297984D01*
X13382086Y-13297984D02*
X13382086Y-13164650D01*
X13382086Y-13183698D02*
X13391610Y-13174174D01*
X13391610Y-13174174D02*
X13410658Y-13164650D01*
X13410658Y-13164650D02*
X13439229Y-13164650D01*
X13439229Y-13164650D02*
X13458277Y-13174174D01*
X13458277Y-13174174D02*
X13467801Y-13193222D01*
X13467801Y-13193222D02*
X13467801Y-13297984D01*
X13467801Y-13193222D02*
X13477324Y-13174174D01*
X13477324Y-13174174D02*
X13496372Y-13164650D01*
X13496372Y-13164650D02*
X13524943Y-13164650D01*
X13524943Y-13164650D02*
X13543991Y-13174174D01*
X13543991Y-13174174D02*
X13553515Y-13193222D01*
X13553515Y-13193222D02*
X13553515Y-13297984D01*
X13943991Y-13088460D02*
X13772563Y-13345603D01*
X14201134Y-13097984D02*
X14220182Y-13097984D01*
X14220182Y-13097984D02*
X14239229Y-13107508D01*
X14239229Y-13107508D02*
X14248753Y-13117031D01*
X14248753Y-13117031D02*
X14258277Y-13136079D01*
X14258277Y-13136079D02*
X14267801Y-13174174D01*
X14267801Y-13174174D02*
X14267801Y-13221793D01*
X14267801Y-13221793D02*
X14258277Y-13259888D01*
X14258277Y-13259888D02*
X14248753Y-13278936D01*
X14248753Y-13278936D02*
X14239229Y-13288460D01*
X14239229Y-13288460D02*
X14220182Y-13297984D01*
X14220182Y-13297984D02*
X14201134Y-13297984D01*
X14201134Y-13297984D02*
X14182086Y-13288460D01*
X14182086Y-13288460D02*
X14172563Y-13278936D01*
X14172563Y-13278936D02*
X14163039Y-13259888D01*
X14163039Y-13259888D02*
X14153515Y-13221793D01*
X14153515Y-13221793D02*
X14153515Y-13174174D01*
X14153515Y-13174174D02*
X14163039Y-13136079D01*
X14163039Y-13136079D02*
X14172563Y-13117031D01*
X14172563Y-13117031D02*
X14182086Y-13107508D01*
X14182086Y-13107508D02*
X14201134Y-13097984D01*
X14353515Y-13278936D02*
X14363039Y-13288460D01*
X14363039Y-13288460D02*
X14353515Y-13297984D01*
X14353515Y-13297984D02*
X14343991Y-13288460D01*
X14343991Y-13288460D02*
X14353515Y-13278936D01*
X14353515Y-13278936D02*
X14353515Y-13297984D01*
X14486848Y-13097984D02*
X14505896Y-13097984D01*
X14505896Y-13097984D02*
X14524944Y-13107508D01*
X14524944Y-13107508D02*
X14534467Y-13117031D01*
X14534467Y-13117031D02*
X14543991Y-13136079D01*
X14543991Y-13136079D02*
X14553515Y-13174174D01*
X14553515Y-13174174D02*
X14553515Y-13221793D01*
X14553515Y-13221793D02*
X14543991Y-13259888D01*
X14543991Y-13259888D02*
X14534467Y-13278936D01*
X14534467Y-13278936D02*
X14524944Y-13288460D01*
X14524944Y-13288460D02*
X14505896Y-13297984D01*
X14505896Y-13297984D02*
X14486848Y-13297984D01*
X14486848Y-13297984D02*
X14467801Y-13288460D01*
X14467801Y-13288460D02*
X14458277Y-13278936D01*
X14458277Y-13278936D02*
X14448753Y-13259888D01*
X14448753Y-13259888D02*
X14439229Y-13221793D01*
X14439229Y-13221793D02*
X14439229Y-13174174D01*
X14439229Y-13174174D02*
X14448753Y-13136079D01*
X14448753Y-13136079D02*
X14458277Y-13117031D01*
X14458277Y-13117031D02*
X14467801Y-13107508D01*
X14467801Y-13107508D02*
X14486848Y-13097984D01*
X14629706Y-13117031D02*
X14639229Y-13107508D01*
X14639229Y-13107508D02*
X14658277Y-13097984D01*
X14658277Y-13097984D02*
X14705896Y-13097984D01*
X14705896Y-13097984D02*
X14724944Y-13107508D01*
X14724944Y-13107508D02*
X14734467Y-13117031D01*
X14734467Y-13117031D02*
X14743991Y-13136079D01*
X14743991Y-13136079D02*
X14743991Y-13155127D01*
X14743991Y-13155127D02*
X14734467Y-13183698D01*
X14734467Y-13183698D02*
X14620182Y-13297984D01*
X14620182Y-13297984D02*
X14743991Y-13297984D01*
X14915420Y-13164650D02*
X14915420Y-13297984D01*
X14867801Y-13088460D02*
X14820182Y-13231317D01*
X14820182Y-13231317D02*
X14943991Y-13231317D01*
X15048753Y-13183698D02*
X15029706Y-13174174D01*
X15029706Y-13174174D02*
X15020182Y-13164650D01*
X15020182Y-13164650D02*
X15010658Y-13145603D01*
X15010658Y-13145603D02*
X15010658Y-13136079D01*
X15010658Y-13136079D02*
X15020182Y-13117031D01*
X15020182Y-13117031D02*
X15029706Y-13107508D01*
X15029706Y-13107508D02*
X15048753Y-13097984D01*
X15048753Y-13097984D02*
X15086848Y-13097984D01*
X15086848Y-13097984D02*
X15105896Y-13107508D01*
X15105896Y-13107508D02*
X15115420Y-13117031D01*
X15115420Y-13117031D02*
X15124944Y-13136079D01*
X15124944Y-13136079D02*
X15124944Y-13145603D01*
X15124944Y-13145603D02*
X15115420Y-13164650D01*
X15115420Y-13164650D02*
X15105896Y-13174174D01*
X15105896Y-13174174D02*
X15086848Y-13183698D01*
X15086848Y-13183698D02*
X15048753Y-13183698D01*
X15048753Y-13183698D02*
X15029706Y-13193222D01*
X15029706Y-13193222D02*
X15020182Y-13202746D01*
X15020182Y-13202746D02*
X15010658Y-13221793D01*
X15010658Y-13221793D02*
X15010658Y-13259888D01*
X15010658Y-13259888D02*
X15020182Y-13278936D01*
X15020182Y-13278936D02*
X15029706Y-13288460D01*
X15029706Y-13288460D02*
X15048753Y-13297984D01*
X15048753Y-13297984D02*
X15086848Y-13297984D01*
X15086848Y-13297984D02*
X15105896Y-13288460D01*
X15105896Y-13288460D02*
X15115420Y-13278936D01*
X15115420Y-13278936D02*
X15124944Y-13259888D01*
X15124944Y-13259888D02*
X15124944Y-13221793D01*
X15124944Y-13221793D02*
X15115420Y-13202746D01*
X15115420Y-13202746D02*
X15105896Y-13193222D01*
X15105896Y-13193222D02*
X15086848Y-13183698D01*
X15201134Y-13097984D02*
X15201134Y-13136079D01*
X15277325Y-13097984D02*
X15277325Y-13136079D01*
X15572563Y-13374174D02*
X15563039Y-13364650D01*
X15563039Y-13364650D02*
X15543991Y-13336079D01*
X15543991Y-13336079D02*
X15534468Y-13317031D01*
X15534468Y-13317031D02*
X15524944Y-13288460D01*
X15524944Y-13288460D02*
X15515420Y-13240841D01*
X15515420Y-13240841D02*
X15515420Y-13202746D01*
X15515420Y-13202746D02*
X15524944Y-13155127D01*
X15524944Y-13155127D02*
X15534468Y-13126555D01*
X15534468Y-13126555D02*
X15543991Y-13107508D01*
X15543991Y-13107508D02*
X15563039Y-13078936D01*
X15563039Y-13078936D02*
X15572563Y-13069412D01*
X15753515Y-13297984D02*
X15639229Y-13297984D01*
X15696372Y-13297984D02*
X15696372Y-13097984D01*
X15696372Y-13097984D02*
X15677325Y-13126555D01*
X15677325Y-13126555D02*
X15658277Y-13145603D01*
X15658277Y-13145603D02*
X15639229Y-13155127D01*
X15991610Y-13297984D02*
X15991610Y-13097984D01*
X16077325Y-13297984D02*
X16077325Y-13193222D01*
X16077325Y-13193222D02*
X16067801Y-13174174D01*
X16067801Y-13174174D02*
X16048753Y-13164650D01*
X16048753Y-13164650D02*
X16020182Y-13164650D01*
X16020182Y-13164650D02*
X16001134Y-13174174D01*
X16001134Y-13174174D02*
X15991610Y-13183698D01*
X16201134Y-13297984D02*
X16182087Y-13288460D01*
X16182087Y-13288460D02*
X16172563Y-13278936D01*
X16172563Y-13278936D02*
X16163039Y-13259888D01*
X16163039Y-13259888D02*
X16163039Y-13202746D01*
X16163039Y-13202746D02*
X16172563Y-13183698D01*
X16172563Y-13183698D02*
X16182087Y-13174174D01*
X16182087Y-13174174D02*
X16201134Y-13164650D01*
X16201134Y-13164650D02*
X16229706Y-13164650D01*
X16229706Y-13164650D02*
X16248753Y-13174174D01*
X16248753Y-13174174D02*
X16258277Y-13183698D01*
X16258277Y-13183698D02*
X16267801Y-13202746D01*
X16267801Y-13202746D02*
X16267801Y-13259888D01*
X16267801Y-13259888D02*
X16258277Y-13278936D01*
X16258277Y-13278936D02*
X16248753Y-13288460D01*
X16248753Y-13288460D02*
X16229706Y-13297984D01*
X16229706Y-13297984D02*
X16201134Y-13297984D01*
X16382087Y-13297984D02*
X16363039Y-13288460D01*
X16363039Y-13288460D02*
X16353515Y-13269412D01*
X16353515Y-13269412D02*
X16353515Y-13097984D01*
X16534468Y-13288460D02*
X16515420Y-13297984D01*
X16515420Y-13297984D02*
X16477325Y-13297984D01*
X16477325Y-13297984D02*
X16458277Y-13288460D01*
X16458277Y-13288460D02*
X16448753Y-13269412D01*
X16448753Y-13269412D02*
X16448753Y-13193222D01*
X16448753Y-13193222D02*
X16458277Y-13174174D01*
X16458277Y-13174174D02*
X16477325Y-13164650D01*
X16477325Y-13164650D02*
X16515420Y-13164650D01*
X16515420Y-13164650D02*
X16534468Y-13174174D01*
X16534468Y-13174174D02*
X16543991Y-13193222D01*
X16543991Y-13193222D02*
X16543991Y-13212269D01*
X16543991Y-13212269D02*
X16448753Y-13231317D01*
X16610658Y-13374174D02*
X16620182Y-13364650D01*
X16620182Y-13364650D02*
X16639230Y-13336079D01*
X16639230Y-13336079D02*
X16648753Y-13317031D01*
X16648753Y-13317031D02*
X16658277Y-13288460D01*
X16658277Y-13288460D02*
X16667801Y-13240841D01*
X16667801Y-13240841D02*
X16667801Y-13202746D01*
X16667801Y-13202746D02*
X16658277Y-13155127D01*
X16658277Y-13155127D02*
X16648753Y-13126555D01*
X16648753Y-13126555D02*
X16639230Y-13107508D01*
X16639230Y-13107508D02*
X16620182Y-13078936D01*
X16620182Y-13078936D02*
X16610658Y-13069412D01*
X16972563Y-13374174D02*
X16963039Y-13364650D01*
X16963039Y-13364650D02*
X16943992Y-13336079D01*
X16943992Y-13336079D02*
X16934468Y-13317031D01*
X16934468Y-13317031D02*
X16924944Y-13288460D01*
X16924944Y-13288460D02*
X16915420Y-13240841D01*
X16915420Y-13240841D02*
X16915420Y-13202746D01*
X16915420Y-13202746D02*
X16924944Y-13155127D01*
X16924944Y-13155127D02*
X16934468Y-13126555D01*
X16934468Y-13126555D02*
X16943992Y-13107508D01*
X16943992Y-13107508D02*
X16963039Y-13078936D01*
X16963039Y-13078936D02*
X16972563Y-13069412D01*
X17048753Y-13164650D02*
X17048753Y-13297984D01*
X17048753Y-13183698D02*
X17058277Y-13174174D01*
X17058277Y-13174174D02*
X17077325Y-13164650D01*
X17077325Y-13164650D02*
X17105896Y-13164650D01*
X17105896Y-13164650D02*
X17124944Y-13174174D01*
X17124944Y-13174174D02*
X17134468Y-13193222D01*
X17134468Y-13193222D02*
X17134468Y-13297984D01*
X17258277Y-13297984D02*
X17239230Y-13288460D01*
X17239230Y-13288460D02*
X17229706Y-13278936D01*
X17229706Y-13278936D02*
X17220182Y-13259888D01*
X17220182Y-13259888D02*
X17220182Y-13202746D01*
X17220182Y-13202746D02*
X17229706Y-13183698D01*
X17229706Y-13183698D02*
X17239230Y-13174174D01*
X17239230Y-13174174D02*
X17258277Y-13164650D01*
X17258277Y-13164650D02*
X17286849Y-13164650D01*
X17286849Y-13164650D02*
X17305896Y-13174174D01*
X17305896Y-13174174D02*
X17315420Y-13183698D01*
X17315420Y-13183698D02*
X17324944Y-13202746D01*
X17324944Y-13202746D02*
X17324944Y-13259888D01*
X17324944Y-13259888D02*
X17315420Y-13278936D01*
X17315420Y-13278936D02*
X17305896Y-13288460D01*
X17305896Y-13288460D02*
X17286849Y-13297984D01*
X17286849Y-13297984D02*
X17258277Y-13297984D01*
X17382087Y-13164650D02*
X17458277Y-13164650D01*
X17410658Y-13097984D02*
X17410658Y-13269412D01*
X17410658Y-13269412D02*
X17420182Y-13288460D01*
X17420182Y-13288460D02*
X17439230Y-13297984D01*
X17439230Y-13297984D02*
X17458277Y-13297984D01*
X17677325Y-13164650D02*
X17677325Y-13364650D01*
X17677325Y-13174174D02*
X17696373Y-13164650D01*
X17696373Y-13164650D02*
X17734468Y-13164650D01*
X17734468Y-13164650D02*
X17753515Y-13174174D01*
X17753515Y-13174174D02*
X17763039Y-13183698D01*
X17763039Y-13183698D02*
X17772563Y-13202746D01*
X17772563Y-13202746D02*
X17772563Y-13259888D01*
X17772563Y-13259888D02*
X17763039Y-13278936D01*
X17763039Y-13278936D02*
X17753515Y-13288460D01*
X17753515Y-13288460D02*
X17734468Y-13297984D01*
X17734468Y-13297984D02*
X17696373Y-13297984D01*
X17696373Y-13297984D02*
X17677325Y-13288460D01*
X17886849Y-13297984D02*
X17867801Y-13288460D01*
X17867801Y-13288460D02*
X17858277Y-13269412D01*
X17858277Y-13269412D02*
X17858277Y-13097984D01*
X18048754Y-13297984D02*
X18048754Y-13193222D01*
X18048754Y-13193222D02*
X18039230Y-13174174D01*
X18039230Y-13174174D02*
X18020182Y-13164650D01*
X18020182Y-13164650D02*
X17982087Y-13164650D01*
X17982087Y-13164650D02*
X17963039Y-13174174D01*
X18048754Y-13288460D02*
X18029706Y-13297984D01*
X18029706Y-13297984D02*
X17982087Y-13297984D01*
X17982087Y-13297984D02*
X17963039Y-13288460D01*
X17963039Y-13288460D02*
X17953515Y-13269412D01*
X17953515Y-13269412D02*
X17953515Y-13250365D01*
X17953515Y-13250365D02*
X17963039Y-13231317D01*
X17963039Y-13231317D02*
X17982087Y-13221793D01*
X17982087Y-13221793D02*
X18029706Y-13221793D01*
X18029706Y-13221793D02*
X18048754Y-13212269D01*
X18115420Y-13164650D02*
X18191611Y-13164650D01*
X18143992Y-13097984D02*
X18143992Y-13269412D01*
X18143992Y-13269412D02*
X18153515Y-13288460D01*
X18153515Y-13288460D02*
X18172563Y-13297984D01*
X18172563Y-13297984D02*
X18191611Y-13297984D01*
X18334468Y-13288460D02*
X18315420Y-13297984D01*
X18315420Y-13297984D02*
X18277325Y-13297984D01*
X18277325Y-13297984D02*
X18258277Y-13288460D01*
X18258277Y-13288460D02*
X18248754Y-13269412D01*
X18248754Y-13269412D02*
X18248754Y-13193222D01*
X18248754Y-13193222D02*
X18258277Y-13174174D01*
X18258277Y-13174174D02*
X18277325Y-13164650D01*
X18277325Y-13164650D02*
X18315420Y-13164650D01*
X18315420Y-13164650D02*
X18334468Y-13174174D01*
X18334468Y-13174174D02*
X18343992Y-13193222D01*
X18343992Y-13193222D02*
X18343992Y-13212269D01*
X18343992Y-13212269D02*
X18248754Y-13231317D01*
X18515420Y-13297984D02*
X18515420Y-13097984D01*
X18515420Y-13288460D02*
X18496373Y-13297984D01*
X18496373Y-13297984D02*
X18458277Y-13297984D01*
X18458277Y-13297984D02*
X18439230Y-13288460D01*
X18439230Y-13288460D02*
X18429706Y-13278936D01*
X18429706Y-13278936D02*
X18420182Y-13259888D01*
X18420182Y-13259888D02*
X18420182Y-13202746D01*
X18420182Y-13202746D02*
X18429706Y-13183698D01*
X18429706Y-13183698D02*
X18439230Y-13174174D01*
X18439230Y-13174174D02*
X18458277Y-13164650D01*
X18458277Y-13164650D02*
X18496373Y-13164650D01*
X18496373Y-13164650D02*
X18515420Y-13174174D01*
X18591611Y-13374174D02*
X18601135Y-13364650D01*
X18601135Y-13364650D02*
X18620182Y-13336079D01*
X18620182Y-13336079D02*
X18629706Y-13317031D01*
X18629706Y-13317031D02*
X18639230Y-13288460D01*
X18639230Y-13288460D02*
X18648754Y-13240841D01*
X18648754Y-13240841D02*
X18648754Y-13202746D01*
X18648754Y-13202746D02*
X18639230Y-13155127D01*
X18639230Y-13155127D02*
X18629706Y-13126555D01*
X18629706Y-13126555D02*
X18620182Y-13107508D01*
X18620182Y-13107508D02*
X18601135Y-13078936D01*
X18601135Y-13078936D02*
X18591611Y-13069412D01*
M02*
