%TF.GenerationSoftware,KiCad,Pcbnew,9.0.5*%
%TF.CreationDate,2025-11-20T15:57:12-05:00*%
%TF.ProjectId,sb-tpu,73622d74-7075-42e6-9b69-6361645f7063,rev?*%
%TF.SameCoordinates,Original*%
%TF.FileFunction,Plated,1,6,PTH,Mixed*%
%TF.FilePolarity,Positive*%
%FSLAX46Y46*%
G04 Gerber Fmt 4.6, Leading zero omitted, Abs format (unit mm)*
G04 Created by KiCad (PCBNEW 9.0.5) date 2025-11-20 15:57:12*
%MOMM*%
%LPD*%
G01*
G04 APERTURE LIST*
%TA.AperFunction,ViaDrill*%
%ADD10C,0.150000*%
%TD*%
G04 aperture for slot hole*
%TA.AperFunction,ComponentDrill*%
%ADD11C,0.650000*%
%TD*%
%TA.AperFunction,ComponentDrill*%
%ADD12C,1.000000*%
%TD*%
%TA.AperFunction,ComponentDrill*%
%ADD13C,2.100000*%
%TD*%
G04 APERTURE END LIST*
D10*
X123660000Y-94270000D03*
X126705000Y-92365000D03*
X127954773Y-104156261D03*
X128503092Y-102530751D03*
X128540000Y-103650000D03*
X128798100Y-111305369D03*
X128880000Y-103000000D03*
X129125996Y-98908880D03*
X129315688Y-102538188D03*
X129508171Y-101208666D03*
X129611629Y-97291629D03*
X129638531Y-94631480D03*
X130440000Y-95065000D03*
X130445000Y-108083313D03*
X130500000Y-106780000D03*
X130820000Y-100370000D03*
X130920000Y-113080000D03*
X131156971Y-96527586D03*
X131268363Y-99268363D03*
X131320000Y-115220000D03*
X131462073Y-117001398D03*
X131462073Y-117951398D03*
X131516967Y-104708303D03*
X131693217Y-86460585D03*
X131750000Y-113050000D03*
X132174000Y-100475998D03*
X132440000Y-106440000D03*
X132699937Y-114137629D03*
X132740000Y-116310000D03*
X132841401Y-103557381D03*
X133010000Y-107310000D03*
X133043919Y-93196380D03*
X133733894Y-100523513D03*
X134050622Y-100843177D03*
X134184559Y-110150000D03*
X134578764Y-92642876D03*
X134578765Y-94242875D03*
X134600000Y-110040000D03*
X134880000Y-101150000D03*
X134943335Y-111116665D03*
X135008075Y-101945925D03*
X135301267Y-110938733D03*
X135310000Y-118000000D03*
X135378765Y-93442875D03*
X135475464Y-101346173D03*
X135508719Y-103348007D03*
X135850000Y-94690000D03*
X135980000Y-92040000D03*
X135981210Y-112764284D03*
X136178764Y-105442874D03*
X136178765Y-97442873D03*
X136178765Y-100642876D03*
X136190000Y-101440000D03*
X136202256Y-100005755D03*
X136580000Y-97725269D03*
X136795604Y-94678554D03*
X136910000Y-109500000D03*
X136918107Y-104800060D03*
X136960000Y-99960000D03*
X136970000Y-92670000D03*
X136978762Y-103842874D03*
X136978764Y-105442872D03*
X136980000Y-100630000D03*
X137040000Y-107100000D03*
X137046433Y-103126433D03*
X137050000Y-108690000D03*
X137360000Y-94640000D03*
X137370000Y-97830000D03*
X137447979Y-101013782D03*
X137841000Y-108145172D03*
X137953612Y-104138140D03*
X138144885Y-102556030D03*
X138578764Y-94242874D03*
X138578764Y-94934156D03*
X138578764Y-100735000D03*
X138578764Y-102242874D03*
X138600000Y-91780000D03*
X138671393Y-99750245D03*
X138960000Y-93060000D03*
X138973029Y-98676971D03*
X139092488Y-99750273D03*
X139290000Y-88740000D03*
X139351693Y-94934156D03*
X139378764Y-92642874D03*
X139378765Y-95965000D03*
X139890000Y-114690000D03*
X139910000Y-116440000D03*
X140170000Y-94250000D03*
X140171000Y-101442874D03*
X140178764Y-96642874D03*
X140178764Y-103042874D03*
X140180000Y-93450000D03*
X140915764Y-92642874D03*
X140922964Y-101457871D03*
X140943012Y-97578222D03*
X140978764Y-102242874D03*
X140978764Y-103842874D03*
X141250000Y-108060000D03*
X141368974Y-101824635D03*
X141370000Y-102660000D03*
X141390763Y-95368403D03*
X141397468Y-107575000D03*
X141533446Y-107146034D03*
X141761009Y-102219874D03*
X141778764Y-97565000D03*
X141829112Y-109745172D03*
X141874266Y-107665553D03*
X142070000Y-106340184D03*
X142280241Y-95710002D03*
X142306012Y-99931980D03*
X142431997Y-113056106D03*
X142446584Y-97695663D03*
X142567765Y-94957424D03*
X142578763Y-103842876D03*
X142578764Y-93442874D03*
X142578764Y-103042876D03*
X142580000Y-94250000D03*
X142800000Y-114840000D03*
X142999282Y-96263394D03*
X143000000Y-90370000D03*
X143070000Y-84200000D03*
X143210000Y-85030000D03*
X143218847Y-94940111D03*
X143270000Y-100642874D03*
X143407351Y-106401825D03*
X143870000Y-116600000D03*
X143947418Y-102118825D03*
X143984651Y-106975000D03*
X144105000Y-103042873D03*
X144111764Y-100544723D03*
X144300000Y-101440000D03*
X144510000Y-85000000D03*
X144586998Y-102568192D03*
X144597560Y-101086266D03*
X144610000Y-97800000D03*
X144760138Y-96009764D03*
X144776286Y-108807044D03*
X144990000Y-101460000D03*
X145015764Y-104655000D03*
X145037240Y-103956939D03*
X145190000Y-111530000D03*
X145310000Y-84200000D03*
X145327999Y-94725000D03*
X145340000Y-107630000D03*
X145393048Y-97925298D03*
X145412116Y-103382876D03*
X145415000Y-98699316D03*
X145502235Y-101896703D03*
X145546465Y-113434584D03*
X145715000Y-99888229D03*
X145715000Y-100642874D03*
X145778762Y-103842874D03*
X145778762Y-104642874D03*
X145778764Y-101442874D03*
X145964086Y-97342451D03*
X146101878Y-114600594D03*
X146130012Y-94710012D03*
X146312730Y-102637900D03*
X146451000Y-103253005D03*
X146487550Y-97419215D03*
X146575427Y-99933507D03*
X146578766Y-102242873D03*
X146590000Y-101480000D03*
X146622067Y-98971423D03*
X146664639Y-105444000D03*
X147090048Y-104748113D03*
X147287550Y-97547450D03*
X147314309Y-103105000D03*
X147370000Y-98977507D03*
X147378764Y-98213754D03*
X147378764Y-103924726D03*
X147378764Y-105442874D03*
X147648766Y-102178453D03*
X147720000Y-101677491D03*
X147725000Y-92055000D03*
X147754141Y-107527874D03*
X148070000Y-94860000D03*
X148143479Y-96642876D03*
X148340000Y-98120000D03*
X148370000Y-98840000D03*
X148480000Y-90870000D03*
X148543478Y-100284180D03*
X148685000Y-95475000D03*
X148820000Y-98820000D03*
X149009754Y-101448137D03*
X149260751Y-106663675D03*
X149475894Y-95724106D03*
X149680000Y-118581000D03*
X149749498Y-103655525D03*
X149950000Y-114830329D03*
X150000550Y-95046678D03*
X150050295Y-101599909D03*
X150512000Y-97220000D03*
X150898781Y-105167847D03*
X150977946Y-101197392D03*
X151006239Y-115095000D03*
X151240000Y-98955000D03*
X151397523Y-91474278D03*
X151670000Y-102858726D03*
X151676882Y-95267988D03*
X151680000Y-100370000D03*
X151698781Y-105167847D03*
X151704181Y-101125749D03*
X152255172Y-103362501D03*
X152425438Y-115213513D03*
X152498781Y-99775000D03*
X152500000Y-107960000D03*
X152523338Y-96774306D03*
X152555000Y-114685000D03*
X152610000Y-105730000D03*
X152693368Y-103464908D03*
X152730000Y-102490000D03*
X152880000Y-110990000D03*
X152939218Y-112728922D03*
X153046196Y-110074687D03*
X153080046Y-103344857D03*
X153080521Y-101990521D03*
X153080889Y-109575889D03*
X153170000Y-96350000D03*
X153170000Y-110580000D03*
X153263381Y-99524215D03*
X153290000Y-101180000D03*
X153298781Y-105167845D03*
X153298781Y-105967847D03*
X153659550Y-98155000D03*
X153850046Y-103238116D03*
X153980000Y-101960000D03*
X154000000Y-92360000D03*
X154083323Y-99857247D03*
X154098781Y-101167847D03*
X154098781Y-105167847D03*
X154098781Y-105967847D03*
X154100000Y-104390000D03*
X154123826Y-94915682D03*
X154235935Y-99065199D03*
X154249501Y-102890000D03*
X154825630Y-100411734D03*
X154860000Y-103300000D03*
X155538132Y-99611026D03*
X155617190Y-96092336D03*
X155680000Y-104360000D03*
X155690000Y-101210000D03*
X155698781Y-105167847D03*
X155708619Y-98463503D03*
X155820000Y-109730000D03*
X155894691Y-102490000D03*
X155907891Y-92382714D03*
X156159505Y-94360495D03*
X156320000Y-102630000D03*
X156341474Y-98997326D03*
X156465000Y-100335000D03*
X156489172Y-94745642D03*
X156559213Y-95695642D03*
X157051615Y-104338684D03*
X157450000Y-101620000D03*
X157540000Y-101210000D03*
X157830627Y-100220000D03*
X157985000Y-107340000D03*
X158460000Y-114750000D03*
X159500000Y-97310000D03*
X159795140Y-95834313D03*
X160631000Y-98320000D03*
X161299733Y-104620000D03*
D11*
%TO.C,J9*%
X121562500Y-97460750D02*
X122862500Y-97460750D01*
X121562500Y-106100750D02*
X122862500Y-106100750D01*
X125537500Y-97460750D02*
X126537500Y-97460750D01*
X125537500Y-106100750D02*
X126537500Y-106100750D01*
D12*
%TO.C,J4*%
X122450000Y-82500000D03*
%TO.C,J6*%
X122450000Y-120500000D03*
%TO.C,J3*%
X122460133Y-84969066D03*
X122460133Y-87509066D03*
X122460133Y-90049066D03*
X122460133Y-92589066D03*
%TO.C,J2*%
X122503992Y-110422254D03*
X122503992Y-112962254D03*
X122503992Y-115502254D03*
X122503992Y-118042254D03*
%TO.C,J4*%
X124990000Y-82500000D03*
%TO.C,J6*%
X124990000Y-120500000D03*
%TO.C,J4*%
X127530000Y-82500000D03*
%TO.C,J6*%
X127530000Y-120500000D03*
%TO.C,J4*%
X130070000Y-82500000D03*
%TO.C,J6*%
X130070000Y-120500000D03*
%TO.C,J4*%
X132610000Y-82500000D03*
%TO.C,J6*%
X132610000Y-120500000D03*
%TO.C,J4*%
X135150000Y-82500000D03*
%TO.C,J6*%
X135150000Y-120500000D03*
%TO.C,J4*%
X137690000Y-82500000D03*
%TO.C,J6*%
X137690000Y-120500000D03*
%TO.C,J4*%
X140230000Y-82500000D03*
%TO.C,J6*%
X140230000Y-120500000D03*
%TO.C,J4*%
X142770000Y-82500000D03*
%TO.C,J6*%
X142770000Y-120500000D03*
%TO.C,J4*%
X145310000Y-82500000D03*
%TO.C,J6*%
X145310000Y-120500000D03*
%TO.C,J4*%
X147850000Y-82500000D03*
%TO.C,J6*%
X147850000Y-120500000D03*
%TO.C,J4*%
X150390000Y-82500000D03*
%TO.C,J6*%
X150390000Y-120500000D03*
%TO.C,J4*%
X152930000Y-82500000D03*
%TO.C,J6*%
X152930000Y-120500000D03*
%TO.C,J4*%
X155470000Y-82500000D03*
%TO.C,J6*%
X155470000Y-120500000D03*
%TO.C,J4*%
X158010000Y-82500000D03*
%TO.C,J6*%
X158010000Y-120500000D03*
%TO.C,J8*%
X160546098Y-110391652D03*
X160546098Y-112931652D03*
X160546098Y-115471652D03*
X160546098Y-118011652D03*
%TO.C,J7*%
X160548407Y-85010384D03*
X160548407Y-87550384D03*
X160548407Y-90090384D03*
X160548407Y-92630384D03*
%TO.C,J4*%
X160550000Y-82500000D03*
%TO.C,J6*%
X160550000Y-120500000D03*
D13*
%TO.C,J5*%
X127220000Y-87220000D03*
X127220000Y-115780000D03*
X155780000Y-87220000D03*
X155780000Y-115780000D03*
M02*
