%TF.GenerationSoftware,KiCad,Pcbnew,9.0.4*%
%TF.CreationDate,2025-12-30T15:29:56-05:00*%
%TF.ProjectId,sb-tpu,73622d74-7075-42e6-9b69-6361645f7063,rev?*%
%TF.SameCoordinates,Original*%
%TF.FileFunction,Copper,L1,Top*%
%TF.FilePolarity,Positive*%
%FSLAX46Y46*%
G04 Gerber Fmt 4.6, Leading zero omitted, Abs format (unit mm)*
G04 Created by KiCad (PCBNEW 9.0.4) date 2025-12-30 15:29:56*
%MOMM*%
%LPD*%
G01*
G04 APERTURE LIST*
G04 Aperture macros list*
%AMRotRect*
0 Rectangle, with rotation*
0 The origin of the aperture is its center*
0 $1 length*
0 $2 width*
0 $3 Rotation angle, in degrees counterclockwise*
0 Add horizontal line*
21,1,$1,$2,0,0,$3*%
%AMFreePoly0*
4,1,15,0.273536,0.213536,0.275000,0.210000,0.275000,-0.110000,0.273536,-0.113536,0.270000,-0.115000,0.000000,-0.115000,-0.003355,-0.113708,-0.213355,0.076292,-0.214994,0.079750,-0.215000,0.080000,-0.215000,0.210000,-0.213536,0.213536,-0.210000,0.215000,0.270000,0.215000,0.273536,0.213536,0.273536,0.213536,$1*%
%AMFreePoly1*
4,1,15,0.028866,0.243696,0.272312,0.021901,0.273940,0.018437,0.273945,0.018205,0.273945,-0.100000,0.272481,-0.103536,0.268945,-0.105000,-0.243745,-0.105000,-0.247281,-0.103536,-0.248745,-0.100000,-0.248745,0.240000,-0.247281,0.243536,-0.243745,0.245000,0.025499,0.245000,0.028866,0.243696,0.028866,0.243696,$1*%
%AMFreePoly2*
4,1,14,0.263536,0.113536,0.265000,0.110000,0.265000,-0.230000,0.263536,-0.233536,0.260000,-0.235000,-0.220000,-0.235000,-0.223536,-0.233536,-0.225000,-0.230000,-0.225000,-0.110000,-0.223536,-0.106464,-0.003536,0.113536,0.000000,0.115000,0.260000,0.115000,0.263536,0.113536,0.263536,0.113536,$1*%
%AMFreePoly3*
4,1,14,0.163536,0.213536,0.165000,0.210000,0.165000,0.050000,0.163536,0.046464,0.003536,-0.113536,0.000000,-0.115000,-0.290000,-0.115000,-0.293536,-0.113536,-0.295000,-0.110000,-0.295000,0.210000,-0.293536,0.213536,-0.290000,0.215000,0.160000,0.215000,0.163536,0.213536,0.163536,0.213536,$1*%
G04 Aperture macros list end*
%TA.AperFunction,SMDPad,CuDef*%
%ADD10FreePoly0,180.000000*%
%TD*%
%TA.AperFunction,SMDPad,CuDef*%
%ADD11RotRect,0.250000X0.250000X225.000000*%
%TD*%
%TA.AperFunction,SMDPad,CuDef*%
%ADD12FreePoly1,180.000000*%
%TD*%
%TA.AperFunction,SMDPad,CuDef*%
%ADD13FreePoly2,180.000000*%
%TD*%
%TA.AperFunction,SMDPad,CuDef*%
%ADD14FreePoly3,180.000000*%
%TD*%
%TA.AperFunction,SMDPad,CuDef*%
%ADD15R,1.752600X2.489200*%
%TD*%
%TA.AperFunction,SMDPad,CuDef*%
%ADD16R,0.812800X0.304800*%
%TD*%
%TA.AperFunction,SMDPad,CuDef*%
%ADD17C,0.394000*%
%TD*%
%TA.AperFunction,SMDPad,CuDef*%
%ADD18C,0.457200*%
%TD*%
%TA.AperFunction,SMDPad,CuDef*%
%ADD19R,0.650000X0.640000*%
%TD*%
%TA.AperFunction,SMDPad,CuDef*%
%ADD20R,1.000000X0.300000*%
%TD*%
%TA.AperFunction,SMDPad,CuDef*%
%ADD21R,0.950000X0.250000*%
%TD*%
%TA.AperFunction,SMDPad,CuDef*%
%ADD22R,0.950000X0.300000*%
%TD*%
%TA.AperFunction,SMDPad,CuDef*%
%ADD23R,0.450000X0.600000*%
%TD*%
%TA.AperFunction,SMDPad,CuDef*%
%ADD24R,1.850000X3.400000*%
%TD*%
%TA.AperFunction,SMDPad,CuDef*%
%ADD25R,0.640000X0.650000*%
%TD*%
%TA.AperFunction,SMDPad,CuDef*%
%ADD26R,0.600000X0.600000*%
%TD*%
%TA.AperFunction,SMDPad,CuDef*%
%ADD27R,0.660400X1.041400*%
%TD*%
%TA.AperFunction,ComponentPad*%
%ADD28C,4.000000*%
%TD*%
%TA.AperFunction,SMDPad,CuDef*%
%ADD29R,0.600000X0.300000*%
%TD*%
%TA.AperFunction,SMDPad,CuDef*%
%ADD30R,0.300000X0.600000*%
%TD*%
%TA.AperFunction,SMDPad,CuDef*%
%ADD31R,0.800000X0.800000*%
%TD*%
%TA.AperFunction,SMDPad,CuDef*%
%ADD32R,0.457200X0.609600*%
%TD*%
%TA.AperFunction,SMDPad,CuDef*%
%ADD33R,1.200000X0.400000*%
%TD*%
%TA.AperFunction,ComponentPad*%
%ADD34C,1.540000*%
%TD*%
%TA.AperFunction,SMDPad,CuDef*%
%ADD35R,0.700000X0.600000*%
%TD*%
%TA.AperFunction,SMDPad,CuDef*%
%ADD36R,0.660400X0.254000*%
%TD*%
%TA.AperFunction,SMDPad,CuDef*%
%ADD37R,0.558800X0.914400*%
%TD*%
%TA.AperFunction,SMDPad,CuDef*%
%ADD38R,0.711200X0.558800*%
%TD*%
%TA.AperFunction,SMDPad,CuDef*%
%ADD39R,1.250000X0.600000*%
%TD*%
%TA.AperFunction,SMDPad,CuDef*%
%ADD40R,0.800000X1.000000*%
%TD*%
%TA.AperFunction,SMDPad,CuDef*%
%ADD41R,0.650000X0.825000*%
%TD*%
%TA.AperFunction,SMDPad,CuDef*%
%ADD42R,1.000000X0.520000*%
%TD*%
%TA.AperFunction,SMDPad,CuDef*%
%ADD43R,1.000000X0.270000*%
%TD*%
%TA.AperFunction,SMDPad,CuDef*%
%ADD44R,2.000000X1.000000*%
%TD*%
%TA.AperFunction,ComponentPad*%
%ADD45O,2.316000X1.158000*%
%TD*%
%TA.AperFunction,ComponentPad*%
%ADD46O,2.400000X1.200000*%
%TD*%
%TA.AperFunction,SMDPad,CuDef*%
%ADD47R,1.000000X1.800000*%
%TD*%
%TA.AperFunction,SMDPad,CuDef*%
%ADD48R,0.700000X0.220000*%
%TD*%
%TA.AperFunction,SMDPad,CuDef*%
%ADD49R,0.220000X0.450000*%
%TD*%
%TA.AperFunction,SMDPad,CuDef*%
%ADD50R,0.630000X0.610000*%
%TD*%
%TA.AperFunction,SMDPad,CuDef*%
%ADD51R,0.200000X0.375000*%
%TD*%
%TA.AperFunction,SMDPad,CuDef*%
%ADD52R,0.450000X0.475000*%
%TD*%
%TA.AperFunction,SMDPad,CuDef*%
%ADD53R,0.609600X0.457200*%
%TD*%
%TA.AperFunction,SMDPad,CuDef*%
%ADD54R,1.200000X1.100000*%
%TD*%
%TA.AperFunction,SMDPad,CuDef*%
%ADD55R,0.900000X0.400000*%
%TD*%
%TA.AperFunction,ViaPad*%
%ADD56C,0.250000*%
%TD*%
%TA.AperFunction,ViaPad*%
%ADD57C,0.457200*%
%TD*%
%TA.AperFunction,Conductor*%
%ADD58C,0.200000*%
%TD*%
%TA.AperFunction,Conductor*%
%ADD59C,0.150000*%
%TD*%
%TA.AperFunction,Conductor*%
%ADD60C,0.155400*%
%TD*%
%TA.AperFunction,Conductor*%
%ADD61C,0.120000*%
%TD*%
G04 APERTURE END LIST*
D10*
%TO.P,U2,4,VIN*%
%TO.N,VSYS*%
X124587139Y-90326558D03*
D11*
%TO.P,U2,5,TP-GND*%
%TO.N,GND*%
X124947139Y-90076558D03*
D12*
%TO.P,U2,2,GND*%
X125327139Y-89706558D03*
D13*
%TO.P,U2,3,CONTROL*%
%TO.N,VSYS*%
X124587139Y-89836558D03*
D14*
%TO.P,U2,1,VOUT*%
%TO.N,Net-(U2-VOUT)*%
X125297139Y-90326558D03*
%TD*%
D15*
%TO.P,U1,11,EPAD*%
%TO.N,GND*%
X151092791Y-92979074D03*
D16*
%TO.P,U1,10,OUTA*%
%TO.N,VDD_3V3*%
X149644991Y-93979074D03*
%TO.P,U1,9,STAT*%
%TO.N,unconnected-(U1-STAT-Pad9)*%
X149644991Y-93479074D03*
%TO.P,U1,8,NC*%
%TO.N,unconnected-(U1-NC-Pad8)*%
X149644991Y-92979074D03*
%TO.P,U1,7,NC_2*%
%TO.N,unconnected-(U1-NC_2-Pad7)*%
X149644991Y-92479074D03*
%TO.P,U1,6,OUTB*%
%TO.N,VDD_3V3*%
X149644991Y-91979074D03*
%TO.P,U1,5,INB*%
%TO.N,+3V3*%
X152540591Y-91979074D03*
%TO.P,U1,4,ENBB*%
%TO.N,GND*%
X152540591Y-92479074D03*
%TO.P,U1,3,GND*%
X152540591Y-92979074D03*
%TO.P,U1,2,ENBA*%
X152540591Y-93479074D03*
%TO.P,U1,1,INA*%
%TO.N,/Power_Sys/VBUCK_3V3_OUT*%
X152540591Y-93979074D03*
%TD*%
D17*
%TO.P,U6,A1,VSS_1*%
%TO.N,GND*%
X147378764Y-105442874D03*
%TO.P,U6,A2,GPIO_EMC_B1_10*%
%TO.N,SEMC_A1*%
X146578764Y-105442874D03*
%TO.P,U6,A3,GPIO_EMC_B1_09*%
%TO.N,SEMC_A0*%
X145778764Y-105442874D03*
%TO.P,U6,A4,GPIO_DISP_B2_15*%
%TO.N,unconnected-(U6I-GPIO_DISP_B2_15-PadA4)*%
X144978764Y-105442874D03*
%TO.P,U6,A5,GPIO_DISP_B2_13*%
%TO.N,unconnected-(U6I-GPIO_DISP_B2_13-PadA5)*%
X144178764Y-105442874D03*
%TO.P,U6,A6,GPIO_DISP_B2_11*%
%TO.N,unconnected-(U6I-GPIO_DISP_B2_11-PadA6)*%
X143378764Y-105442874D03*
%TO.P,U6,A7,GPIO_DISP_B2_14*%
%TO.N,unconnected-(U6I-GPIO_DISP_B2_14-PadA7)*%
X142578764Y-105442874D03*
%TO.P,U6,A8,MIPI_DSI_D0_N*%
%TO.N,unconnected-(U6K-MIPI_DSI_D0_N-PadA8)*%
X141778764Y-105442874D03*
%TO.P,U6,A9,MIPI_DSI_CKN*%
%TO.N,unconnected-(U6K-MIPI_DSI_CKN-PadA9)*%
X140978764Y-105442874D03*
%TO.P,U6,A10,MIPI_DSI_DN1*%
%TO.N,unconnected-(U6K-MIPI_DSI_DN1-PadA10)*%
X140178764Y-105442874D03*
%TO.P,U6,A11,MIPI_CSI_DN0*%
%TO.N,unconnected-(U6K-MIPI_CSI_DN0-PadA11)*%
X139378764Y-105442874D03*
%TO.P,U6,A12,MIPI_CSI_CKN*%
%TO.N,unconnected-(U6K-MIPI_CSI_CKN-PadA12)*%
X138578764Y-105442874D03*
%TO.P,U6,A13,MIPI_CSI_DN1*%
%TO.N,unconnected-(U6K-MIPI_CSI_DN1-PadA13)*%
X137778764Y-105442874D03*
%TO.P,U6,A14,GPIO_DISP_B1_11*%
%TO.N,BT_CFG1_5*%
X136978764Y-105442874D03*
%TO.P,U6,A15,GPIO_DISP_B1_08*%
%TO.N,BT_CFG1_2*%
X136178764Y-105442874D03*
%TO.P,U6,A16,GPIO_SD_B1_05*%
%TO.N,unconnected-(U6G-GPIO_SD_B1_05-PadA16)*%
X135378764Y-105442874D03*
%TO.P,U6,A17,VSS_2*%
%TO.N,GND*%
X134578764Y-105442874D03*
%TO.P,U6,B1,GPIO_EMC_B1_14*%
%TO.N,SEMC_A5*%
X147378764Y-104642874D03*
%TO.P,U6,B2,GPIO_EMC_B1_23*%
%TO.N,SEMC_A10*%
X146578764Y-104642874D03*
%TO.P,U6,B3,GPIO_EMC_B1_17*%
%TO.N,SEMC_A8*%
X145778764Y-104642874D03*
%TO.P,U6,B4,GPIO_EMC_B1_18*%
%TO.N,SEMC_A9*%
X144978764Y-104642874D03*
%TO.P,U6,B5,GPIO_DISP_B2_08*%
%TO.N,unconnected-(U6I-GPIO_DISP_B2_08-PadB5)*%
X144178764Y-104642874D03*
%TO.P,U6,B6,GPIO_DISP_B2_12*%
%TO.N,unconnected-(U6I-GPIO_DISP_B2_12-PadB6)*%
X143378764Y-104642874D03*
%TO.P,U6,B7,VSS_3*%
%TO.N,GND*%
X142578764Y-104642874D03*
%TO.P,U6,B8,MIPI_DSI_D0_P*%
%TO.N,unconnected-(U6K-MIPI_DSI_D0_P-PadB8)*%
X141778764Y-104642874D03*
%TO.P,U6,B9,MIPI_DSI_CKP*%
%TO.N,unconnected-(U6K-MIPI_DSI_CKP-PadB9)*%
X140978764Y-104642874D03*
%TO.P,U6,B10,MIPI_DSI_DP1*%
%TO.N,unconnected-(U6K-MIPI_DSI_DP1-PadB10)*%
X140178764Y-104642874D03*
%TO.P,U6,B11,MIPI_CSI_DP0*%
%TO.N,unconnected-(U6K-MIPI_CSI_DP0-PadB11)*%
X139378764Y-104642874D03*
%TO.P,U6,B12,MIPI_CSI_CKP*%
%TO.N,unconnected-(U6K-MIPI_CSI_CKP-PadB12)*%
X138578764Y-104642874D03*
%TO.P,U6,B13,MIPI_CSI_DP1*%
%TO.N,unconnected-(U6K-MIPI_CSI_DP1-PadB13)*%
X137778764Y-104642874D03*
%TO.P,U6,B14,GPIO_DISP_B1_10*%
%TO.N,BT_CFG1_4*%
X136978764Y-104642874D03*
%TO.P,U6,B15,GPIO_SD_B1_04*%
%TO.N,unconnected-(U6G-GPIO_SD_B1_04-PadB15)*%
X136178764Y-104642874D03*
%TO.P,U6,B16,GPIO_SD_B1_00*%
%TO.N,unconnected-(U6G-GPIO_SD_B1_00-PadB16)*%
X135378764Y-104642874D03*
%TO.P,U6,B17,GPIO_SD_B1_03*%
%TO.N,unconnected-(U6G-GPIO_SD_B1_03-PadB17)*%
X134578764Y-104642874D03*
%TO.P,U6,C1,GPIO_EMC_B1_15*%
%TO.N,SEMC_A6*%
X147378764Y-103842874D03*
%TO.P,U6,C2,GPIO_EMC_B1_11*%
%TO.N,SEMC_A2*%
X146578764Y-103842874D03*
%TO.P,U6,C3,GPIO_EMC_B1_20*%
%TO.N,SEMC_A12*%
X145778764Y-103842874D03*
%TO.P,U6,C4,GPIO_EMC_B1_19*%
%TO.N,SEMC_A11*%
X144978764Y-103842874D03*
%TO.P,U6,C5,GPIO_EMC_B1_12*%
%TO.N,SEMC_A3*%
X144178764Y-103842874D03*
%TO.P,U6,C6,GPIO_DISP_B2_06*%
%TO.N,unconnected-(U6I-GPIO_DISP_B2_06-PadC6)*%
X143378764Y-103842874D03*
%TO.P,U6,C7,GPIO_DISP_B2_04*%
%TO.N,BT_CFG2_2*%
X142578764Y-103842874D03*
%TO.P,U6,C8,VSS_4*%
%TO.N,GND*%
X141778764Y-103842874D03*
%TO.P,U6,C9,GPIO_DISP_B2_05*%
%TO.N,BT_CFG2_3*%
X140978764Y-103842874D03*
%TO.P,U6,C10,VSS_5*%
%TO.N,GND*%
X140178764Y-103842874D03*
%TO.P,U6,C11,GPIO_DISP_B1_05*%
%TO.N,unconnected-(U6I-GPIO_DISP_B1_05-PadC11)*%
X139378764Y-103842874D03*
%TO.P,U6,C12,VSS_6*%
%TO.N,GND*%
X138578764Y-103842874D03*
%TO.P,U6,C13,GPIO_DISP_B1_09*%
%TO.N,BT_CFG1_3*%
X137778764Y-103842874D03*
%TO.P,U6,C14,VSS_7*%
%TO.N,GND*%
X136978764Y-103842874D03*
%TO.P,U6,C15,GPIO_SD_B1_02*%
%TO.N,unconnected-(U6G-GPIO_SD_B1_02-PadC15)*%
X136178764Y-103842874D03*
%TO.P,U6,C16,USB2_DP*%
%TO.N,USB2_TPU_N*%
X135378764Y-103842874D03*
%TO.P,U6,C17,USB2_DP*%
%TO.N,USB2_TPU_P*%
X134578764Y-103842874D03*
%TO.P,U6,D1,GPIO_EMC_B1_32*%
%TO.N,SEMC_D10*%
X147378764Y-103042874D03*
%TO.P,U6,D2,GPIO_EMC_B1_31*%
%TO.N,SEMC_D9*%
X146578764Y-103042874D03*
%TO.P,U6,D3,GPIO_EMC_B1_16*%
%TO.N,SEMC_A7*%
X145778764Y-103042874D03*
%TO.P,U6,D4,VSS_8*%
%TO.N,GND*%
X144978764Y-103042874D03*
%TO.P,U6,D5,GPIO_EMC_B1_13*%
%TO.N,SEMC_A4*%
X144178764Y-103042874D03*
%TO.P,U6,D6,GPIO_DISP_B2_07*%
%TO.N,unconnected-(U6I-GPIO_DISP_B2_07-PadD6)*%
X143378764Y-103042874D03*
%TO.P,U6,D7,GPIO_DISP_B2_03*%
%TO.N,BT_CFG2_1*%
X142578764Y-103042874D03*
%TO.P,U6,D8,GPIO_DISP_B2_09*%
%TO.N,unconnected-(U6I-GPIO_DISP_B2_09-PadD8)*%
X141778764Y-103042874D03*
%TO.P,U6,D9,GPIO_DISP_B2_10*%
%TO.N,unconnected-(U6I-GPIO_DISP_B2_10-PadD9)*%
X140978764Y-103042874D03*
%TO.P,U6,D10,GPIO_DISP_B1_06*%
%TO.N,BT_CFG1_0*%
X140178764Y-103042874D03*
%TO.P,U6,D11,GPIO_DISP_B1_02*%
%TO.N,unconnected-(U6I-GPIO_DISP_B1_02-PadD11)*%
X139378764Y-103042874D03*
%TO.P,U6,D12,NVCC_DISP1*%
%TO.N,VDD_1V8*%
X138578764Y-103042874D03*
%TO.P,U6,D13,GPIO_DISP_B1_01*%
%TO.N,unconnected-(U6I-GPIO_DISP_B1_01-PadD13)*%
X137778764Y-103042874D03*
%TO.P,U6,D14,NVCC_SD1*%
%TO.N,VDD_1V8*%
X136978764Y-103042874D03*
%TO.P,U6,D15,GPIO_SD_B1_01*%
%TO.N,unconnected-(U6G-GPIO_SD_B1_01-PadD15)*%
X136178764Y-103042874D03*
%TO.P,U6,D16,USB2_VBUS*%
%TO.N,MCM_3V3*%
X135378764Y-103042874D03*
%TO.P,U6,D17,USB1_VBUS*%
%TO.N,VUSB*%
X134578764Y-103042874D03*
%TO.P,U6,E1,GPIO_EMC_B1_34*%
%TO.N,SEMC_D12*%
X147378764Y-102242874D03*
%TO.P,U6,E2,GPIO_EMC_B1_33*%
%TO.N,SEMC_D11*%
X146578764Y-102242874D03*
%TO.P,U6,E3,GPIO_EMC_B1_30*%
%TO.N,SEMC_D8*%
X145778764Y-102242874D03*
%TO.P,U6,E4,GPIO_EMC_B1_03*%
%TO.N,SEMC_D3*%
X144978764Y-102242874D03*
%TO.P,U6,E5,GPIO_EMC_B1_28*%
%TO.N,SEMC_WE*%
X144178764Y-102242874D03*
%TO.P,U6,E6,GPIO_EMC_B1_29*%
%TO.N,SEMC_CS0*%
X143378764Y-102242874D03*
%TO.P,U6,E7,NVCC_DISP2*%
%TO.N,VDD_1V8*%
X142578764Y-102242874D03*
%TO.P,U6,E8,GPIO_DISP_B2_00*%
%TO.N,BT_CFG1_6*%
X141778764Y-102242874D03*
%TO.P,U6,E9,GPIO_DISP_B2_02*%
%TO.N,BT_CFG2_0*%
X140978764Y-102242874D03*
%TO.P,U6,E10,GPIO_DISP_B1_04*%
%TO.N,unconnected-(U6I-GPIO_DISP_B1_04-PadE10)*%
X140178764Y-102242874D03*
%TO.P,U6,E11,GPIO_DISP_B1_03*%
%TO.N,unconnected-(U6I-GPIO_DISP_B1_03-PadE11)*%
X139378764Y-102242874D03*
%TO.P,U6,E12,GPIO_DISP_B1_07*%
%TO.N,BT_CFG1_1*%
X138578764Y-102242874D03*
%TO.P,U6,E13,GPIO_DISP_B1_00*%
%TO.N,unconnected-(U6I-GPIO_DISP_B1_00-PadE13)*%
X137778764Y-102242874D03*
%TO.P,U6,E14,GPIO_SD_B2_05*%
%TO.N,unconnected-(U6G-GPIO_SD_B2_05-PadE14)*%
X136978764Y-102242874D03*
%TO.P,U6,E15,GPIO_SD_B2_03*%
%TO.N,unconnected-(U6G-GPIO_SD_B2_03-PadE15)*%
X136178764Y-102242874D03*
%TO.P,U6,E16,USB1_DN*%
%TO.N,OTG1_D_N*%
X135378764Y-102242874D03*
%TO.P,U6,E17,USB1_DP*%
%TO.N,OTG1_D_P*%
X134578764Y-102242874D03*
%TO.P,U6,F1,GPIO_EMC_B1_35*%
%TO.N,SEMC_D13*%
X147378764Y-101442874D03*
%TO.P,U6,F2,GPIO_EMC_B1_01*%
%TO.N,SEMC_D1*%
X146578764Y-101442874D03*
%TO.P,U6,F3,GPIO_EMC_B1_00*%
%TO.N,SEMC_D0*%
X145778764Y-101442874D03*
%TO.P,U6,F4,GPIO_EMC_B1_05*%
%TO.N,SEMC_D5*%
X144978764Y-101442874D03*
%TO.P,U6,F5,GPIO_EMC_B1_08*%
%TO.N,SEMC_DM0*%
X144178764Y-101442874D03*
%TO.P,U6,F6,NVCC_EMC1_2*%
%TO.N,VDD_1V8*%
X143378764Y-101442874D03*
%TO.P,U6,F7,NVCC_EMC1_1*%
X142578764Y-101442874D03*
%TO.P,U6,F8,GPIO_DISP_B2_01*%
%TO.N,BT_CFG1_7*%
X141778764Y-101442874D03*
%TO.P,U6,F9,VDD_MIPI_1P8*%
%TO.N,Net-(U6K-VDD_MIPI_1P8)*%
X140978764Y-101442874D03*
%TO.P,U6,F10,VDD_MIPI_1P0*%
%TO.N,VDDA_1P0*%
X140178764Y-101442874D03*
%TO.P,U6,F11,VSS_9*%
%TO.N,GND*%
X139378764Y-101442874D03*
%TO.P,U6,F12,VSS_10*%
X138578764Y-101442874D03*
%TO.P,U6,F13,VSS_11*%
X137778764Y-101442874D03*
%TO.P,U6,F14,GPIO_SD_B2_04*%
%TO.N,unconnected-(U6G-GPIO_SD_B2_04-PadF14)*%
X136978764Y-101442874D03*
%TO.P,U6,F15,GPIO_SD_B2_08*%
%TO.N,FlexSPI_A_D0*%
X136178764Y-101442874D03*
%TO.P,U6,F16,GPIO_SD_B2_11*%
%TO.N,FlexSPI_A_D3*%
X135378764Y-101442874D03*
%TO.P,U6,F17,GPIO_SD_B2_06*%
%TO.N,FlexSPI_A_SS0*%
X134578764Y-101442874D03*
%TO.P,U6,G1,GPIO_EMC_B1_36*%
%TO.N,SEMC_D14*%
X147378764Y-100642874D03*
%TO.P,U6,G2,GPIO_EMC_B1_21*%
%TO.N,SEMC_BA0*%
X146578764Y-100642874D03*
%TO.P,U6,G3,VSS_12*%
%TO.N,GND*%
X145778764Y-100642874D03*
%TO.P,U6,G4,GPIO_EMC_B1_02*%
%TO.N,SEMC_D2*%
X144978764Y-100642874D03*
%TO.P,U6,G5,GPIO_EMC_B1_27*%
%TO.N,SEMC_CKE*%
X144178764Y-100642874D03*
%TO.P,U6,G6,NVCC_EMC1_3*%
%TO.N,VDD_1V8*%
X143378764Y-100642874D03*
%TO.P,U6,G7,VSS_13*%
%TO.N,GND*%
X142578764Y-100642874D03*
%TO.P,U6,G8,VSS_14*%
X141778764Y-100642874D03*
%TO.P,U6,G9,VSS_15*%
X140978764Y-100642874D03*
%TO.P,U6,G10,VSS_16*%
X140178764Y-100642874D03*
%TO.P,U6,G11,VSS_17*%
X139378764Y-100642874D03*
%TO.P,U6,G12,VDD_USB_3V3*%
%TO.N,Net-(U6L-VDD_USB_3V3)*%
X138578764Y-100642874D03*
%TO.P,U6,G13,NVCC_SD2*%
%TO.N,VDD_1V8*%
X137778764Y-100642874D03*
%TO.P,U6,G14,GPIO_SD_B2_07*%
%TO.N,FlexSPI_A_CLK*%
X136978764Y-100642874D03*
%TO.P,U6,G15,VSS_18*%
%TO.N,GND*%
X136178764Y-100642874D03*
%TO.P,U6,G16,ADC_VREFH*%
%TO.N,ADC_1V8_IN*%
X135378764Y-100642874D03*
%TO.P,U6,G17,GPIO_AD_35*%
%TO.N,BT_REG_ON*%
X134578764Y-100642874D03*
%TO.P,U6,H1,GPIO_EMC_B1_37*%
%TO.N,SEMC_D15*%
X147378764Y-99842874D03*
%TO.P,U6,H2,GPIO_EMC_B1_22*%
%TO.N,SEMC_BA1*%
X146578764Y-99842874D03*
%TO.P,U6,H3,GPIO_EMC_B1_07*%
%TO.N,SEMC_D7*%
X145778764Y-99842874D03*
%TO.P,U6,H4,GPIO_EMC_B1_06*%
%TO.N,SEMC_D6*%
X144978764Y-99842874D03*
%TO.P,U6,H5,GPIO_EMC_B1_04*%
%TO.N,SEMC_D4*%
X144178764Y-99842874D03*
%TO.P,U6,H6,NVCC_EMC2_1*%
%TO.N,VDD_1V8*%
X143378764Y-99842874D03*
%TO.P,U6,H7,VSS_19*%
%TO.N,GND*%
X142578764Y-99842874D03*
%TO.P,U6,H8,VDD_SOC_IN_1*%
%TO.N,VDD_SOC_IN*%
X141778764Y-99842874D03*
%TO.P,U6,H9,VDD_SOC_IN_2*%
X140978764Y-99842874D03*
%TO.P,U6,H10,VDD_SOC_IN_3*%
X140178764Y-99842874D03*
%TO.P,U6,H11,VSS_20*%
%TO.N,GND*%
X139378764Y-99842874D03*
%TO.P,U6,H12,VDD_USB_1P8*%
%TO.N,Net-(U6L-VDD_USB_1P8)*%
X138578764Y-99842874D03*
%TO.P,U6,H13,GPIO_SD_B2_02*%
%TO.N,unconnected-(U6G-GPIO_SD_B2_02-PadH13)*%
X137778764Y-99842874D03*
%TO.P,U6,H14,GPIO_SD_B2_10*%
%TO.N,FlexSPI_A_D2*%
X136978764Y-99842874D03*
%TO.P,U6,H15,GPIO_SD_B2_09*%
%TO.N,FlexSPI_A_D1*%
X136178764Y-99842874D03*
%TO.P,U6,H16,DAC_OUT*%
%TO.N,DAC_OUT*%
X135378764Y-99842874D03*
%TO.P,U6,H17,GPIO_AD_33*%
%TO.N,I2C1_SDA*%
X134578764Y-99842874D03*
%TO.P,U6,J1,GPIO_EMC_B1_38*%
%TO.N,SEMC_DM1*%
X147378764Y-99042874D03*
%TO.P,U6,J2,GPIO_EMC_B1_39*%
%TO.N,Net-(U6J-GPIO_EMC_B1_39)*%
X146578764Y-99042874D03*
%TO.P,U6,J3,GPIO_EMC_B1_26*%
%TO.N,SEMC_CLK*%
X145778764Y-99042874D03*
%TO.P,U6,J4,GPIO_EMC_B1_25*%
%TO.N,SEMC_RAS*%
X144978764Y-99042874D03*
%TO.P,U6,J5,GPIO_EMC_B1_24*%
%TO.N,SEMC_CAS*%
X144178764Y-99042874D03*
%TO.P,U6,J6,NVCC_EMC2_2*%
%TO.N,VDD_1V8*%
X143378764Y-99042874D03*
%TO.P,U6,J7,VSS_21*%
%TO.N,GND*%
X142578764Y-99042874D03*
%TO.P,U6,J8,VDD_SOC_IN_4*%
%TO.N,VDD_SOC_IN*%
X141778764Y-99042874D03*
%TO.P,U6,J9,VDD_SOC_IN_5*%
X140978764Y-99042874D03*
%TO.P,U6,J10,VDD_SOC_IN_6*%
X140178764Y-99042874D03*
%TO.P,U6,J11,VSS_22*%
%TO.N,GND*%
X139378764Y-99042874D03*
%TO.P,U6,J12,GPIO_AD_23*%
%TO.N,unconnected-(U6H-GPIO_AD_23-PadJ12)*%
X138578764Y-99042874D03*
%TO.P,U6,J13,VDDA_ADC_3P3*%
%TO.N,Net-(U6B-VDDA_ADC_3P3)*%
X137778764Y-99042874D03*
%TO.P,U6,J14,GPIO_SD_B2_01*%
%TO.N,unconnected-(U6G-GPIO_SD_B2_01-PadJ14)*%
X136978764Y-99042874D03*
%TO.P,U6,J15,GPIO_SD_B2_00*%
%TO.N,unconnected-(U6G-GPIO_SD_B2_00-PadJ15)*%
X136178764Y-99042874D03*
%TO.P,U6,J16,GPIO_AD_31*%
%TO.N,WL_REG_ON*%
X135378764Y-99042874D03*
%TO.P,U6,J17,GPIO_AD_31*%
%TO.N,LPSPI1_SDI*%
X134578764Y-99042874D03*
%TO.P,U6,K1,GPIO_EMC_B1_40*%
%TO.N,LPUART6_TXD*%
X147378764Y-98242874D03*
%TO.P,U6,K2,GPIO_EMC_B2_00*%
%TO.N,unconnected-(U6J-GPIO_EMC_B2_00-PadK2)*%
X146578764Y-98242874D03*
%TO.P,U6,K3,GPIO_EMC_B2_02*%
%TO.N,unconnected-(U6J-GPIO_EMC_B2_02-PadK3)*%
X145778764Y-98242874D03*
%TO.P,U6,K4,GPIO_EMC_B2_01*%
%TO.N,unconnected-(U6J-GPIO_EMC_B2_01-PadK4)*%
X144978764Y-98242874D03*
%TO.P,U6,K5,GPIO_EMC_B2_13*%
%TO.N,TPU_BOOT_FAIL*%
X144178764Y-98242874D03*
%TO.P,U6,K6,DCDC_GND_1*%
%TO.N,GND*%
X143378764Y-98242874D03*
%TO.P,U6,K7,DCDC_GND_2*%
X142578764Y-98242874D03*
%TO.P,U6,K8,DCDC_DIG_1*%
%TO.N,Net-(U6C-DCDC_DIG_1)*%
X141778764Y-98242874D03*
%TO.P,U6,K9,DCDC_DIG_2*%
X140978764Y-98242874D03*
%TO.P,U6,K10,VDD_SOC_IN_7*%
%TO.N,VDD_SOC_IN*%
X140178764Y-98242874D03*
%TO.P,U6,K11,VSS_23*%
%TO.N,GND*%
X139378764Y-98242874D03*
%TO.P,U6,K12,GPIO_AD_22*%
%TO.N,unconnected-(U6H-GPIO_AD_22-PadK12)*%
X138578764Y-98242874D03*
%TO.P,U6,K13,GPIO_AD_20*%
%TO.N,unconnected-(U6H-GPIO_AD_20-PadK13)*%
X137778764Y-98242874D03*
%TO.P,U6,K14,GPIO_AD_21*%
%TO.N,unconnected-(U6H-GPIO_AD_21-PadK14)*%
X136978764Y-98242874D03*
%TO.P,U6,K15,VDDA_ADC_1P8*%
%TO.N,ADC_1V8_IN*%
X136178764Y-98242874D03*
%TO.P,U6,K16,GPIO_AD_32*%
%TO.N,I2C1_SCL*%
X135378764Y-98242874D03*
%TO.P,U6,K17,GPIO_AD_30*%
%TO.N,LPSPI1_SDO*%
X134578764Y-98242874D03*
%TO.P,U6,L1,GPIO_EMC_B1_41*%
%TO.N,LPUART6_RXD*%
X147378764Y-97442874D03*
%TO.P,U6,L2,GPIO_EMC_B2_15*%
%TO.N,TPU_POW_EN*%
X146578764Y-97442874D03*
%TO.P,U6,L3,VSS_24*%
%TO.N,GND*%
X145778764Y-97442874D03*
%TO.P,U6,L4,GPIO_EMC_B2_11*%
%TO.N,MCM_SD_ALARM*%
X144978764Y-97442874D03*
%TO.P,U6,L5,DCDC_IN_Q*%
%TO.N,MCU_DCDC_IN*%
X144178764Y-97442874D03*
%TO.P,U6,L6,DCDC_GND_3*%
%TO.N,GND*%
X143378764Y-97442874D03*
%TO.P,U6,L7,DCDC_DIG_SENSE*%
%TO.N,VDD_SOC_IN*%
X142578764Y-97442874D03*
%TO.P,U6,L8,DCDC_DIG_3*%
%TO.N,Net-(U6C-DCDC_DIG_1)*%
X141778764Y-97442874D03*
%TO.P,U6,L9,GPIO_SNVS_02*%
%TO.N,BRD_STAT_LED*%
X140978764Y-97442874D03*
%TO.P,U6,L10,VSS_25*%
%TO.N,GND*%
X140178764Y-97442874D03*
%TO.P,U6,L11,VSS_26*%
X139378764Y-97442874D03*
%TO.P,U6,L12,GPIO_AD_13*%
%TO.N,unconnected-(U6H-GPIO_AD_13-PadL12)*%
X138578764Y-97442874D03*
%TO.P,U6,L13,GPIO_AD_24*%
%TO.N,/RT1176/RT1176_2/LPUART1_TXD_BT*%
X137778764Y-97442874D03*
%TO.P,U6,L14,GPIO_AD_26*%
%TO.N,FLEXPWM2_PWM1_A*%
X136978764Y-97442874D03*
%TO.P,U6,L15,VSS_27*%
%TO.N,GND*%
X136178764Y-97442874D03*
%TO.P,U6,L16,GPIO_AD_19*%
%TO.N,unconnected-(U6H-GPIO_AD_19-PadL16)*%
X135378764Y-97442874D03*
%TO.P,U6,L17,GPIO_AD_28*%
%TO.N,LPSPI1_SCK*%
X134578764Y-97442874D03*
%TO.P,U6,M1,GPIO_EMC_B2_04*%
%TO.N,unconnected-(U6J-GPIO_EMC_B2_04-PadM1)*%
X147378764Y-96642874D03*
%TO.P,U6,M2,GPIO_EMC_B2_12*%
%TO.N,PRIVACY_OVERRIDE*%
X146578764Y-96642874D03*
%TO.P,U6,M3,GPIO_EMC_B2_07*%
%TO.N,unconnected-(U6J-GPIO_EMC_B2_07-PadM3)*%
X145778764Y-96642874D03*
%TO.P,U6,M4,GPIO_EMC_B2_14*%
%TO.N,TPU_RST_L*%
X144978764Y-96642874D03*
%TO.P,U6,M5,DCDC_IN_1*%
%TO.N,MCU_DCDC_IN*%
X144178764Y-96642874D03*
%TO.P,U6,M6,DCDC_ANA_SENSE*%
%TO.N,DCDC_1V8_OUT_SENSE*%
X143378764Y-96642874D03*
%TO.P,U6,M7,DCDC_ANA_1*%
X142578764Y-96642874D03*
%TO.P,U6,M8,DCDC_ANA_2*%
X141778764Y-96642874D03*
%TO.P,U6,M9,GPIO_SNVS_06*%
%TO.N,GPIO_SNVS_06*%
X140978764Y-96642874D03*
%TO.P,U6,M10,GPIO_SNVS_03*%
%TO.N,USER_LED*%
X140178764Y-96642874D03*
%TO.P,U6,M11,VDDA_1P8_IN*%
%TO.N,ADC_1V8_IN*%
X139378764Y-96642874D03*
%TO.P,U6,M12,NVCC_GPIO*%
%TO.N,VDD_1V8*%
X138578764Y-96642874D03*
%TO.P,U6,M13,GPIO_AD_04*%
%TO.N,unconnected-(U6H-GPIO_AD_04-PadM13)*%
X137778764Y-96642874D03*
%TO.P,U6,M14,GPIO_AD_15*%
%TO.N,unconnected-(U6H-GPIO_AD_15-PadM14)*%
X136978764Y-96642874D03*
%TO.P,U6,M15,GPIO_AD_25*%
%TO.N,/RT1176/RT1176_2/LPUART1_RXD_BT*%
X136178764Y-96642874D03*
%TO.P,U6,M16,GPIO_AD_18*%
%TO.N,unconnected-(U6H-GPIO_AD_18-PadM16)*%
X135378764Y-96642874D03*
%TO.P,U6,M17,GPIO_AD_29*%
%TO.N,LPSPI1_PCS0*%
X134578764Y-96642874D03*
%TO.P,U6,N1,GPIO_EMC_B2_05*%
%TO.N,unconnected-(U6J-GPIO_EMC_B2_05-PadN1)*%
X147378764Y-95842874D03*
%TO.P,U6,N2,GPIO_EMC_B2_09*%
%TO.N,unconnected-(U6J-GPIO_EMC_B2_09-PadN2)*%
X146578764Y-95842874D03*
%TO.P,U6,N3,GPIO_EMC_B2_18*%
%TO.N,unconnected-(U6J-GPIO_EMC_B2_18-PadN3)*%
X145778764Y-95842874D03*
%TO.P,U6,N4,DCDC_MODE*%
%TO.N,MCU_DCDC_IN*%
X144978764Y-95842874D03*
%TO.P,U6,N5,DCDC_IN_2*%
X144178764Y-95842874D03*
%TO.P,U6,N6,GPIO_LPSR_00*%
%TO.N,MIC_CLK*%
X143378764Y-95842874D03*
%TO.P,U6,N7,GPIO_LPSR_04*%
%TO.N,I2C5_SDA*%
X142578764Y-95842874D03*
%TO.P,U6,N8,GPIO_LPSR_05*%
%TO.N,I2C5_SCL*%
X141778764Y-95842874D03*
%TO.P,U6,N9,GPIO_SNVS_08*%
%TO.N,GPIO_SNVS_08*%
X140978764Y-95842874D03*
%TO.P,U6,N10,GPIO_SNVS_04*%
%TO.N,GPIO_SNVS_04*%
X140178764Y-95842874D03*
%TO.P,U6,N11,VDDA_1P0*%
%TO.N,VDDA_1P0*%
X139378764Y-95842874D03*
%TO.P,U6,N12,GPIO_AD_00*%
%TO.N,FLEXPWM1_PWM0_A*%
X138578764Y-95842874D03*
%TO.P,U6,N13,GPIO_AD_06*%
%TO.N,ADC1_CH0A*%
X137778764Y-95842874D03*
%TO.P,U6,N14,GPIO_AD_14*%
%TO.N,unconnected-(U6H-GPIO_AD_14-PadN14)*%
X136978764Y-95842874D03*
%TO.P,U6,N15,GPIO_AD_17*%
%TO.N,unconnected-(U6H-GPIO_AD_17-PadN15)*%
X136178764Y-95842874D03*
%TO.P,U6,N16,GPIO_AD_27*%
%TO.N,FLEXPWM2_PWM1_B*%
X135378764Y-95842874D03*
%TO.P,U6,N17,GPIO_AD_16*%
%TO.N,unconnected-(U6H-GPIO_AD_16-PadN17)*%
X134578764Y-95842874D03*
%TO.P,U6,P1,GPIO_EMC_B2_08*%
%TO.N,unconnected-(U6J-GPIO_EMC_B2_08-PadP1)*%
X147378764Y-95042874D03*
%TO.P,U6,P2,GPIO_EMC_B2_16*%
%TO.N,MCM_1V8*%
X146578764Y-95042874D03*
%TO.P,U6,P3,DCDC_PSWITCH*%
%TO.N,Net-(U6C-DCDC_PSWITCH)*%
X145778764Y-95042874D03*
%TO.P,U6,P4,VSS_28*%
%TO.N,GND*%
X144978764Y-95042874D03*
%TO.P,U6,P5,GPIO_LPSR_09*%
%TO.N,LPSPI6_CS0*%
X144178764Y-95042874D03*
%TO.P,U6,P6,GPIO_LPSR_02*%
%TO.N,BOOT_MODE0*%
X143378764Y-95042874D03*
%TO.P,U6,P7,NVCC_LPSR*%
%TO.N,VDD_1V8*%
X142578764Y-95042874D03*
%TO.P,U6,P8,GPIO_LPSR_06*%
%TO.N,I2C6_SDA*%
X141778764Y-95042874D03*
%TO.P,U6,P9,GPIO_SNVS_05*%
%TO.N,CAMERA_INT*%
X140978764Y-95042874D03*
%TO.P,U6,P10,GPIO_SNVS_01*%
%TO.N,DA_GPIO0*%
X140178764Y-95042874D03*
%TO.P,U6,P11,VDD_LPSR_DIG*%
%TO.N,VDD_LPSR_DIG*%
X139378764Y-95042874D03*
%TO.P,U6,P12,VDD_LPSR_ANA*%
%TO.N,VDD_LPSR_ANA*%
X138578764Y-95042874D03*
%TO.P,U6,P13,GPIO_AD_05*%
%TO.N,/RT1176/RT1176_2/<NO NET>*%
X137778764Y-95042874D03*
%TO.P,U6,P14,VSS_29*%
%TO.N,GND*%
X136978764Y-95042874D03*
%TO.P,U6,P15,GPIO_AD_03*%
%TO.N,FLEXPWM1_PWM1_B*%
X136178764Y-95042874D03*
%TO.P,U6,P16,GPIO_AD_11*%
%TO.N,ADC1_CH2B*%
X135378764Y-95042874D03*
%TO.P,U6,P17,GPIO_AD_12*%
%TO.N,unconnected-(U6H-GPIO_AD_12-PadP17)*%
X134578764Y-95042874D03*
%TO.P,U6,R1,GPIO_EMC_B2_03*%
%TO.N,unconnected-(U6J-GPIO_EMC_B2_03-PadR1)*%
X147378764Y-94242874D03*
%TO.P,U6,R2,GPIO_EMC_B2_10*%
%TO.N,unconnected-(U6J-GPIO_EMC_B2_10-PadR2)*%
X146578764Y-94242874D03*
%TO.P,U6,R3,GPIO_EMC_B2_20*%
%TO.N,unconnected-(U6J-GPIO_EMC_B2_20-PadR3)*%
X145778764Y-94242874D03*
%TO.P,U6,R4,VSS_34*%
%TO.N,GND*%
X144978764Y-94242874D03*
%TO.P,U6,R5,GPIO_LPSR_10*%
%TO.N,LPSPI6_SCK*%
X144178764Y-94242874D03*
%TO.P,U6,R6,GPIO_LPSR_01*%
%TO.N,DMIC_DATA0*%
X143378764Y-94242874D03*
%TO.P,U6,R7,VSS_30*%
%TO.N,GND*%
X142578764Y-94242874D03*
%TO.P,U6,R8,GPIO_LPSR_07*%
%TO.N,I2C6_SCL*%
X141778764Y-94242874D03*
%TO.P,U6,R9,GPIO_SNVS_07*%
%TO.N,GPIO_SNVS_07*%
X140978764Y-94242874D03*
%TO.P,U6,R10,GPIO_SNVS_00*%
%TO.N,USER_BUTTON*%
X140178764Y-94242874D03*
%TO.P,U6,R11,GPIO_SNVS_09*%
%TO.N,WIFI_POWER_EN*%
X139378764Y-94242874D03*
%TO.P,U6,R12,VDD_LPSR_IN*%
%TO.N,VDD_LPSR_IN*%
X138578764Y-94242874D03*
%TO.P,U6,R13,GPIO_AD_02*%
%TO.N,FLEXPWM1_PWM1_A*%
X137778764Y-94242874D03*
%TO.P,U6,R14,GPIO_AD_01*%
%TO.N,FLEXPWM1_PWM0_B*%
X136978764Y-94242874D03*
%TO.P,U6,R15,GPIO_AD_08*%
%TO.N,USBB_PORT_RT*%
X136178764Y-94242874D03*
%TO.P,U6,R16,GPIO_AD_09*%
%TO.N,USB_OTG1_ID*%
X135378764Y-94242874D03*
%TO.P,U6,R17,GPIO_AD_10*%
%TO.N,Net-(U6H-GPIO_AD_10)*%
X134578764Y-94242874D03*
%TO.P,U6,T1,GPIO_EMC_B2_06*%
%TO.N,unconnected-(U6J-GPIO_EMC_B2_06-PadT1)*%
X147378764Y-93442874D03*
%TO.P,U6,T2,GPIO_EMC_B2_17*%
%TO.N,unconnected-(U6J-GPIO_EMC_B2_17-PadT2)*%
X146578764Y-93442874D03*
%TO.P,U6,T3,DCDC_LP_1*%
%TO.N,Net-(U6C-DCDC_LP_1)*%
X145778764Y-93442874D03*
%TO.P,U6,T4,DCDC_LN_1*%
%TO.N,Net-(U6C-DCDC_LN_1)*%
X144978764Y-93442874D03*
%TO.P,U6,T5,GPIO_LPSR_11*%
%TO.N,LPSPI6_SDO*%
X144178764Y-93442874D03*
%TO.P,U6,T6,GPIO_LPSR_14*%
%TO.N,unconnected-(U6F-GPIO_LPSR_14-PadT6)*%
X143378764Y-93442874D03*
%TO.P,U6,T7,GPIO_LPSR_03*%
%TO.N,BOOT_MODE1*%
X142578764Y-93442874D03*
%TO.P,U6,T8,WAKEUP*%
%TO.N,WAKEUP*%
X141778764Y-93442874D03*
%TO.P,U6,T9,PMIC_STY_REQ*%
%TO.N,PMIC_STBY_REQ*%
X140978764Y-93442874D03*
%TO.P,U6,T10,POR*%
%TO.N,POR_B*%
X140178764Y-93442874D03*
%TO.P,U6,T11,TEST_MODE*%
%TO.N,GND*%
X139378764Y-93442874D03*
%TO.P,U6,T12,VSS_31*%
X138578764Y-93442874D03*
%TO.P,U6,T13,RTC_XTALI*%
%TO.N,Net-(U6A-RTC_XTALI)*%
X137778764Y-93442874D03*
%TO.P,U6,T14,VDD_SNVS_DIG*%
%TO.N,VDD_SNVS_DIG*%
X136978764Y-93442874D03*
%TO.P,U6,T15,CLK1_N*%
%TO.N,unconnected-(U6E-CLK1_N-PadT15)*%
X136178764Y-93442874D03*
%TO.P,U6,T16,XTALO*%
%TO.N,Net-(U6E-XTALO)*%
X135378764Y-93442874D03*
%TO.P,U6,T17,GPIO_AD_07*%
%TO.N,ADC1_CH0B*%
X134578764Y-93442874D03*
%TO.P,U6,U1,VSS_32*%
%TO.N,GND*%
X147378764Y-92642874D03*
%TO.P,U6,U2,GPIO_EMC_B2_19*%
%TO.N,unconnected-(U6J-GPIO_EMC_B2_19-PadU2)*%
X146578764Y-92642874D03*
%TO.P,U6,U3,DCDC_LP_2*%
%TO.N,Net-(U6C-DCDC_LP_1)*%
X145778764Y-92642874D03*
%TO.P,U6,U4,DCDC_LN_2*%
%TO.N,Net-(U6C-DCDC_LN_1)*%
X144978764Y-92642874D03*
%TO.P,U6,U5,GPIO_LPSR_12*%
%TO.N,LPSPI6_SDI*%
X144178764Y-92642874D03*
%TO.P,U6,U6,GPIO_LPSR_13*%
%TO.N,unconnected-(U6F-GPIO_LPSR_13-PadU6)*%
X143378764Y-92642874D03*
%TO.P,U6,U7,GPIO_LPSR_15*%
%TO.N,unconnected-(U6F-GPIO_LPSR_15-PadU7)*%
X142578764Y-92642874D03*
%TO.P,U6,U8,GPIO_LPSR_08*%
%TO.N,CRYPTO_RST_N*%
X141778764Y-92642874D03*
%TO.P,U6,U9,PMIC_ON_REQ*%
%TO.N,PMIC_ON_REQ*%
X140978764Y-92642874D03*
%TO.P,U6,U10,ONOFF*%
%TO.N,ONOFF*%
X140178764Y-92642874D03*
%TO.P,U6,U11,NVCC_SNVS*%
%TO.N,VDD_SNVS_ANA*%
X139378764Y-92642874D03*
%TO.P,U6,U12,VDD_SNVS_IN*%
%TO.N,Net-(U6A-VDD_SNVS_IN)*%
X138578764Y-92642874D03*
%TO.P,U6,U13,RTC_XTALO*%
%TO.N,Net-(U6A-RTC_XTALO)*%
X137778764Y-92642874D03*
%TO.P,U6,U14,VDD_SNVS_ANA*%
%TO.N,VDD_SNVS_ANA*%
X136978764Y-92642874D03*
%TO.P,U6,U15,CLK1_P*%
%TO.N,unconnected-(U6E-CLK1_P-PadU15)*%
X136178764Y-92642874D03*
%TO.P,U6,U16,XTALI*%
%TO.N,Net-(U6E-XTALI)*%
X135378764Y-92642874D03*
%TO.P,U6,U17,VSS_33*%
%TO.N,GND*%
X134578764Y-92642874D03*
%TD*%
D18*
%TO.P,U8,A1,VSS*%
%TO.N,GND*%
X156498781Y-99567847D03*
%TO.P,U8,A2,DQ15*%
%TO.N,SEMC_D15*%
X156498781Y-100367847D03*
%TO.P,U8,A3,VSSQ*%
%TO.N,GND*%
X156498781Y-101167847D03*
%TO.P,U8,A7,VDDQ*%
%TO.N,SDRAM_1V8*%
X156498781Y-104367847D03*
%TO.P,U8,A8,DQ0*%
%TO.N,SEMC_D0*%
X156498781Y-105167847D03*
%TO.P,U8,A9,VDD*%
%TO.N,SDRAM_1V8*%
X156498781Y-105967847D03*
%TO.P,U8,B1,DQ14*%
%TO.N,SEMC_D14*%
X155698781Y-99567847D03*
%TO.P,U8,B2,DQ13*%
%TO.N,SEMC_D13*%
X155698781Y-100367847D03*
%TO.P,U8,B3,VDDQ*%
%TO.N,SDRAM_1V8*%
X155698781Y-101167847D03*
%TO.P,U8,B7,VSSQ*%
%TO.N,GND*%
X155698781Y-104367847D03*
%TO.P,U8,B8,DQ2*%
%TO.N,SEMC_D2*%
X155698781Y-105167847D03*
%TO.P,U8,B9,DQ1*%
%TO.N,SEMC_D1*%
X155698781Y-105967847D03*
%TO.P,U8,C1,DQ12*%
%TO.N,SEMC_D12*%
X154898781Y-99567847D03*
%TO.P,U8,C2,DQ11*%
%TO.N,SEMC_D11*%
X154898781Y-100367847D03*
%TO.P,U8,C3,VSSQ*%
%TO.N,GND*%
X154898781Y-101167847D03*
%TO.P,U8,C7,VDDQ*%
%TO.N,SDRAM_1V8*%
X154898781Y-104367847D03*
%TO.P,U8,C8,DQ4*%
%TO.N,SEMC_D4*%
X154898781Y-105167847D03*
%TO.P,U8,C9,DQ3*%
%TO.N,SEMC_D3*%
X154898781Y-105967847D03*
%TO.P,U8,D1,DQ10*%
%TO.N,SEMC_D10*%
X154098781Y-99567847D03*
%TO.P,U8,D2,DQ9*%
%TO.N,SEMC_D9*%
X154098781Y-100367847D03*
%TO.P,U8,D3,VDDQ*%
%TO.N,SDRAM_1V8*%
X154098781Y-101167847D03*
%TO.P,U8,D7,VSSQ*%
%TO.N,GND*%
X154098781Y-104367847D03*
%TO.P,U8,D8,DQ6*%
%TO.N,SEMC_D6*%
X154098781Y-105167847D03*
%TO.P,U8,D9,DQ5*%
%TO.N,SEMC_D5*%
X154098781Y-105967847D03*
%TO.P,U8,E1,DQ8*%
%TO.N,SEMC_D8*%
X153298781Y-99567847D03*
%TO.P,U8,E2,DNU*%
%TO.N,unconnected-(U8-DNU-PadE2)*%
X153298781Y-100367847D03*
%TO.P,U8,E3,VSS*%
%TO.N,GND*%
X153298781Y-101167847D03*
%TO.P,U8,E7,VDD*%
%TO.N,SDRAM_1V8*%
X153298781Y-104367847D03*
%TO.P,U8,E8,LDQM*%
%TO.N,SEMC_DM0*%
X153298781Y-105167847D03*
%TO.P,U8,E9,DQ7*%
%TO.N,SEMC_D7*%
X153298781Y-105967847D03*
%TO.P,U8,F1,UDQM*%
%TO.N,SEMC_DM1*%
X152498781Y-99567847D03*
%TO.P,U8,F2,CLK*%
%TO.N,SEMC_CLK*%
X152498781Y-100367847D03*
%TO.P,U8,F3,CKE*%
%TO.N,SEMC_CKE*%
X152498781Y-101167847D03*
%TO.P,U8,F7,\u002ACAS*%
%TO.N,SEMC_CAS*%
X152498781Y-104367847D03*
%TO.P,U8,F8,\u002ARAS*%
%TO.N,SEMC_RAS*%
X152498781Y-105167847D03*
%TO.P,U8,F9,\u002AWE*%
%TO.N,SEMC_WE*%
X152498781Y-105967847D03*
%TO.P,U8,G1,A12*%
%TO.N,SEMC_A12*%
X151698781Y-99567847D03*
%TO.P,U8,G2,A11*%
%TO.N,SEMC_A11*%
X151698781Y-100367847D03*
%TO.P,U8,G3,A9*%
%TO.N,SEMC_A9*%
X151698781Y-101167847D03*
%TO.P,U8,G7,BA0*%
%TO.N,SEMC_BA0*%
X151698781Y-104367847D03*
%TO.P,U8,G8,BA1*%
%TO.N,SEMC_BA1*%
X151698781Y-105167847D03*
%TO.P,U8,G9,\u002ACS*%
%TO.N,SEMC_CS0*%
X151698781Y-105967847D03*
%TO.P,U8,H1,A8*%
%TO.N,SEMC_A8*%
X150898781Y-99567847D03*
%TO.P,U8,H2,A7*%
%TO.N,SEMC_A7*%
X150898781Y-100367847D03*
%TO.P,U8,H3,A6*%
%TO.N,SEMC_A6*%
X150898781Y-101167847D03*
%TO.P,U8,H7,A0*%
%TO.N,SEMC_A0*%
X150898781Y-104367847D03*
%TO.P,U8,H8,A1*%
%TO.N,SEMC_A1*%
X150898781Y-105167847D03*
%TO.P,U8,H9,A10*%
%TO.N,SEMC_A10*%
X150898781Y-105967847D03*
%TO.P,U8,J1,VSS*%
%TO.N,GND*%
X150098781Y-99567847D03*
%TO.P,U8,J2,A5*%
%TO.N,SEMC_A5*%
X150098781Y-100367847D03*
%TO.P,U8,J3,A4*%
%TO.N,SEMC_A4*%
X150098781Y-101167847D03*
%TO.P,U8,J7,A3*%
%TO.N,SEMC_A3*%
X150098781Y-104367847D03*
%TO.P,U8,J8,A2*%
%TO.N,SEMC_A2*%
X150098781Y-105167847D03*
%TO.P,U8,J9,VDD*%
%TO.N,SDRAM_1V8*%
X150098781Y-105967847D03*
%TD*%
D19*
%TO.P,C46,1,1*%
%TO.N,GND*%
X154706052Y-109624566D03*
%TO.P,C46,2,2*%
%TO.N,MCM_3V3*%
X153806052Y-109624566D03*
%TD*%
D20*
%TO.P,IC5,1,1Y*%
%TO.N,I2C5_SDA*%
X151737000Y-97220000D03*
D21*
%TO.P,IC5,2,1Z*%
%TO.N,I2C5_SDA_MCM*%
X151762000Y-96720000D03*
%TO.P,IC5,3,2E*%
%TO.N,MCM_1V8*%
X151762000Y-96220000D03*
D22*
%TO.P,IC5,4,GND*%
%TO.N,GND*%
X151762000Y-95720000D03*
%TO.P,IC5,5,2Y*%
%TO.N,I2C5_SCL*%
X150512000Y-95720000D03*
D21*
%TO.P,IC5,6,2Z*%
%TO.N,I2C5_SCL_MCM*%
X150512000Y-96220000D03*
%TO.P,IC5,7,1E*%
%TO.N,MCM_1V8*%
X150512000Y-96720000D03*
D22*
%TO.P,IC5,8,VCC*%
%TO.N,VDD_1V8*%
X150512000Y-97220000D03*
%TD*%
D23*
%TO.P,C53,1,1*%
%TO.N,MCM_3V3*%
X128476302Y-110617705D03*
%TO.P,C53,2,2*%
%TO.N,GND*%
X127526302Y-110617705D03*
%TD*%
D24*
%TO.P,L4,1*%
%TO.N,Net-(U6C-DCDC_LP_1)*%
X149830000Y-86095294D03*
%TO.P,L4,2*%
%TO.N,Net-(U6C-DCDC_LN_1)*%
X146430000Y-86095294D03*
%TD*%
D19*
%TO.P,C104,1,1*%
%TO.N,MCM_3V3*%
X132430000Y-106440000D03*
%TO.P,C104,2,2*%
%TO.N,GND*%
X131530000Y-106440000D03*
%TD*%
D25*
%TO.P,C10,1,1*%
%TO.N,GND*%
X140220947Y-89652249D03*
%TO.P,C10,2,2*%
%TO.N,VDD_SNVS_ANA*%
X140220947Y-90552249D03*
%TD*%
D26*
%TO.P,R41,1,1*%
%TO.N,Net-(LED1-A)*%
X128770025Y-108332060D03*
%TO.P,R41,2,2*%
%TO.N,MCM_3V3*%
X128770025Y-109382060D03*
%TD*%
D27*
%TO.P,SW2,1,1*%
%TO.N,DA_nONKEY*%
X159040920Y-99778548D03*
%TO.P,SW2,2,2*%
X161190918Y-99778548D03*
%TO.P,SW2,3,3*%
%TO.N,GND*%
X159040920Y-95628548D03*
%TO.P,SW2,4,4*%
X161190918Y-95628548D03*
%TD*%
D28*
%TO.P,J5,1,Pin_1*%
%TO.N,GND*%
X155780000Y-115780000D03*
%TO.P,J5,2,Pin_2*%
X127220000Y-115780000D03*
%TO.P,J5,3,Pin_3*%
X127220000Y-87220000D03*
%TO.P,J5,4,Pin_4*%
X155780000Y-87220000D03*
%TD*%
D19*
%TO.P,C42,1,1*%
%TO.N,SDRAM_1V8*%
X156733464Y-108741054D03*
%TO.P,C42,2,2*%
%TO.N,GND*%
X155833464Y-108741054D03*
%TD*%
D29*
%TO.P,IC2,1,GND_1*%
%TO.N,GND*%
X137808573Y-108639330D03*
%TO.P,IC2,2,GND_2*%
X137808573Y-109139330D03*
%TO.P,IC2,3,GND_3*%
X137808573Y-109639330D03*
%TO.P,IC2,4,PCIE_TX_N*%
X137808573Y-110139330D03*
%TO.P,IC2,5,PCIE_TX_P*%
X137808573Y-110639330D03*
%TO.P,IC2,6,GND_4*%
X137808573Y-111139330D03*
%TO.P,IC2,7,PCIE_RX_P*%
X137808573Y-111639330D03*
%TO.P,IC2,8,PCIE_RX_N*%
X137808573Y-112139330D03*
%TO.P,IC2,9,GND_5*%
X137808573Y-112639330D03*
%TO.P,IC2,10,PCIE_REFCLK_N*%
X137808573Y-113139330D03*
%TO.P,IC2,11,PCIE_REFCLK_P*%
X137808573Y-113639330D03*
%TO.P,IC2,12,GND_6*%
X137808573Y-114139330D03*
%TO.P,IC2,13,USB2_D_P*%
%TO.N,USB2_TPU_P*%
X137808573Y-114639330D03*
%TO.P,IC2,14,USB2_D_N*%
%TO.N,USB2_TPU_N*%
X137808573Y-115139330D03*
%TO.P,IC2,15,GND_7*%
%TO.N,GND*%
X137808573Y-115639330D03*
%TO.P,IC2,16,GND_8*%
X137808573Y-116139330D03*
%TO.P,IC2,17,GND_9*%
X137808573Y-116639330D03*
%TO.P,IC2,18,GND_10*%
X137808573Y-117139330D03*
%TO.P,IC2,19,GND_11*%
X137808573Y-117639330D03*
D30*
%TO.P,IC2,20,GND_12*%
X138708573Y-117539330D03*
%TO.P,IC2,21,GND_13*%
X139208573Y-117539330D03*
%TO.P,IC2,22,GND_14*%
X139708573Y-117539330D03*
%TO.P,IC2,23,GND_15*%
X140208573Y-117539330D03*
%TO.P,IC2,24,GND_16*%
X140708573Y-117539330D03*
%TO.P,IC2,25,GND_17*%
X141208573Y-117539330D03*
%TO.P,IC2,26,GND_18*%
X141708573Y-117539330D03*
%TO.P,IC2,27,GND_19*%
X142208573Y-117539330D03*
%TO.P,IC2,28,GND_20*%
X142708573Y-117539330D03*
%TO.P,IC2,29,GND_21*%
X143208573Y-117539330D03*
%TO.P,IC2,30,GND_22*%
X143708573Y-117539330D03*
%TO.P,IC2,31,GND_23*%
X144208573Y-117539330D03*
%TO.P,IC2,32,GND_24*%
X144708573Y-117539330D03*
%TO.P,IC2,33,GND_25*%
X145208573Y-117539330D03*
%TO.P,IC2,34,GND_26*%
X145708573Y-117539330D03*
%TO.P,IC2,35,GND_27*%
X146208573Y-117539330D03*
%TO.P,IC2,36,GND_28*%
X146708573Y-117539330D03*
%TO.P,IC2,37,PGOOD4*%
%TO.N,unconnected-(IC2-PGOOD4-Pad37)*%
X147208573Y-117539330D03*
%TO.P,IC2,38,GND_29*%
%TO.N,GND*%
X147708573Y-117539330D03*
%TO.P,IC2,39,GND_30*%
X148208573Y-117539330D03*
%TO.P,IC2,40,GND_31*%
X148708573Y-117539330D03*
%TO.P,IC2,41,GND_32*%
X149208573Y-117539330D03*
%TO.P,IC2,42,GND_33*%
X149708573Y-117539330D03*
%TO.P,IC2,43,GND_34*%
X150208573Y-117539330D03*
%TO.P,IC2,44,GND_35*%
X150708573Y-117539330D03*
D29*
%TO.P,IC2,45,GND_36*%
X151608573Y-117639330D03*
%TO.P,IC2,46,GND_37*%
X151608573Y-117139330D03*
%TO.P,IC2,47,GND_38*%
X151608573Y-116639330D03*
%TO.P,IC2,48,GND_39*%
X151608573Y-116139330D03*
%TO.P,IC2,49,RESERVED_1*%
%TO.N,I2C5_SDA_MCM*%
X151608573Y-115639330D03*
%TO.P,IC2,50,RESERVED_2*%
%TO.N,I2C5_SCL_MCM*%
X151608573Y-115139330D03*
%TO.P,IC2,51,GND_40*%
%TO.N,GND*%
X151608573Y-114639330D03*
%TO.P,IC2,52,RESERVED_3*%
%TO.N,unconnected-(IC2-RESERVED_3-Pad52)*%
X151608573Y-114139330D03*
%TO.P,IC2,53,PMIC_EN*%
%TO.N,MCM_1V8*%
X151608573Y-113639330D03*
%TO.P,IC2,54,AON*%
X151608573Y-113139330D03*
%TO.P,IC2,55,GND_41*%
%TO.N,GND*%
X151608573Y-112639330D03*
%TO.P,IC2,56,VIN_1*%
%TO.N,MCM_3V3*%
X151608573Y-112139330D03*
%TO.P,IC2,57,VIN_2*%
X151608573Y-111639330D03*
%TO.P,IC2,58,VIN_3*%
X151608573Y-111139330D03*
%TO.P,IC2,59,VIN_4*%
X151608573Y-110639330D03*
%TO.P,IC2,60,VIN_5*%
X151608573Y-110139330D03*
%TO.P,IC2,61,VIN_6*%
X151608573Y-109639330D03*
%TO.P,IC2,62,VIN_7*%
X151608573Y-109139330D03*
%TO.P,IC2,63,VIN_8*%
X151608573Y-108639330D03*
D30*
%TO.P,IC2,64,VIN_9*%
X150708573Y-108739330D03*
%TO.P,IC2,65,VIN_10*%
X150208573Y-108739330D03*
%TO.P,IC2,66,VIN_11*%
X149708573Y-108739330D03*
%TO.P,IC2,67,VIN_12*%
X149208573Y-108739330D03*
%TO.P,IC2,68,GND_42*%
%TO.N,GND*%
X148708573Y-108739330D03*
%TO.P,IC2,69,GND_43*%
X148208573Y-108739330D03*
%TO.P,IC2,70,GND_44*%
X147708573Y-108739330D03*
%TO.P,IC2,71,GND_45*%
X147208573Y-108739330D03*
%TO.P,IC2,72,GND_46*%
X146708573Y-108739330D03*
%TO.P,IC2,73,GND_47*%
X146208573Y-108739330D03*
%TO.P,IC2,74,GND_48*%
X145708573Y-108739330D03*
%TO.P,IC2,75,GND_49*%
X145208573Y-108739330D03*
%TO.P,IC2,76,RST_L*%
%TO.N,TPU_RST_L*%
X144708573Y-108739330D03*
%TO.P,IC2,77,INTR*%
%TO.N,unconnected-(IC2-INTR-Pad77)*%
X144208573Y-108739330D03*
%TO.P,IC2,78,CLKREQ_L*%
%TO.N,unconnected-(IC2-CLKREQ_L-Pad78)*%
X143708573Y-108739330D03*
%TO.P,IC2,79,GND_50*%
%TO.N,GND*%
X143208573Y-108739330D03*
%TO.P,IC2,80,GND_51*%
X142708573Y-108739330D03*
%TO.P,IC2,81,GND_52*%
X142208573Y-108739330D03*
%TO.P,IC2,82,SD_ALARM*%
%TO.N,MCM_SD_ALARM*%
X141708573Y-108739330D03*
%TO.P,IC2,83,USB_SEL*%
%TO.N,MCM_1V8*%
X141208573Y-108739330D03*
%TO.P,IC2,84,RESERVED_4*%
%TO.N,/TPU/MCM_BT_PHY_PRG*%
X140708573Y-108739330D03*
%TO.P,IC2,85,RESERVED_5*%
%TO.N,TPU_BOOT_FAIL*%
X140208573Y-108739330D03*
%TO.P,IC2,86,GND_53*%
%TO.N,GND*%
X139708573Y-108739330D03*
%TO.P,IC2,87,GND_54*%
X139208573Y-108739330D03*
%TO.P,IC2,88,GND_55*%
X138708573Y-108739330D03*
D31*
%TO.P,IC2,89,GND_56*%
X139108573Y-110739330D03*
%TO.P,IC2,90,GND_57*%
X139108573Y-112339330D03*
%TO.P,IC2,91,GND_58*%
X139108573Y-113939330D03*
%TO.P,IC2,92,GND_59*%
X139108573Y-115539330D03*
%TO.P,IC2,93,GND_60*%
X140708573Y-115539330D03*
%TO.P,IC2,94,GND_61*%
X142308573Y-115539330D03*
%TO.P,IC2,95,GND_62*%
X143908573Y-115539330D03*
%TO.P,IC2,96,GND_63*%
X145508573Y-115539330D03*
%TO.P,IC2,97,GND_64*%
X147108573Y-115539330D03*
%TO.P,IC2,98,GND_65*%
X148708573Y-115539330D03*
%TO.P,IC2,99,GND_66*%
X150308573Y-115539330D03*
%TO.P,IC2,100,GND_67*%
X150308573Y-113939330D03*
%TO.P,IC2,101,GND_68*%
X150308573Y-112339330D03*
%TO.P,IC2,102,GND_69*%
X150308573Y-110739330D03*
%TO.P,IC2,103,GND_70*%
X148708573Y-110739330D03*
%TO.P,IC2,104,GND_71*%
X147108573Y-110739330D03*
%TO.P,IC2,105,GND_72*%
X145508573Y-110739330D03*
%TO.P,IC2,106,GND_73*%
X143908573Y-110739330D03*
%TO.P,IC2,107,GND_74*%
X142308573Y-110739330D03*
%TO.P,IC2,108,GND_75*%
X140708573Y-110739330D03*
%TO.P,IC2,109,GND_76*%
X140708573Y-112339330D03*
%TO.P,IC2,110,GND_77*%
X140708573Y-113939330D03*
%TO.P,IC2,111,GND_78*%
X142308573Y-113939330D03*
%TO.P,IC2,112,GND_79*%
X143908573Y-113939330D03*
%TO.P,IC2,113,GND_80*%
X145508573Y-113939330D03*
%TO.P,IC2,114,GND_81*%
X147108573Y-113939330D03*
%TO.P,IC2,115,GND_82*%
X148708573Y-113939330D03*
%TO.P,IC2,116,GND_83*%
X148708573Y-112339330D03*
%TO.P,IC2,117,GND_84*%
X147108573Y-112339330D03*
%TO.P,IC2,118,GND_85*%
X145508573Y-112339330D03*
%TO.P,IC2,119,GND_86*%
X143908573Y-112339330D03*
%TO.P,IC2,120,GND_87*%
X142308573Y-112339330D03*
%TD*%
D32*
%TO.P,U3,1*%
%TO.N,VDD_3V3*%
X157985207Y-90922463D03*
%TO.P,U3,2*%
%TO.N,+3V3*%
X157985207Y-91963863D03*
%TD*%
D33*
%TO.P,IC9,1,VCCA*%
%TO.N,VDD_1V8*%
X130231434Y-100371172D03*
%TO.P,IC9,2,A*%
%TO.N,USB_PORT_RT*%
X130231434Y-101021172D03*
%TO.P,IC9,3,GND*%
%TO.N,GND*%
X130231434Y-101671172D03*
%TO.P,IC9,4,B*%
%TO.N,Net-(IC8-PORT)*%
X132131434Y-101671172D03*
%TO.P,IC9,5,VCCB*%
%TO.N,VUSB*%
X132131434Y-100371172D03*
%TD*%
D34*
%TO.P,J3,1,1*%
%TO.N,unconnected-(J3-Pad1)*%
X122460133Y-92589066D03*
%TO.P,J3,2,2*%
%TO.N,unconnected-(J3-Pad2)*%
X122460133Y-90049066D03*
%TO.P,J3,3,3*%
%TO.N,GND*%
X122460133Y-87509066D03*
%TO.P,J3,4,4*%
%TO.N,unconnected-(J3-Pad4)*%
X122460133Y-84969066D03*
%TD*%
D35*
%TO.P,R51,1,1*%
%TO.N,I2C5_SDA*%
X141675587Y-88514024D03*
%TO.P,R51,2,2*%
%TO.N,VDD_1V8*%
X142775587Y-88514024D03*
%TD*%
D36*
%TO.P,U9,1,IN*%
%TO.N,VDD_3V3*%
X132527013Y-114137629D03*
%TO.P,U9,2,GND*%
%TO.N,GND*%
X132527013Y-113637503D03*
%TO.P,U9,3,EN*%
%TO.N,TPU_POW_EN*%
X130926813Y-113637503D03*
%TO.P,U9,4,OUT*%
%TO.N,MCM_3V3*%
X130926813Y-114137629D03*
D37*
%TO.P,U9,5,GND*%
%TO.N,GND*%
X131726913Y-113887566D03*
%TD*%
D38*
%TO.P,L3,1,1*%
%TO.N,SDRAM_1V8*%
X156972330Y-107711081D03*
%TO.P,L3,2,2*%
%TO.N,VDD_1V8*%
X155930930Y-107711081D03*
%TD*%
D19*
%TO.P,C41,1,1*%
%TO.N,SDRAM_1V8*%
X156733464Y-109723356D03*
%TO.P,C41,2,2*%
%TO.N,GND*%
X155833464Y-109723356D03*
%TD*%
D34*
%TO.P,J8,1,1*%
%TO.N,unconnected-(J8-Pad1)*%
X160546098Y-110391652D03*
%TO.P,J8,2,2*%
%TO.N,GND*%
X160546098Y-112931652D03*
%TO.P,J8,3,3*%
%TO.N,unconnected-(J8-Pad3)*%
X160546098Y-115471652D03*
%TO.P,J8,4,4*%
%TO.N,unconnected-(J8-Pad4)*%
X160546098Y-118011652D03*
%TD*%
D19*
%TO.P,C45,1,1*%
%TO.N,GND*%
X154706052Y-108625716D03*
%TO.P,C45,2,2*%
%TO.N,MCM_3V3*%
X153806052Y-108625716D03*
%TD*%
%TO.P,C79,1,1*%
%TO.N,Net-(U6E-XTALI)*%
X130430396Y-89909458D03*
%TO.P,C79,2,2*%
%TO.N,GND*%
X129530396Y-89909458D03*
%TD*%
D39*
%TO.P,IC3,1,IN*%
%TO.N,MCM_3V3*%
X131462073Y-116051398D03*
%TO.P,IC3,2,GND*%
%TO.N,GND*%
X131462073Y-117001398D03*
%TO.P,IC3,3,EN*%
%TO.N,Net-(IC3-EN)*%
X131462073Y-117951398D03*
%TO.P,IC3,4,NC*%
%TO.N,unconnected-(IC3-NC-Pad4)*%
X133962073Y-117951398D03*
%TO.P,IC3,5,OUT*%
%TO.N,Net-(IC3-OUT)*%
X133962073Y-116051398D03*
%TD*%
D40*
%TO.P,R9,1,1*%
%TO.N,POR_B*%
X160493860Y-101449644D03*
%TO.P,R9,2,2*%
%TO.N,VDD_SNVS_ANA*%
X158893860Y-101449644D03*
%TD*%
D19*
%TO.P,C40,1,1*%
%TO.N,SDRAM_1V8*%
X156733464Y-110705657D03*
%TO.P,C40,2,2*%
%TO.N,GND*%
X155833464Y-110705657D03*
%TD*%
%TO.P,C34,1,1*%
%TO.N,SDRAM_1V8*%
X157854022Y-110958907D03*
%TO.P,C34,2,2*%
%TO.N,GND*%
X158754022Y-110958907D03*
%TD*%
D25*
%TO.P,C2,1,1*%
%TO.N,Net-(U2-VOUT)*%
X125593984Y-91266271D03*
%TO.P,C2,2,2*%
%TO.N,GND*%
X125593984Y-92166271D03*
%TD*%
D41*
%TO.P,R40,1,1*%
%TO.N,Net-(IC3-OUT)*%
X134230000Y-114410000D03*
%TO.P,R40,2,2*%
%TO.N,MCM_1V8*%
X134230000Y-113386000D03*
%TD*%
D42*
%TO.P,J1,1,GND*%
%TO.N,GND*%
X126412500Y-98680750D03*
%TO.P,J1,2,VBUS*%
%TO.N,VUSB*%
X126412500Y-99430750D03*
D43*
%TO.P,J1,3,CC1*%
%TO.N,/IO/USB_CC1*%
X126412500Y-100030750D03*
%TO.P,J1,4,SBU2*%
%TO.N,unconnected-(J1-SBU2-Pad4)*%
X126412500Y-100530750D03*
%TO.P,J1,5,D-*%
%TO.N,/IO/USB_DN_CON*%
X126412500Y-101030750D03*
%TO.P,J1,6,D+*%
%TO.N,/IO/USB_DP_CON*%
X126412500Y-101530750D03*
%TO.P,J1,7,D+*%
X126412500Y-102030750D03*
%TO.P,J1,8,D-*%
%TO.N,/IO/USB_DN_CON*%
X126412500Y-102530750D03*
%TO.P,J1,9,CC2*%
%TO.N,/IO/USB_CC2*%
X126412500Y-103030750D03*
%TO.P,J1,10,SBU1*%
%TO.N,unconnected-(J1-SBU1-Pad10)*%
X126412500Y-103530750D03*
D42*
%TO.P,J1,11,VBUS*%
%TO.N,VUSB*%
X126412500Y-104130750D03*
%TO.P,J1,12,GND*%
%TO.N,GND*%
X126412500Y-104880750D03*
D44*
%TO.P,J1,S1,SHIELD*%
X122212500Y-100380750D03*
%TO.P,J1,S2,SHIELD*%
X122212500Y-103180750D03*
D45*
%TO.P,J1,S3,SHIELD*%
X126037500Y-97460750D03*
%TO.P,J1,S4,SHIELD*%
X126037500Y-106100750D03*
D46*
%TO.P,J1,S5,SHIELD*%
X122212500Y-97460750D03*
%TO.P,J1,S6,SHIELD*%
X122212500Y-106100750D03*
%TD*%
D19*
%TO.P,C31,1,1*%
%TO.N,GND*%
X155007890Y-90471558D03*
%TO.P,C31,2,2*%
%TO.N,VDD_3V3*%
X155907890Y-90471558D03*
%TD*%
D26*
%TO.P,R62,1,1*%
%TO.N,GND*%
X128352613Y-101338723D03*
%TO.P,R62,2,2*%
%TO.N,USB_PORT_RT*%
X128352613Y-100288723D03*
%TD*%
D47*
%TO.P,Y1,1*%
%TO.N,Net-(U6A-RTC_XTALI)*%
X134736104Y-89129352D03*
%TO.P,Y1,2,CRYSTAL_2*%
%TO.N,Net-(U6A-RTC_XTALO)*%
X137236104Y-89129352D03*
%TD*%
D19*
%TO.P,C36,1,1*%
%TO.N,SDRAM_1V8*%
X157854022Y-112987888D03*
%TO.P,C36,2,2*%
%TO.N,GND*%
X158754022Y-112987888D03*
%TD*%
D48*
%TO.P,IC8,1,CC1*%
%TO.N,/IO/USB_CC1*%
X130334037Y-97540839D03*
%TO.P,IC8,2,CC2*%
%TO.N,/IO/USB_CC2*%
X130334037Y-97940839D03*
D49*
%TO.P,IC8,3,PORT*%
%TO.N,Net-(IC8-PORT)*%
X130334037Y-98465839D03*
%TO.P,IC8,4,VBUS_DET*%
%TO.N,VUSB*%
X130734037Y-98465839D03*
%TO.P,IC8,5,ADR/CON_DET*%
%TO.N,unconnected-(IC8-ADR{slash}CON_DET-Pad5)*%
X131134037Y-98465839D03*
%TO.P,IC8,6,INTB/OUT3*%
%TO.N,unconnected-(IC8-INTB{slash}OUT3-Pad6)*%
X131534037Y-98465839D03*
D48*
%TO.P,IC8,7,SDA/OUT1*%
%TO.N,unconnected-(IC8-SDA{slash}OUT1-Pad7)*%
X131534037Y-97940839D03*
%TO.P,IC8,8,SCL/OUT2*%
%TO.N,unconnected-(IC8-SCL{slash}OUT2-Pad8)*%
X131534037Y-97540839D03*
D49*
%TO.P,IC8,9,ID*%
%TO.N,USB_OTG1_ID*%
X131534037Y-97015839D03*
%TO.P,IC8,10,GND*%
%TO.N,GND*%
X131134037Y-97015839D03*
%TO.P,IC8,11,EXT_SEL*%
%TO.N,unconnected-(IC8-EXT_SEL-Pad11)*%
X130734037Y-97015839D03*
%TO.P,IC8,12,VDD*%
%TO.N,VUSB*%
X130334037Y-97015839D03*
%TD*%
D35*
%TO.P,R56,1,1*%
%TO.N,BOOT_MODE1*%
X158249624Y-94020025D03*
%TO.P,R56,2,2*%
%TO.N,VDD_1V8*%
X157149624Y-94020025D03*
%TD*%
D19*
%TO.P,C47,1,1*%
%TO.N,GND*%
X154706052Y-110623416D03*
%TO.P,C47,2,2*%
%TO.N,MCM_3V3*%
X153806052Y-110623416D03*
%TD*%
D34*
%TO.P,J2,1,1*%
%TO.N,unconnected-(J2-Pad1)*%
X122503992Y-118042254D03*
%TO.P,J2,2,2*%
%TO.N,unconnected-(J2-Pad2)*%
X122503992Y-115502254D03*
%TO.P,J2,3,3*%
%TO.N,GND*%
X122503992Y-112962254D03*
%TO.P,J2,4,4*%
%TO.N,unconnected-(J2-Pad4)*%
X122503992Y-110422254D03*
%TD*%
D19*
%TO.P,C80,1,1*%
%TO.N,Net-(U6E-XTALO)*%
X131501521Y-89912647D03*
%TO.P,C80,2,2*%
%TO.N,GND*%
X132401521Y-89912647D03*
%TD*%
D23*
%TO.P,C52,1,1*%
%TO.N,MCM_3V3*%
X128485042Y-112269683D03*
%TO.P,C52,2,2*%
%TO.N,GND*%
X127535042Y-112269683D03*
%TD*%
D34*
%TO.P,J7,1,1*%
%TO.N,unconnected-(J7-Pad1)*%
X160548407Y-85010384D03*
%TO.P,J7,2,2*%
%TO.N,unconnected-(J7-Pad2)*%
X160548407Y-87550384D03*
%TO.P,J7,3,3*%
%TO.N,GND*%
X160548407Y-90090384D03*
%TO.P,J7,4,4*%
%TO.N,+3V3*%
X160548407Y-92630384D03*
%TD*%
D19*
%TO.P,C44,1,1*%
%TO.N,GND*%
X154706052Y-111622266D03*
%TO.P,C44,2,2*%
%TO.N,MCM_3V3*%
X153806052Y-111622266D03*
%TD*%
D35*
%TO.P,R52,1,1*%
%TO.N,I2C5_SCL*%
X141680941Y-89685376D03*
%TO.P,R52,2,2*%
%TO.N,VDD_1V8*%
X142780941Y-89685376D03*
%TD*%
D19*
%TO.P,C49,1,1*%
%TO.N,GND*%
X154706052Y-112621116D03*
%TO.P,C49,2,2*%
%TO.N,MCM_3V3*%
X153806052Y-112621116D03*
%TD*%
D34*
%TO.P,J6,1,1*%
%TO.N,GND*%
X122450000Y-120500000D03*
%TO.P,J6,2,2*%
%TO.N,unconnected-(J6-Pad2)*%
X124990000Y-120500000D03*
%TO.P,J6,3,3*%
%TO.N,unconnected-(J6-Pad3)*%
X127530000Y-120500000D03*
%TO.P,J6,4,4*%
%TO.N,unconnected-(J6-Pad4)*%
X130070000Y-120500000D03*
%TO.P,J6,5,5*%
%TO.N,unconnected-(J6-Pad5)*%
X132610000Y-120500000D03*
%TO.P,J6,6,6*%
%TO.N,unconnected-(J6-Pad6)*%
X135150000Y-120500000D03*
%TO.P,J6,7,7*%
%TO.N,unconnected-(J6-Pad7)*%
X137690000Y-120500000D03*
%TO.P,J6,8,8*%
%TO.N,unconnected-(J6-Pad8)*%
X140230000Y-120500000D03*
%TO.P,J6,9,9*%
%TO.N,unconnected-(J6-Pad9)*%
X142770000Y-120500000D03*
%TO.P,J6,10,10*%
%TO.N,unconnected-(J6-Pad10)*%
X145310000Y-120500000D03*
%TO.P,J6,11,11*%
%TO.N,unconnected-(J6-Pad11)*%
X147850000Y-120500000D03*
%TO.P,J6,12,12*%
%TO.N,unconnected-(J6-Pad12)*%
X150390000Y-120500000D03*
%TO.P,J6,13,13*%
%TO.N,unconnected-(J6-Pad13)*%
X152930000Y-120500000D03*
%TO.P,J6,14,14*%
%TO.N,unconnected-(J6-Pad14)*%
X155470000Y-120500000D03*
%TO.P,J6,15,15*%
%TO.N,unconnected-(J6-Pad15)*%
X158010000Y-120500000D03*
%TO.P,J6,16,16*%
%TO.N,GND*%
X160550000Y-120500000D03*
%TD*%
D25*
%TO.P,C1,1,1*%
%TO.N,VSYS*%
X124580177Y-91250756D03*
%TO.P,C1,2,2*%
%TO.N,GND*%
X124580177Y-92150756D03*
%TD*%
D50*
%TO.P,C8,1,1*%
%TO.N,VDD_SNVS_DIG*%
X139282626Y-90552878D03*
%TO.P,C8,2,2*%
%TO.N,GND*%
X139282626Y-89632878D03*
%TD*%
D31*
%TO.P,LED1,1,K*%
%TO.N,Net-(LED1-K)*%
X130748567Y-109880988D03*
%TO.P,LED1,2,A*%
%TO.N,Net-(LED1-A)*%
X130748567Y-111380988D03*
%TD*%
D25*
%TO.P,C107,1*%
%TO.N,VUSB*%
X127954773Y-104156261D03*
%TO.P,C107,2*%
%TO.N,GND*%
X127954773Y-105056261D03*
%TD*%
%TO.P,C37,1,1*%
%TO.N,SDRAM_1V8*%
X156738464Y-111692959D03*
%TO.P,C37,2,2*%
%TO.N,GND*%
X156738464Y-112592959D03*
%TD*%
D27*
%TO.P,SW1,1,1*%
%TO.N,POR_B*%
X159040920Y-107278548D03*
%TO.P,SW1,2,2*%
X161190918Y-107278548D03*
%TO.P,SW1,3,3*%
%TO.N,GND*%
X159040920Y-103128548D03*
%TO.P,SW1,4,4*%
X161190918Y-103128548D03*
%TD*%
D51*
%TO.P,Q1,1,G*%
%TO.N,FLEXPWM1_PWM1_A*%
X133429743Y-110480682D03*
%TO.P,Q1,2,S*%
%TO.N,GND*%
X133779743Y-110480682D03*
D52*
%TO.P,Q1,3,D*%
%TO.N,Net-(LED1-K)*%
X133604743Y-109905682D03*
%TD*%
D32*
%TO.P,U4,1*%
%TO.N,Net-(U6A-VDD_SNVS_IN)*%
X126818357Y-90768852D03*
%TO.P,U4,2*%
%TO.N,Net-(U2-VOUT)*%
X126818357Y-91810252D03*
%TD*%
D25*
%TO.P,C102,1,1*%
%TO.N,VUSB*%
X132390000Y-104580000D03*
%TO.P,C102,2,2*%
%TO.N,GND*%
X132390000Y-105480000D03*
%TD*%
D26*
%TO.P,R55,1,1*%
%TO.N,USER_BUTTON*%
X155033573Y-96883173D03*
%TO.P,R55,2,2*%
%TO.N,VDD_SNVS_ANA*%
X155033573Y-97933173D03*
%TD*%
D53*
%TO.P,U5,1*%
%TO.N,Net-(U6A-VDD_SNVS_IN)*%
X154389986Y-93029269D03*
%TO.P,U5,2*%
%TO.N,+3V3*%
X155431386Y-93029269D03*
%TD*%
D19*
%TO.P,C4,1*%
%TO.N,VDD_3V3*%
X149509100Y-90709604D03*
%TO.P,C4,2*%
%TO.N,GND*%
X150409100Y-90709604D03*
%TD*%
%TO.P,C39,1,1*%
%TO.N,SDRAM_1V8*%
X157854022Y-109944416D03*
%TO.P,C39,2,2*%
%TO.N,GND*%
X158754022Y-109944416D03*
%TD*%
D54*
%TO.P,Y2,1,CRYSTAL_1*%
%TO.N,Net-(U6E-XTALI)*%
X129460000Y-93435000D03*
%TO.P,Y2,2,GND_1*%
%TO.N,GND*%
X131160000Y-93435000D03*
%TO.P,Y2,3,CRYSTAL_2*%
%TO.N,Net-(U6E-XTALO)*%
X131160000Y-92035000D03*
%TO.P,Y2,4,GND_2*%
%TO.N,GND*%
X129460000Y-92035000D03*
%TD*%
D51*
%TO.P,Q2,1,G*%
%TO.N,BOOT_MODE1*%
X156718013Y-96474753D03*
%TO.P,Q2,2,S*%
%TO.N,GND*%
X157068013Y-96474753D03*
D52*
%TO.P,Q2,3,D*%
%TO.N,Net-(Q2-D)*%
X156893013Y-95899753D03*
%TD*%
D55*
%TO.P,FL1,1*%
%TO.N,/IO/USB_DN_CON*%
X130197500Y-103620000D03*
%TO.P,FL1,2*%
%TO.N,OTG1_D_N*%
X131897500Y-103620000D03*
%TO.P,FL1,3*%
%TO.N,OTG1_D_P*%
X131897500Y-102820000D03*
%TO.P,FL1,4*%
%TO.N,/IO/USB_DP_CON*%
X130197500Y-102820000D03*
%TD*%
D19*
%TO.P,C35,1*%
%TO.N,SDRAM_1V8*%
X157854022Y-111973397D03*
%TO.P,C35,2*%
%TO.N,GND*%
X158754022Y-111973397D03*
%TD*%
D34*
%TO.P,J4,1,1*%
%TO.N,unconnected-(J4-Pad1)*%
X122450000Y-82500000D03*
%TO.P,J4,2,2*%
%TO.N,unconnected-(J4-Pad2)*%
X124990000Y-82500000D03*
%TO.P,J4,3,3*%
%TO.N,unconnected-(J4-Pad3)*%
X127530000Y-82500000D03*
%TO.P,J4,4,4*%
%TO.N,unconnected-(J4-Pad4)*%
X130070000Y-82500000D03*
%TO.P,J4,5,5*%
%TO.N,unconnected-(J4-Pad5)*%
X132610000Y-82500000D03*
%TO.P,J4,6,6*%
%TO.N,unconnected-(J4-Pad6)*%
X135150000Y-82500000D03*
%TO.P,J4,7,7*%
%TO.N,unconnected-(J4-Pad7)*%
X137690000Y-82500000D03*
%TO.P,J4,8,8*%
%TO.N,unconnected-(J4-Pad8)*%
X140230000Y-82500000D03*
%TO.P,J4,9,9*%
%TO.N,LPUART6_RXD*%
X142770000Y-82500000D03*
%TO.P,J4,10,10*%
%TO.N,LPUART6_TXD*%
X145310000Y-82500000D03*
%TO.P,J4,11,11*%
%TO.N,LPSPI6_CS0*%
X147850000Y-82500000D03*
%TO.P,J4,12,12*%
%TO.N,LPSPI6_SCK*%
X150390000Y-82500000D03*
%TO.P,J4,13,13*%
%TO.N,LPSPI6_SDO*%
X152930000Y-82500000D03*
%TO.P,J4,14,14*%
%TO.N,LPSPI6_SDI*%
X155470000Y-82500000D03*
%TO.P,J4,15,15*%
%TO.N,POR_B*%
X158010000Y-82500000D03*
%TO.P,J4,16,16*%
%TO.N,GND*%
X160550000Y-82500000D03*
%TD*%
D25*
%TO.P,C43,1,1*%
%TO.N,GND*%
X155740804Y-111702623D03*
%TO.P,C43,2,2*%
%TO.N,MCM_1V8*%
X155740804Y-112602623D03*
%TD*%
D19*
%TO.P,C5,1,1*%
%TO.N,Net-(U6A-VDD_SNVS_IN)*%
X124635736Y-93186190D03*
%TO.P,C5,2,2*%
%TO.N,GND*%
X125535736Y-93186190D03*
%TD*%
%TO.P,C48,1,1*%
%TO.N,GND*%
X154706052Y-107626866D03*
%TO.P,C48,2,2*%
%TO.N,MCM_3V3*%
X153806052Y-107626866D03*
%TD*%
%TO.P,C38,1,1*%
%TO.N,SDRAM_1V8*%
X157854022Y-108929925D03*
%TO.P,C38,2,2*%
%TO.N,GND*%
X158754022Y-108929925D03*
%TD*%
D25*
%TO.P,C50,1,1*%
%TO.N,MCM_3V3*%
X129962259Y-117479360D03*
%TO.P,C50,2,2*%
%TO.N,GND*%
X129962259Y-118379360D03*
%TD*%
D56*
%TO.N,DCDC_1V8_OUT*%
X143407351Y-106401825D03*
X141250000Y-108060000D03*
%TO.N,VSYS*%
X123930000Y-100237992D03*
X123660000Y-94270000D03*
X150970000Y-111688100D03*
X146240000Y-111300000D03*
X149330000Y-106720000D03*
X148480095Y-113160000D03*
X152490000Y-111800000D03*
X131693217Y-86460585D03*
%TO.N,VDD_3V3*%
X135850000Y-94690000D03*
X155907891Y-92382714D03*
X150983571Y-116520000D03*
X156320000Y-102630000D03*
X156341474Y-98997326D03*
X148143479Y-96642876D03*
X132699937Y-114137629D03*
%TO.N,VDD_1V8*%
X137046433Y-103126433D03*
X137370000Y-97830000D03*
X137447979Y-101013782D03*
X137050000Y-108690000D03*
X142567765Y-94957424D03*
X144900000Y-116808784D03*
X143000000Y-90370000D03*
X143378766Y-100642874D03*
X157051615Y-104338684D03*
X139890000Y-114690000D03*
X130231432Y-100371172D03*
X153659550Y-98155000D03*
X138144885Y-102556030D03*
X136023534Y-112715000D03*
X141270000Y-102650000D03*
X150512000Y-97220000D03*
X156159505Y-94360495D03*
%TO.N,MCM_3V3*%
X131320000Y-115220000D03*
X135355764Y-103321662D03*
X135310000Y-118000000D03*
X132440000Y-106440000D03*
X128500000Y-111190000D03*
X152810000Y-113425000D03*
%TO.N,VUSB*%
X129611629Y-97291629D03*
X124850000Y-103910000D03*
X132920580Y-103470000D03*
X131268363Y-99268363D03*
%TO.N,Net-(U6A-VDD_SNVS_IN)*%
X138600000Y-91780000D03*
X154327843Y-92482157D03*
X127490000Y-91340000D03*
%TO.N,VDD_SNVS_ANA*%
X139378764Y-92642874D03*
X136970000Y-92670000D03*
X157830627Y-100220000D03*
%TO.N,MCM_1V8*%
X155740802Y-112602622D03*
X148444089Y-95116953D03*
X149289696Y-95431839D03*
%TO.N,MCU_DCDC_IN*%
X144978764Y-95991844D03*
X146964303Y-94725529D03*
%TO.N,VDD_SOC_IN*%
X135980000Y-92040000D03*
X142578765Y-97557849D03*
%TO.N,VDD_LPSR_IN*%
X138578764Y-94242874D03*
%TO.N,VDD_LPSR_ANA*%
X138578764Y-94934156D03*
%TO.N,VDD_LPSR_DIG*%
X139351693Y-94934156D03*
%TO.N,DCDC_1V8_OUT_SENSE*%
X142961744Y-96156849D03*
%TO.N,Net-(U6C-DCDC_PSWITCH)*%
X146155850Y-94736883D03*
%TO.N,VDDA_1P0*%
X139378765Y-95965000D03*
X138973029Y-98676971D03*
X140171000Y-101442874D03*
%TO.N,ADC_1V8_IN*%
X136910000Y-109500000D03*
X134950000Y-101840000D03*
%TO.N,Net-(U6C-DCDC_DIG_1)*%
X141778764Y-97565000D03*
%TO.N,Net-(U6B-VDDA_ADC_3P3)*%
X136580000Y-97725269D03*
%TO.N,Net-(U6H-GPIO_AD_10)*%
X134578765Y-94242875D03*
%TO.N,Net-(U6J-GPIO_EMC_B1_39)*%
X146603619Y-98993507D03*
%TO.N,/IO/USB_DN_CON*%
X128540000Y-103650000D03*
X127910000Y-102680000D03*
%TO.N,/IO/USB_DP_CON*%
X129315688Y-102538188D03*
%TO.N,DAC_OUT*%
X133733894Y-100523513D03*
%TO.N,USER_BUTTON*%
X140170000Y-94250000D03*
X155708619Y-98463503D03*
%TO.N,DA_nONKEY*%
X159500000Y-97310000D03*
%TO.N,BOOT_MODE1*%
X142578764Y-93442874D03*
X156489172Y-94745642D03*
%TO.N,Net-(Q2-D)*%
X156559213Y-95695642D03*
%TO.N,I2C5_SDA*%
X142280241Y-95710002D03*
X153170000Y-96350000D03*
%TO.N,POR_B*%
X140180000Y-93450000D03*
X157985000Y-107340000D03*
X160631000Y-98320000D03*
%TO.N,I2C5_SCL*%
X150670000Y-95400000D03*
X141390763Y-95368403D03*
%TO.N,/IO/USB_CC2*%
X128750000Y-102920000D03*
X129125996Y-98908880D03*
%TO.N,MCM_SD_ALARM*%
X145393048Y-97925298D03*
X141874266Y-107665553D03*
%TO.N,/TPU/MCM_BT_PHY_PRG*%
X141397468Y-107575000D03*
%TO.N,TPU_RST_L*%
X144569473Y-97766862D03*
X144776286Y-108807044D03*
%TO.N,I2C5_SDA_MCM*%
X152425438Y-115213513D03*
X152523338Y-96774306D03*
%TO.N,TPU_BOOT_FAIL*%
X145415000Y-98699316D03*
X141533446Y-107146034D03*
%TO.N,I2C5_SCL_MCM*%
X149664801Y-95743319D03*
X152555000Y-114685000D03*
%TO.N,Net-(U6L-VDD_USB_3V3)*%
X138578764Y-100735000D03*
X133010000Y-107310000D03*
%TO.N,Net-(U6L-VDD_USB_1P8)*%
X138578763Y-99842875D03*
X134050622Y-100843177D03*
%TO.N,Net-(U6K-VDD_MIPI_1P8)*%
X137040000Y-107100000D03*
X140978764Y-101442872D03*
%TO.N,BRD_STAT_LED*%
X155894691Y-102490000D03*
X141001764Y-97578222D03*
%TO.N,USER_LED*%
X140178764Y-96642874D03*
X157540000Y-101210000D03*
%TO.N,FLEXPWM1_PWM1_A*%
X131835521Y-109364479D03*
X137360000Y-94640000D03*
%TO.N,PMIC_ON_REQ*%
X140915764Y-92642874D03*
%TO.N,TPU_POW_EN*%
X146567612Y-97344936D03*
X130890787Y-112364361D03*
%TO.N,FlexSPI_A_SS0*%
X134863410Y-101040000D03*
X142431997Y-113056106D03*
%TO.N,BT_CFG1_0*%
X140178764Y-103042874D03*
%TO.N,BT_CFG1_1*%
X138578764Y-102242874D03*
%TO.N,BT_CFG1_2*%
X136178764Y-105442874D03*
%TO.N,BT_CFG1_3*%
X137778763Y-103842872D03*
%TO.N,BT_CFG1_4*%
X136978765Y-104642872D03*
%TO.N,BT_CFG1_5*%
X136978764Y-105442872D03*
%TO.N,BT_CFG2_0*%
X140978764Y-102242874D03*
%TO.N,BT_CFG1_6*%
X142081377Y-101894135D03*
%TO.N,BT_CFG1_7*%
X141250000Y-101830000D03*
%TO.N,BT_CFG2_1*%
X142578764Y-103042876D03*
%TO.N,BT_CFG2_2*%
X142578763Y-103842876D03*
%TO.N,BT_CFG2_3*%
X140978764Y-103842874D03*
%TO.N,BOOT_MODE0*%
X143200830Y-94813242D03*
X155617190Y-96092336D03*
%TO.N,SEMC_D5*%
X145119606Y-101423659D03*
X154098781Y-105967847D03*
%TO.N,FlexSPI_A_D2*%
X142765352Y-114610352D03*
X136960000Y-99960000D03*
%TO.N,SEMC_A6*%
X150977946Y-101197392D03*
X147378764Y-103815874D03*
%TO.N,FlexSPI_A_D3*%
X135517459Y-101276087D03*
X134943335Y-111116665D03*
%TO.N,SEMC_D15*%
X148543478Y-100284180D03*
X156465000Y-100335000D03*
%TO.N,SEMC_D3*%
X152730000Y-102490000D03*
X146312730Y-102637900D03*
%TO.N,FlexSPI_A_CLK*%
X136980000Y-100630000D03*
X134600000Y-110040000D03*
%TO.N,SEMC_D6*%
X144587576Y-101097245D03*
X154098781Y-105167847D03*
%TO.N,SEMC_D12*%
X147648766Y-102178453D03*
X154235935Y-99065199D03*
%TO.N,SEMC_A11*%
X144978763Y-103842872D03*
X151680000Y-100370000D03*
%TO.N,SEMC_A8*%
X145778762Y-104642874D03*
X152255172Y-103362501D03*
%TO.N,SEMC_WE*%
X143900000Y-102140000D03*
X152610000Y-105730000D03*
%TO.N,SEMC_D7*%
X145715000Y-99888229D03*
X153298781Y-105967847D03*
%TO.N,LPSPI6_SDO*%
X144800000Y-84980000D03*
%TO.N,SEMC_BA1*%
X146575427Y-99933507D03*
X151698781Y-105167847D03*
%TO.N,SEMC_A12*%
X148820000Y-98820000D03*
X145778762Y-103842874D03*
%TO.N,LPUART6_RXD*%
X147378765Y-97442873D03*
%TO.N,SEMC_D2*%
X149789903Y-103550145D03*
X155698781Y-105167847D03*
%TO.N,SEMC_DM0*%
X144349606Y-101504315D03*
X153298781Y-105167845D03*
%TO.N,SEMC_CKE*%
X148340000Y-98120000D03*
X144190714Y-100409141D03*
%TO.N,SEMC_A5*%
X147090048Y-104748113D03*
X151670000Y-102858726D03*
%TO.N,SEMC_D13*%
X153080521Y-101990521D03*
X147720000Y-101677491D03*
%TO.N,FlexSPI_A_D0*%
X136190000Y-101440000D03*
X134184559Y-110150000D03*
%TO.N,SEMC_D14*%
X149009754Y-101448137D03*
X155538132Y-99611026D03*
%TO.N,SEMC_A9*%
X145015764Y-104655000D03*
X151704181Y-101125749D03*
%TO.N,LPSPI6_SDI*%
X144780000Y-85380000D03*
%TO.N,SEMC_DM1*%
X152498781Y-99775000D03*
X147378764Y-99042876D03*
%TO.N,LPUART6_TXD*%
X147378764Y-98213754D03*
X143640000Y-84140000D03*
%TO.N,FlexSPI_A_D1*%
X135301267Y-110938733D03*
X136202256Y-100005755D03*
%TO.N,SEMC_D10*%
X147327061Y-103045874D03*
X154083323Y-99857247D03*
%TO.N,LPSPI6_SCK*%
X145680000Y-83840000D03*
%TO.N,SEMC_D11*%
X154825630Y-100411734D03*
X146578766Y-102242873D03*
%TO.N,SEMC_D9*%
X152693368Y-103464908D03*
X146451000Y-103253005D03*
%TO.N,SEMC_A7*%
X148370000Y-98840000D03*
X144573321Y-102571663D03*
%TO.N,SEMC_D8*%
X145659734Y-101972478D03*
X153263381Y-99524215D03*
%TO.N,GND*%
X141829112Y-109745172D03*
X139092488Y-99750273D03*
X147725000Y-92055000D03*
X131516967Y-104708303D03*
D57*
X151600000Y-92140000D03*
X148760000Y-109850000D03*
D56*
X137841000Y-107845000D03*
X136178765Y-97442873D03*
X141550000Y-115539330D03*
X136978762Y-103842874D03*
X145110000Y-108210000D03*
X130810000Y-107060000D03*
X145715000Y-100642874D03*
X153980000Y-101960000D03*
X151240000Y-98955000D03*
X157450000Y-101620000D03*
X142580000Y-94250000D03*
X143110000Y-110739330D03*
X147610000Y-109420000D03*
D57*
X150580000Y-92110000D03*
D56*
X153290000Y-101180000D03*
D57*
X150630000Y-93770000D03*
D56*
X147378764Y-105442874D03*
X131750000Y-113050000D03*
X147610000Y-110739330D03*
X126260000Y-92650000D03*
X142070000Y-106340184D03*
X131462073Y-117001398D03*
D57*
X151098123Y-89159212D03*
D56*
X155680000Y-104360000D03*
X146494765Y-116804392D03*
X134578764Y-92642876D03*
X142487647Y-99751758D03*
X129290000Y-101380000D03*
X159589374Y-95628547D03*
X145267324Y-103147354D03*
X143649813Y-116383784D03*
X141580000Y-112339330D03*
X149570000Y-110739330D03*
X136178765Y-100642876D03*
X150260000Y-109400000D03*
X161299733Y-104620000D03*
X139910000Y-116440000D03*
X151676882Y-95267988D03*
X136795604Y-94678554D03*
X131156971Y-96527586D03*
X138960000Y-93060000D03*
D57*
X151570000Y-93790000D03*
D56*
X139290000Y-88740000D03*
X145964086Y-97342451D03*
X154100000Y-104390000D03*
%TO.N,Net-(IC3-OUT)*%
X132740000Y-116310000D03*
%TO.N,SEMC_D1*%
X154249501Y-102890000D03*
X146659606Y-101480000D03*
%TO.N,Net-(IC3-EN)*%
X131462073Y-117951398D03*
%TO.N,SEMC_A4*%
X150050295Y-101599909D03*
X144121764Y-103144455D03*
%TO.N,SEMC_A1*%
X150898781Y-105167847D03*
X146664639Y-105444000D03*
%TO.N,SEMC_D0*%
X145889606Y-101407782D03*
X143984651Y-106975000D03*
%TO.N,SDRAM_1V8*%
X154098781Y-101167847D03*
X155690000Y-101210000D03*
X153850046Y-103238116D03*
X153080046Y-103344857D03*
X155310000Y-103280000D03*
%TD*%
D58*
%TO.N,VSYS*%
X124607139Y-91223794D02*
X124607139Y-90336759D01*
X124009177Y-91301756D02*
X124060177Y-91250756D01*
X124460000Y-89689419D02*
X124530000Y-89759419D01*
X124009177Y-93920823D02*
X123660000Y-94270000D01*
X129230000Y-84450000D02*
X131240585Y-86460585D01*
X131240585Y-86460585D02*
X131693217Y-86460585D01*
X124009177Y-93790716D02*
X124009177Y-91301756D01*
X125320000Y-84450000D02*
X129230000Y-84450000D01*
X124009177Y-93790716D02*
X124009177Y-93920823D01*
X124530000Y-89759419D02*
X124530000Y-85240000D01*
X124530000Y-85240000D02*
X125320000Y-84450000D01*
X124009177Y-93790716D02*
X124009177Y-93849177D01*
X124607139Y-90336759D02*
X124460000Y-90189620D01*
X124060177Y-91250756D02*
X124580177Y-91250756D01*
X124460000Y-90189620D02*
X124460000Y-89689419D01*
%TO.N,VDD_3V3*%
X149644991Y-91979074D02*
X149279074Y-91979074D01*
X155907890Y-90471558D02*
X155907890Y-92382716D01*
X148880000Y-91580000D02*
X148880000Y-91310000D01*
X148890000Y-92032409D02*
X148880000Y-92022409D01*
X153574449Y-92057157D02*
X154503884Y-92057157D01*
X157926423Y-90922463D02*
X157407537Y-90922463D01*
X154829441Y-92382714D02*
X155907891Y-92382714D01*
X148880000Y-91310000D02*
X149480396Y-90709604D01*
X148890000Y-93664883D02*
X148890000Y-92032409D01*
X149204191Y-93979074D02*
X148890000Y-93664883D01*
X149644991Y-93979074D02*
X149204191Y-93979074D01*
X148880000Y-92022409D02*
X148880000Y-91580000D01*
X150092496Y-91440000D02*
X152957292Y-91440000D01*
X155947286Y-92382714D02*
X155907891Y-92382714D01*
X149509100Y-90856604D02*
X150092496Y-91440000D01*
X152957292Y-91440000D02*
X153574449Y-92057157D01*
X149279074Y-91979074D02*
X148880000Y-91580000D01*
X154503884Y-92057157D02*
X154829441Y-92382714D01*
X157407537Y-90922463D02*
X155947286Y-92382714D01*
%TO.N,VDD_1V8*%
X143378764Y-99042874D02*
X143378764Y-100642874D01*
X138176764Y-97044874D02*
X138578764Y-96642874D01*
X157174624Y-94020025D02*
X156499975Y-94020025D01*
X141143621Y-103440874D02*
X141376764Y-103207731D01*
X138180764Y-102644874D02*
X137376764Y-102644874D01*
X156499975Y-94020025D02*
X156159505Y-94360495D01*
X142780941Y-89685376D02*
X142780941Y-88519378D01*
D59*
X157232055Y-106409956D02*
X157232055Y-104519124D01*
D58*
X142780941Y-90150941D02*
X143000000Y-90370000D01*
X142180764Y-102640874D02*
X141279126Y-102640874D01*
X143378764Y-99842874D02*
X143378764Y-99042874D01*
X138578764Y-103042874D02*
X138180764Y-102644874D01*
X142578764Y-101442874D02*
X142578764Y-102242874D01*
X143378764Y-101442874D02*
X143378764Y-100642874D01*
X141376764Y-102756764D02*
X141270000Y-102650000D01*
X137744858Y-100668008D02*
X137447979Y-100964887D01*
X137380764Y-97819236D02*
X137380764Y-97278017D01*
D59*
X155930930Y-107711081D02*
X157232055Y-106409956D01*
D58*
X142578764Y-102242874D02*
X142180764Y-102640874D01*
X138976764Y-103440874D02*
X141143621Y-103440874D01*
X141376764Y-103207731D02*
X141376764Y-102756764D01*
X137376764Y-101084997D02*
X137447979Y-101013782D01*
X138578764Y-103042874D02*
X138976764Y-103440874D01*
X141279126Y-102640874D02*
X141270000Y-102650000D01*
X137376764Y-102644874D02*
X137376764Y-101084997D01*
X137613907Y-97044874D02*
X138176764Y-97044874D01*
X142780941Y-89685376D02*
X142780941Y-90150941D01*
X142578764Y-101442874D02*
X143378764Y-101442874D01*
D59*
X157232055Y-104519124D02*
X157051615Y-104338684D01*
D58*
X137370000Y-97830000D02*
X137380764Y-97819236D01*
X137380764Y-97278017D02*
X137613907Y-97044874D01*
X137447979Y-100964887D02*
X137447979Y-101013782D01*
X136978764Y-103042874D02*
X137376764Y-102644874D01*
%TO.N,MCM_3V3*%
X128770025Y-109779975D02*
X128770025Y-109382060D01*
D59*
X135378764Y-103321474D02*
X135378576Y-103321662D01*
D58*
X150708573Y-108739330D02*
X151508573Y-108739330D01*
X131320000Y-115220000D02*
X131320675Y-115220675D01*
X130865221Y-116051398D02*
X129962259Y-116954360D01*
X152857918Y-108575000D02*
X153806052Y-107626866D01*
X128500000Y-110050000D02*
X128770025Y-109779975D01*
X151508573Y-108739330D02*
X151608573Y-108639330D01*
X128485042Y-111204958D02*
X128500000Y-111190000D01*
X128500000Y-111190000D02*
X128500000Y-110050000D01*
X131320675Y-115220675D02*
X131320675Y-115910000D01*
X151758573Y-108639330D02*
X152108573Y-108989330D01*
D59*
X135378576Y-103321662D02*
X135355764Y-103321662D01*
D58*
X151608573Y-108639330D02*
X151608573Y-112139330D01*
X152522903Y-108575000D02*
X152857918Y-108575000D01*
D59*
X135378764Y-103042874D02*
X135378764Y-103321474D01*
D58*
X153060757Y-113174243D02*
X152810000Y-113425000D01*
X153854514Y-107675328D02*
X153854514Y-112572654D01*
X152108573Y-108989330D02*
X152522903Y-108575000D01*
X130477629Y-114137629D02*
X130926813Y-114137629D01*
X129962259Y-116954360D02*
X129962259Y-117479360D01*
X149208573Y-108739330D02*
X150708573Y-108739330D01*
X153801052Y-112621116D02*
X153247925Y-113174243D01*
X128485042Y-112269683D02*
X128485042Y-111204958D01*
X128609683Y-112269683D02*
X130477629Y-114137629D01*
X153247925Y-113174243D02*
X153060757Y-113174243D01*
%TO.N,VUSB*%
X129887418Y-97015839D02*
X130334037Y-97015839D01*
X130734037Y-98465839D02*
X130734037Y-98902839D01*
X133112500Y-103852500D02*
X132920580Y-103660580D01*
X131940750Y-104130750D02*
X132390000Y-104580000D01*
X126412500Y-104130750D02*
X131940750Y-104130750D01*
X132131434Y-100371172D02*
X132131434Y-100131434D01*
X133849126Y-103115874D02*
X133112500Y-103852500D01*
X133112500Y-103852500D02*
X132390000Y-104575000D01*
X127472508Y-99430750D02*
X129611629Y-97291629D01*
X124850000Y-103910000D02*
X125070750Y-104130750D01*
X134532764Y-103115874D02*
X133849126Y-103115874D01*
X131099561Y-99268363D02*
X131268363Y-99268363D01*
X125070750Y-104130750D02*
X126412500Y-104130750D01*
X132920580Y-103660580D02*
X132920580Y-103470000D01*
X129611629Y-97291629D02*
X129887418Y-97015839D01*
X126412500Y-99430750D02*
X127472508Y-99430750D01*
X132131434Y-100131434D02*
X131268363Y-99268363D01*
X130734037Y-98902839D02*
X131099561Y-99268363D01*
%TO.N,Net-(U2-VOUT)*%
X126274376Y-91266271D02*
X126818357Y-91810252D01*
X125593984Y-91266271D02*
X126274376Y-91266271D01*
X125593984Y-91266271D02*
X125593984Y-90623403D01*
X125593984Y-90623403D02*
X125297139Y-90326558D01*
%TO.N,Net-(U6A-VDD_SNVS_IN)*%
X126270000Y-93850000D02*
X127490000Y-92630000D01*
X154389986Y-93029269D02*
X154389986Y-92544300D01*
X154389986Y-92544300D02*
X154327843Y-92482157D01*
X126918852Y-90768852D02*
X127490000Y-91340000D01*
X124635736Y-93313190D02*
X125172546Y-93850000D01*
X125172546Y-93850000D02*
X126270000Y-93850000D01*
X127490000Y-92630000D02*
X127490000Y-91340000D01*
X138578764Y-92642874D02*
X138578764Y-91801236D01*
X138578764Y-91801236D02*
X138600000Y-91780000D01*
%TO.N,VDD_SNVS_ANA*%
X155033573Y-97933173D02*
X155033573Y-98526910D01*
X155829480Y-98977575D02*
X156216581Y-98590474D01*
X140220947Y-91800691D02*
X140220947Y-90552249D01*
X155033573Y-98526910D02*
X155484238Y-98977575D01*
X157830627Y-100386411D02*
X158893860Y-101449644D01*
X155484238Y-98977575D02*
X155829480Y-98977575D01*
X156535664Y-98590474D02*
X157830627Y-99885437D01*
X139378764Y-92642874D02*
X140220947Y-91800691D01*
X156216581Y-98590474D02*
X156535664Y-98590474D01*
X157830627Y-100220000D02*
X157830627Y-100386411D01*
X157830627Y-99885437D02*
X157830627Y-100220000D01*
%TO.N,VDD_SNVS_DIG*%
X138125000Y-91976752D02*
X138176764Y-92028516D01*
X137376764Y-93840874D02*
X136978764Y-93442874D01*
X138520504Y-91305000D02*
X138403248Y-91305000D01*
X138176764Y-93607731D02*
X137943621Y-93840874D01*
X138403248Y-91305000D02*
X138125000Y-91583248D01*
X139282626Y-90542878D02*
X138520504Y-91305000D01*
X138125000Y-91583248D02*
X138125000Y-91976752D01*
X137943621Y-93840874D02*
X137376764Y-93840874D01*
X138176764Y-92028516D02*
X138176764Y-93607731D01*
%TO.N,MCM_1V8*%
X148580000Y-96560000D02*
X148580000Y-96141535D01*
X152760000Y-113801000D02*
X152931000Y-113972000D01*
X151608573Y-113139330D02*
X151608573Y-113639330D01*
X150061535Y-94660000D02*
X149289696Y-95431839D01*
X152438000Y-96071000D02*
X152438000Y-95298000D01*
X149651179Y-96905821D02*
X148925821Y-96905821D01*
X141208573Y-108739330D02*
X141073019Y-108874884D01*
X148580000Y-96141535D02*
X149289696Y-95431839D01*
X140517903Y-109930000D02*
X138735903Y-109930000D01*
X152654255Y-113801000D02*
X152492585Y-113639330D01*
X152760000Y-113801000D02*
X154575605Y-113801000D01*
X151800000Y-94660000D02*
X150061535Y-94660000D01*
X152269000Y-96220000D02*
X152418000Y-96071000D01*
X138460000Y-113210000D02*
X138351000Y-113319000D01*
X152418000Y-96071000D02*
X152438000Y-96071000D01*
X149837000Y-96720000D02*
X149651179Y-96905821D01*
X138351000Y-117858670D02*
X138139670Y-118070000D01*
X152931000Y-117168903D02*
X151609903Y-118490000D01*
X138129670Y-118080000D02*
X138139670Y-118070000D01*
X151609903Y-118490000D02*
X138559670Y-118490000D01*
X141073019Y-109374884D02*
X140517903Y-109930000D01*
X152438000Y-95298000D02*
X151800000Y-94660000D01*
X150512000Y-96720000D02*
X149837000Y-96720000D01*
X138460000Y-110205903D02*
X138460000Y-113210000D01*
X138351000Y-113319000D02*
X138351000Y-117858670D01*
X152931000Y-113972000D02*
X152931000Y-117168903D01*
X134850000Y-114006000D02*
X134850000Y-115512757D01*
X148925821Y-96905821D02*
X148580000Y-96560000D01*
X152654255Y-113801000D02*
X152760000Y-113801000D01*
X152492585Y-113639330D02*
X151608573Y-113639330D01*
X137417243Y-118080000D02*
X138129670Y-118080000D01*
X138559670Y-118490000D02*
X138139670Y-118070000D01*
X141073019Y-108874884D02*
X141073019Y-109374884D01*
X146976764Y-95440874D02*
X148120168Y-95440874D01*
X134850000Y-115512757D02*
X137417243Y-118080000D01*
X146578764Y-95042874D02*
X146976764Y-95440874D01*
X134230000Y-113386000D02*
X134850000Y-114006000D01*
X138735903Y-109930000D02*
X138460000Y-110205903D01*
X151762000Y-96220000D02*
X152269000Y-96220000D01*
X148120168Y-95440874D02*
X148444089Y-95116953D01*
X154575605Y-113801000D02*
X155740804Y-112635801D01*
%TO.N,MCU_DCDC_IN*%
X144178764Y-95842874D02*
X144994026Y-95842874D01*
X144375764Y-96039874D02*
X144375764Y-96445874D01*
X144178764Y-95842874D02*
X144375764Y-96039874D01*
X144178764Y-97442874D02*
X144178764Y-96658136D01*
X144375764Y-96445874D02*
X144178764Y-96642874D01*
%TO.N,VDD_SOC_IN*%
X140580764Y-97274017D02*
X140813907Y-97040874D01*
X140178764Y-99842874D02*
X140178764Y-99042874D01*
X140178764Y-99042874D02*
X141778764Y-99042874D01*
X140178764Y-99042874D02*
X140178764Y-98242874D01*
X140178764Y-98242874D02*
X140580764Y-97840874D01*
X142061790Y-97040874D02*
X142578765Y-97557849D01*
X140813907Y-97040874D02*
X142061790Y-97040874D01*
X140580764Y-97840874D02*
X140580764Y-97274017D01*
X141778764Y-99842874D02*
X140178764Y-99842874D01*
%TO.N,DCDC_1V8_OUT_SENSE*%
X142982054Y-96125304D02*
X143007892Y-96099466D01*
X142973426Y-96105575D02*
X142972233Y-96106768D01*
D59*
X142982032Y-96125421D02*
X143003775Y-96103678D01*
X142970798Y-96104651D02*
X142970798Y-96147098D01*
D58*
X142927711Y-96099452D02*
X143007906Y-96099452D01*
X142927378Y-96103678D02*
X143003775Y-96103678D01*
D59*
X142927712Y-96099466D02*
X143007892Y-96099466D01*
X142972230Y-96146862D02*
X142972230Y-96106766D01*
X142982054Y-96125304D02*
X142982054Y-96156682D01*
X142973304Y-96105555D02*
X142972169Y-96106690D01*
D58*
X142973424Y-96145169D02*
X142961744Y-96156849D01*
D59*
X142927712Y-96099466D02*
X142973420Y-96145174D01*
D58*
X142982053Y-96125309D02*
X142982053Y-96156685D01*
D59*
X142972169Y-96146871D02*
X142972169Y-96106690D01*
X142982054Y-96125304D02*
X143007892Y-96099466D01*
D58*
X142972169Y-96146871D02*
X142982032Y-96156734D01*
D59*
X142927703Y-96099672D02*
X142973304Y-96145273D01*
D58*
X142970798Y-96104651D02*
X142969454Y-96103307D01*
D59*
X142982054Y-96125304D02*
X142982054Y-96156683D01*
D58*
X142973426Y-96105575D02*
X142973426Y-96145167D01*
D59*
X142927711Y-96099452D02*
X142973426Y-96145167D01*
D58*
X142927378Y-96103678D02*
X142970798Y-96147098D01*
X143378764Y-96642874D02*
X142969454Y-96233564D01*
X142927711Y-96099452D02*
X142973426Y-96145167D01*
D59*
X142982053Y-96125309D02*
X142982053Y-96156685D01*
X141778764Y-96642874D02*
X142619802Y-96642874D01*
D58*
X142927712Y-96099466D02*
X142973420Y-96145174D01*
D59*
X142927378Y-96103678D02*
X143003775Y-96103678D01*
X142973426Y-96105575D02*
X142973426Y-96145167D01*
X142973420Y-96105576D02*
X142973420Y-96145174D01*
X142982054Y-96125304D02*
X143007906Y-96099452D01*
D58*
X142972233Y-96146861D02*
X142972233Y-96106768D01*
D59*
X142982053Y-96125304D02*
X142982053Y-96156682D01*
D58*
X142982032Y-96125421D02*
X143003775Y-96103678D01*
D59*
X142970798Y-96104651D02*
X142969454Y-96103307D01*
D58*
X142982054Y-96125304D02*
X143007906Y-96099452D01*
X142927712Y-96099466D02*
X143007892Y-96099466D01*
D59*
X142973304Y-96105555D02*
X142973304Y-96145273D01*
D58*
X142973304Y-96105555D02*
X142972169Y-96106690D01*
D59*
X142972232Y-96146861D02*
X142982054Y-96156683D01*
X142972233Y-96146861D02*
X142982054Y-96156682D01*
X142972230Y-96146862D02*
X142982053Y-96156685D01*
X142972233Y-96146861D02*
X142972233Y-96106768D01*
D58*
X142973304Y-96105555D02*
X142973304Y-96145273D01*
D59*
X142973426Y-96105575D02*
X142972233Y-96106768D01*
D58*
X142969454Y-96233564D02*
X142969454Y-96103307D01*
D59*
X142969454Y-96293222D02*
X142969454Y-96103307D01*
X142972169Y-96146871D02*
X142982032Y-96156734D01*
D58*
X142973420Y-96105576D02*
X142972230Y-96106766D01*
D59*
X142973424Y-96145169D02*
X142961744Y-96156849D01*
D58*
X142972232Y-96146861D02*
X142982054Y-96156683D01*
X142982053Y-96125304D02*
X142982053Y-96156682D01*
X142927713Y-96099458D02*
X143007899Y-96099458D01*
X142972230Y-96146862D02*
X142982053Y-96156685D01*
X142972232Y-96146861D02*
X142982053Y-96156682D01*
D59*
X142927378Y-96103678D02*
X142970798Y-96147098D01*
D58*
X142972230Y-96146862D02*
X142972230Y-96106766D01*
X142982054Y-96125304D02*
X142982054Y-96156683D01*
X142927703Y-96099672D02*
X142973304Y-96145273D01*
X142972169Y-96146871D02*
X142972169Y-96106690D01*
X142927703Y-96099672D02*
X143007690Y-96099672D01*
D59*
X142927713Y-96099458D02*
X143007899Y-96099458D01*
D58*
X142982053Y-96125304D02*
X143007899Y-96099458D01*
X142982053Y-96125309D02*
X143007690Y-96099672D01*
X142973420Y-96105576D02*
X142973420Y-96145174D01*
X142982032Y-96125421D02*
X142982032Y-96156734D01*
X142970798Y-96104651D02*
X142970798Y-96147098D01*
X142972232Y-96146861D02*
X142972232Y-96106768D01*
D59*
X142982053Y-96125304D02*
X143007899Y-96099458D01*
X142619802Y-96642874D02*
X142969454Y-96293222D01*
X142982032Y-96125421D02*
X142982032Y-96156734D01*
X142927711Y-96099452D02*
X143007906Y-96099452D01*
X142973420Y-96105576D02*
X142972230Y-96106766D01*
X142982053Y-96125309D02*
X143007690Y-96099672D01*
X142972232Y-96146861D02*
X142982053Y-96156682D01*
D58*
X142972233Y-96146861D02*
X142982054Y-96156682D01*
X142973424Y-96105576D02*
X142972232Y-96106768D01*
D59*
X142973424Y-96105576D02*
X142973424Y-96145169D01*
X142973424Y-96105576D02*
X142972232Y-96106768D01*
D58*
X142927713Y-96099458D02*
X142973424Y-96145169D01*
D59*
X142927703Y-96099672D02*
X143007690Y-96099672D01*
D58*
X142982054Y-96125304D02*
X142982054Y-96156682D01*
D59*
X142927713Y-96099458D02*
X142973424Y-96145169D01*
D58*
X142973424Y-96105576D02*
X142973424Y-96145169D01*
D59*
X142972232Y-96146861D02*
X142972232Y-96106768D01*
D58*
%TO.N,Net-(U6C-DCDC_PSWITCH)*%
X146084755Y-94736883D02*
X146155850Y-94736883D01*
X145778764Y-95042874D02*
X146084755Y-94736883D01*
%TO.N,ADC_1V8_IN*%
X135611907Y-100642874D02*
X135378764Y-100642874D01*
X135780764Y-102078017D02*
X136013907Y-101844874D01*
X135780764Y-99674017D02*
X135780764Y-100240874D01*
X138176764Y-98082017D02*
X138176764Y-99207731D01*
X135620764Y-101840000D02*
X135780764Y-102000000D01*
X136013907Y-99440874D02*
X135780764Y-99674017D01*
X135780764Y-98640874D02*
X135780764Y-99211731D01*
X135780764Y-100240874D02*
X135378764Y-100642874D01*
X136339621Y-101040874D02*
X136009907Y-101040874D01*
X138176764Y-99207731D02*
X137943621Y-99440874D01*
X139378764Y-96642874D02*
X138976764Y-97044874D01*
X136009907Y-101040874D02*
X135611907Y-100642874D01*
X138976764Y-97044874D02*
X138976764Y-97613236D01*
X135780764Y-99207731D02*
X135780764Y-98640874D01*
X136178764Y-98242874D02*
X135780764Y-98640874D01*
X135780764Y-99211731D02*
X136013907Y-99444874D01*
X136013907Y-101844874D02*
X136339621Y-101844874D01*
X138413907Y-97844874D02*
X138176764Y-98082017D01*
X138745126Y-97844874D02*
X138413907Y-97844874D01*
X136339621Y-101844874D02*
X136576764Y-101607731D01*
X136013907Y-99440874D02*
X135780764Y-99207731D01*
X138976764Y-97613236D02*
X138745126Y-97844874D01*
X136576764Y-101278017D02*
X136339621Y-101040874D01*
X136576764Y-101607731D02*
X136576764Y-101278017D01*
X137943621Y-99440874D02*
X136013907Y-99440874D01*
X136910000Y-109500000D02*
X135780764Y-108370764D01*
X134950000Y-101840000D02*
X135620764Y-101840000D01*
X135780764Y-108370764D02*
X135780764Y-102078017D01*
%TO.N,Net-(U6C-DCDC_DIG_1)*%
X141778764Y-98242874D02*
X141778764Y-97565000D01*
X140978764Y-98242874D02*
X141778764Y-98242874D01*
%TO.N,Net-(U6E-XTALI)*%
X133860000Y-89790000D02*
X133865000Y-89785000D01*
X130325720Y-90014134D02*
X130325720Y-92701280D01*
X130325720Y-92701280D02*
X129592000Y-93435000D01*
X133865000Y-89785000D02*
X133340000Y-89260000D01*
X133340000Y-89260000D02*
X130820000Y-89260000D01*
X133860000Y-91124110D02*
X133860000Y-89790000D01*
X135378764Y-92642874D02*
X133860000Y-91124110D01*
X130430396Y-89649604D02*
X130430396Y-89909458D01*
X130820000Y-89260000D02*
X130430396Y-89649604D01*
%TO.N,Net-(U6E-XTALO)*%
X134980764Y-93044874D02*
X132219874Y-93044874D01*
X132219874Y-93044874D02*
X131210000Y-92035000D01*
X131380000Y-91815000D02*
X131380000Y-90034168D01*
X135378764Y-93442874D02*
X134980764Y-93044874D01*
%TO.N,Net-(U6B-VDDA_ADC_3P3)*%
X136813907Y-98640874D02*
X136580000Y-98406967D01*
X137376764Y-98640874D02*
X136813907Y-98640874D01*
X136580000Y-98406967D02*
X136580000Y-97725269D01*
X137778764Y-99042874D02*
X137376764Y-98640874D01*
%TO.N,/IO/USB_DN_CON*%
X130197500Y-103620000D02*
X128570000Y-103620000D01*
X128570000Y-103620000D02*
X128540000Y-103650000D01*
X125550000Y-101256250D02*
X125550000Y-102370000D01*
X126412500Y-102530750D02*
X127760750Y-102530750D01*
X125550000Y-102370000D02*
X125710750Y-102530750D01*
X125710750Y-102530750D02*
X126412500Y-102530750D01*
X127760750Y-102530750D02*
X127910000Y-102680000D01*
X125775500Y-101030750D02*
X125550000Y-101256250D01*
X126412500Y-101030750D02*
X125775500Y-101030750D01*
%TO.N,/IO/USB_DP_CON*%
X126412500Y-102030750D02*
X128808250Y-102030750D01*
X128808250Y-102030750D02*
X129315688Y-102538188D01*
D59*
X129597500Y-102820000D02*
X129315688Y-102538188D01*
D58*
X126412500Y-102030750D02*
X126412500Y-101530750D01*
D59*
X130197500Y-102820000D02*
X129597500Y-102820000D01*
D58*
%TO.N,DAC_OUT*%
X134748747Y-100250000D02*
X134743621Y-100244874D01*
X135378764Y-99842874D02*
X134971638Y-100250000D01*
X134971638Y-100250000D02*
X134748747Y-100250000D01*
X134012533Y-100244874D02*
X133733894Y-100523513D01*
X134743621Y-100244874D02*
X134012533Y-100244874D01*
D59*
%TO.N,USER_BUTTON*%
X155533573Y-96883173D02*
X155033573Y-96883173D01*
X155680990Y-97030590D02*
X155533573Y-96883173D01*
X155680990Y-98514018D02*
X155680990Y-97030590D01*
D58*
%TO.N,DA_nONKEY*%
X159040920Y-97769080D02*
X159500000Y-97310000D01*
X159040920Y-99778548D02*
X161190918Y-99778548D01*
X159040920Y-99778548D02*
X159040920Y-97769080D01*
%TO.N,BOOT_MODE1*%
X156718013Y-96474753D02*
X156084213Y-95840953D01*
X156084213Y-95840953D02*
X156084213Y-95150601D01*
X158224624Y-94520025D02*
X158046201Y-94698448D01*
X158224624Y-94020025D02*
X158224624Y-94520025D01*
X158046201Y-94698448D02*
X156536366Y-94698448D01*
X156084213Y-95150601D02*
X156489172Y-94745642D01*
X156536366Y-94698448D02*
X156489172Y-94745642D01*
%TO.N,Net-(Q2-D)*%
X156893013Y-95899753D02*
X156763324Y-95899753D01*
X156763324Y-95899753D02*
X156559213Y-95695642D01*
D60*
%TO.N,OTG1_D_P*%
X132147500Y-102820000D02*
X132610000Y-102820000D01*
X132610000Y-102820000D02*
X133130000Y-102300000D01*
X133130000Y-102300000D02*
X134521638Y-102300000D01*
%TO.N,OTG1_D_N*%
X132201076Y-103620000D02*
X132753776Y-103067300D01*
X133423826Y-102666174D02*
X134955464Y-102666174D01*
X134955464Y-102666174D02*
X135378764Y-102242874D01*
X133022700Y-103067300D02*
X133423826Y-102666174D01*
X132753776Y-103067300D02*
X133022700Y-103067300D01*
D59*
%TO.N,I2C5_SDA*%
X142206941Y-89045378D02*
X142206941Y-90134435D01*
D58*
X142413113Y-95842874D02*
X142280241Y-95710002D01*
D59*
X141675587Y-88514024D02*
X142206941Y-89045378D01*
X142206941Y-90134435D02*
X142180000Y-90161376D01*
D58*
X151737000Y-97220000D02*
X152641041Y-97220000D01*
X153170000Y-96350000D02*
X153170000Y-96691041D01*
X152641041Y-97220000D02*
X153170000Y-96691041D01*
X142578764Y-95842874D02*
X142413113Y-95842874D01*
D59*
X142180000Y-95609761D02*
X142280241Y-95710002D01*
X142180000Y-90161376D02*
X142180000Y-95609761D01*
D58*
%TO.N,POR_B*%
X160493860Y-101449644D02*
X160493860Y-105593860D01*
X158046452Y-107278548D02*
X157985000Y-107340000D01*
X161190918Y-106290918D02*
X161190918Y-107278548D01*
X159040920Y-107278548D02*
X158046452Y-107278548D01*
X159040920Y-107278548D02*
X161190918Y-107278548D01*
X160493860Y-105593860D02*
X161190918Y-106290918D01*
%TO.N,Net-(IC8-PORT)*%
X130334037Y-99005789D02*
X130334037Y-98465839D01*
X132131434Y-101671172D02*
X131280434Y-101671172D01*
X131280434Y-99952186D02*
X130334037Y-99005789D01*
X131280434Y-101671172D02*
X131280434Y-99952186D01*
%TO.N,I2C5_SCL*%
X141380000Y-95357640D02*
X141390763Y-95368403D01*
X141778764Y-95756404D02*
X141390763Y-95368403D01*
X141680941Y-89685376D02*
X141380000Y-89986317D01*
X150512000Y-95720000D02*
X150512000Y-95558000D01*
X141380000Y-89986317D02*
X141380000Y-95357640D01*
X150512000Y-95558000D02*
X150670000Y-95400000D01*
%TO.N,/IO/USB_CC1*%
X130334037Y-97540839D02*
X129892996Y-97540839D01*
X127403085Y-100030750D02*
X126412500Y-100030750D01*
X129892996Y-97540839D02*
X127403085Y-100030750D01*
%TO.N,USB_OTG1_ID*%
X132410035Y-97015839D02*
X133985000Y-95440874D01*
X134980764Y-95203731D02*
X134980764Y-94640874D01*
X131534037Y-97015839D02*
X132410035Y-97015839D01*
X134980764Y-94640874D02*
X135378764Y-94242874D01*
X134743621Y-95440874D02*
X134980764Y-95203731D01*
X133985000Y-95440874D02*
X134743621Y-95440874D01*
%TO.N,/IO/USB_CC2*%
X128565000Y-103105000D02*
X128750000Y-102920000D01*
X129125996Y-98908880D02*
X130094037Y-97940839D01*
X126486750Y-103105000D02*
X128565000Y-103105000D01*
X126412500Y-103030750D02*
X126486750Y-103105000D01*
%TO.N,USB_PORT_RT*%
X128352613Y-100288723D02*
X128852613Y-100288723D01*
X129386062Y-100822172D02*
X130032434Y-100822172D01*
X128852613Y-100288723D02*
X129386062Y-100822172D01*
X130032434Y-100822172D02*
X130231434Y-101021172D01*
D59*
%TO.N,USB2_TPU_N*%
X135005764Y-103469874D02*
X134094174Y-103469874D01*
D60*
X134026574Y-103537474D02*
X133767300Y-103796748D01*
X136517300Y-111273252D02*
X136517300Y-114134886D01*
X136517300Y-114134886D02*
X137521744Y-115139330D01*
D59*
X134094174Y-103469874D02*
X134026574Y-103537474D01*
D60*
X133767300Y-108523252D02*
X136517300Y-111273252D01*
D59*
X135013064Y-103477174D02*
X135005764Y-103469874D01*
D60*
X137521744Y-115139330D02*
X137808573Y-115139330D01*
X135378764Y-103842874D02*
X135013064Y-103477174D01*
X133767300Y-103796748D02*
X133767300Y-108523252D01*
D58*
%TO.N,MCM_SD_ALARM*%
X144978764Y-97442874D02*
X145393048Y-97857158D01*
X141874266Y-107769954D02*
X141874266Y-107665553D01*
X141708573Y-107935647D02*
X141874266Y-107769954D01*
X145393048Y-97857158D02*
X145393048Y-97925298D01*
X141708573Y-108739330D02*
X141708573Y-107935647D01*
%TO.N,/TPU/MCM_BT_PHY_PRG*%
X140708573Y-108016113D02*
X141149686Y-107575000D01*
X140708573Y-108739330D02*
X140708573Y-108016113D01*
X141149686Y-107575000D02*
X141397468Y-107575000D01*
%TO.N,TPU_RST_L*%
X144580000Y-97756335D02*
X144569473Y-97766862D01*
X144978764Y-96642874D02*
X144580000Y-97041638D01*
X144580000Y-97041638D02*
X144580000Y-97756335D01*
D60*
%TO.N,USB2_TPU_P*%
X134072700Y-108396748D02*
X136822700Y-111146748D01*
X136822700Y-114008386D02*
X137453644Y-114639330D01*
X134072700Y-104348938D02*
X134072700Y-108396748D01*
X137453644Y-114639330D02*
X137808573Y-114639330D01*
X134578764Y-103842874D02*
X134072700Y-104348938D01*
X136822700Y-111146748D02*
X136822700Y-114008386D01*
D58*
%TO.N,I2C5_SDA_MCM*%
X151999621Y-115639330D02*
X152425438Y-115213513D01*
X151762000Y-96720000D02*
X152469032Y-96720000D01*
X151608573Y-115639330D02*
X151999621Y-115639330D01*
X152469032Y-96720000D02*
X152523338Y-96774306D01*
%TO.N,TPU_BOOT_FAIL*%
X140208573Y-108739330D02*
X140208573Y-108019725D01*
X141082264Y-107146034D02*
X141533446Y-107146034D01*
X145367324Y-98699316D02*
X145308008Y-98640000D01*
X140208573Y-108019725D02*
X141082264Y-107146034D01*
X144575890Y-98640000D02*
X144178764Y-98242874D01*
X145415000Y-98699316D02*
X145367324Y-98699316D01*
X145308008Y-98640000D02*
X144575890Y-98640000D01*
%TO.N,I2C5_SCL_MCM*%
X151608573Y-115139330D02*
X151960670Y-115139330D01*
X149604337Y-95850825D02*
X149611483Y-95843679D01*
X150512000Y-96220000D02*
X149837000Y-96220000D01*
X149837000Y-96220000D02*
X149671191Y-96054191D01*
X149629787Y-95843679D02*
X149664801Y-95808665D01*
X149664801Y-95808665D02*
X149664801Y-95743319D01*
X149604337Y-95900401D02*
X149604337Y-95850825D01*
X151960670Y-115139330D02*
X152415000Y-114685000D01*
X149671191Y-95967255D02*
X149604337Y-95900401D01*
X149671191Y-96054191D02*
X149671191Y-95967255D01*
X152415000Y-114685000D02*
X152555000Y-114685000D01*
X149611483Y-95843679D02*
X149629787Y-95843679D01*
%TO.N,Net-(LED1-K)*%
X131641076Y-108988479D02*
X132687540Y-108988479D01*
X130748567Y-109880988D02*
X131641076Y-108988479D01*
X132687540Y-108988479D02*
X133604743Y-109905682D01*
%TO.N,Net-(LED1-A)*%
X130097567Y-110729988D02*
X130748567Y-111380988D01*
X129450000Y-109012035D02*
X129450000Y-109555025D01*
X129450000Y-109555025D02*
X130097567Y-110202592D01*
X130097567Y-110202592D02*
X130097567Y-110729988D01*
X128770025Y-108332060D02*
X129450000Y-109012035D01*
%TO.N,FLEXPWM1_PWM1_A*%
X132951723Y-110480682D02*
X131835521Y-109364479D01*
X137360000Y-94640000D02*
X137381638Y-94640000D01*
X137381638Y-94640000D02*
X137778764Y-94242874D01*
X133429743Y-110480682D02*
X132951723Y-110480682D01*
D59*
%TO.N,TPU_POW_EN*%
X130926813Y-112400387D02*
X130890787Y-112364361D01*
X130926813Y-113637503D02*
X130926813Y-112400387D01*
D58*
%TO.N,FlexSPI_A_SS0*%
X134587126Y-101442874D02*
X134863410Y-101166590D01*
X134863410Y-101166590D02*
X134863410Y-101040000D01*
D59*
%TO.N,BT_CFG1_6*%
X141778764Y-102196748D02*
X142081377Y-101894135D01*
D58*
%TO.N,BT_CFG1_7*%
X141250000Y-101830000D02*
X141261638Y-101841638D01*
X141380000Y-101841638D02*
X141778764Y-101442874D01*
X141261638Y-101841638D02*
X141380000Y-101841638D01*
%TO.N,Net-(U6C-DCDC_LP_1)*%
X145778764Y-92642874D02*
X149830000Y-88591638D01*
X145778764Y-92642874D02*
X145778764Y-93442874D01*
X149830000Y-88591638D02*
X149830000Y-86190000D01*
%TO.N,Net-(U6C-DCDC_LN_1)*%
X144956847Y-86756807D02*
X145077528Y-86636126D01*
X145077528Y-86636126D02*
X146876126Y-86636126D01*
X144956847Y-92620957D02*
X144956847Y-86756807D01*
X144978764Y-93442874D02*
X144978764Y-92642874D01*
%TO.N,FlexSPI_A_D2*%
X136978764Y-99842874D02*
X136978764Y-99941236D01*
X136978764Y-99941236D02*
X136960000Y-99960000D01*
D61*
%TO.N,SEMC_A0*%
X147810000Y-105503785D02*
X148566338Y-104747447D01*
X149995609Y-104747447D02*
X150018162Y-104770000D01*
X145778764Y-105442874D02*
X146155890Y-105820000D01*
X147810000Y-105638406D02*
X147810000Y-105503785D01*
X150018162Y-104770000D02*
X150247606Y-104770000D01*
X150649759Y-104367847D02*
X150780107Y-104367847D01*
X148566338Y-104747447D02*
X149995609Y-104747447D01*
X150247606Y-104770000D02*
X150649759Y-104367847D01*
X147628406Y-105820000D02*
X147810000Y-105638406D01*
X146155890Y-105820000D02*
X147628406Y-105820000D01*
%TO.N,SEMC_A10*%
X150396628Y-106470000D02*
X150898781Y-105967847D01*
X148123496Y-106090000D02*
X149612211Y-106090000D01*
X149992211Y-106470000D02*
X150396628Y-106470000D01*
X147933496Y-106280000D02*
X148123496Y-106090000D01*
X145380000Y-106047963D02*
X145612037Y-106280000D01*
X145380000Y-105210000D02*
X145380000Y-106047963D01*
X146173708Y-105047930D02*
X145542070Y-105047930D01*
X145542070Y-105047930D02*
X145380000Y-105210000D01*
X145612037Y-106280000D02*
X147933496Y-106280000D01*
X149612211Y-106090000D02*
X149992211Y-106470000D01*
X146578764Y-104642874D02*
X146173708Y-105047930D01*
%TO.N,SEMC_D15*%
X147378764Y-99842874D02*
X148102172Y-99842874D01*
X148102172Y-99842874D02*
X148543478Y-100284180D01*
%TO.N,SEMC_D3*%
X154500000Y-105569066D02*
X154500000Y-103973047D01*
X153465046Y-103225046D02*
X152730000Y-102490000D01*
X154898781Y-105967847D02*
X154500000Y-105569066D01*
X153635716Y-103675000D02*
X153465046Y-103504330D01*
X154500000Y-103973047D02*
X154201953Y-103675000D01*
X144978764Y-102242874D02*
X145257364Y-102242874D01*
X145652390Y-102637900D02*
X146312730Y-102637900D01*
X154201953Y-103675000D02*
X153635716Y-103675000D01*
X145257364Y-102242874D02*
X145652390Y-102637900D01*
X153465046Y-103504330D02*
X153465046Y-103225046D01*
D58*
%TO.N,Net-(U6A-RTC_XTALI)*%
X134736104Y-89129352D02*
X136576764Y-90970012D01*
X136576764Y-92807731D02*
X136813907Y-93044874D01*
X137380764Y-93044874D02*
X137778764Y-93442874D01*
X136813907Y-93044874D02*
X137380764Y-93044874D01*
X136576764Y-90970012D02*
X136576764Y-92807731D01*
D61*
%TO.N,SEMC_D6*%
X144587576Y-100234062D02*
X144587576Y-101097245D01*
X144978764Y-99842874D02*
X144587576Y-100234062D01*
%TO.N,SEMC_D12*%
X154757847Y-99517395D02*
X154305651Y-99065199D01*
X154305651Y-99065199D02*
X154235935Y-99065199D01*
X147378764Y-102242874D02*
X147584345Y-102242874D01*
X147584345Y-102242874D02*
X147648766Y-102178453D01*
%TO.N,SEMC_CS0*%
X143779999Y-106179999D02*
X143779999Y-102644109D01*
X144901838Y-106550000D02*
X144671838Y-106320000D01*
X150509880Y-106740000D02*
X149875423Y-106740000D01*
X149505423Y-106370000D02*
X148226748Y-106370000D01*
X151698781Y-105967847D02*
X151309181Y-106357447D01*
X144671838Y-106320000D02*
X143920000Y-106320000D01*
X150892433Y-106357447D02*
X150509880Y-106740000D01*
X143779999Y-102644109D02*
X143378764Y-102242874D01*
X151309181Y-106357447D02*
X150892433Y-106357447D01*
X148226748Y-106370000D02*
X148046748Y-106550000D01*
X149875423Y-106740000D02*
X149505423Y-106370000D01*
X143920000Y-106320000D02*
X143779999Y-106179999D01*
X148046748Y-106550000D02*
X144901838Y-106550000D01*
%TO.N,SEMC_CAS*%
X145185532Y-99453495D02*
X145370965Y-99638928D01*
X145370965Y-99638928D02*
X145370965Y-100088667D01*
X144178764Y-99042874D02*
X144589385Y-99453495D01*
X145551517Y-100269219D02*
X148044012Y-100269219D01*
X149387208Y-102056190D02*
X150769265Y-103438247D01*
X145370965Y-100088667D02*
X145551517Y-100269219D01*
X149169227Y-101063137D02*
X149387208Y-101281118D01*
X150769265Y-103438247D02*
X151362733Y-103438247D01*
X149387208Y-101281118D02*
X149387208Y-102056190D01*
X152292333Y-104367847D02*
X152498781Y-104367847D01*
X144589385Y-99453495D02*
X145185532Y-99453495D01*
X151362733Y-103438247D02*
X152292333Y-104367847D01*
X148044012Y-100269219D02*
X148837930Y-101063137D01*
X148837930Y-101063137D02*
X149169227Y-101063137D01*
%TO.N,SEMC_BA0*%
X146857364Y-100642874D02*
X147241543Y-101027053D01*
X151698781Y-104156133D02*
X151698781Y-104367847D01*
X149949376Y-103165145D02*
X150492478Y-103708247D01*
X147715999Y-101027053D02*
X148206964Y-101518018D01*
X149601425Y-103165145D02*
X149949376Y-103165145D01*
X148206964Y-101518018D02*
X148206964Y-101770684D01*
X150492478Y-103708247D02*
X151250895Y-103708247D01*
X151250895Y-103708247D02*
X151698781Y-104156133D01*
X147241543Y-101027053D02*
X147715999Y-101027053D01*
X148206964Y-101770684D02*
X149601425Y-103165145D01*
X146578764Y-100642874D02*
X146857364Y-100642874D01*
%TO.N,SEMC_A8*%
X152088381Y-103195710D02*
X152088381Y-101006469D01*
X151288381Y-100529225D02*
X151288381Y-99957447D01*
X152255172Y-103362501D02*
X152088381Y-103195710D01*
X151288381Y-99957447D02*
X150898781Y-99567847D01*
X151537403Y-100778247D02*
X151288381Y-100529225D01*
X152088381Y-101006469D02*
X151860159Y-100778247D01*
X151860159Y-100778247D02*
X151537403Y-100778247D01*
D58*
%TO.N,SEMC_WE*%
X144178764Y-102242874D02*
X144002874Y-102242874D01*
D61*
X152498781Y-105841219D02*
X152610000Y-105730000D01*
D58*
X144002874Y-102242874D02*
X143900000Y-102140000D01*
%TO.N,LPSPI6_CS0*%
X147850000Y-89829948D02*
X147850000Y-82500000D01*
X145174100Y-95440874D02*
X145380764Y-95234210D01*
X144576764Y-95440874D02*
X145174100Y-95440874D01*
X145380764Y-95234210D02*
X145380764Y-92299184D01*
X145380764Y-92299184D02*
X147850000Y-89829948D01*
X144178764Y-95042874D02*
X144576764Y-95440874D01*
%TO.N,LPSPI6_SDO*%
X143780000Y-93044110D02*
X143780000Y-85750000D01*
X143780000Y-85750000D02*
X144550000Y-84980000D01*
X144178764Y-93442874D02*
X143780000Y-93044110D01*
X144550000Y-84980000D02*
X144800000Y-84980000D01*
D61*
%TO.N,SEMC_RAS*%
X146430475Y-99400874D02*
X146727053Y-99400874D01*
X147527053Y-99400874D02*
X147537053Y-99390874D01*
X146420475Y-99390874D02*
X146430475Y-99400874D01*
X147537053Y-99390874D02*
X148209036Y-99390874D01*
X152660159Y-103978247D02*
X152888381Y-104206469D01*
X146737053Y-99390874D02*
X147220475Y-99390874D01*
X147230475Y-99400874D02*
X147527053Y-99400874D01*
X151475985Y-103168247D02*
X152052738Y-103745000D01*
X150942733Y-103168247D02*
X151475985Y-103168247D01*
X152888381Y-104206469D02*
X152888381Y-104778247D01*
X152888381Y-104778247D02*
X152498781Y-105167847D01*
X144978764Y-99042874D02*
X145272475Y-99042874D01*
X145927053Y-99400874D02*
X145937053Y-99390874D01*
X152052738Y-103745000D02*
X152412770Y-103745000D01*
X145272475Y-99042874D02*
X145630475Y-99400874D01*
X145937053Y-99390874D02*
X146420475Y-99390874D01*
X152646017Y-103978247D02*
X152660159Y-103978247D01*
X152412770Y-103745000D02*
X152646017Y-103978247D01*
X149709181Y-101934695D02*
X150942733Y-103168247D01*
X148209036Y-99390874D02*
X149709181Y-100891019D01*
X145630475Y-99400874D02*
X145927053Y-99400874D01*
X149709181Y-100891019D02*
X149709181Y-101934695D01*
X146727053Y-99400874D02*
X146737053Y-99390874D01*
X147220475Y-99390874D02*
X147230475Y-99400874D01*
%TO.N,SEMC_A2*%
X151288381Y-104529225D02*
X151039359Y-104778247D01*
X150043646Y-103930874D02*
X150091019Y-103978247D01*
X151039359Y-104778247D02*
X150621197Y-104778247D01*
X151288381Y-104206469D02*
X151288381Y-104529225D01*
X146990764Y-103430874D02*
X148832095Y-103430874D01*
X146578764Y-103842874D02*
X146990764Y-103430874D01*
X148832095Y-103430874D02*
X149332095Y-103930874D01*
X151060159Y-103978247D02*
X151288381Y-104206469D01*
X150621197Y-104778247D02*
X150231597Y-105167847D01*
X150091019Y-103978247D02*
X151060159Y-103978247D01*
X149332095Y-103930874D02*
X150043646Y-103930874D01*
%TO.N,SEMC_A12*%
X151035824Y-98684000D02*
X150599376Y-98684000D01*
X151625000Y-99494066D02*
X151625000Y-98864824D01*
X151100824Y-98619000D02*
X151035824Y-98684000D01*
X150463376Y-98820000D02*
X148820000Y-98820000D01*
X151625000Y-98864824D02*
X151379176Y-98619000D01*
X150599376Y-98684000D02*
X150463376Y-98820000D01*
X151379176Y-98619000D02*
X151100824Y-98619000D01*
D58*
%TO.N,+3V3*%
X155008877Y-93458869D02*
X155377746Y-93090000D01*
X157985207Y-91963863D02*
X159881886Y-91963863D01*
X153640000Y-92670000D02*
X153640000Y-93214683D01*
X153884186Y-93458869D02*
X155008877Y-93458869D01*
X153640000Y-93214683D02*
X153884186Y-93458869D01*
X155377746Y-93090000D02*
X160088791Y-93090000D01*
X152949074Y-91979074D02*
X153640000Y-92670000D01*
X159881886Y-91963863D02*
X160548407Y-92630384D01*
X152540591Y-91979074D02*
X152949074Y-91979074D01*
D61*
%TO.N,SEMC_D2*%
X147142901Y-102662901D02*
X148447374Y-102662901D01*
X148447374Y-102662901D02*
X149334618Y-103550145D01*
X144978764Y-100642874D02*
X145378732Y-101042842D01*
X147000000Y-101310000D02*
X147000000Y-102520000D01*
X146732842Y-101042842D02*
X147000000Y-101310000D01*
X149334618Y-103550145D02*
X149789903Y-103550145D01*
X145378732Y-101042842D02*
X146732842Y-101042842D01*
X147000000Y-102520000D02*
X147142901Y-102662901D01*
D58*
%TO.N,Net-(U6A-RTC_XTALO)*%
X137581764Y-90575012D02*
X137236104Y-90229352D01*
X137778764Y-92642874D02*
X137581764Y-92445874D01*
X137581764Y-92445874D02*
X137581764Y-90575012D01*
X137236104Y-90229352D02*
X137236104Y-89129352D01*
D61*
%TO.N,SEMC_CKE*%
X148381000Y-98079000D02*
X148340000Y-98120000D01*
X152888381Y-99363115D02*
X151604266Y-98079000D01*
X152498781Y-101167847D02*
X152888381Y-100778247D01*
X151604266Y-98079000D02*
X148381000Y-98079000D01*
X152888381Y-100778247D02*
X152888381Y-99363115D01*
%TO.N,SEMC_D4*%
X150533043Y-107098675D02*
X149080568Y-107098675D01*
X143188438Y-101810000D02*
X143546304Y-101810000D01*
X144484473Y-106590000D02*
X143763649Y-106590000D01*
X142330000Y-105040000D02*
X142690000Y-105040000D01*
X155300000Y-106520000D02*
X155170000Y-106650000D01*
X142690000Y-105040000D02*
X142980000Y-104750000D01*
X143740000Y-101616304D02*
X143740000Y-100281638D01*
X142980000Y-102018438D02*
X143188438Y-101810000D01*
X143546304Y-101810000D02*
X143740000Y-101616304D01*
X143566824Y-106786825D02*
X143066825Y-106786825D01*
X142980000Y-104750000D02*
X142980000Y-102018438D01*
X144814473Y-106920000D02*
X144484473Y-106590000D01*
X142150000Y-105870000D02*
X142150000Y-105220000D01*
X142150000Y-105220000D02*
X142330000Y-105040000D01*
X150981718Y-106650000D02*
X150533043Y-107098675D01*
X143066825Y-106786825D02*
X142150000Y-105870000D01*
X155170000Y-106650000D02*
X150981718Y-106650000D01*
X143740000Y-100281638D02*
X144178764Y-99842874D01*
X155300000Y-105569066D02*
X155300000Y-106520000D01*
X149080568Y-107098675D02*
X148901893Y-106920000D01*
X143763649Y-106590000D02*
X143566824Y-106786825D01*
X148901893Y-106920000D02*
X144814473Y-106920000D01*
X154898781Y-105167847D02*
X155300000Y-105569066D01*
%TO.N,SEMC_A5*%
X150510000Y-100779066D02*
X150098781Y-100367847D01*
X150510000Y-101698726D02*
X150510000Y-100779066D01*
X147195287Y-104642874D02*
X147090048Y-104748113D01*
X151670000Y-102858726D02*
X150510000Y-101698726D01*
X147378764Y-104642874D02*
X147195287Y-104642874D01*
%TO.N,SEMC_D13*%
X155300317Y-101744000D02*
X154539317Y-102505000D01*
X155698781Y-100616869D02*
X156088381Y-101006469D01*
X155698781Y-100528946D02*
X155698781Y-100616869D01*
X153595000Y-102505000D02*
X153080521Y-101990521D01*
X155766000Y-101744000D02*
X155300317Y-101744000D01*
X156088381Y-101006469D02*
X156088381Y-101421619D01*
X156088381Y-101421619D02*
X155766000Y-101744000D01*
X147613381Y-101677491D02*
X147720000Y-101677491D01*
X154539317Y-102505000D02*
X153595000Y-102505000D01*
X147378764Y-101442874D02*
X147613381Y-101677491D01*
%TO.N,SEMC_D14*%
X147378764Y-100642874D02*
X147871259Y-100642874D01*
X147871259Y-100642874D02*
X148676522Y-101448137D01*
X148676522Y-101448137D02*
X149009754Y-101448137D01*
D58*
%TO.N,LPSPI6_SDI*%
X144178764Y-92642874D02*
X144178764Y-85981236D01*
X144178764Y-85981236D02*
X144780000Y-85380000D01*
%TO.N,LPUART6_TXD*%
X143640000Y-83630000D02*
X143640000Y-84140000D01*
X144770000Y-82500000D02*
X143640000Y-83630000D01*
%TO.N,FlexSPI_A_D1*%
X136178764Y-99982263D02*
X136202256Y-100005755D01*
X136178764Y-99842874D02*
X136178764Y-99982263D01*
D61*
%TO.N,SEMC_D10*%
X154098781Y-99841789D02*
X154083323Y-99857247D01*
X154098781Y-99567847D02*
X154098781Y-99841789D01*
D58*
%TO.N,LPSPI6_SCK*%
X145176000Y-84344000D02*
X145680000Y-83840000D01*
X144576764Y-86184277D02*
X145176000Y-85585041D01*
X145176000Y-85585041D02*
X145176000Y-84344000D01*
X144178764Y-94242874D02*
X144576764Y-93844874D01*
X144576764Y-93844874D02*
X144576764Y-86184277D01*
D61*
%TO.N,SEMC_A3*%
X144536764Y-104200874D02*
X149931808Y-104200874D01*
X149931808Y-104200874D02*
X150098781Y-104367847D01*
X144178764Y-103842874D02*
X144536764Y-104200874D01*
%TO.N,SEMC_D9*%
X152390000Y-103022153D02*
X152693368Y-103325521D01*
X154098781Y-100367847D02*
X153709181Y-100757447D01*
X153709181Y-101308425D02*
X153460159Y-101557447D01*
X146578764Y-103125241D02*
X146451000Y-103253005D01*
X152390000Y-102170000D02*
X152390000Y-103022153D01*
X153460159Y-101557447D02*
X153002553Y-101557447D01*
X153709181Y-100757447D02*
X153709181Y-101308425D01*
X153002553Y-101557447D02*
X152390000Y-102170000D01*
X152693368Y-103325521D02*
X152693368Y-103464908D01*
%TO.N,SEMC_A7*%
X150898781Y-100367847D02*
X150500934Y-99970000D01*
X144686532Y-102684874D02*
X144573321Y-102571663D01*
X148735000Y-99205000D02*
X148660527Y-99205000D01*
X145294324Y-102684874D02*
X144686532Y-102684874D01*
X149500000Y-99970000D02*
X148735000Y-99205000D01*
X150500934Y-99970000D02*
X149500000Y-99970000D01*
X148370000Y-98914473D02*
X148370000Y-98840000D01*
X145652324Y-103042874D02*
X145294324Y-102684874D01*
X148660527Y-99205000D02*
X148370000Y-98914473D01*
%TO.N,SEMC_D8*%
X145659734Y-102123844D02*
X145659734Y-101972478D01*
X145716450Y-102180560D02*
X145659734Y-102123844D01*
D58*
%TO.N,GND*%
X144978764Y-94670000D02*
X144953638Y-94644874D01*
D59*
X137808573Y-108639330D02*
X138608573Y-108639330D01*
D58*
X122212500Y-97460750D02*
X122212500Y-100380750D01*
X161190918Y-104511185D02*
X161299733Y-104620000D01*
X151762000Y-95720000D02*
X151762000Y-95353106D01*
D61*
X156093381Y-99973247D02*
X156498781Y-99567847D01*
D58*
X150908573Y-116139330D02*
X151608573Y-116139330D01*
X128610000Y-94117000D02*
X131020586Y-96527586D01*
X138637126Y-93382874D02*
X138960000Y-93060000D01*
X145311881Y-113200000D02*
X145546465Y-113434584D01*
D59*
X158754022Y-112987888D02*
X160489862Y-112987888D01*
D58*
X124580177Y-92150756D02*
X125760756Y-92150756D01*
X141580000Y-112339330D02*
X150308573Y-112339330D01*
X132401521Y-89912647D02*
X132401521Y-90465633D01*
X133779743Y-111925699D02*
X131817876Y-113887566D01*
D61*
X150711628Y-98955000D02*
X151240000Y-98955000D01*
D58*
X138708573Y-117539330D02*
X146708573Y-117539330D01*
X148020000Y-110739330D02*
X149570000Y-110739330D01*
X141371638Y-104250000D02*
X141380764Y-104240874D01*
X159730000Y-103061408D02*
X159730000Y-100920000D01*
X161190918Y-103128548D02*
X161190918Y-104511185D01*
X126412500Y-98680750D02*
X126412500Y-97835750D01*
X129248723Y-101338723D02*
X129290000Y-101380000D01*
D59*
X158754022Y-108929925D02*
X158754022Y-112987888D01*
D58*
X161190918Y-95628548D02*
X159589374Y-95628547D01*
X155007890Y-90471558D02*
X155007890Y-87992110D01*
X159662860Y-103128548D02*
X159730000Y-103061408D01*
X147610000Y-110739330D02*
X148020000Y-110739330D01*
X152540591Y-92979074D02*
X151092791Y-92979074D01*
D61*
X155542403Y-99973247D02*
X155288381Y-100227269D01*
D58*
X129328000Y-92035000D02*
X128610000Y-92753000D01*
X150409100Y-90709604D02*
X150409100Y-90260900D01*
X137808573Y-115889597D02*
X137808573Y-117639330D01*
X154772153Y-101167847D02*
X153980000Y-101960000D01*
X150308573Y-114939330D02*
X150597903Y-114650000D01*
X144689998Y-113200000D02*
X145311881Y-113200000D01*
X151098123Y-89571877D02*
X151098123Y-89159212D01*
D61*
X145265663Y-103214829D02*
X145267324Y-103213168D01*
D59*
X145508573Y-108608573D02*
X145110000Y-108210000D01*
D58*
X131726913Y-113887566D02*
X131976976Y-113637503D01*
X136795604Y-94865604D02*
X136795604Y-94678554D01*
X141148747Y-104250000D02*
X141371638Y-104250000D01*
X139282626Y-89642878D02*
X139282626Y-88747374D01*
X131726913Y-113887566D02*
X131726913Y-113073087D01*
X137808573Y-107877427D02*
X137841000Y-107845000D01*
D59*
X125287139Y-89836558D02*
X127220000Y-87903697D01*
D58*
X144953638Y-94644874D02*
X144017907Y-94644874D01*
X122212500Y-103180750D02*
X122212500Y-106100750D01*
X136972874Y-95042874D02*
X136795604Y-94865604D01*
X143543621Y-93844874D02*
X142985126Y-93844874D01*
X131160000Y-96524557D02*
X131156971Y-96527586D01*
X125723810Y-93186190D02*
X126260000Y-92650000D01*
X139282626Y-88747374D02*
X139290000Y-88740000D01*
X157368013Y-96474753D02*
X158214218Y-95628548D01*
D59*
X145208573Y-108308573D02*
X145110000Y-108210000D01*
D58*
X130586073Y-118275546D02*
X130586073Y-117400398D01*
X139092488Y-100338236D02*
X139092488Y-99750273D01*
X147708573Y-117539330D02*
X150708573Y-117539330D01*
X139108573Y-112339330D02*
X141580000Y-112339330D01*
X129379360Y-118379360D02*
X127220000Y-116220000D01*
X143776764Y-94403731D02*
X143776764Y-94078017D01*
D61*
X156093381Y-99973247D02*
X155542403Y-99973247D01*
D59*
X138608573Y-108639330D02*
X138708573Y-108739330D01*
D58*
X142208573Y-108739330D02*
X143208573Y-108739330D01*
D61*
X145267324Y-103213168D02*
X145267324Y-103147354D01*
D58*
X146708573Y-117539330D02*
X146708573Y-117018200D01*
X139108573Y-113939330D02*
X150308573Y-113939330D01*
X145474998Y-113363117D02*
X145546465Y-113434584D01*
X134578764Y-107700509D02*
X137017585Y-110139330D01*
X155740804Y-111702623D02*
X154786409Y-111702623D01*
X157068013Y-96474753D02*
X157368013Y-96474753D01*
X161040000Y-100660000D02*
X161220000Y-100840000D01*
X141143621Y-104244874D02*
X141148747Y-104250000D01*
X150409100Y-90260900D02*
X151098123Y-89571877D01*
X145474998Y-112415000D02*
X145474998Y-113363117D01*
D59*
X142708573Y-108889330D02*
X142407903Y-109190000D01*
X139108573Y-115638573D02*
X139910000Y-116440000D01*
D58*
X131134037Y-97015839D02*
X131134037Y-96550520D01*
X133844675Y-111925699D02*
X137558306Y-115639330D01*
D61*
X156093381Y-99973247D02*
X156093381Y-100626803D01*
D59*
X125163442Y-89836558D02*
X125287139Y-89836558D01*
D58*
X131134037Y-96550520D02*
X131156971Y-96527586D01*
X140178764Y-97442874D02*
X139378764Y-97442874D01*
X137808573Y-108639330D02*
X137808573Y-107877427D01*
X161220000Y-100840000D02*
X161220000Y-103099466D01*
X150708573Y-117539330D02*
X151508573Y-117539330D01*
X128352613Y-101338723D02*
X129248723Y-101338723D01*
X142070000Y-106340184D02*
X141380000Y-105650184D01*
X126412500Y-104880750D02*
X127779262Y-104880750D01*
X150597903Y-114650000D02*
X151597903Y-114650000D01*
X144978764Y-95042874D02*
X144978764Y-94670000D01*
X155833464Y-108741054D02*
X155833464Y-111609963D01*
X159990000Y-100660000D02*
X161040000Y-100660000D01*
X132401521Y-90465633D02*
X134578764Y-92642876D01*
D59*
X147378764Y-92642874D02*
X147378764Y-92401236D01*
D58*
X141550000Y-115539330D02*
X150308573Y-115539330D01*
D59*
X140230000Y-116760000D02*
X140230000Y-117517903D01*
D58*
X131020586Y-96527586D02*
X131156971Y-96527586D01*
D59*
X124947139Y-90052861D02*
X125163442Y-89836558D01*
D58*
X131726913Y-113887566D02*
X131726913Y-114544766D01*
X156738464Y-112592959D02*
X156738464Y-114821536D01*
X137778764Y-101442874D02*
X139378764Y-101442874D01*
X159730000Y-100920000D02*
X159990000Y-100660000D01*
D61*
X150098781Y-99567847D02*
X150711628Y-98955000D01*
D58*
X143708573Y-116442544D02*
X143649813Y-116383784D01*
X144978764Y-94670000D02*
X144978764Y-94242874D01*
X151762000Y-95353106D02*
X151676882Y-95267988D01*
X129290000Y-101529738D02*
X129290000Y-101380000D01*
D61*
X145244069Y-103214829D02*
X145265663Y-103214829D01*
D59*
X148708573Y-108739330D02*
X145208573Y-108739330D01*
D58*
X143776764Y-94078017D02*
X143543621Y-93844874D01*
X129431434Y-101671172D02*
X129290000Y-101529738D01*
X131430000Y-106440000D02*
X130810000Y-107060000D01*
X147108573Y-110739330D02*
X147610000Y-110739330D01*
D61*
X140220947Y-89652249D02*
X139291997Y-89652249D01*
D58*
X131516967Y-104876967D02*
X131516967Y-104708303D01*
X159040920Y-103128548D02*
X159662860Y-103128548D01*
D61*
X155288381Y-100227269D02*
X155288381Y-100778247D01*
D58*
X133779743Y-110480682D02*
X133779743Y-111925699D01*
X152540591Y-93479074D02*
X151592791Y-93479074D01*
X151508573Y-117539330D02*
X151608573Y-117639330D01*
X131726913Y-114544766D02*
X132338073Y-115155926D01*
X125760756Y-92150756D02*
X126260000Y-92650000D01*
D59*
X145508573Y-110739330D02*
X145508573Y-108608573D01*
D58*
X132287073Y-117001398D02*
X131462073Y-117001398D01*
X150308573Y-115539330D02*
X150308573Y-114939330D01*
X143378764Y-97442874D02*
X143378764Y-98242874D01*
X141380000Y-105650184D02*
X141380000Y-104241638D01*
X128610000Y-92753000D02*
X128610000Y-94117000D01*
X130482259Y-118379360D02*
X130586073Y-118275546D01*
X150308573Y-115539330D02*
X150908573Y-116139330D01*
X132120000Y-105480000D02*
X131516967Y-104876967D01*
X131160000Y-93435000D02*
X131160000Y-96524557D01*
D59*
X147378764Y-92401236D02*
X147725000Y-92055000D01*
X142407903Y-109190000D02*
X142384284Y-109190000D01*
D58*
X155812623Y-111702623D02*
X156730000Y-112620000D01*
X133779743Y-111925699D02*
X133844675Y-111925699D01*
X137808573Y-108639330D02*
X137808573Y-114139330D01*
X131976976Y-113637503D02*
X132527013Y-113637503D01*
X132390000Y-105480000D02*
X132120000Y-105480000D01*
X142578764Y-100642874D02*
X142578764Y-98242874D01*
X142985126Y-93844874D02*
X142580000Y-94250000D01*
X158214218Y-95628548D02*
X159040920Y-95628548D01*
X143950668Y-113939330D02*
X144689998Y-113200000D01*
X129656427Y-89656427D02*
X127220000Y-87220000D01*
X143708573Y-117539330D02*
X143708573Y-116442544D01*
X139378764Y-99842874D02*
X139378764Y-101442874D01*
X139108573Y-115539330D02*
X141550000Y-115539330D01*
X132338073Y-115155926D02*
X132338073Y-116950398D01*
X138995890Y-93060000D02*
X138960000Y-93060000D01*
X137808573Y-115639330D02*
X137808573Y-117639330D01*
X140580764Y-104244874D02*
X141143621Y-104244874D01*
X127535042Y-110626445D02*
X127535042Y-114738842D01*
X139108573Y-110739330D02*
X147610000Y-110739330D01*
X131726913Y-113073087D02*
X131750000Y-113050000D01*
X140178764Y-103842874D02*
X140580764Y-104244874D01*
X140178764Y-103842874D02*
X139780764Y-104240874D01*
X139378764Y-100642874D02*
X141778764Y-100642874D01*
D59*
X139910000Y-116440000D02*
X140230000Y-116760000D01*
D58*
X139378764Y-93442874D02*
X138995890Y-93060000D01*
X154898781Y-101167847D02*
X154772153Y-101167847D01*
X138976764Y-104240874D02*
X138578764Y-103842874D01*
X146708573Y-117018200D02*
X146494765Y-116804392D01*
X130231434Y-101671172D02*
X129431434Y-101671172D01*
X141380000Y-104241638D02*
X141380764Y-104240874D01*
X132338073Y-116950398D02*
X132287073Y-117001398D01*
X141778764Y-103842874D02*
X142578764Y-104642874D01*
X142578764Y-98242874D02*
X143378764Y-98242874D01*
X137558306Y-115639330D02*
X137808573Y-115639330D01*
X137017585Y-110139330D02*
X137808573Y-110139330D01*
X139378764Y-99842874D02*
X139378764Y-97442874D01*
X138708573Y-108739330D02*
X139708573Y-108739330D01*
X149570000Y-110739330D02*
X150308573Y-110739330D01*
D59*
X145208573Y-108739330D02*
X145208573Y-108308573D01*
D58*
X129962259Y-118379360D02*
X129379360Y-118379360D01*
D59*
X142384284Y-109190000D02*
X141829112Y-109745172D01*
D58*
X131530000Y-106340000D02*
X132390000Y-105480000D01*
X159040920Y-95628548D02*
X159589374Y-95628547D01*
X139397126Y-100642874D02*
X139092488Y-100338236D01*
X129530396Y-89782458D02*
X129656427Y-89656427D01*
X141380764Y-104240874D02*
X141778764Y-103842874D01*
X130586073Y-117400398D02*
X130985073Y-117001398D01*
X144017907Y-94644874D02*
X143776764Y-94403731D01*
X126412500Y-104880750D02*
X126412500Y-105725750D01*
X129962259Y-118379360D02*
X130482259Y-118379360D01*
X141778764Y-100642874D02*
X142578764Y-100642874D01*
D61*
X156093381Y-100626803D02*
X156498781Y-101032203D01*
X155288381Y-100778247D02*
X154898781Y-101167847D01*
D58*
X151608573Y-117639330D02*
X151608573Y-116139330D01*
D59*
X150608573Y-112639330D02*
X151608573Y-112639330D01*
D58*
X152540591Y-92479074D02*
X151592791Y-92479074D01*
X134578764Y-105442874D02*
X134578764Y-107700509D01*
X139780764Y-104240874D02*
X138976764Y-104240874D01*
X154706052Y-107626866D02*
X154706052Y-112621116D01*
D61*
X145072114Y-103042874D02*
X145244069Y-103214829D01*
D58*
%TO.N,Net-(IC3-OUT)*%
X132740000Y-116310000D02*
X133703471Y-116310000D01*
X133703471Y-116310000D02*
X133962073Y-116051398D01*
X133962073Y-116051398D02*
X133962073Y-114677927D01*
X133962073Y-114677927D02*
X134230000Y-114410000D01*
D61*
%TO.N,SEMC_D1*%
X155876385Y-104767815D02*
X155516826Y-104767815D01*
X156101574Y-104993004D02*
X155876385Y-104767815D01*
X155698781Y-105748340D02*
X156101574Y-105345547D01*
X154260000Y-102890000D02*
X154249501Y-102890000D01*
X155294621Y-104545610D02*
X155294621Y-103924621D01*
X155698781Y-105967847D02*
X155698781Y-105748340D01*
X156101574Y-105345547D02*
X156101574Y-104993004D01*
X155516826Y-104767815D02*
X155294621Y-104545610D01*
X155294621Y-103924621D02*
X154260000Y-102890000D01*
%TO.N,SEMC_CLK*%
X152100000Y-99340000D02*
X152100000Y-99969066D01*
X151895000Y-99135000D02*
X152100000Y-99340000D01*
X150487538Y-98414000D02*
X150923986Y-98414000D01*
X145778764Y-99042874D02*
X146186638Y-98635000D01*
X150923986Y-98414000D02*
X150988986Y-98349000D01*
X148030527Y-98635000D02*
X148210527Y-98455000D01*
X146186638Y-98635000D02*
X148030527Y-98635000D01*
X150988986Y-98349000D02*
X151491014Y-98349000D01*
X151491014Y-98349000D02*
X151895000Y-98752986D01*
X151895000Y-98752986D02*
X151895000Y-99135000D01*
X152100000Y-99969066D02*
X152498781Y-100367847D01*
X150446538Y-98455000D02*
X150487538Y-98414000D01*
X148210527Y-98455000D02*
X150446538Y-98455000D01*
%TO.N,SEMC_A4*%
X150098781Y-101167847D02*
X150098781Y-101551423D01*
X150098781Y-101551423D02*
X150050295Y-101599909D01*
%TO.N,SEMC_D0*%
X152293515Y-107033393D02*
X151956233Y-107370675D01*
X146902402Y-107210000D02*
X144219651Y-107210000D01*
X156498781Y-105285107D02*
X156498781Y-105381219D01*
X156096896Y-106203104D02*
X155266607Y-107033393D01*
X144219651Y-107210000D02*
X143984651Y-106975000D01*
X156119181Y-105757847D02*
X156096896Y-105780132D01*
X156096896Y-105780132D02*
X156096896Y-106203104D01*
X156498781Y-105381219D02*
X156119181Y-105760819D01*
X151956233Y-107370675D02*
X147063077Y-107370675D01*
X147063077Y-107370675D02*
X146902402Y-107210000D01*
X155266607Y-107033393D02*
X152293515Y-107033393D01*
D59*
%TO.N,SDRAM_1V8*%
X153080046Y-103617570D02*
X153080046Y-103344857D01*
X156906935Y-104851381D02*
X156498781Y-104443227D01*
D61*
X151860159Y-105578247D02*
X150488381Y-105578247D01*
D59*
X156906935Y-105559693D02*
X156906935Y-104851381D01*
X156972330Y-107711081D02*
X156972330Y-108048233D01*
X157217301Y-103938684D02*
X156927944Y-103938684D01*
X157560000Y-107199611D02*
X157560000Y-104281383D01*
D61*
X153688381Y-104757447D02*
X153688381Y-106129225D01*
D59*
X156498781Y-105967847D02*
X156906935Y-105559693D01*
X157560000Y-104281383D02*
X157217301Y-103938684D01*
X156927944Y-103938684D02*
X156498781Y-104367847D01*
X153298781Y-104367847D02*
X153298781Y-103836305D01*
X155410934Y-103280000D02*
X155310000Y-103280000D01*
X154178116Y-103238116D02*
X153850046Y-103238116D01*
X156972330Y-107711081D02*
X156972330Y-108502188D01*
X154898781Y-103958781D02*
X154178116Y-103238116D01*
X157048530Y-107711081D02*
X157560000Y-107199611D01*
D61*
X152088381Y-105806469D02*
X151860159Y-105578247D01*
D59*
X156733464Y-108741054D02*
X156733464Y-111687959D01*
D61*
X153688381Y-106129225D02*
X153460159Y-106357447D01*
X150488381Y-105578247D02*
X150098781Y-105967847D01*
D59*
X153298781Y-103836305D02*
X153080046Y-103617570D01*
D61*
X152088381Y-106108425D02*
X152088381Y-105806469D01*
X153298781Y-104367847D02*
X153688381Y-104757447D01*
D59*
X154898781Y-104227960D02*
X154898781Y-103958781D01*
D61*
X153460159Y-106357447D02*
X152337403Y-106357447D01*
D59*
X156498781Y-104367847D02*
X155410934Y-103280000D01*
X156972330Y-108048233D02*
X157854022Y-108929925D01*
D61*
X152337403Y-106357447D02*
X152088381Y-106108425D01*
D59*
X157854022Y-112987888D02*
X157854022Y-108929925D01*
%TD*%
M02*
