%TF.GenerationSoftware,KiCad,Pcbnew,9.0.5*%
%TF.CreationDate,2025-11-20T16:18:21-05:00*%
%TF.ProjectId,sb-tpu,73622d74-7075-42e6-9b69-6361645f7063,rev?*%
%TF.SameCoordinates,Original*%
%TF.FileFunction,Soldermask,Bot*%
%TF.FilePolarity,Negative*%
%FSLAX46Y46*%
G04 Gerber Fmt 4.6, Leading zero omitted, Abs format (unit mm)*
G04 Created by KiCad (PCBNEW 9.0.5) date 2025-11-20 16:18:21*
%MOMM*%
%LPD*%
G01*
G04 APERTURE LIST*
G04 Aperture macros list*
%AMRoundRect*
0 Rectangle with rounded corners*
0 $1 Rounding radius*
0 $2 $3 $4 $5 $6 $7 $8 $9 X,Y pos of 4 corners*
0 Add a 4 corners polygon primitive as box body*
4,1,4,$2,$3,$4,$5,$6,$7,$8,$9,$2,$3,0*
0 Add four circle primitives for the rounded corners*
1,1,$1+$1,$2,$3*
1,1,$1+$1,$4,$5*
1,1,$1+$1,$6,$7*
1,1,$1+$1,$8,$9*
0 Add four rect primitives between the rounded corners*
20,1,$1+$1,$2,$3,$4,$5,0*
20,1,$1+$1,$4,$5,$6,$7,0*
20,1,$1+$1,$6,$7,$8,$9,0*
20,1,$1+$1,$8,$9,$2,$3,0*%
G04 Aperture macros list end*
%ADD10C,4.000000*%
%ADD11C,1.540000*%
%ADD12C,0.630000*%
%ADD13C,0.600000*%
%ADD14O,2.520000X1.362000*%
%ADD15O,2.604000X1.404000*%
%ADD16R,0.640000X0.650000*%
%ADD17R,0.650000X0.640000*%
%ADD18R,0.650000X0.825000*%
%ADD19RoundRect,0.102000X-0.400000X-0.400000X0.400000X-0.400000X0.400000X0.400000X-0.400000X0.400000X0*%
%ADD20RoundRect,0.102000X0.237500X0.250000X-0.237500X0.250000X-0.237500X-0.250000X0.237500X-0.250000X0*%
%ADD21R,0.711200X0.558800*%
%ADD22R,1.000000X0.800000*%
%ADD23R,0.780000X0.990000*%
%ADD24R,0.558800X0.711200*%
%ADD25R,0.600000X0.600000*%
%ADD26R,0.320000X0.510000*%
%ADD27R,0.200000X0.375000*%
%ADD28R,0.450000X0.475000*%
%ADD29R,0.850000X1.000000*%
%ADD30R,0.990000X0.780000*%
%ADD31R,0.600000X1.050000*%
%ADD32R,0.500000X0.700000*%
%ADD33RoundRect,0.102000X-0.237500X-0.250000X0.237500X-0.250000X0.237500X0.250000X-0.237500X0.250000X0*%
%ADD34R,0.825000X0.650000*%
%ADD35R,0.850000X0.450000*%
%ADD36R,0.550000X1.600000*%
%ADD37RoundRect,0.102000X0.400000X0.400000X-0.400000X0.400000X-0.400000X-0.400000X0.400000X-0.400000X0*%
%ADD38R,0.300000X0.800000*%
%ADD39R,0.800000X0.300000*%
%ADD40R,4.720000X4.720000*%
%ADD41RoundRect,0.102000X0.250000X-0.237500X0.250000X0.237500X-0.250000X0.237500X-0.250000X-0.237500X0*%
%ADD42R,1.200000X0.850000*%
G04 APERTURE END LIST*
D10*
%TO.C,J5*%
X155780000Y-115780000D03*
X127220000Y-115780000D03*
X127220000Y-87220000D03*
X155780000Y-87220000D03*
%TD*%
D11*
%TO.C,J3*%
X122460133Y-92589066D03*
X122460133Y-90049066D03*
X122460133Y-87509066D03*
X122460133Y-84969066D03*
%TD*%
%TO.C,J8*%
X160546098Y-110391652D03*
X160546098Y-112931652D03*
X160546098Y-115471652D03*
X160546098Y-118011652D03*
%TD*%
D12*
%TO.C,J9*%
X125312500Y-98780750D03*
D13*
X125312500Y-104780750D03*
D14*
X126037500Y-97460750D03*
X126037500Y-106100750D03*
D15*
X122212500Y-97460750D03*
X122212500Y-106100750D03*
%TD*%
D11*
%TO.C,J2*%
X122503992Y-118042254D03*
X122503992Y-115502254D03*
X122503992Y-112962254D03*
X122503992Y-110422254D03*
%TD*%
%TO.C,J7*%
X160548407Y-85010384D03*
X160548407Y-87550384D03*
X160548407Y-90090384D03*
X160548407Y-92630384D03*
%TD*%
%TO.C,J6*%
X122450000Y-120500000D03*
X124990000Y-120500000D03*
X127530000Y-120500000D03*
X130070000Y-120500000D03*
X132610000Y-120500000D03*
X135150000Y-120500000D03*
X137690000Y-120500000D03*
X140230000Y-120500000D03*
X142770000Y-120500000D03*
X145310000Y-120500000D03*
X147850000Y-120500000D03*
X150390000Y-120500000D03*
X152930000Y-120500000D03*
X155470000Y-120500000D03*
X158010000Y-120500000D03*
X160550000Y-120500000D03*
%TD*%
%TO.C,J4*%
X122450000Y-82500000D03*
X124990000Y-82500000D03*
X127530000Y-82500000D03*
X130070000Y-82500000D03*
X132610000Y-82500000D03*
X135150000Y-82500000D03*
X137690000Y-82500000D03*
X140230000Y-82500000D03*
X142770000Y-82500000D03*
X145310000Y-82500000D03*
X147850000Y-82500000D03*
X150390000Y-82500000D03*
X152930000Y-82500000D03*
X155470000Y-82500000D03*
X158010000Y-82500000D03*
X160550000Y-82500000D03*
%TD*%
D16*
%TO.C,C76*%
X148364153Y-102163726D03*
X148364153Y-103063726D03*
%TD*%
D17*
%TO.C,C55*%
X136503986Y-88039418D03*
X137403986Y-88039418D03*
%TD*%
%TO.C,C57*%
X136503986Y-89032296D03*
X137403986Y-89032296D03*
%TD*%
%TO.C,C96*%
X140195002Y-101436013D03*
X139295002Y-101436013D03*
%TD*%
D18*
%TO.C,R46*%
X144585410Y-98577729D03*
X144585410Y-99601729D03*
%TD*%
D19*
%TO.C,D10*%
X159547500Y-102400000D03*
X161197500Y-102400000D03*
%TD*%
D20*
%TO.C,R48*%
X132717217Y-86460585D03*
X131693217Y-86460585D03*
%TD*%
D21*
%TO.C,L7*%
X133313475Y-101456597D03*
X132272075Y-101456597D03*
%TD*%
D22*
%TO.C,R45*%
X144950000Y-89540000D03*
X144950000Y-91140000D03*
%TD*%
D23*
%TO.C,C15*%
X153382748Y-107990451D03*
X154782748Y-107990451D03*
%TD*%
D24*
%TO.C,L8*%
X135925776Y-109004315D03*
X135925776Y-110045715D03*
%TD*%
D17*
%TO.C,C87*%
X133978733Y-99863214D03*
X134878733Y-99863214D03*
%TD*%
D16*
%TO.C,C30*%
X121290000Y-95555353D03*
X121290000Y-94655353D03*
%TD*%
D25*
%TO.C,R17*%
X140821547Y-118592030D03*
X141871547Y-118592030D03*
%TD*%
%TO.C,R64*%
X158157513Y-104461471D03*
X158157513Y-103411471D03*
%TD*%
D17*
%TO.C,C11*%
X147760422Y-107060051D03*
X146860422Y-107060051D03*
%TD*%
%TO.C,C47*%
X150369752Y-99782554D03*
X149469752Y-99782554D03*
%TD*%
D26*
%TO.C,D5*%
X132320000Y-99180000D03*
X132320000Y-98180000D03*
%TD*%
D25*
%TO.C,R38*%
X132503282Y-117954169D03*
X131453282Y-117954169D03*
%TD*%
%TO.C,R23*%
X138043948Y-106432513D03*
X139093948Y-106432513D03*
%TD*%
D17*
%TO.C,C26*%
X157903119Y-112095952D03*
X158803119Y-112095952D03*
%TD*%
%TO.C,C66*%
X130260000Y-103620000D03*
X131160000Y-103620000D03*
%TD*%
D25*
%TO.C,R14*%
X138566586Y-103157384D03*
X138566586Y-104207384D03*
%TD*%
D17*
%TO.C,C12*%
X156740432Y-108661520D03*
X155840432Y-108661520D03*
%TD*%
D25*
%TO.C,R63*%
X157036628Y-103407665D03*
X157036628Y-104457665D03*
%TD*%
D16*
%TO.C,C77*%
X135606954Y-95667352D03*
X135606954Y-96567352D03*
%TD*%
D27*
%TO.C,Q3*%
X160024741Y-104886296D03*
X160374741Y-104886296D03*
D28*
X160199741Y-105461296D03*
%TD*%
D16*
%TO.C,C52*%
X144424016Y-93802556D03*
X144424016Y-94702556D03*
%TD*%
D29*
%TO.C,R49*%
X132407427Y-87785288D03*
X130907427Y-87785288D03*
%TD*%
D17*
%TO.C,C58*%
X139469772Y-95006868D03*
X140369772Y-95006868D03*
%TD*%
D30*
%TO.C,C65*%
X143250796Y-98411943D03*
X143250796Y-99811943D03*
%TD*%
D23*
%TO.C,C16*%
X148230867Y-117959201D03*
X146830867Y-117959201D03*
%TD*%
D25*
%TO.C,R44*%
X145458733Y-93640844D03*
X145458733Y-94690844D03*
%TD*%
D17*
%TO.C,C81*%
X136730862Y-99364082D03*
X135830862Y-99364082D03*
%TD*%
%TO.C,C13*%
X157935742Y-109134687D03*
X158835742Y-109134687D03*
%TD*%
D31*
%TO.C,D8*%
X128540000Y-104880000D03*
X130440000Y-104880000D03*
X129490000Y-107080000D03*
%TD*%
D29*
%TO.C,R1*%
X127512969Y-102773812D03*
X126012969Y-102773812D03*
%TD*%
D17*
%TO.C,C92*%
X134710000Y-106740000D03*
X133810000Y-106740000D03*
%TD*%
D25*
%TO.C,R62*%
X156292192Y-95897023D03*
X156292192Y-96947023D03*
%TD*%
D17*
%TO.C,C50*%
X140078000Y-89552970D03*
X139178000Y-89552970D03*
%TD*%
D32*
%TO.C,D6*%
X159454833Y-99265585D03*
X160204833Y-99265585D03*
%TD*%
D24*
%TO.C,L5*%
X136718656Y-95359156D03*
X136718656Y-96400556D03*
%TD*%
D17*
%TO.C,C74*%
X131160000Y-102600000D03*
X130260000Y-102600000D03*
%TD*%
%TO.C,C22*%
X157903119Y-113088540D03*
X158803119Y-113088540D03*
%TD*%
%TO.C,C63*%
X138657882Y-96002585D03*
X137757882Y-96002585D03*
%TD*%
D25*
%TO.C,R21*%
X138091531Y-105303922D03*
X139141531Y-105303922D03*
%TD*%
D16*
%TO.C,C86*%
X141661435Y-103127975D03*
X141661435Y-104027975D03*
%TD*%
D21*
%TO.C,L4*%
X139158110Y-108690302D03*
X140199510Y-108690302D03*
%TD*%
D17*
%TO.C,C28*%
X139292906Y-88185404D03*
X140192906Y-88185404D03*
%TD*%
D16*
%TO.C,C14*%
X145799115Y-118210763D03*
X145799115Y-117310763D03*
%TD*%
D25*
%TO.C,R2*%
X145730000Y-88280000D03*
X144680000Y-88280000D03*
%TD*%
D33*
%TO.C,R4*%
X144660000Y-87170000D03*
X145684000Y-87170000D03*
%TD*%
D25*
%TO.C,R35*%
X141402500Y-105290184D03*
X141402500Y-106340184D03*
%TD*%
D30*
%TO.C,C64*%
X150714464Y-93623761D03*
X150714464Y-92223761D03*
%TD*%
D16*
%TO.C,C90*%
X133560757Y-96568504D03*
X133560757Y-95668504D03*
%TD*%
D17*
%TO.C,C59*%
X136503986Y-90025174D03*
X137403986Y-90025174D03*
%TD*%
D18*
%TO.C,R47*%
X153036403Y-93500761D03*
X153036403Y-92476761D03*
%TD*%
D17*
%TO.C,C33*%
X139715475Y-118443916D03*
X138815475Y-118443916D03*
%TD*%
%TO.C,C99*%
X130330000Y-96240000D03*
X129430000Y-96240000D03*
%TD*%
D16*
%TO.C,C83*%
X136160000Y-103080000D03*
X136160000Y-102180000D03*
%TD*%
D17*
%TO.C,C80*%
X136737296Y-98370271D03*
X135837296Y-98370271D03*
%TD*%
D25*
%TO.C,R31*%
X142582971Y-105364809D03*
X142582971Y-106414809D03*
%TD*%
D17*
%TO.C,C79*%
X138980369Y-109786766D03*
X139880369Y-109786766D03*
%TD*%
D34*
%TO.C,R43*%
X138866000Y-90730000D03*
X139890000Y-90730000D03*
%TD*%
D25*
%TO.C,R36*%
X143628381Y-107763958D03*
X142578381Y-107763958D03*
%TD*%
D17*
%TO.C,C20*%
X157903119Y-111103363D03*
X158803119Y-111103363D03*
%TD*%
D16*
%TO.C,C62*%
X140117798Y-98789735D03*
X140117798Y-99689735D03*
%TD*%
D29*
%TO.C,R6*%
X127492748Y-101228195D03*
X125992748Y-101228195D03*
%TD*%
D16*
%TO.C,C75*%
X134569363Y-96562670D03*
X134569363Y-95662670D03*
%TD*%
D25*
%TO.C,R16*%
X136185932Y-105443564D03*
X136185932Y-106493564D03*
%TD*%
D16*
%TO.C,C9*%
X158321651Y-101196369D03*
X158321651Y-102096369D03*
%TD*%
D29*
%TO.C,R3*%
X142728604Y-91361536D03*
X141228604Y-91361536D03*
%TD*%
D25*
%TO.C,R19*%
X134594043Y-104472147D03*
X134594043Y-105522147D03*
%TD*%
D16*
%TO.C,C84*%
X137816443Y-100190571D03*
X137816443Y-99290571D03*
%TD*%
D23*
%TO.C,C32*%
X137686283Y-118553099D03*
X136286283Y-118553099D03*
%TD*%
D16*
%TO.C,C18*%
X145109455Y-109800757D03*
X145109455Y-110700757D03*
%TD*%
%TO.C,C27*%
X147109341Y-115420041D03*
X147109341Y-116320041D03*
%TD*%
D17*
%TO.C,C19*%
X157903119Y-110110775D03*
X158803119Y-110110775D03*
%TD*%
D16*
%TO.C,C23*%
X146134434Y-115406217D03*
X146134434Y-116306217D03*
%TD*%
D35*
%TO.C,U4*%
X143880060Y-112638095D03*
X143880060Y-113908095D03*
X143880060Y-115178095D03*
X143880060Y-116448095D03*
X135980060Y-116448095D03*
X135980060Y-115178095D03*
X135980060Y-113908095D03*
X135980060Y-112638095D03*
%TD*%
D25*
%TO.C,R26*%
X141536827Y-101073514D03*
X142586827Y-101073514D03*
%TD*%
D17*
%TO.C,C42*%
X132400744Y-116853299D03*
X131500744Y-116853299D03*
%TD*%
D32*
%TO.C,D7*%
X160194945Y-96472731D03*
X159444945Y-96472731D03*
%TD*%
D17*
%TO.C,C48*%
X135507191Y-90022678D03*
X134607191Y-90022678D03*
%TD*%
D25*
%TO.C,R65*%
X160497189Y-101227914D03*
X159447189Y-101227914D03*
%TD*%
D17*
%TO.C,C94*%
X133429106Y-102547527D03*
X132529106Y-102547527D03*
%TD*%
%TO.C,C97*%
X135877385Y-107855804D03*
X136777385Y-107855804D03*
%TD*%
D36*
%TO.C,L2*%
X151618060Y-116762900D03*
X150168060Y-116762900D03*
%TD*%
D17*
%TO.C,C69*%
X131160000Y-101580000D03*
X130260000Y-101580000D03*
%TD*%
D18*
%TO.C,R42*%
X149594726Y-96480821D03*
X149594726Y-97504821D03*
%TD*%
D16*
%TO.C,C68*%
X141067450Y-98800611D03*
X141067450Y-99700611D03*
%TD*%
D37*
%TO.C,D9*%
X156554000Y-105860000D03*
X158054000Y-105860000D03*
%TD*%
D25*
%TO.C,R12*%
X139667316Y-103146460D03*
X139667316Y-104196460D03*
%TD*%
D17*
%TO.C,C24*%
X139295230Y-87234758D03*
X140195230Y-87234758D03*
%TD*%
D16*
%TO.C,C45*%
X142600000Y-95060000D03*
X142600000Y-94160000D03*
%TD*%
D38*
%TO.C,IC1*%
X146950000Y-108300000D03*
X147450000Y-108300000D03*
X147950000Y-108300000D03*
X148450000Y-108300000D03*
X148950000Y-108300000D03*
X149450000Y-108300000D03*
X149950000Y-108300000D03*
X150450000Y-108300000D03*
X150950000Y-108300000D03*
X151450000Y-108300000D03*
D39*
X152150000Y-109000000D03*
X152150000Y-109500000D03*
X152150000Y-110000000D03*
X152150000Y-110500000D03*
X152150000Y-111000000D03*
X152150000Y-111500000D03*
X152150000Y-112000000D03*
X152150000Y-112500000D03*
X152150000Y-113000000D03*
X152150000Y-113500000D03*
D38*
X151450000Y-114200000D03*
X150950000Y-114200000D03*
X150450000Y-114200000D03*
X149950000Y-114200000D03*
X149450000Y-114200000D03*
X148950000Y-114200000D03*
X148450000Y-114200000D03*
X147950000Y-114200000D03*
X147450000Y-114200000D03*
X146950000Y-114200000D03*
D39*
X146250000Y-113500000D03*
X146250000Y-113000000D03*
X146250000Y-112500000D03*
X146250000Y-112000000D03*
X146250000Y-111500000D03*
X146250000Y-111000000D03*
X146250000Y-110500000D03*
X146250000Y-110000000D03*
X146250000Y-109500000D03*
X146250000Y-109000000D03*
D40*
X149200000Y-111250000D03*
%TD*%
D16*
%TO.C,C54*%
X137783550Y-93867500D03*
X137783550Y-92967500D03*
%TD*%
D17*
%TO.C,C46*%
X149469752Y-98720698D03*
X150369752Y-98720698D03*
%TD*%
D16*
%TO.C,C73*%
X142053255Y-99709679D03*
X142053255Y-98809679D03*
%TD*%
D29*
%TO.C,R8*%
X151035993Y-106582319D03*
X152535993Y-106582319D03*
%TD*%
D16*
%TO.C,C61*%
X148529914Y-93688761D03*
X148529914Y-92788761D03*
%TD*%
D17*
%TO.C,C60*%
X136503986Y-91018052D03*
X137403986Y-91018052D03*
%TD*%
D30*
%TO.C,C56*%
X146420000Y-91080000D03*
X146420000Y-89680000D03*
%TD*%
D25*
%TO.C,R39*%
X131965787Y-112364361D03*
X130915787Y-112364361D03*
%TD*%
%TO.C,R32*%
X143332036Y-104225905D03*
X143332036Y-103175905D03*
%TD*%
D41*
%TO.C,R7*%
X154894510Y-106677099D03*
X154894510Y-105653099D03*
%TD*%
D16*
%TO.C,C67*%
X149525928Y-93688761D03*
X149525928Y-92788761D03*
%TD*%
D17*
%TO.C,C51*%
X135507191Y-89029800D03*
X134607191Y-89029800D03*
%TD*%
D42*
%TO.C,D2*%
X122239619Y-100237992D03*
X122239619Y-103287992D03*
%TD*%
D25*
%TO.C,R24*%
X142284078Y-102115666D03*
X143334078Y-102115666D03*
%TD*%
D17*
%TO.C,C53*%
X134607191Y-88036922D03*
X135507191Y-88036922D03*
%TD*%
D16*
%TO.C,C72*%
X151881919Y-92788761D03*
X151881919Y-93688761D03*
%TD*%
D25*
%TO.C,R29*%
X140295875Y-105318118D03*
X140295875Y-106368118D03*
%TD*%
%TO.C,R37*%
X140236781Y-107450628D03*
X139186781Y-107450628D03*
%TD*%
D18*
%TO.C,R10*%
X148223848Y-115569003D03*
X148223848Y-116593003D03*
%TD*%
D21*
%TO.C,L6*%
X134671400Y-107890000D03*
X133630000Y-107890000D03*
%TD*%
D16*
%TO.C,C29*%
X122303305Y-95558349D03*
X122303305Y-94658349D03*
%TD*%
%TO.C,C85*%
X133378931Y-104547640D03*
X133378931Y-105447640D03*
%TD*%
D25*
%TO.C,R61*%
X157410850Y-96962797D03*
X157410850Y-95912797D03*
%TD*%
D17*
%TO.C,C89*%
X133944841Y-98856174D03*
X134844841Y-98856174D03*
%TD*%
D27*
%TO.C,Q4*%
X156365562Y-101069283D03*
X156715562Y-101069283D03*
D28*
X156540562Y-101644283D03*
%TD*%
D36*
%TO.C,L1*%
X155863788Y-111139995D03*
X154413788Y-111139995D03*
%TD*%
D17*
%TO.C,C21*%
X139296896Y-86252565D03*
X140196896Y-86252565D03*
%TD*%
%TO.C,C82*%
X132560831Y-89195719D03*
X131660831Y-89195719D03*
%TD*%
D30*
%TO.C,C91*%
X148236867Y-99608559D03*
X148236867Y-101008559D03*
%TD*%
D17*
%TO.C,C78*%
X145440000Y-96780000D03*
X144540000Y-96780000D03*
%TD*%
%TO.C,C88*%
X133934696Y-97851504D03*
X134834696Y-97851504D03*
%TD*%
%TO.C,C49*%
X150369752Y-100832500D03*
X149469752Y-100832500D03*
%TD*%
M02*
