%TF.GenerationSoftware,KiCad,Pcbnew,9.0.5*%
%TF.CreationDate,2025-11-20T16:18:21-05:00*%
%TF.ProjectId,sb-tpu,73622d74-7075-42e6-9b69-6361645f7063,rev?*%
%TF.SameCoordinates,Original*%
%TF.FileFunction,Legend,Top*%
%TF.FilePolarity,Positive*%
%FSLAX46Y46*%
G04 Gerber Fmt 4.6, Leading zero omitted, Abs format (unit mm)*
G04 Created by KiCad (PCBNEW 9.0.5) date 2025-11-20 16:18:21*
%MOMM*%
%LPD*%
G01*
G04 APERTURE LIST*
%ADD10C,0.153000*%
%ADD11C,0.100000*%
%ADD12C,0.050000*%
%ADD13C,0.150000*%
%ADD14C,0.200000*%
%ADD15C,0.025400*%
%ADD16C,0.033620*%
%ADD17C,0.273306*%
%ADD18C,0.152400*%
%ADD19C,0.127000*%
G04 APERTURE END LIST*
D10*
X144717823Y-80279663D02*
X145117823Y-80279663D01*
X144917823Y-81279663D02*
X144917823Y-80279663D01*
X145284490Y-80279663D02*
X145751156Y-81279663D01*
X145751156Y-80279663D02*
X145284490Y-81279663D01*
X131233990Y-85292044D02*
X131333990Y-85339663D01*
X131333990Y-85339663D02*
X131500657Y-85339663D01*
X131500657Y-85339663D02*
X131567323Y-85292044D01*
X131567323Y-85292044D02*
X131600657Y-85244424D01*
X131600657Y-85244424D02*
X131633990Y-85149186D01*
X131633990Y-85149186D02*
X131633990Y-85053948D01*
X131633990Y-85053948D02*
X131600657Y-84958710D01*
X131600657Y-84958710D02*
X131567323Y-84911091D01*
X131567323Y-84911091D02*
X131500657Y-84863472D01*
X131500657Y-84863472D02*
X131367323Y-84815853D01*
X131367323Y-84815853D02*
X131300657Y-84768234D01*
X131300657Y-84768234D02*
X131267323Y-84720615D01*
X131267323Y-84720615D02*
X131233990Y-84625377D01*
X131233990Y-84625377D02*
X131233990Y-84530139D01*
X131233990Y-84530139D02*
X131267323Y-84434901D01*
X131267323Y-84434901D02*
X131300657Y-84387282D01*
X131300657Y-84387282D02*
X131367323Y-84339663D01*
X131367323Y-84339663D02*
X131533990Y-84339663D01*
X131533990Y-84339663D02*
X131633990Y-84387282D01*
X131833990Y-84339663D02*
X132233990Y-84339663D01*
X132033990Y-85339663D02*
X132033990Y-84339663D01*
X132433990Y-85053948D02*
X132767323Y-85053948D01*
X132367323Y-85339663D02*
X132600657Y-84339663D01*
X132600657Y-84339663D02*
X132833990Y-85339663D01*
X133467323Y-85339663D02*
X133233990Y-84863472D01*
X133067323Y-85339663D02*
X133067323Y-84339663D01*
X133067323Y-84339663D02*
X133333990Y-84339663D01*
X133333990Y-84339663D02*
X133400657Y-84387282D01*
X133400657Y-84387282D02*
X133433990Y-84434901D01*
X133433990Y-84434901D02*
X133467323Y-84530139D01*
X133467323Y-84530139D02*
X133467323Y-84672996D01*
X133467323Y-84672996D02*
X133433990Y-84768234D01*
X133433990Y-84768234D02*
X133400657Y-84815853D01*
X133400657Y-84815853D02*
X133333990Y-84863472D01*
X133333990Y-84863472D02*
X133067323Y-84863472D01*
X134000657Y-84815853D02*
X134100657Y-84863472D01*
X134100657Y-84863472D02*
X134133990Y-84911091D01*
X134133990Y-84911091D02*
X134167323Y-85006329D01*
X134167323Y-85006329D02*
X134167323Y-85149186D01*
X134167323Y-85149186D02*
X134133990Y-85244424D01*
X134133990Y-85244424D02*
X134100657Y-85292044D01*
X134100657Y-85292044D02*
X134033990Y-85339663D01*
X134033990Y-85339663D02*
X133767323Y-85339663D01*
X133767323Y-85339663D02*
X133767323Y-84339663D01*
X133767323Y-84339663D02*
X134000657Y-84339663D01*
X134000657Y-84339663D02*
X134067323Y-84387282D01*
X134067323Y-84387282D02*
X134100657Y-84434901D01*
X134100657Y-84434901D02*
X134133990Y-84530139D01*
X134133990Y-84530139D02*
X134133990Y-84625377D01*
X134133990Y-84625377D02*
X134100657Y-84720615D01*
X134100657Y-84720615D02*
X134067323Y-84768234D01*
X134067323Y-84768234D02*
X134000657Y-84815853D01*
X134000657Y-84815853D02*
X133767323Y-84815853D01*
X134467323Y-84815853D02*
X134700657Y-84815853D01*
X134800657Y-85339663D02*
X134467323Y-85339663D01*
X134467323Y-85339663D02*
X134467323Y-84339663D01*
X134467323Y-84339663D02*
X134800657Y-84339663D01*
X135433990Y-85339663D02*
X135100656Y-85339663D01*
X135100656Y-85339663D02*
X135100656Y-84339663D01*
X135567323Y-84339663D02*
X135967323Y-84339663D01*
X135767323Y-85339663D02*
X135767323Y-84339663D01*
X147341156Y-81184424D02*
X147307823Y-81232044D01*
X147307823Y-81232044D02*
X147207823Y-81279663D01*
X147207823Y-81279663D02*
X147141156Y-81279663D01*
X147141156Y-81279663D02*
X147041156Y-81232044D01*
X147041156Y-81232044D02*
X146974490Y-81136805D01*
X146974490Y-81136805D02*
X146941156Y-81041567D01*
X146941156Y-81041567D02*
X146907823Y-80851091D01*
X146907823Y-80851091D02*
X146907823Y-80708234D01*
X146907823Y-80708234D02*
X146941156Y-80517758D01*
X146941156Y-80517758D02*
X146974490Y-80422520D01*
X146974490Y-80422520D02*
X147041156Y-80327282D01*
X147041156Y-80327282D02*
X147141156Y-80279663D01*
X147141156Y-80279663D02*
X147207823Y-80279663D01*
X147207823Y-80279663D02*
X147307823Y-80327282D01*
X147307823Y-80327282D02*
X147341156Y-80374901D01*
X147607823Y-81232044D02*
X147707823Y-81279663D01*
X147707823Y-81279663D02*
X147874490Y-81279663D01*
X147874490Y-81279663D02*
X147941156Y-81232044D01*
X147941156Y-81232044D02*
X147974490Y-81184424D01*
X147974490Y-81184424D02*
X148007823Y-81089186D01*
X148007823Y-81089186D02*
X148007823Y-80993948D01*
X148007823Y-80993948D02*
X147974490Y-80898710D01*
X147974490Y-80898710D02*
X147941156Y-80851091D01*
X147941156Y-80851091D02*
X147874490Y-80803472D01*
X147874490Y-80803472D02*
X147741156Y-80755853D01*
X147741156Y-80755853D02*
X147674490Y-80708234D01*
X147674490Y-80708234D02*
X147641156Y-80660615D01*
X147641156Y-80660615D02*
X147607823Y-80565377D01*
X147607823Y-80565377D02*
X147607823Y-80470139D01*
X147607823Y-80470139D02*
X147641156Y-80374901D01*
X147641156Y-80374901D02*
X147674490Y-80327282D01*
X147674490Y-80327282D02*
X147741156Y-80279663D01*
X147741156Y-80279663D02*
X147907823Y-80279663D01*
X147907823Y-80279663D02*
X148007823Y-80327282D01*
X148441157Y-80279663D02*
X148507823Y-80279663D01*
X148507823Y-80279663D02*
X148574490Y-80327282D01*
X148574490Y-80327282D02*
X148607823Y-80374901D01*
X148607823Y-80374901D02*
X148641157Y-80470139D01*
X148641157Y-80470139D02*
X148674490Y-80660615D01*
X148674490Y-80660615D02*
X148674490Y-80898710D01*
X148674490Y-80898710D02*
X148641157Y-81089186D01*
X148641157Y-81089186D02*
X148607823Y-81184424D01*
X148607823Y-81184424D02*
X148574490Y-81232044D01*
X148574490Y-81232044D02*
X148507823Y-81279663D01*
X148507823Y-81279663D02*
X148441157Y-81279663D01*
X148441157Y-81279663D02*
X148374490Y-81232044D01*
X148374490Y-81232044D02*
X148341157Y-81184424D01*
X148341157Y-81184424D02*
X148307823Y-81089186D01*
X148307823Y-81089186D02*
X148274490Y-80898710D01*
X148274490Y-80898710D02*
X148274490Y-80660615D01*
X148274490Y-80660615D02*
X148307823Y-80470139D01*
X148307823Y-80470139D02*
X148341157Y-80374901D01*
X148341157Y-80374901D02*
X148374490Y-80327282D01*
X148374490Y-80327282D02*
X148441157Y-80279663D01*
X157051157Y-81279663D02*
X157051157Y-80279663D01*
X157051157Y-80279663D02*
X157317824Y-80279663D01*
X157317824Y-80279663D02*
X157384491Y-80327282D01*
X157384491Y-80327282D02*
X157417824Y-80374901D01*
X157417824Y-80374901D02*
X157451157Y-80470139D01*
X157451157Y-80470139D02*
X157451157Y-80612996D01*
X157451157Y-80612996D02*
X157417824Y-80708234D01*
X157417824Y-80708234D02*
X157384491Y-80755853D01*
X157384491Y-80755853D02*
X157317824Y-80803472D01*
X157317824Y-80803472D02*
X157051157Y-80803472D01*
X157884491Y-80279663D02*
X158017824Y-80279663D01*
X158017824Y-80279663D02*
X158084491Y-80327282D01*
X158084491Y-80327282D02*
X158151157Y-80422520D01*
X158151157Y-80422520D02*
X158184491Y-80612996D01*
X158184491Y-80612996D02*
X158184491Y-80946329D01*
X158184491Y-80946329D02*
X158151157Y-81136805D01*
X158151157Y-81136805D02*
X158084491Y-81232044D01*
X158084491Y-81232044D02*
X158017824Y-81279663D01*
X158017824Y-81279663D02*
X157884491Y-81279663D01*
X157884491Y-81279663D02*
X157817824Y-81232044D01*
X157817824Y-81232044D02*
X157751157Y-81136805D01*
X157751157Y-81136805D02*
X157717824Y-80946329D01*
X157717824Y-80946329D02*
X157717824Y-80612996D01*
X157717824Y-80612996D02*
X157751157Y-80422520D01*
X157751157Y-80422520D02*
X157817824Y-80327282D01*
X157817824Y-80327282D02*
X157884491Y-80279663D01*
X158884490Y-81279663D02*
X158651157Y-80803472D01*
X158484490Y-81279663D02*
X158484490Y-80279663D01*
X158484490Y-80279663D02*
X158751157Y-80279663D01*
X158751157Y-80279663D02*
X158817824Y-80327282D01*
X158817824Y-80327282D02*
X158851157Y-80374901D01*
X158851157Y-80374901D02*
X158884490Y-80470139D01*
X158884490Y-80470139D02*
X158884490Y-80612996D01*
X158884490Y-80612996D02*
X158851157Y-80708234D01*
X158851157Y-80708234D02*
X158817824Y-80755853D01*
X158817824Y-80755853D02*
X158751157Y-80803472D01*
X158751157Y-80803472D02*
X158484490Y-80803472D01*
X161719663Y-93555894D02*
X161719663Y-93122560D01*
X161719663Y-93122560D02*
X162100615Y-93355894D01*
X162100615Y-93355894D02*
X162100615Y-93255894D01*
X162100615Y-93255894D02*
X162148234Y-93189227D01*
X162148234Y-93189227D02*
X162195853Y-93155894D01*
X162195853Y-93155894D02*
X162291091Y-93122560D01*
X162291091Y-93122560D02*
X162529186Y-93122560D01*
X162529186Y-93122560D02*
X162624424Y-93155894D01*
X162624424Y-93155894D02*
X162672044Y-93189227D01*
X162672044Y-93189227D02*
X162719663Y-93255894D01*
X162719663Y-93255894D02*
X162719663Y-93455894D01*
X162719663Y-93455894D02*
X162672044Y-93522560D01*
X162672044Y-93522560D02*
X162624424Y-93555894D01*
X161719663Y-92922560D02*
X162719663Y-92689227D01*
X162719663Y-92689227D02*
X161719663Y-92455893D01*
X161719663Y-92289227D02*
X161719663Y-91855893D01*
X161719663Y-91855893D02*
X162100615Y-92089227D01*
X162100615Y-92089227D02*
X162100615Y-91989227D01*
X162100615Y-91989227D02*
X162148234Y-91922560D01*
X162148234Y-91922560D02*
X162195853Y-91889227D01*
X162195853Y-91889227D02*
X162291091Y-91855893D01*
X162291091Y-91855893D02*
X162529186Y-91855893D01*
X162529186Y-91855893D02*
X162624424Y-91889227D01*
X162624424Y-91889227D02*
X162672044Y-91922560D01*
X162672044Y-91922560D02*
X162719663Y-91989227D01*
X162719663Y-91989227D02*
X162719663Y-92189227D01*
X162719663Y-92189227D02*
X162672044Y-92255893D01*
X162672044Y-92255893D02*
X162624424Y-92289227D01*
X161767282Y-90682560D02*
X161719663Y-90749227D01*
X161719663Y-90749227D02*
X161719663Y-90849227D01*
X161719663Y-90849227D02*
X161767282Y-90949227D01*
X161767282Y-90949227D02*
X161862520Y-91015894D01*
X161862520Y-91015894D02*
X161957758Y-91049227D01*
X161957758Y-91049227D02*
X162148234Y-91082560D01*
X162148234Y-91082560D02*
X162291091Y-91082560D01*
X162291091Y-91082560D02*
X162481567Y-91049227D01*
X162481567Y-91049227D02*
X162576805Y-91015894D01*
X162576805Y-91015894D02*
X162672044Y-90949227D01*
X162672044Y-90949227D02*
X162719663Y-90849227D01*
X162719663Y-90849227D02*
X162719663Y-90782560D01*
X162719663Y-90782560D02*
X162672044Y-90682560D01*
X162672044Y-90682560D02*
X162624424Y-90649227D01*
X162624424Y-90649227D02*
X162291091Y-90649227D01*
X162291091Y-90649227D02*
X162291091Y-90782560D01*
X162719663Y-90349227D02*
X161719663Y-90349227D01*
X161719663Y-90349227D02*
X162719663Y-89949227D01*
X162719663Y-89949227D02*
X161719663Y-89949227D01*
X162719663Y-89615894D02*
X161719663Y-89615894D01*
X161719663Y-89615894D02*
X161719663Y-89449227D01*
X161719663Y-89449227D02*
X161767282Y-89349227D01*
X161767282Y-89349227D02*
X161862520Y-89282561D01*
X161862520Y-89282561D02*
X161957758Y-89249227D01*
X161957758Y-89249227D02*
X162148234Y-89215894D01*
X162148234Y-89215894D02*
X162291091Y-89215894D01*
X162291091Y-89215894D02*
X162481567Y-89249227D01*
X162481567Y-89249227D02*
X162576805Y-89282561D01*
X162576805Y-89282561D02*
X162672044Y-89349227D01*
X162672044Y-89349227D02*
X162719663Y-89449227D01*
X162719663Y-89449227D02*
X162719663Y-89615894D01*
X154694490Y-81232044D02*
X154794490Y-81279663D01*
X154794490Y-81279663D02*
X154961157Y-81279663D01*
X154961157Y-81279663D02*
X155027823Y-81232044D01*
X155027823Y-81232044D02*
X155061157Y-81184424D01*
X155061157Y-81184424D02*
X155094490Y-81089186D01*
X155094490Y-81089186D02*
X155094490Y-80993948D01*
X155094490Y-80993948D02*
X155061157Y-80898710D01*
X155061157Y-80898710D02*
X155027823Y-80851091D01*
X155027823Y-80851091D02*
X154961157Y-80803472D01*
X154961157Y-80803472D02*
X154827823Y-80755853D01*
X154827823Y-80755853D02*
X154761157Y-80708234D01*
X154761157Y-80708234D02*
X154727823Y-80660615D01*
X154727823Y-80660615D02*
X154694490Y-80565377D01*
X154694490Y-80565377D02*
X154694490Y-80470139D01*
X154694490Y-80470139D02*
X154727823Y-80374901D01*
X154727823Y-80374901D02*
X154761157Y-80327282D01*
X154761157Y-80327282D02*
X154827823Y-80279663D01*
X154827823Y-80279663D02*
X154994490Y-80279663D01*
X154994490Y-80279663D02*
X155094490Y-80327282D01*
X155394490Y-81279663D02*
X155394490Y-80279663D01*
X155394490Y-80279663D02*
X155561157Y-80279663D01*
X155561157Y-80279663D02*
X155661157Y-80327282D01*
X155661157Y-80327282D02*
X155727824Y-80422520D01*
X155727824Y-80422520D02*
X155761157Y-80517758D01*
X155761157Y-80517758D02*
X155794490Y-80708234D01*
X155794490Y-80708234D02*
X155794490Y-80851091D01*
X155794490Y-80851091D02*
X155761157Y-81041567D01*
X155761157Y-81041567D02*
X155727824Y-81136805D01*
X155727824Y-81136805D02*
X155661157Y-81232044D01*
X155661157Y-81232044D02*
X155561157Y-81279663D01*
X155561157Y-81279663D02*
X155394490Y-81279663D01*
X156094490Y-81279663D02*
X156094490Y-80279663D01*
X136565657Y-84339663D02*
X136965657Y-84339663D01*
X136765657Y-85339663D02*
X136765657Y-84339663D01*
X137198990Y-85339663D02*
X137198990Y-84339663D01*
X137198990Y-84339663D02*
X137465657Y-84339663D01*
X137465657Y-84339663D02*
X137532324Y-84387282D01*
X137532324Y-84387282D02*
X137565657Y-84434901D01*
X137565657Y-84434901D02*
X137598990Y-84530139D01*
X137598990Y-84530139D02*
X137598990Y-84672996D01*
X137598990Y-84672996D02*
X137565657Y-84768234D01*
X137565657Y-84768234D02*
X137532324Y-84815853D01*
X137532324Y-84815853D02*
X137465657Y-84863472D01*
X137465657Y-84863472D02*
X137198990Y-84863472D01*
X137898990Y-84339663D02*
X137898990Y-85149186D01*
X137898990Y-85149186D02*
X137932324Y-85244424D01*
X137932324Y-85244424D02*
X137965657Y-85292044D01*
X137965657Y-85292044D02*
X138032324Y-85339663D01*
X138032324Y-85339663D02*
X138165657Y-85339663D01*
X138165657Y-85339663D02*
X138232324Y-85292044D01*
X138232324Y-85292044D02*
X138265657Y-85244424D01*
X138265657Y-85244424D02*
X138298990Y-85149186D01*
X138298990Y-85149186D02*
X138298990Y-84339663D01*
X149431157Y-81232044D02*
X149531157Y-81279663D01*
X149531157Y-81279663D02*
X149697824Y-81279663D01*
X149697824Y-81279663D02*
X149764490Y-81232044D01*
X149764490Y-81232044D02*
X149797824Y-81184424D01*
X149797824Y-81184424D02*
X149831157Y-81089186D01*
X149831157Y-81089186D02*
X149831157Y-80993948D01*
X149831157Y-80993948D02*
X149797824Y-80898710D01*
X149797824Y-80898710D02*
X149764490Y-80851091D01*
X149764490Y-80851091D02*
X149697824Y-80803472D01*
X149697824Y-80803472D02*
X149564490Y-80755853D01*
X149564490Y-80755853D02*
X149497824Y-80708234D01*
X149497824Y-80708234D02*
X149464490Y-80660615D01*
X149464490Y-80660615D02*
X149431157Y-80565377D01*
X149431157Y-80565377D02*
X149431157Y-80470139D01*
X149431157Y-80470139D02*
X149464490Y-80374901D01*
X149464490Y-80374901D02*
X149497824Y-80327282D01*
X149497824Y-80327282D02*
X149564490Y-80279663D01*
X149564490Y-80279663D02*
X149731157Y-80279663D01*
X149731157Y-80279663D02*
X149831157Y-80327282D01*
X150531157Y-81184424D02*
X150497824Y-81232044D01*
X150497824Y-81232044D02*
X150397824Y-81279663D01*
X150397824Y-81279663D02*
X150331157Y-81279663D01*
X150331157Y-81279663D02*
X150231157Y-81232044D01*
X150231157Y-81232044D02*
X150164491Y-81136805D01*
X150164491Y-81136805D02*
X150131157Y-81041567D01*
X150131157Y-81041567D02*
X150097824Y-80851091D01*
X150097824Y-80851091D02*
X150097824Y-80708234D01*
X150097824Y-80708234D02*
X150131157Y-80517758D01*
X150131157Y-80517758D02*
X150164491Y-80422520D01*
X150164491Y-80422520D02*
X150231157Y-80327282D01*
X150231157Y-80327282D02*
X150331157Y-80279663D01*
X150331157Y-80279663D02*
X150397824Y-80279663D01*
X150397824Y-80279663D02*
X150497824Y-80327282D01*
X150497824Y-80327282D02*
X150531157Y-80374901D01*
X150831157Y-81279663D02*
X150831157Y-80279663D01*
X151231157Y-81279663D02*
X150931157Y-80708234D01*
X151231157Y-80279663D02*
X150831157Y-80851091D01*
X142594490Y-81279663D02*
X142361157Y-80803472D01*
X142194490Y-81279663D02*
X142194490Y-80279663D01*
X142194490Y-80279663D02*
X142461157Y-80279663D01*
X142461157Y-80279663D02*
X142527824Y-80327282D01*
X142527824Y-80327282D02*
X142561157Y-80374901D01*
X142561157Y-80374901D02*
X142594490Y-80470139D01*
X142594490Y-80470139D02*
X142594490Y-80612996D01*
X142594490Y-80612996D02*
X142561157Y-80708234D01*
X142561157Y-80708234D02*
X142527824Y-80755853D01*
X142527824Y-80755853D02*
X142461157Y-80803472D01*
X142461157Y-80803472D02*
X142194490Y-80803472D01*
X142827824Y-80279663D02*
X143294490Y-81279663D01*
X143294490Y-80279663D02*
X142827824Y-81279663D01*
X139230657Y-84339663D02*
X139297323Y-84339663D01*
X139297323Y-84339663D02*
X139363990Y-84387282D01*
X139363990Y-84387282D02*
X139397323Y-84434901D01*
X139397323Y-84434901D02*
X139430657Y-84530139D01*
X139430657Y-84530139D02*
X139463990Y-84720615D01*
X139463990Y-84720615D02*
X139463990Y-84958710D01*
X139463990Y-84958710D02*
X139430657Y-85149186D01*
X139430657Y-85149186D02*
X139397323Y-85244424D01*
X139397323Y-85244424D02*
X139363990Y-85292044D01*
X139363990Y-85292044D02*
X139297323Y-85339663D01*
X139297323Y-85339663D02*
X139230657Y-85339663D01*
X139230657Y-85339663D02*
X139163990Y-85292044D01*
X139163990Y-85292044D02*
X139130657Y-85244424D01*
X139130657Y-85244424D02*
X139097323Y-85149186D01*
X139097323Y-85149186D02*
X139063990Y-84958710D01*
X139063990Y-84958710D02*
X139063990Y-84720615D01*
X139063990Y-84720615D02*
X139097323Y-84530139D01*
X139097323Y-84530139D02*
X139130657Y-84434901D01*
X139130657Y-84434901D02*
X139163990Y-84387282D01*
X139163990Y-84387282D02*
X139230657Y-84339663D01*
X139763990Y-85244424D02*
X139797324Y-85292044D01*
X139797324Y-85292044D02*
X139763990Y-85339663D01*
X139763990Y-85339663D02*
X139730657Y-85292044D01*
X139730657Y-85292044D02*
X139763990Y-85244424D01*
X139763990Y-85244424D02*
X139763990Y-85339663D01*
X140463990Y-85339663D02*
X140063990Y-85339663D01*
X140263990Y-85339663D02*
X140263990Y-84339663D01*
X140263990Y-84339663D02*
X140197323Y-84482520D01*
X140197323Y-84482520D02*
X140130657Y-84577758D01*
X140130657Y-84577758D02*
X140063990Y-84625377D01*
X140763990Y-85244424D02*
X140797324Y-85292044D01*
X140797324Y-85292044D02*
X140763990Y-85339663D01*
X140763990Y-85339663D02*
X140730657Y-85292044D01*
X140730657Y-85292044D02*
X140763990Y-85244424D01*
X140763990Y-85244424D02*
X140763990Y-85339663D01*
X141230657Y-84339663D02*
X141297323Y-84339663D01*
X141297323Y-84339663D02*
X141363990Y-84387282D01*
X141363990Y-84387282D02*
X141397323Y-84434901D01*
X141397323Y-84434901D02*
X141430657Y-84530139D01*
X141430657Y-84530139D02*
X141463990Y-84720615D01*
X141463990Y-84720615D02*
X141463990Y-84958710D01*
X141463990Y-84958710D02*
X141430657Y-85149186D01*
X141430657Y-85149186D02*
X141397323Y-85244424D01*
X141397323Y-85244424D02*
X141363990Y-85292044D01*
X141363990Y-85292044D02*
X141297323Y-85339663D01*
X141297323Y-85339663D02*
X141230657Y-85339663D01*
X141230657Y-85339663D02*
X141163990Y-85292044D01*
X141163990Y-85292044D02*
X141130657Y-85244424D01*
X141130657Y-85244424D02*
X141097323Y-85149186D01*
X141097323Y-85149186D02*
X141063990Y-84958710D01*
X141063990Y-84958710D02*
X141063990Y-84720615D01*
X141063990Y-84720615D02*
X141097323Y-84530139D01*
X141097323Y-84530139D02*
X141130657Y-84434901D01*
X141130657Y-84434901D02*
X141163990Y-84387282D01*
X141163990Y-84387282D02*
X141230657Y-84339663D01*
X151954490Y-81232044D02*
X152054490Y-81279663D01*
X152054490Y-81279663D02*
X152221157Y-81279663D01*
X152221157Y-81279663D02*
X152287823Y-81232044D01*
X152287823Y-81232044D02*
X152321157Y-81184424D01*
X152321157Y-81184424D02*
X152354490Y-81089186D01*
X152354490Y-81089186D02*
X152354490Y-80993948D01*
X152354490Y-80993948D02*
X152321157Y-80898710D01*
X152321157Y-80898710D02*
X152287823Y-80851091D01*
X152287823Y-80851091D02*
X152221157Y-80803472D01*
X152221157Y-80803472D02*
X152087823Y-80755853D01*
X152087823Y-80755853D02*
X152021157Y-80708234D01*
X152021157Y-80708234D02*
X151987823Y-80660615D01*
X151987823Y-80660615D02*
X151954490Y-80565377D01*
X151954490Y-80565377D02*
X151954490Y-80470139D01*
X151954490Y-80470139D02*
X151987823Y-80374901D01*
X151987823Y-80374901D02*
X152021157Y-80327282D01*
X152021157Y-80327282D02*
X152087823Y-80279663D01*
X152087823Y-80279663D02*
X152254490Y-80279663D01*
X152254490Y-80279663D02*
X152354490Y-80327282D01*
X152654490Y-81279663D02*
X152654490Y-80279663D01*
X152654490Y-80279663D02*
X152821157Y-80279663D01*
X152821157Y-80279663D02*
X152921157Y-80327282D01*
X152921157Y-80327282D02*
X152987824Y-80422520D01*
X152987824Y-80422520D02*
X153021157Y-80517758D01*
X153021157Y-80517758D02*
X153054490Y-80708234D01*
X153054490Y-80708234D02*
X153054490Y-80851091D01*
X153054490Y-80851091D02*
X153021157Y-81041567D01*
X153021157Y-81041567D02*
X152987824Y-81136805D01*
X152987824Y-81136805D02*
X152921157Y-81232044D01*
X152921157Y-81232044D02*
X152821157Y-81279663D01*
X152821157Y-81279663D02*
X152654490Y-81279663D01*
X153487824Y-80279663D02*
X153621157Y-80279663D01*
X153621157Y-80279663D02*
X153687824Y-80327282D01*
X153687824Y-80327282D02*
X153754490Y-80422520D01*
X153754490Y-80422520D02*
X153787824Y-80612996D01*
X153787824Y-80612996D02*
X153787824Y-80946329D01*
X153787824Y-80946329D02*
X153754490Y-81136805D01*
X153754490Y-81136805D02*
X153687824Y-81232044D01*
X153687824Y-81232044D02*
X153621157Y-81279663D01*
X153621157Y-81279663D02*
X153487824Y-81279663D01*
X153487824Y-81279663D02*
X153421157Y-81232044D01*
X153421157Y-81232044D02*
X153354490Y-81136805D01*
X153354490Y-81136805D02*
X153321157Y-80946329D01*
X153321157Y-80946329D02*
X153321157Y-80612996D01*
X153321157Y-80612996D02*
X153354490Y-80422520D01*
X153354490Y-80422520D02*
X153421157Y-80327282D01*
X153421157Y-80327282D02*
X153487824Y-80279663D01*
D11*
%TO.C,IC7*%
X131837000Y-100288500D02*
X131887000Y-100288500D01*
X131787000Y-100288500D02*
X131837000Y-100288500D01*
D12*
X131137000Y-100513500D02*
X131137000Y-100513500D01*
X131087000Y-100513500D02*
X131087000Y-100513500D01*
D11*
X131837000Y-101738500D02*
X131887000Y-101738500D01*
X131787000Y-101738500D02*
X131837000Y-101738500D01*
D12*
X131137000Y-100513500D02*
G75*
G02*
X131087000Y-100513500I-25000J0D01*
G01*
X131087000Y-100513500D02*
G75*
G02*
X131137000Y-100513500I25000J0D01*
G01*
D13*
%TO.C,U2*%
X126022139Y-90426558D02*
G75*
G02*
X125872139Y-90426558I-75000J0D01*
G01*
X125872139Y-90426558D02*
G75*
G02*
X126022139Y-90426558I75000J0D01*
G01*
D14*
%TO.C,U3*%
X133978764Y-92042874D02*
X147978764Y-92042874D01*
X133978764Y-106042874D02*
X133978764Y-92042874D01*
X147378764Y-106042874D02*
X133978764Y-106042874D01*
X147978764Y-92042874D02*
X147978764Y-105442874D01*
X147978764Y-105442874D02*
X147378764Y-106042874D01*
X148078764Y-106042874D02*
G75*
G02*
X147878764Y-106042874I-100000J0D01*
G01*
X147878764Y-106042874D02*
G75*
G02*
X148078764Y-106042874I100000J0D01*
G01*
D15*
%TO.C,U6*%
X149298281Y-102767847D02*
X149044281Y-102767847D01*
X153298781Y-98767347D02*
X153298781Y-98513347D01*
X153298781Y-106768347D02*
X153298781Y-107022347D01*
X157299281Y-102767847D02*
X157553281Y-102767847D01*
D11*
%TO.C,D4*%
X153638872Y-92658607D02*
X153638872Y-92658607D01*
X153738872Y-92658607D02*
X153738872Y-92658607D01*
X153638872Y-92658607D02*
G75*
G02*
X153738872Y-92658607I50000J0D01*
G01*
X153738872Y-92658607D02*
G75*
G02*
X153638872Y-92658607I-50000J0D01*
G01*
D16*
%TO.C,IC5*%
X152386000Y-97225000D02*
X152386000Y-97225000D01*
X152386000Y-97259000D02*
X152386000Y-97259000D01*
X152386000Y-97225000D02*
G75*
G02*
X152386000Y-97259000I0J-17000D01*
G01*
X152386000Y-97259000D02*
G75*
G02*
X152386000Y-97225000I0J17000D01*
G01*
D14*
%TO.C,L3*%
X146130000Y-88095294D02*
X150130000Y-88095294D01*
X150130000Y-84095294D02*
X146130000Y-84095294D01*
%TO.C,SW2*%
D17*
X159122572Y-98773548D02*
G75*
G02*
X158849266Y-98773548I-136653J0D01*
G01*
X158849266Y-98773548D02*
G75*
G02*
X159122572Y-98773548I136653J0D01*
G01*
D14*
%TO.C,IC2*%
X136108573Y-108639330D02*
X136108573Y-108639330D01*
X136108573Y-108639330D02*
X136108573Y-108639330D01*
X136208573Y-108639330D02*
X136208573Y-108639330D01*
X136108573Y-108639330D02*
G75*
G02*
X136208573Y-108639330I50000J0D01*
G01*
X136208573Y-108639330D02*
G75*
G02*
X136108573Y-108639330I-50000J0D01*
G01*
X136208573Y-108639330D02*
G75*
G02*
X136108573Y-108639330I-50000J0D01*
G01*
D18*
%TO.C,U5*%
X130774413Y-114636866D02*
X131288160Y-114636866D01*
X131288160Y-113138266D02*
X130774413Y-113138266D01*
X132165666Y-114636866D02*
X132679413Y-114636866D01*
X132679413Y-113138266D02*
X132165666Y-113138266D01*
X133509739Y-114137629D02*
G75*
G02*
X133306539Y-114137629I-101600J0D01*
G01*
X133306539Y-114137629D02*
G75*
G02*
X133509739Y-114137629I101600J0D01*
G01*
D14*
%TO.C,IC3*%
X130837073Y-115501398D02*
X132087073Y-115501398D01*
X132437073Y-115501398D02*
X132987073Y-115501398D01*
X132437073Y-118501398D02*
X132437073Y-115501398D01*
X132987073Y-115501398D02*
X132987073Y-118501398D01*
X132987073Y-118501398D02*
X132437073Y-118501398D01*
%TO.C,R9*%
X159693860Y-101774644D02*
X159693860Y-101124644D01*
D19*
%TO.C,J9*%
X120262500Y-97310750D02*
X120682500Y-97310750D01*
X120262500Y-106250750D02*
X120262500Y-97310750D01*
X120682500Y-106250750D02*
X120262500Y-106250750D01*
X124507500Y-97310750D02*
X123742500Y-97310750D01*
X124507500Y-106250750D02*
X123742500Y-106250750D01*
D14*
X127912500Y-98680750D02*
G75*
G02*
X127712500Y-98680750I-100000J0D01*
G01*
X127712500Y-98680750D02*
G75*
G02*
X127912500Y-98680750I100000J0D01*
G01*
D11*
%TO.C,D1*%
X157926423Y-90341440D02*
X157926423Y-90341440D01*
X157926423Y-90441440D02*
X157926423Y-90441440D01*
X157926423Y-90341440D02*
G75*
G02*
X157926423Y-90441440I0J-50000D01*
G01*
X157926423Y-90441440D02*
G75*
G02*
X157926423Y-90341440I0J50000D01*
G01*
%TO.C,Y1*%
X133786104Y-89129352D02*
X133786104Y-89129352D01*
X133786104Y-89229352D02*
X133786104Y-89229352D01*
X135586104Y-88379352D02*
X136386104Y-88379352D01*
X135586104Y-89879352D02*
X136386104Y-89879352D01*
X133786104Y-89129352D02*
G75*
G02*
X133786104Y-89229352I0J-50000D01*
G01*
X133786104Y-89229352D02*
G75*
G02*
X133786104Y-89129352I0J50000D01*
G01*
%TO.C,IC8*%
X129434037Y-97540839D02*
X129434037Y-97540839D01*
X129534037Y-97540839D02*
X129534037Y-97540839D01*
X129434037Y-97540839D02*
G75*
G02*
X129534037Y-97540839I50000J0D01*
G01*
X129534037Y-97540839D02*
G75*
G02*
X129434037Y-97540839I-50000J0D01*
G01*
D14*
%TO.C,LED1*%
X130748567Y-108930988D02*
X130748567Y-108930988D01*
X130748567Y-108930988D02*
X130748567Y-108930988D01*
X130748567Y-109030988D02*
X130748567Y-109030988D01*
X130748567Y-108930988D02*
G75*
G02*
X130748567Y-109030988I0J-50000D01*
G01*
X130748567Y-109030988D02*
G75*
G02*
X130748567Y-108930988I0J50000D01*
G01*
X130748567Y-109030988D02*
G75*
G02*
X130748567Y-108930988I0J50000D01*
G01*
D11*
%TO.C,D3*%
X128804882Y-91148575D02*
X128804882Y-91148575D01*
X128904882Y-91148575D02*
X128904882Y-91148575D01*
X128804882Y-91148575D02*
G75*
G02*
X128904882Y-91148575I50000J0D01*
G01*
X128904882Y-91148575D02*
G75*
G02*
X128804882Y-91148575I-50000J0D01*
G01*
%TO.C,SW1*%
D17*
X159122572Y-106273548D02*
G75*
G02*
X158849266Y-106273548I-136653J0D01*
G01*
X158849266Y-106273548D02*
G75*
G02*
X159122572Y-106273548I136653J0D01*
G01*
D11*
%TO.C,Q1*%
X133429743Y-111067682D02*
X133429743Y-111067682D01*
X133429743Y-111167682D02*
X133429743Y-111167682D01*
X133429743Y-111067682D02*
G75*
G02*
X133429743Y-111167682I0J-50000D01*
G01*
X133429743Y-111167682D02*
G75*
G02*
X133429743Y-111067682I0J50000D01*
G01*
D14*
%TO.C,R5*%
X130438531Y-94306480D02*
X130438531Y-94956480D01*
%TO.C,Y2*%
X129453627Y-91499001D02*
G75*
G02*
X129253627Y-91499001I-100000J0D01*
G01*
X129253627Y-91499001D02*
G75*
G02*
X129453627Y-91499001I100000J0D01*
G01*
D11*
%TO.C,Q2*%
X156718013Y-97061753D02*
X156718013Y-97061753D01*
X156718013Y-97161753D02*
X156718013Y-97161753D01*
X156718013Y-97061753D02*
G75*
G02*
X156718013Y-97161753I0J-50000D01*
G01*
X156718013Y-97161753D02*
G75*
G02*
X156718013Y-97061753I0J50000D01*
G01*
D19*
%TO.C,FL1*%
X130047500Y-102300000D02*
X132047500Y-102300000D01*
X132047500Y-104140000D02*
X130047500Y-104140000D01*
D14*
X129297500Y-103640000D02*
G75*
G02*
X129097500Y-103640000I-100000J0D01*
G01*
X129097500Y-103640000D02*
G75*
G02*
X129297500Y-103640000I100000J0D01*
G01*
D18*
%TO.C,U1*%
X149416391Y-91302674D02*
X149416391Y-91505874D01*
X149416391Y-94452274D02*
X149416391Y-94655474D01*
X149416391Y-94655474D02*
X152769191Y-94655474D01*
X152769191Y-91302674D02*
X149416391Y-91302674D01*
X152769191Y-91505874D02*
X152769191Y-91302674D01*
X152769191Y-94655474D02*
X152769191Y-94452274D01*
%TD*%
M02*
