%TF.GenerationSoftware,KiCad,Pcbnew,9.0.4*%
%TF.CreationDate,2025-12-30T15:29:57-05:00*%
%TF.ProjectId,sb-tpu,73622d74-7075-42e6-9b69-6361645f7063,rev?*%
%TF.SameCoordinates,Original*%
%TF.FileFunction,Copper,L4,Inr*%
%TF.FilePolarity,Positive*%
%FSLAX46Y46*%
G04 Gerber Fmt 4.6, Leading zero omitted, Abs format (unit mm)*
G04 Created by KiCad (PCBNEW 9.0.4) date 2025-12-30 15:29:57*
%MOMM*%
%LPD*%
G01*
G04 APERTURE LIST*
%TA.AperFunction,ViaPad*%
%ADD10C,0.250000*%
%TD*%
%TA.AperFunction,Conductor*%
%ADD11C,0.150000*%
%TD*%
%TA.AperFunction,Conductor*%
%ADD12C,0.200000*%
%TD*%
%TA.AperFunction,Conductor*%
%ADD13C,0.120000*%
%TD*%
G04 APERTURE END LIST*
D10*
%TO.N,DCDC_1V8_OUT*%
X143407351Y-106401825D03*
X141250000Y-108060000D03*
%TO.N,VDD_3V3*%
X135850000Y-94690000D03*
X148143479Y-96642876D03*
%TO.N,VDD_1V8*%
X137046433Y-103126433D03*
X137447979Y-101013782D03*
X137050000Y-108690000D03*
X144900000Y-116808784D03*
X139890000Y-114690000D03*
X130231432Y-100371172D03*
X136023534Y-112715000D03*
X141270000Y-102650000D03*
%TO.N,MCM_3V3*%
X135355764Y-103321662D03*
X135310000Y-118000000D03*
X132440000Y-106440000D03*
%TO.N,Net-(U6A-VDD_SNVS_IN)*%
X138600000Y-91780000D03*
X154327843Y-92482157D03*
X127490000Y-91340000D03*
%TO.N,VDD_SNVS_ANA*%
X139378764Y-92642874D03*
X157830627Y-100220000D03*
%TO.N,USER_BUTTON*%
X140170000Y-94250000D03*
X155708619Y-98463503D03*
%TO.N,BOOT_MODE1*%
X142578764Y-93442874D03*
X156489172Y-94745642D03*
%TO.N,I2C5_SDA*%
X142280241Y-95710002D03*
X153170000Y-96350000D03*
%TO.N,POR_B*%
X140180000Y-93450000D03*
X157985000Y-107340000D03*
X160631000Y-98320000D03*
%TO.N,I2C5_SCL*%
X150670000Y-95400000D03*
X141390763Y-95368403D03*
%TO.N,MCM_SD_ALARM*%
X145393048Y-97925298D03*
X141874266Y-107665553D03*
%TO.N,TPU_RST_L*%
X144569473Y-97766862D03*
X144776286Y-108807044D03*
%TO.N,I2C5_SDA_MCM*%
X152425438Y-115213513D03*
X152523338Y-96774306D03*
%TO.N,TPU_BOOT_FAIL*%
X145415000Y-98699316D03*
X141533446Y-107146034D03*
%TO.N,I2C5_SCL_MCM*%
X149664801Y-95743319D03*
X152555000Y-114685000D03*
%TO.N,Net-(U6L-VDD_USB_3V3)*%
X138578764Y-100735000D03*
X133010000Y-107310000D03*
%TO.N,Net-(U6L-VDD_USB_1P8)*%
X138578763Y-99842875D03*
X134050622Y-100843177D03*
%TO.N,Net-(U6K-VDD_MIPI_1P8)*%
X137040000Y-107100000D03*
X140978764Y-101442872D03*
%TO.N,BRD_STAT_LED*%
X155894691Y-102490000D03*
X141001764Y-97578222D03*
%TO.N,USER_LED*%
X140178764Y-96642874D03*
X157540000Y-101210000D03*
%TO.N,FLEXPWM1_PWM1_A*%
X131835521Y-109364479D03*
X137360000Y-94640000D03*
%TO.N,TPU_POW_EN*%
X146567612Y-97344936D03*
X130890787Y-112364361D03*
%TO.N,BOOT_MODE0*%
X143200830Y-94813242D03*
X155617190Y-96092336D03*
%TO.N,SEMC_D5*%
X145119606Y-101423659D03*
X154098781Y-105967847D03*
%TO.N,SEMC_D3*%
X152730000Y-102490000D03*
X146312730Y-102637900D03*
%TO.N,SEMC_D6*%
X144587576Y-101097245D03*
X154098781Y-105167847D03*
%TO.N,SEMC_DM0*%
X144349606Y-101504315D03*
X153298781Y-105167845D03*
%TO.N,SEMC_D13*%
X153080521Y-101990521D03*
X147720000Y-101677491D03*
%TO.N,SEMC_DM1*%
X152498781Y-99775000D03*
X147378764Y-99042876D03*
%TO.N,SEMC_D10*%
X147327061Y-103045874D03*
X154083323Y-99857247D03*
%TO.N,SEMC_D11*%
X154825630Y-100411734D03*
X146578766Y-102242873D03*
%TO.N,SEMC_D9*%
X152693368Y-103464908D03*
X146451000Y-103253005D03*
%TO.N,SEMC_A4*%
X150050295Y-101599909D03*
X144121764Y-103144455D03*
%TO.N,SEMC_A1*%
X150898781Y-105167847D03*
X146664639Y-105444000D03*
%TD*%
D11*
%TO.N,DCDC_1V8_OUT*%
X142045505Y-108060000D02*
X142274266Y-107831239D01*
X143407351Y-106412649D02*
X143407351Y-106401825D01*
X142274266Y-107831239D02*
X142274266Y-107545734D01*
X141250000Y-108060000D02*
X142045505Y-108060000D01*
X142274266Y-107545734D02*
X143407351Y-106412649D01*
D12*
%TO.N,VDD_3V3*%
X147803335Y-96417874D02*
X147541074Y-96417873D01*
X148143479Y-96642876D02*
X148028338Y-96642876D01*
X147541074Y-96417873D02*
X147487651Y-96364450D01*
X143434759Y-96853222D02*
X141073222Y-96853222D01*
X145118306Y-96441862D02*
X143846119Y-96441862D01*
X136700000Y-95540000D02*
X135850000Y-94690000D01*
X148028338Y-96642876D02*
X147803335Y-96417874D01*
X141073222Y-96853222D02*
X139760000Y-95540000D01*
X147487651Y-96364450D02*
X145195718Y-96364450D01*
X139760000Y-95540000D02*
X136700000Y-95540000D01*
X145195718Y-96364450D02*
X145118306Y-96441862D01*
X143846119Y-96441862D02*
X143434759Y-96853222D01*
%TO.N,VDD_1V8*%
X139890000Y-108270000D02*
X139890000Y-107160000D01*
X137511745Y-107160000D02*
X137195745Y-107476000D01*
X139890000Y-114690000D02*
X137964284Y-112764284D01*
X139890000Y-107160000D02*
X139890000Y-104030000D01*
X136561041Y-101210000D02*
X136369917Y-101018876D01*
X130821172Y-100371172D02*
X130231432Y-100371172D01*
X137470000Y-108270000D02*
X137050000Y-108690000D01*
X139890000Y-114690000D02*
X142008784Y-116808784D01*
X137354762Y-105805491D02*
X137354762Y-103434762D01*
X135619144Y-100615000D02*
X134687369Y-100615000D01*
X134438410Y-100990549D02*
X134123959Y-101305000D01*
X137354762Y-103434762D02*
X137046433Y-103126433D01*
X139890000Y-114690000D02*
X139890000Y-108270000D01*
X134438410Y-100863959D02*
X134438410Y-100990549D01*
X136664000Y-106496253D02*
X137354762Y-105805491D01*
X139890000Y-108270000D02*
X137470000Y-108270000D01*
X136072818Y-112764284D02*
X136023534Y-112715000D01*
X136664000Y-107255745D02*
X136664000Y-106496253D01*
X137964284Y-112764284D02*
X136072818Y-112764284D01*
X134687369Y-100615000D02*
X134438410Y-100863959D01*
X137195745Y-107476000D02*
X136884255Y-107476000D01*
X134123959Y-101305000D02*
X131755000Y-101305000D01*
X139890000Y-107160000D02*
X137511745Y-107160000D01*
X136369917Y-101018876D02*
X136023020Y-101018876D01*
X137447979Y-101013782D02*
X137251761Y-101210000D01*
X142008784Y-116808784D02*
X144900000Y-116808784D01*
X131755000Y-101305000D02*
X130821172Y-100371172D01*
X136884255Y-107476000D02*
X136664000Y-107255745D01*
X137251761Y-101210000D02*
X136561041Y-101210000D01*
X136023020Y-101018876D02*
X135619144Y-100615000D01*
X139890000Y-104030000D02*
X141270000Y-102650000D01*
%TO.N,MCM_3V3*%
X135726267Y-111102464D02*
X135310000Y-111518731D01*
X135464998Y-106944998D02*
X135464998Y-103379182D01*
X135464998Y-106944998D02*
X135330543Y-107079453D01*
X135407478Y-103321662D02*
X135355764Y-103321662D01*
X135464998Y-103379182D02*
X135407478Y-103321662D01*
X135310000Y-111518731D02*
X135310000Y-118000000D01*
X135726267Y-107206267D02*
X135726267Y-111102464D01*
X133841588Y-107079453D02*
X133186041Y-107735000D01*
X135464998Y-106944998D02*
X135726267Y-107206267D01*
X133186041Y-107735000D02*
X132833959Y-107735000D01*
X132833959Y-107735000D02*
X132440000Y-107341041D01*
X135330543Y-107079453D02*
X133841588Y-107079453D01*
X132440000Y-107341041D02*
X132440000Y-106440000D01*
%TO.N,Net-(U6A-VDD_SNVS_IN)*%
X152530000Y-88640000D02*
X154261992Y-90371992D01*
X132780000Y-91550000D02*
X132570000Y-91340000D01*
X138370000Y-91550000D02*
X132780000Y-91550000D01*
X138600000Y-91780000D02*
X138370000Y-91550000D01*
X154261992Y-90371992D02*
X154261992Y-92416306D01*
X132570000Y-91340000D02*
X127490000Y-91340000D01*
X141740000Y-88640000D02*
X152530000Y-88640000D01*
X138600000Y-91780000D02*
X141740000Y-88640000D01*
X154261992Y-92416306D02*
X154327843Y-92482157D01*
D11*
%TO.N,VDD_SNVS_ANA*%
X153323862Y-97925000D02*
X149845000Y-97925000D01*
X145144450Y-95442872D02*
X145031347Y-95442872D01*
X139778764Y-95050050D02*
X139778764Y-93042874D01*
X154341236Y-98271000D02*
X153826236Y-97756000D01*
X141235149Y-96507849D02*
X139852764Y-95125464D01*
X148110467Y-95894078D02*
X145595656Y-95894078D01*
X148817369Y-96897369D02*
X148817369Y-96600980D01*
X153826236Y-97756000D02*
X153492862Y-97756000D01*
X153492862Y-97756000D02*
X153323862Y-97925000D01*
X157830627Y-100220000D02*
X157265627Y-99655000D01*
X154839538Y-98271000D02*
X154341236Y-98271000D01*
X143815982Y-95799000D02*
X143107133Y-96507849D01*
X157265627Y-99655000D02*
X156502759Y-99655000D01*
X148817369Y-96600980D02*
X148110467Y-95894078D01*
X139778764Y-93042874D02*
X139378764Y-92642874D01*
X143107133Y-96507849D02*
X141235149Y-96507849D01*
X139852764Y-95125464D02*
X139852764Y-95124050D01*
X149845000Y-97925000D02*
X148817369Y-96897369D01*
X145595656Y-95894078D02*
X145144450Y-95442872D01*
X155695414Y-98847655D02*
X155417605Y-98847655D01*
X139852764Y-95124050D02*
X139778764Y-95050050D01*
X144675219Y-95799000D02*
X143815982Y-95799000D01*
X154991225Y-98422687D02*
X154839538Y-98271000D01*
X154992638Y-98422688D02*
X154991225Y-98422687D01*
X155417605Y-98847655D02*
X154992638Y-98422688D01*
X145031347Y-95442872D02*
X144675219Y-95799000D01*
X156502759Y-99655000D02*
X155695414Y-98847655D01*
%TO.N,USER_BUTTON*%
X148746727Y-95526684D02*
X150050000Y-96829957D01*
X144550955Y-95499000D02*
X144955877Y-95094078D01*
X143686678Y-95499000D02*
X144550955Y-95499000D01*
X148288134Y-95526684D02*
X148746727Y-95526684D01*
X142134852Y-96061002D02*
X142561202Y-96061002D01*
X140170000Y-94250000D02*
X140170000Y-94644029D01*
X154974158Y-97946000D02*
X155125845Y-98097688D01*
X153189242Y-97600000D02*
X153358243Y-97431000D01*
X142561202Y-96061002D02*
X142816355Y-95805849D01*
X142816355Y-95805849D02*
X143379829Y-95805849D01*
X146368667Y-95094078D02*
X146593844Y-95319255D01*
X154728530Y-97946000D02*
X154974158Y-97946000D01*
X146593844Y-95319255D02*
X148080705Y-95319255D01*
X141250971Y-95725000D02*
X141798850Y-95725000D01*
X155125845Y-98097688D02*
X155127258Y-98097688D01*
X154213528Y-97431000D02*
X154728530Y-97946000D01*
X141798850Y-95725000D02*
X142134852Y-96061002D01*
X153358243Y-97431000D02*
X154213528Y-97431000D01*
X140170000Y-94644029D02*
X141250971Y-95725000D01*
X150050000Y-97600000D02*
X153189242Y-97600000D01*
X143379829Y-95805849D02*
X143686678Y-95499000D01*
X150050000Y-96829957D02*
X150050000Y-97600000D01*
X155493073Y-98463503D02*
X155708619Y-98463503D01*
X144955877Y-95094078D02*
X146368667Y-95094078D01*
X155127258Y-98097688D02*
X155493073Y-98463503D01*
X148080705Y-95319255D02*
X148288134Y-95526684D01*
%TO.N,BOOT_MODE1*%
X154857975Y-94420000D02*
X155183617Y-94745642D01*
X142578764Y-93442874D02*
X142860419Y-93724529D01*
X150112851Y-94420000D02*
X154857975Y-94420000D01*
X155183617Y-94745642D02*
X156489172Y-94745642D01*
X142860419Y-93724529D02*
X149417380Y-93724529D01*
X149417380Y-93724529D02*
X150112851Y-94420000D01*
%TO.N,I2C5_SDA*%
X149148140Y-94374529D02*
X151123611Y-96350000D01*
X143081000Y-95199000D02*
X144426691Y-95199000D01*
X142280241Y-95710002D02*
X142484394Y-95505849D01*
X144426691Y-95199000D02*
X145251162Y-94374529D01*
X142484394Y-95505849D02*
X142774151Y-95505849D01*
X145251162Y-94374529D02*
X149148140Y-94374529D01*
X142774151Y-95505849D02*
X143081000Y-95199000D01*
X151123611Y-96350000D02*
X153170000Y-96350000D01*
%TO.N,POR_B*%
X143591167Y-92995000D02*
X145826167Y-90760000D01*
X145826167Y-90760000D02*
X152050000Y-90760000D01*
X160681000Y-104178072D02*
X160549733Y-104309340D01*
X158040000Y-107340000D02*
X157985000Y-107340000D01*
X160681000Y-96151331D02*
X160681000Y-104178072D01*
X154135000Y-92845000D02*
X155635375Y-92845000D01*
X142862255Y-92735000D02*
X143122255Y-92995000D01*
X143122255Y-92995000D02*
X143591167Y-92995000D01*
X141938399Y-93091874D02*
X142295273Y-92735000D01*
X155635375Y-92845000D02*
X155902992Y-93112617D01*
X140180000Y-93450000D02*
X140538126Y-93091874D01*
X160549733Y-104309340D02*
X160549733Y-104830267D01*
X160549733Y-104830267D02*
X158040000Y-107340000D01*
X157642286Y-93112617D02*
X160681000Y-96151331D01*
X152050000Y-90760000D02*
X154135000Y-92845000D01*
X142295273Y-92735000D02*
X142862255Y-92735000D01*
X155902992Y-93112617D02*
X157642286Y-93112617D01*
X140538126Y-93091874D02*
X141938399Y-93091874D01*
D12*
%TO.N,I2C5_SCL*%
X151890000Y-91190000D02*
X153870000Y-93170000D01*
X151150000Y-95880000D02*
X150670000Y-95400000D01*
X141390763Y-94099130D02*
X142423019Y-93066874D01*
X157033023Y-94702268D02*
X157033023Y-96696687D01*
X145855785Y-91190000D02*
X151890000Y-91190000D01*
X155460529Y-96696687D02*
X154643842Y-95880000D01*
X157033023Y-96696687D02*
X155460529Y-96696687D01*
X142423019Y-93066874D02*
X142734509Y-93066874D01*
X153870000Y-93170000D02*
X155500755Y-93170000D01*
X143687112Y-93358673D02*
X145855785Y-91190000D01*
X141390763Y-95368403D02*
X141390763Y-94099130D01*
X142734509Y-93066874D02*
X143026308Y-93358673D01*
X154643842Y-95880000D02*
X151150000Y-95880000D01*
X143026308Y-93358673D02*
X143687112Y-93358673D01*
X155500755Y-93170000D02*
X157033023Y-94702268D01*
%TO.N,MCM_SD_ALARM*%
X143110000Y-106098135D02*
X143110000Y-101761041D01*
X143803766Y-100190354D02*
X144619146Y-99374974D01*
X141874266Y-107665553D02*
X141874266Y-107475734D01*
X143110000Y-101761041D02*
X143803766Y-101067275D01*
X145880000Y-98412250D02*
X145393048Y-97925298D01*
X143027351Y-106180784D02*
X143110000Y-106098135D01*
X143803766Y-101067275D02*
X143803766Y-100190354D01*
X145480001Y-99374974D02*
X145880000Y-98974975D01*
X145880000Y-98974975D02*
X145880000Y-98412250D01*
X141874266Y-107475734D02*
X143027351Y-106322649D01*
X144619146Y-99374974D02*
X145480001Y-99374974D01*
X143027351Y-106322649D02*
X143027351Y-106180784D01*
%TO.N,TPU_RST_L*%
X144708572Y-108739330D02*
X141397585Y-108739330D01*
X141700000Y-101105981D02*
X144569473Y-98236508D01*
X141700000Y-103653383D02*
X141700000Y-101105981D01*
X144776286Y-108807044D02*
X144708572Y-108739330D01*
X140874000Y-104479383D02*
X141700000Y-103653383D01*
X140874000Y-108215745D02*
X140874000Y-104479383D01*
X141397585Y-108739330D02*
X140874000Y-108215745D01*
X144569473Y-98236508D02*
X144569473Y-97766862D01*
%TO.N,I2C5_SDA_MCM*%
X155018893Y-97245000D02*
X155264518Y-97245000D01*
X152523338Y-96774306D02*
X153024990Y-96774306D01*
X153024990Y-96774306D02*
X153069295Y-96730000D01*
X156741662Y-97396688D02*
X158680000Y-99335026D01*
X153817039Y-96730000D02*
X153829039Y-96718000D01*
X153829039Y-96718000D02*
X154491892Y-96718000D01*
X158680000Y-99335026D02*
X158680000Y-104410000D01*
X151790000Y-111300000D02*
X151790000Y-114578075D01*
X158680000Y-104410000D02*
X151790000Y-111300000D01*
X151790000Y-114578075D02*
X152425438Y-115213513D01*
X155264518Y-97245000D02*
X155416207Y-97396688D01*
X154491892Y-96718000D02*
X155018893Y-97245000D01*
X153069295Y-96730000D02*
X153817039Y-96730000D01*
X155416207Y-97396688D02*
X156741662Y-97396688D01*
%TO.N,TPU_BOOT_FAIL*%
X142096000Y-102923185D02*
X142096000Y-103752357D01*
X145390129Y-98724187D02*
X144755813Y-98724187D01*
X144755813Y-98724187D02*
X142745000Y-100735000D01*
X142096000Y-103752357D02*
X141533446Y-104314911D01*
X145415000Y-98699316D02*
X145390129Y-98724187D01*
X142745000Y-102274185D02*
X142096000Y-102923185D01*
X142745000Y-100735000D02*
X142745000Y-102274185D01*
X141533446Y-104314911D02*
X141533446Y-107146034D01*
%TO.N,I2C5_SCL_MCM*%
X153075000Y-115205000D02*
X152555000Y-114685000D01*
X152753694Y-97199306D02*
X151054332Y-97199306D01*
X146665000Y-111125000D02*
X146665000Y-111476041D01*
X149604337Y-95900401D02*
X149604337Y-95850825D01*
X152810000Y-97143000D02*
X152753694Y-97199306D01*
X152830000Y-97143000D02*
X153151270Y-97143000D01*
X153169965Y-97124305D02*
X153169968Y-97124305D01*
X148800000Y-109000000D02*
X147315000Y-110485000D01*
X155271233Y-97746688D02*
X156315689Y-97746689D01*
X149822281Y-95967255D02*
X149671191Y-95967255D01*
X154873918Y-97595000D02*
X155119544Y-97595000D01*
X158220000Y-103749368D02*
X152969368Y-109000000D01*
X146665000Y-111476041D02*
X146416041Y-111725000D01*
X146416041Y-111725000D02*
X146065000Y-111725000D01*
X154358917Y-97080000D02*
X154873918Y-97595000D01*
X153169968Y-97124305D02*
X153214272Y-97080000D01*
X147320000Y-110490000D02*
X147300000Y-110490000D01*
X147315000Y-110485000D02*
X147320000Y-110490000D01*
X146065000Y-111725000D02*
X145023877Y-112766123D01*
X149671191Y-95967255D02*
X149604337Y-95900401D01*
X149664801Y-95808665D02*
X149664801Y-95743319D01*
X155119544Y-97595000D02*
X155271233Y-97746688D01*
X158220000Y-99651000D02*
X158220000Y-103749368D01*
X149629787Y-95843679D02*
X149664801Y-95808665D01*
X156315689Y-97746689D02*
X158220000Y-99651000D01*
X153151270Y-97143000D02*
X153169965Y-97124305D01*
X149611483Y-95843679D02*
X149629787Y-95843679D01*
X149604337Y-95850825D02*
X149611483Y-95843679D01*
X153214272Y-97080000D02*
X154358917Y-97080000D01*
X152782712Y-115908329D02*
X153075000Y-115616041D01*
X151054332Y-97199306D02*
X149822281Y-95967255D01*
X153075000Y-115616041D02*
X153075000Y-115205000D01*
X152969368Y-109000000D02*
X148800000Y-109000000D01*
X145023877Y-115047116D02*
X145885089Y-115908329D01*
X145885089Y-115908329D02*
X152782712Y-115908329D01*
X145023877Y-112766123D02*
X145023877Y-115047116D01*
X147300000Y-110490000D02*
X146665000Y-111125000D01*
%TO.N,Net-(U6L-VDD_USB_3V3)*%
X134930764Y-102819120D02*
X134930764Y-103497703D01*
X133640331Y-106679669D02*
X133010000Y-107310000D01*
X137662637Y-101950000D02*
X137271638Y-101950000D01*
X135004808Y-103571747D02*
X135004808Y-106623261D01*
X136653766Y-102567872D02*
X135182012Y-102567872D01*
X135182012Y-102567872D02*
X134930764Y-102819120D01*
X135004808Y-106623261D02*
X134948400Y-106679669D01*
X138578764Y-101033873D02*
X137662637Y-101950000D01*
X138578764Y-100735000D02*
X138578764Y-101033873D01*
X137271638Y-101950000D02*
X136653766Y-102567872D01*
X134948400Y-106679669D02*
X133640331Y-106679669D01*
X134930764Y-103497703D02*
X135004808Y-103571747D01*
%TO.N,Net-(U6L-VDD_USB_1P8)*%
X135993959Y-99535000D02*
X137136041Y-99535000D01*
X134050622Y-100756772D02*
X134542394Y-100265000D01*
X137443916Y-99842875D02*
X138578763Y-99842875D01*
X135263959Y-100265000D02*
X135993959Y-99535000D01*
X134050622Y-100843177D02*
X134050622Y-100756772D01*
X134542394Y-100265000D02*
X135263959Y-100265000D01*
X137136041Y-99535000D02*
X137443916Y-99842875D01*
%TO.N,Net-(U6K-VDD_MIPI_1P8)*%
X139540000Y-102881636D02*
X140978764Y-101442872D01*
X139540000Y-104600000D02*
X139540000Y-102881636D01*
X137040000Y-107100000D02*
X139540000Y-104600000D01*
D11*
%TO.N,BRD_STAT_LED*%
X147281776Y-97043873D02*
X147280776Y-97042873D01*
X147544037Y-97043873D02*
X147281776Y-97043873D01*
X144932788Y-97140227D02*
X144859423Y-97066862D01*
X153429067Y-99124215D02*
X153097695Y-99124215D01*
X147227939Y-96991450D02*
X145820112Y-96991450D01*
X153789400Y-99484548D02*
X153429067Y-99124215D01*
X147280776Y-97042873D02*
X147279362Y-97042873D01*
X155894691Y-102490000D02*
X155810000Y-102490000D01*
X141388542Y-97965000D02*
X141001764Y-97578222D01*
X147770454Y-97268876D02*
X147769040Y-97268876D01*
X155569781Y-100616523D02*
X155569781Y-100206946D01*
X145671335Y-97140227D02*
X144932788Y-97140227D01*
X144279523Y-97066862D02*
X143731991Y-97614394D01*
X145820112Y-96991450D02*
X145671335Y-97140227D01*
X147961578Y-97460000D02*
X147770454Y-97268876D01*
X152733723Y-99216846D02*
X152041877Y-98525000D01*
X152935730Y-99216846D02*
X152733723Y-99216846D01*
X148280812Y-97460000D02*
X147961578Y-97460000D01*
X153077570Y-99144340D02*
X153008236Y-99144340D01*
X149596472Y-98525000D02*
X148891472Y-97820000D01*
X155569781Y-100206946D02*
X154847382Y-99484548D01*
X153097695Y-99124215D02*
X153077570Y-99144340D01*
X144859423Y-97066862D02*
X144279523Y-97066862D01*
X155810000Y-102490000D02*
X155265000Y-101945000D01*
X147279362Y-97042873D02*
X147227939Y-96991450D01*
X148640811Y-97820000D02*
X148280812Y-97460000D01*
X143369001Y-97614394D02*
X143018395Y-97965000D01*
X148891472Y-97820000D02*
X148640811Y-97820000D01*
X147769040Y-97268876D02*
X147544037Y-97043873D01*
X143731991Y-97614394D02*
X143369001Y-97614394D01*
X153008236Y-99144340D02*
X152935730Y-99216846D01*
X152041877Y-98525000D02*
X149596472Y-98525000D01*
X154847382Y-99484548D02*
X153789400Y-99484548D01*
X155265000Y-101945000D02*
X155265000Y-100921304D01*
X155265000Y-100921304D02*
X155569781Y-100616523D01*
X143018395Y-97965000D02*
X141388542Y-97965000D01*
%TO.N,USER_LED*%
X157648455Y-101101545D02*
X157648455Y-101022339D01*
X154758519Y-98614245D02*
X152555386Y-98614245D01*
X147403626Y-96742873D02*
X147352203Y-96691450D01*
X143743899Y-97178222D02*
X140714112Y-97178222D01*
X154866962Y-98722688D02*
X154758519Y-98614245D01*
X147668301Y-96743873D02*
X147406040Y-96743873D01*
X157540000Y-101210000D02*
X157648455Y-101101545D01*
X152166141Y-98225000D02*
X149720736Y-98225000D01*
X152555386Y-98614245D02*
X152166141Y-98225000D01*
X144155259Y-96766862D02*
X143743899Y-97178222D01*
X148085842Y-97160000D02*
X147894718Y-96968876D01*
X154868374Y-98722688D02*
X154866962Y-98722688D01*
X147894718Y-96968876D02*
X147893304Y-96968876D01*
X149720736Y-98225000D02*
X149015736Y-97520000D01*
X145016825Y-96800000D02*
X144983687Y-96766862D01*
X145587298Y-96800000D02*
X145016825Y-96800000D01*
X155676070Y-99252575D02*
X155398261Y-99252575D01*
X140714112Y-97178222D02*
X140178764Y-96642874D01*
X147893304Y-96968876D02*
X147668301Y-96743873D01*
X155398261Y-99252575D02*
X154868374Y-98722688D01*
X149015736Y-97520000D02*
X148765075Y-97520000D01*
X147406040Y-96743873D02*
X147405039Y-96742873D01*
X147405039Y-96742873D02*
X147403626Y-96742873D01*
X156378495Y-99955000D02*
X155676070Y-99252575D01*
X148405076Y-97160000D02*
X148085842Y-97160000D01*
X157648455Y-101022339D02*
X156581116Y-99955000D01*
X148765075Y-97520000D02*
X148405076Y-97160000D01*
X147352203Y-96691450D02*
X145695848Y-96691450D01*
X144983687Y-96766862D02*
X144155259Y-96766862D01*
X156581116Y-99955000D02*
X156378495Y-99955000D01*
X145695848Y-96691450D02*
X145587298Y-96800000D01*
D12*
%TO.N,FLEXPWM1_PWM1_A*%
X129806432Y-100195131D02*
X129806432Y-100568184D01*
X135627545Y-93930000D02*
X133975000Y-95582545D01*
X130075000Y-100836752D02*
X130075000Y-107268399D01*
X130961601Y-108490559D02*
X131835521Y-109364479D01*
X133975000Y-95826041D02*
X133658300Y-96142741D01*
X130961601Y-108155000D02*
X130961601Y-108490559D01*
X133059330Y-96391700D02*
X133059330Y-96741711D01*
X133308289Y-96142741D02*
X133059330Y-96391700D01*
X133059330Y-96741711D02*
X130345000Y-99456041D01*
X130075000Y-107268399D02*
X130961601Y-108155000D01*
X129806432Y-100568184D02*
X130075000Y-100836752D01*
X130345000Y-99656563D02*
X129806432Y-100195131D01*
X136650000Y-93930000D02*
X135627545Y-93930000D01*
X130345000Y-99456041D02*
X130345000Y-99656563D01*
X133658300Y-96142741D02*
X133308289Y-96142741D01*
X133975000Y-95582545D02*
X133975000Y-95826041D01*
X137360000Y-94640000D02*
X136650000Y-93930000D01*
D11*
%TO.N,TPU_POW_EN*%
X134158514Y-102122527D02*
X133291432Y-102122527D01*
X145558018Y-97489227D02*
X144864913Y-97489227D01*
X141076026Y-100359000D02*
X138423019Y-100359000D01*
X132235521Y-109198793D02*
X132235521Y-111069627D01*
X145761241Y-97692450D02*
X145558018Y-97489227D01*
X146220098Y-97692450D02*
X145761241Y-97692450D01*
X144864913Y-97489227D02*
X144776686Y-97401000D01*
X138202764Y-100913485D02*
X137556249Y-101560000D01*
X143856255Y-97914394D02*
X143520632Y-97914394D01*
X136615000Y-101560000D02*
X136385000Y-101790000D01*
X138202764Y-100579255D02*
X138202764Y-100913485D01*
X138423019Y-100359000D02*
X138202764Y-100579255D01*
X146567612Y-97344936D02*
X146220098Y-97692450D01*
X131390787Y-108354059D02*
X132235521Y-109198793D01*
X134841041Y-101440000D02*
X134158514Y-102122527D01*
X133291432Y-102122527D02*
X131067457Y-104346502D01*
X131067457Y-106751771D02*
X131390787Y-107075101D01*
X143520632Y-97914394D02*
X141076026Y-100359000D01*
X144776686Y-97401000D02*
X144369649Y-97401000D01*
X130940787Y-112364361D02*
X130890787Y-112364361D01*
X131390787Y-107075101D02*
X131390787Y-108354059D01*
X136385000Y-101790000D02*
X135465686Y-101790000D01*
X137556249Y-101560000D02*
X136615000Y-101560000D01*
X135465686Y-101790000D02*
X135115686Y-101440000D01*
X132235521Y-111069627D02*
X130940787Y-112364361D01*
X144369649Y-97401000D02*
X143856255Y-97914394D01*
X135115686Y-101440000D02*
X134841041Y-101440000D01*
X131067457Y-104346502D02*
X131067457Y-106751771D01*
D12*
%TO.N,BOOT_MODE0*%
X149282760Y-94049529D02*
X150073231Y-94840000D01*
X155657281Y-96051202D02*
X155617190Y-96091293D01*
X150073231Y-94840000D02*
X154719896Y-94840000D01*
X144066133Y-94049529D02*
X149282760Y-94049529D01*
X155617190Y-96091293D02*
X155617190Y-96092336D01*
X155657281Y-95777385D02*
X155657281Y-96051202D01*
X143243662Y-94872000D02*
X144066133Y-94049529D01*
X154719896Y-94840000D02*
X155657281Y-95777385D01*
D13*
%TO.N,SEMC_D5*%
X154098781Y-105967847D02*
X154434781Y-105631847D01*
X147241814Y-104395341D02*
X146922868Y-104395341D01*
X152698635Y-104512845D02*
X152422480Y-104789000D01*
X152422480Y-104789000D02*
X147635473Y-104789000D01*
X146115000Y-103392181D02*
X146115000Y-102984644D01*
X153570092Y-104512845D02*
X152698635Y-104512845D01*
X147635473Y-104789000D02*
X147241814Y-104395341D01*
X145119606Y-101989250D02*
X145119606Y-101423659D01*
X146470000Y-104848209D02*
X146470000Y-103747181D01*
X153846247Y-104789000D02*
X153570092Y-104512845D01*
X154434781Y-105631847D02*
X154434781Y-105028671D01*
X146470000Y-103747181D02*
X146115000Y-103392181D01*
X146115000Y-102984644D02*
X145119606Y-101989250D01*
X154195110Y-104789000D02*
X153846247Y-104789000D01*
X154434781Y-105028671D02*
X154195110Y-104789000D01*
X146922868Y-104395341D02*
X146470000Y-104848209D01*
%TO.N,SEMC_D3*%
X151944473Y-102490000D02*
X151934473Y-102500000D01*
X147486534Y-102660874D02*
X147167588Y-102660874D01*
X150738583Y-102720000D02*
X147545660Y-102720000D01*
X152730000Y-102490000D02*
X151944473Y-102490000D01*
X147108462Y-102720000D02*
X146394830Y-102720000D01*
X147545660Y-102720000D02*
X147486534Y-102660874D01*
X151395527Y-102490000D02*
X150968583Y-102490000D01*
X147167588Y-102660874D02*
X147108462Y-102720000D01*
X151405527Y-102500000D02*
X151395527Y-102490000D01*
X151934473Y-102500000D02*
X151405527Y-102500000D01*
X146394830Y-102720000D02*
X146312730Y-102637900D01*
X150968583Y-102490000D02*
X150738583Y-102720000D01*
%TO.N,SEMC_D6*%
X144593763Y-103624015D02*
X144900896Y-103316882D01*
X151797318Y-105796000D02*
X145326000Y-105796000D01*
X154098781Y-105167847D02*
X153989934Y-105059000D01*
X153989934Y-105059000D02*
X153734409Y-105059000D01*
X145326000Y-105796000D02*
X144593763Y-105063763D01*
X144971998Y-102408719D02*
X144734606Y-102171327D01*
X144971998Y-102984254D02*
X144971998Y-102408719D01*
X144734606Y-101244275D02*
X144587576Y-101097245D01*
X144900896Y-103316882D02*
X144900896Y-103055356D01*
X152810473Y-104782845D02*
X151797318Y-105796000D01*
X144900896Y-103055356D02*
X144971998Y-102984254D01*
X153734409Y-105059000D02*
X153458254Y-104782845D01*
X153458254Y-104782845D02*
X152810473Y-104782845D01*
X144593763Y-105063763D02*
X144593763Y-103624015D01*
X144734606Y-102171327D02*
X144734606Y-101244275D01*
%TO.N,SEMC_DM0*%
X153298781Y-105167845D02*
X153292155Y-105167845D01*
X152962781Y-105497219D02*
X152962781Y-105921692D01*
X144167658Y-102702815D02*
X144167658Y-102384931D01*
X153292155Y-105167845D02*
X152962781Y-105497219D01*
X144281237Y-105831237D02*
X144281237Y-103499673D01*
X144167658Y-102384931D02*
X144349606Y-102202983D01*
X152818473Y-106066000D02*
X144516000Y-106066000D01*
X144281237Y-103499673D02*
X144506764Y-103274146D01*
X152962781Y-105921692D02*
X152818473Y-106066000D01*
X144516000Y-106066000D02*
X144281237Y-105831237D01*
X144506764Y-103041921D02*
X144167658Y-102702815D01*
X144506764Y-103274146D02*
X144506764Y-103041921D01*
X144349606Y-102202983D02*
X144349606Y-101504315D01*
%TO.N,SEMC_D13*%
X148755527Y-102071615D02*
X149595690Y-102071615D01*
X149595690Y-102071615D02*
X149778984Y-102254909D01*
X148282912Y-101599000D02*
X148755527Y-102071615D01*
X150321606Y-102254909D02*
X150741515Y-101835000D01*
X147720000Y-101677491D02*
X147798491Y-101599000D01*
X149778984Y-102254909D02*
X150321606Y-102254909D01*
X147798491Y-101599000D02*
X148282912Y-101599000D01*
X152925000Y-101835000D02*
X153080521Y-101990521D01*
X150741515Y-101835000D02*
X152925000Y-101835000D01*
%TO.N,SEMC_DM1*%
X152498781Y-99775000D02*
X152291628Y-99567847D01*
X147960340Y-99567847D02*
X147435369Y-99042876D01*
X147435369Y-99042876D02*
X147378764Y-99042876D01*
X152291628Y-99567847D02*
X147960340Y-99567847D01*
%TO.N,SEMC_D10*%
X151733199Y-103340000D02*
X150124231Y-103340000D01*
X152133199Y-102940000D02*
X151733199Y-103340000D01*
X154941216Y-99982847D02*
X155283781Y-100325411D01*
X153574473Y-102940000D02*
X152133199Y-102940000D01*
X154980000Y-101534473D02*
X153574473Y-102940000D01*
X150124231Y-103340000D02*
X149830105Y-103045874D01*
X154980000Y-100801838D02*
X154980000Y-101534473D01*
X155283781Y-100325411D02*
X155283781Y-100498057D01*
X155283781Y-100498057D02*
X154980000Y-100801838D01*
X154208923Y-99982847D02*
X154941216Y-99982847D01*
X149830105Y-103045874D02*
X147327061Y-103045874D01*
X154083323Y-99857247D02*
X154208923Y-99982847D01*
%TO.N,SEMC_D11*%
X149394754Y-101434754D02*
X149394754Y-101288664D01*
X154825630Y-100411734D02*
X152930070Y-100411734D01*
X148890617Y-101063137D02*
X148624754Y-101329000D01*
X149394754Y-101288664D02*
X149169227Y-101063137D01*
X151776804Y-101565000D02*
X150629677Y-101565000D01*
X149944909Y-101984909D02*
X149394754Y-101434754D01*
X147314646Y-101329000D02*
X146578766Y-102064880D01*
X148624754Y-101329000D02*
X147314646Y-101329000D01*
X150629677Y-101565000D02*
X150209768Y-101984909D01*
X149169227Y-101063137D02*
X148890617Y-101063137D01*
X150209768Y-101984909D02*
X149944909Y-101984909D01*
X152930070Y-100411734D02*
X151776804Y-101565000D01*
X146578766Y-102064880D02*
X146578766Y-102242873D01*
%TO.N,SEMC_D9*%
X148286237Y-104178874D02*
X151881126Y-104178874D01*
X146451000Y-103253005D02*
X146638995Y-103441000D01*
X152312499Y-103747501D02*
X152410775Y-103747501D01*
X147548363Y-103441000D02*
X148286237Y-104178874D01*
X152410775Y-103747501D02*
X152693368Y-103464908D01*
X146638995Y-103441000D02*
X147548363Y-103441000D01*
X151881126Y-104178874D02*
X152312499Y-103747501D01*
%TO.N,SEMC_A4*%
X143562418Y-101747029D02*
X143562418Y-102585109D01*
X146861311Y-100835000D02*
X146576710Y-100835000D01*
X143562418Y-102585109D02*
X144121764Y-103144455D01*
X148738443Y-100793137D02*
X148551580Y-100980000D01*
X147006311Y-100980000D02*
X146861311Y-100835000D01*
X144113766Y-101087194D02*
X144113766Y-101195681D01*
X150050295Y-101562367D02*
X149281065Y-100793137D01*
X146014939Y-100273229D02*
X144927731Y-100273229D01*
X148551580Y-100980000D02*
X147006311Y-100980000D01*
X144927731Y-100273229D02*
X144113766Y-101087194D01*
X146576710Y-100835000D02*
X146014939Y-100273229D01*
X144113766Y-101195681D02*
X143562418Y-101747029D01*
X150050295Y-101599909D02*
X150050295Y-101562367D01*
X149281065Y-100793137D02*
X148738443Y-100793137D01*
%TO.N,SEMC_A1*%
X150837808Y-105106874D02*
X147001765Y-105106874D01*
X147001765Y-105106874D02*
X146664639Y-105444000D01*
X150898781Y-105167847D02*
X150837808Y-105106874D01*
%TD*%
M02*
