%TF.GenerationSoftware,KiCad,Pcbnew,9.0.5*%
%TF.CreationDate,2025-11-20T16:18:21-05:00*%
%TF.ProjectId,sb-tpu,73622d74-7075-42e6-9b69-6361645f7063,rev?*%
%TF.SameCoordinates,Original*%
%TF.FileFunction,Copper,L4,Inr*%
%TF.FilePolarity,Positive*%
%FSLAX46Y46*%
G04 Gerber Fmt 4.6, Leading zero omitted, Abs format (unit mm)*
G04 Created by KiCad (PCBNEW 9.0.5) date 2025-11-20 16:18:21*
%MOMM*%
%LPD*%
G01*
G04 APERTURE LIST*
%TA.AperFunction,ComponentPad*%
%ADD10C,4.000000*%
%TD*%
%TA.AperFunction,ComponentPad*%
%ADD11C,1.540000*%
%TD*%
%TA.AperFunction,ComponentPad*%
%ADD12O,2.316000X1.158000*%
%TD*%
%TA.AperFunction,ComponentPad*%
%ADD13O,2.400000X1.200000*%
%TD*%
%TA.AperFunction,ViaPad*%
%ADD14C,0.250000*%
%TD*%
%TA.AperFunction,Conductor*%
%ADD15C,0.200000*%
%TD*%
%TA.AperFunction,Conductor*%
%ADD16C,0.150000*%
%TD*%
%TA.AperFunction,Conductor*%
%ADD17C,0.120000*%
%TD*%
G04 APERTURE END LIST*
D10*
%TO.N,GND*%
%TO.C,J5*%
X155780000Y-115780000D03*
X127220000Y-115780000D03*
X127220000Y-87220000D03*
X155780000Y-87220000D03*
%TD*%
D11*
%TO.N,unconnected-(J3-Pad1)*%
%TO.C,J3*%
X122460133Y-92589066D03*
%TO.N,unconnected-(J3-Pad2)*%
X122460133Y-90049066D03*
%TO.N,GND*%
X122460133Y-87509066D03*
%TO.N,unconnected-(J3-Pad4)*%
X122460133Y-84969066D03*
%TD*%
%TO.N,unconnected-(J8-Pad1)*%
%TO.C,J8*%
X160546098Y-110391652D03*
%TO.N,GND*%
X160546098Y-112931652D03*
%TO.N,unconnected-(J8-Pad3)*%
X160546098Y-115471652D03*
%TO.N,unconnected-(J8-Pad4)*%
X160546098Y-118011652D03*
%TD*%
D12*
%TO.N,GND*%
%TO.C,J9*%
X126037500Y-97460750D03*
X126037500Y-106100750D03*
D13*
X122212500Y-97460750D03*
X122212500Y-106100750D03*
%TD*%
D11*
%TO.N,unconnected-(J2-Pad1)*%
%TO.C,J2*%
X122503992Y-118042254D03*
%TO.N,unconnected-(J2-Pad2)*%
X122503992Y-115502254D03*
%TO.N,GND*%
X122503992Y-112962254D03*
%TO.N,unconnected-(J2-Pad4)*%
X122503992Y-110422254D03*
%TD*%
%TO.N,unconnected-(J7-Pad1)*%
%TO.C,J7*%
X160548407Y-85010384D03*
%TO.N,unconnected-(J7-Pad2)*%
X160548407Y-87550384D03*
%TO.N,GND*%
X160548407Y-90090384D03*
%TO.N,+3V3*%
X160548407Y-92630384D03*
%TD*%
%TO.N,GND*%
%TO.C,J6*%
X122450000Y-120500000D03*
%TO.N,unconnected-(J6-Pad2)*%
X124990000Y-120500000D03*
%TO.N,unconnected-(J6-Pad3)*%
X127530000Y-120500000D03*
%TO.N,unconnected-(J6-Pad4)*%
X130070000Y-120500000D03*
%TO.N,unconnected-(J6-Pad5)*%
X132610000Y-120500000D03*
%TO.N,unconnected-(J6-Pad6)*%
X135150000Y-120500000D03*
%TO.N,unconnected-(J6-Pad7)*%
X137690000Y-120500000D03*
%TO.N,unconnected-(J6-Pad8)*%
X140230000Y-120500000D03*
%TO.N,unconnected-(J6-Pad9)*%
X142770000Y-120500000D03*
%TO.N,unconnected-(J6-Pad10)*%
X145310000Y-120500000D03*
%TO.N,unconnected-(J6-Pad11)*%
X147850000Y-120500000D03*
%TO.N,unconnected-(J6-Pad12)*%
X150390000Y-120500000D03*
%TO.N,unconnected-(J6-Pad13)*%
X152930000Y-120500000D03*
%TO.N,unconnected-(J6-Pad14)*%
X155470000Y-120500000D03*
%TO.N,unconnected-(J6-Pad15)*%
X158010000Y-120500000D03*
%TO.N,GND*%
X160550000Y-120500000D03*
%TD*%
%TO.N,unconnected-(J4-Pad1)*%
%TO.C,J4*%
X122450000Y-82500000D03*
%TO.N,unconnected-(J4-Pad2)*%
X124990000Y-82500000D03*
%TO.N,unconnected-(J4-Pad3)*%
X127530000Y-82500000D03*
%TO.N,unconnected-(J4-Pad4)*%
X130070000Y-82500000D03*
%TO.N,unconnected-(J4-Pad5)*%
X132610000Y-82500000D03*
%TO.N,unconnected-(J4-Pad6)*%
X135150000Y-82500000D03*
%TO.N,unconnected-(J4-Pad7)*%
X137690000Y-82500000D03*
%TO.N,unconnected-(J4-Pad8)*%
X140230000Y-82500000D03*
%TO.N,LPUART6_RXD*%
X142770000Y-82500000D03*
%TO.N,LPUART6_TXD*%
X145310000Y-82500000D03*
%TO.N,LPSPI6_CS0*%
X147850000Y-82500000D03*
%TO.N,LPSPI6_SCK*%
X150390000Y-82500000D03*
%TO.N,LPSPI6_SDO*%
X152930000Y-82500000D03*
%TO.N,LPSPI6_SDI*%
X155470000Y-82500000D03*
%TO.N,POR_B*%
X158010000Y-82500000D03*
%TO.N,GND*%
X160550000Y-82500000D03*
%TD*%
D14*
%TO.N,DCDC_1V8_OUT*%
X143407351Y-106401825D03*
X141250000Y-108060000D03*
%TO.N,VSYS*%
X123660000Y-94270000D03*
X131693217Y-86460585D03*
%TO.N,VDD_3V3*%
X135850000Y-94690000D03*
X147754141Y-107527874D03*
X155907891Y-92382714D03*
X156320000Y-102630000D03*
X152500000Y-107960000D03*
X156341474Y-98997326D03*
X148143479Y-96642876D03*
X132699937Y-114137629D03*
%TO.N,VDD_1V8_SENSE*%
X149950000Y-114830329D03*
X153046196Y-110074687D03*
%TO.N,VDD_1V8*%
X137046433Y-103126433D03*
X137370000Y-97830000D03*
X137447979Y-101013782D03*
X137050000Y-108690000D03*
X142567765Y-94957424D03*
X143000000Y-90370000D03*
X143270000Y-100642874D03*
X157051615Y-104338684D03*
X139890000Y-114690000D03*
X130820000Y-100370000D03*
X153659550Y-98155000D03*
X138144885Y-102556030D03*
X135981210Y-112764284D03*
X141370000Y-102660000D03*
X150512000Y-97220000D03*
X156159505Y-94360495D03*
%TO.N,MCM_3V3*%
X131320000Y-115220000D03*
X135508719Y-103348007D03*
X135310000Y-118000000D03*
X132440000Y-106440000D03*
X128798100Y-111305369D03*
X152939218Y-112728922D03*
%TO.N,VUSB*%
X132174000Y-100475998D03*
X129611629Y-97291629D03*
X127954773Y-104156261D03*
X132841401Y-103557381D03*
X131268363Y-99268363D03*
%TO.N,VDD_SNVS_ANA*%
X139378764Y-92642874D03*
X136970000Y-92670000D03*
X157830627Y-100220000D03*
%TO.N,MCM_1V8*%
X158460000Y-114750000D03*
X148070000Y-94860000D03*
X148685000Y-95475000D03*
%TO.N,MCU_DCDC_IN*%
X144760138Y-96009764D03*
X145327999Y-94725000D03*
%TO.N,VDD_SOC_IN*%
X135980000Y-92040000D03*
X142446584Y-97695663D03*
%TO.N,VDD_LPSR_IN*%
X138578764Y-94242874D03*
%TO.N,VDD_LPSR_ANA*%
X138578764Y-94934156D03*
%TO.N,Net-(U3A-VDD_SNVS_IN)*%
X138600000Y-91780000D03*
X130440000Y-95065000D03*
%TO.N,VDD_LPSR_DIG*%
X139351693Y-94934156D03*
%TO.N,DCDC_1V8_OUT_SENSE*%
X142999282Y-96263394D03*
%TO.N,VDDA_1P0*%
X139378765Y-95965000D03*
X138973029Y-98676971D03*
X140171000Y-101442874D03*
%TO.N,ADC_1V8_IN*%
X136910000Y-109500000D03*
X135008075Y-101945925D03*
%TO.N,Net-(U3C-DCDC_PSWITCH)*%
X146130012Y-94710012D03*
%TO.N,Net-(U3C-DCDC_DIG_1)*%
X141778764Y-97565000D03*
%TO.N,Net-(U3E-XTALO)*%
X133043919Y-93196380D03*
X135378765Y-93442875D03*
%TO.N,Net-(U3B-VDDA_ADC_3P3)*%
X136580000Y-97725269D03*
%TO.N,Net-(U3H-GPIO_AD_10)*%
X134578765Y-94242875D03*
%TO.N,/IO/USB_DN_CON*%
X128540000Y-103650000D03*
X128503092Y-102530751D03*
%TO.N,/IO/USB_DP_CON*%
X129315688Y-102538188D03*
%TO.N,DAC_OUT*%
X133733894Y-100523513D03*
%TO.N,USER_BUTTON*%
X140170000Y-94250000D03*
X155708619Y-98463503D03*
%TO.N,DA_nONKEY*%
X152880000Y-110990000D03*
X159500000Y-97310000D03*
%TO.N,BOOT_MODE1*%
X142578764Y-93442874D03*
X156489172Y-94745642D03*
%TO.N,Net-(Q2-D)*%
X156559213Y-95695642D03*
%TO.N,I2C5_SDA*%
X142280241Y-95710002D03*
X153080889Y-109575889D03*
X153170000Y-96350000D03*
%TO.N,POR_B*%
X151006239Y-115095000D03*
X140180000Y-93450000D03*
X157985000Y-107340000D03*
X160631000Y-98320000D03*
%TO.N,I2C5_SCL*%
X150000550Y-95046678D03*
X153170000Y-110580000D03*
X141390763Y-95368403D03*
%TO.N,DA_GPIO4_SYS_EN*%
X148480000Y-90870000D03*
X146101878Y-114600594D03*
%TO.N,/IO/USB_CC2*%
X128880000Y-103000000D03*
X129125996Y-98908880D03*
%TO.N,MCM_SD_ALARM*%
X145393048Y-97925298D03*
X141874266Y-107665553D03*
%TO.N,/TPU/MCM_BT_PHY_PRG*%
X141397468Y-107575000D03*
%TO.N,TPU_RST_L*%
X144610000Y-97800000D03*
X144776286Y-108807044D03*
%TO.N,I2C5_SDA_MCM*%
X152425438Y-115213513D03*
X152523338Y-96774306D03*
%TO.N,TPU_BOOT_FAIL*%
X145415000Y-98699316D03*
X141533446Y-107146034D03*
%TO.N,I2C5_SCL_MCM*%
X149475894Y-95724106D03*
X152555000Y-114685000D03*
%TO.N,Net-(U3J-GPIO_EMC_B1_39)*%
X146622067Y-98971423D03*
%TO.N,Net-(U3L-VDD_USB_3V3)*%
X138578764Y-100735000D03*
X133010000Y-107310000D03*
%TO.N,BRD_STAT_LED*%
X155894691Y-102490000D03*
X140943012Y-97578222D03*
%TO.N,USER_LED*%
X140178764Y-96642874D03*
X157540000Y-101210000D03*
%TO.N,FLEXPWM1_PWM1_A*%
X130445000Y-108083313D03*
X137360000Y-94640000D03*
%TO.N,PMIC_ON_REQ*%
X140915764Y-92642874D03*
%TO.N,TPU_POW_EN*%
X146487550Y-97419215D03*
X130920000Y-113080000D03*
%TO.N,FlexSPI_A_SS0*%
X134880000Y-101150000D03*
X142431997Y-113056106D03*
%TO.N,BT_CFG1_0*%
X140178764Y-103042874D03*
%TO.N,BT_CFG1_1*%
X138578764Y-102242874D03*
%TO.N,BT_CFG1_2*%
X136178764Y-105442874D03*
%TO.N,BT_CFG1_3*%
X137953612Y-104138140D03*
%TO.N,BT_CFG1_4*%
X136918107Y-104800060D03*
%TO.N,BT_CFG1_5*%
X136978764Y-105442872D03*
%TO.N,BT_CFG2_0*%
X140978764Y-102242874D03*
%TO.N,BT_CFG1_6*%
X141761009Y-102219874D03*
%TO.N,BT_CFG1_7*%
X141368974Y-101824635D03*
%TO.N,BT_CFG2_1*%
X142578764Y-103042876D03*
%TO.N,BT_CFG2_2*%
X142578763Y-103842876D03*
%TO.N,BT_CFG2_3*%
X140978764Y-103842874D03*
%TO.N,BOOT_MODE0*%
X143218847Y-94940111D03*
X155617190Y-96092336D03*
%TO.N,Net-(U3L-VDD_USB_1P8)*%
X138671393Y-99750245D03*
X134050622Y-100843177D03*
%TO.N,Net-(U3K-VDD_MIPI_1P8)*%
X137040000Y-107100000D03*
X140922964Y-101457871D03*
%TO.N,Net-(D3-K)*%
X129638531Y-94631480D03*
X154000000Y-92360000D03*
%TO.N,SEMC_D5*%
X144990000Y-101460000D03*
X154098781Y-105967847D03*
%TO.N,FlexSPI_A_D2*%
X142800000Y-114840000D03*
X136960000Y-99960000D03*
%TO.N,SEMC_A6*%
X150977946Y-101197392D03*
X147378764Y-103924726D03*
%TO.N,FlexSPI_A_D3*%
X135475464Y-101346173D03*
X134943335Y-111116665D03*
%TO.N,SEMC_D15*%
X148543478Y-100284180D03*
X156465000Y-100335000D03*
%TO.N,SEMC_D3*%
X152730000Y-102490000D03*
X146312730Y-102637900D03*
%TO.N,FlexSPI_A_CLK*%
X136980000Y-100630000D03*
X134600000Y-110040000D03*
%TO.N,SEMC_D6*%
X144597560Y-101086266D03*
X154098781Y-105167847D03*
%TO.N,SEMC_D12*%
X147648766Y-102178453D03*
X154235935Y-99065199D03*
%TO.N,SEMC_A11*%
X145037240Y-103956939D03*
X151680000Y-100370000D03*
%TO.N,SEMC_A8*%
X145778762Y-104642874D03*
X152255172Y-103362501D03*
%TO.N,SEMC_WE*%
X143947418Y-102118825D03*
X152610000Y-105730000D03*
%TO.N,SEMC_D7*%
X145715000Y-99888229D03*
X153298781Y-105967847D03*
%TO.N,LPSPI6_SDO*%
X143210000Y-85030000D03*
%TO.N,SEMC_BA1*%
X146575427Y-99933507D03*
X151698781Y-105167847D03*
%TO.N,SEMC_A12*%
X148820000Y-98820000D03*
X145778762Y-103842874D03*
%TO.N,LPUART6_RXD*%
X147287550Y-97547450D03*
%TO.N,SEMC_D2*%
X149749498Y-103655525D03*
X155698781Y-105167847D03*
%TO.N,SEMC_DM0*%
X144300000Y-101440000D03*
X153298781Y-105167845D03*
%TO.N,SEMC_CKE*%
X148340000Y-98120000D03*
X144111764Y-100544723D03*
%TO.N,SEMC_A5*%
X147090048Y-104748113D03*
X151670000Y-102858726D03*
%TO.N,SEMC_D13*%
X153080521Y-101990521D03*
X147720000Y-101677491D03*
%TO.N,FlexSPI_A_D0*%
X136190000Y-101440000D03*
X134184559Y-110150000D03*
%TO.N,SEMC_D14*%
X149009754Y-101448137D03*
X155538132Y-99611026D03*
%TO.N,SEMC_A9*%
X145015764Y-104655000D03*
X151704181Y-101125749D03*
%TO.N,LPSPI6_SDI*%
X144510000Y-85000000D03*
%TO.N,SEMC_DM1*%
X152498781Y-99775000D03*
X147370000Y-98977507D03*
%TO.N,LPUART6_TXD*%
X147378764Y-98213754D03*
X143070000Y-84200000D03*
%TO.N,FlexSPI_A_D1*%
X135301267Y-110938733D03*
X136202256Y-100005755D03*
%TO.N,SEMC_D10*%
X147314309Y-103105000D03*
X154083323Y-99857247D03*
%TO.N,LPSPI6_SCK*%
X145310000Y-84200000D03*
%TO.N,SEMC_D11*%
X154825630Y-100411734D03*
X146578766Y-102242873D03*
%TO.N,SEMC_D9*%
X152693368Y-103464908D03*
X146451000Y-103253005D03*
%TO.N,SEMC_A7*%
X148370000Y-98840000D03*
X144586998Y-102568192D03*
%TO.N,SEMC_D8*%
X145502235Y-101896703D03*
X153263381Y-99524215D03*
%TO.N,GND*%
X141829112Y-109745172D03*
X139092488Y-99750273D03*
X147725000Y-92055000D03*
X131516967Y-104708303D03*
X145546465Y-113434584D03*
X137841000Y-108145172D03*
X136178765Y-97442873D03*
X136978762Y-103842874D03*
X145190000Y-111530000D03*
X130500000Y-106780000D03*
X145715000Y-100642874D03*
X151397523Y-91474278D03*
X153980000Y-101960000D03*
X151240000Y-98955000D03*
X157450000Y-101620000D03*
X142580000Y-94250000D03*
X153290000Y-101180000D03*
X155820000Y-109730000D03*
X147378764Y-105442874D03*
X131750000Y-113050000D03*
X126705000Y-92365000D03*
X142070000Y-106340184D03*
X131462073Y-117001398D03*
X155680000Y-104360000D03*
X134578764Y-92642876D03*
X142306012Y-99931980D03*
X129508171Y-101208666D03*
X159795140Y-95834313D03*
X145412116Y-103382876D03*
X143870000Y-116600000D03*
X145340000Y-107630000D03*
X136178765Y-100642876D03*
X161299733Y-104620000D03*
X139910000Y-116440000D03*
X149260751Y-106663675D03*
X151676882Y-95267988D03*
X136795604Y-94678554D03*
X131156971Y-96527586D03*
X138960000Y-93060000D03*
X139290000Y-88740000D03*
X145964086Y-97342451D03*
X154100000Y-104390000D03*
%TO.N,Net-(IC3-OUT)*%
X132740000Y-116310000D03*
%TO.N,SEMC_D1*%
X154249501Y-102890000D03*
X146590000Y-101480000D03*
%TO.N,Net-(IC3-EN)*%
X131462073Y-117951398D03*
%TO.N,SEMC_A4*%
X150050295Y-101599909D03*
X144105000Y-103042873D03*
%TO.N,SEMC_A1*%
X150898781Y-105167847D03*
X146664639Y-105444000D03*
%TO.N,SEMC_D0*%
X145778764Y-101442874D03*
X143984651Y-106975000D03*
%TO.N,SDRAM_1V8*%
X154098781Y-101167847D03*
X155690000Y-101210000D03*
X153850046Y-103238116D03*
X153080046Y-103344857D03*
X154860000Y-103300000D03*
%TO.N,/Power_Sys/VBUCK_3V3_OUT*%
X154123826Y-94915682D03*
X149680000Y-118445000D03*
%TD*%
D15*
%TO.N,VDD_3V3*%
X136700000Y-95540000D02*
X135850000Y-94690000D01*
X139760000Y-95540000D02*
X136700000Y-95540000D01*
X141073222Y-96853222D02*
X139760000Y-95540000D01*
X142698976Y-96988394D02*
X142563804Y-96853222D01*
X143299587Y-96988394D02*
X142698976Y-96988394D01*
X143774754Y-96513227D02*
X143299587Y-96988394D01*
X144022940Y-96513227D02*
X143774754Y-96513227D01*
X144061166Y-96475000D02*
X144022940Y-96513227D01*
X147766077Y-96642876D02*
X147487651Y-96364450D01*
X148143479Y-96642876D02*
X147766077Y-96642876D01*
D16*
%TO.N,USER_LED*%
X140714112Y-97178222D02*
X140178764Y-96642874D01*
X142429185Y-97178222D02*
X140714112Y-97178222D01*
X142564355Y-97313393D02*
X142429185Y-97178222D01*
X143434206Y-97313394D02*
X142564355Y-97313393D01*
X143892600Y-96855000D02*
X143434206Y-97313394D01*
X144140786Y-96855000D02*
X143892600Y-96855000D01*
X144195786Y-96800000D02*
X144140786Y-96855000D01*
X145587298Y-96800000D02*
X144195786Y-96800000D01*
X145695848Y-96691450D02*
X145587298Y-96800000D01*
X147352203Y-96691450D02*
X145695848Y-96691450D01*
X148405076Y-97160000D02*
X147820753Y-97160000D01*
X149015736Y-97520000D02*
X148765075Y-97520000D01*
X152166141Y-98225000D02*
X149720736Y-98225000D01*
X152555386Y-98614245D02*
X152166141Y-98225000D01*
X154758519Y-98614245D02*
X152555386Y-98614245D01*
X154866962Y-98722688D02*
X154758519Y-98614245D01*
X155398261Y-99252575D02*
X154868374Y-98722688D01*
X155676070Y-99252575D02*
X155398261Y-99252575D01*
X156378495Y-99955000D02*
X155676070Y-99252575D01*
X157648455Y-101022339D02*
X156581116Y-99955000D01*
X157648455Y-101101545D02*
X157648455Y-101022339D01*
X157540000Y-101210000D02*
X157648455Y-101101545D01*
%TO.N,BRD_STAT_LED*%
X141329790Y-97965000D02*
X140943012Y-97578222D01*
X142150235Y-97965000D02*
X141329790Y-97965000D01*
X142280898Y-98095663D02*
X142150235Y-97965000D01*
%TO.N,USER_LED*%
X148765075Y-97520000D02*
X148405076Y-97160000D01*
%TO.N,BRD_STAT_LED*%
X142612270Y-98095663D02*
X142280898Y-98095663D01*
X142742933Y-97965000D02*
X142612270Y-98095663D01*
X143018395Y-97965000D02*
X142742933Y-97965000D01*
X143370001Y-97613394D02*
X143018395Y-97965000D01*
X143746864Y-97425000D02*
X143558470Y-97613394D01*
X143995050Y-97425000D02*
X143746864Y-97425000D01*
X144899950Y-97100000D02*
X144320050Y-97100000D01*
X144940177Y-97140227D02*
X144899950Y-97100000D01*
X145671335Y-97140227D02*
X144940177Y-97140227D01*
X145820112Y-96991450D02*
X145671335Y-97140227D01*
X147227939Y-96991450D02*
X145820112Y-96991450D01*
%TO.N,USER_LED*%
X149720736Y-98225000D02*
X149015736Y-97520000D01*
%TO.N,BRD_STAT_LED*%
X147696489Y-97460000D02*
X147227939Y-96991450D01*
X148280812Y-97460000D02*
X147696489Y-97460000D01*
X148640811Y-97820000D02*
X148280812Y-97460000D01*
X148891472Y-97820000D02*
X148640811Y-97820000D01*
X149596472Y-98525000D02*
X148891472Y-97820000D01*
X152041877Y-98525000D02*
X149596472Y-98525000D01*
X152733723Y-99216846D02*
X152041877Y-98525000D01*
X152935730Y-99216846D02*
X152733723Y-99216846D01*
X153008236Y-99144340D02*
X152935730Y-99216846D01*
X153077570Y-99144340D02*
X153008236Y-99144340D01*
X153097695Y-99124215D02*
X153077570Y-99144340D01*
X153429067Y-99124215D02*
X153097695Y-99124215D01*
X153789400Y-99484548D02*
X153429067Y-99124215D01*
X154847382Y-99484548D02*
X153789400Y-99484548D01*
X155569781Y-100616523D02*
X155569781Y-100206946D01*
X155265000Y-100921304D02*
X155569781Y-100616523D01*
X155265000Y-101945000D02*
X155265000Y-100921304D01*
X155810000Y-102490000D02*
X155265000Y-101945000D01*
X155894691Y-102490000D02*
X155810000Y-102490000D01*
%TO.N,TPU_POW_EN*%
X130920000Y-107001041D02*
X130920000Y-113080000D01*
X130975000Y-106946041D02*
X130920000Y-107001041D01*
X130975000Y-106593959D02*
X130975000Y-106946041D01*
X131308330Y-104330081D02*
X130920000Y-104718411D01*
D15*
%TO.N,VDD_3V3*%
X142563804Y-96853222D02*
X141073222Y-96853222D01*
D16*
%TO.N,TPU_POW_EN*%
X131478878Y-104330081D02*
X131308330Y-104330081D01*
%TO.N,USER_LED*%
X154868374Y-98722688D02*
X154866962Y-98722688D01*
%TO.N,TPU_POW_EN*%
X132395000Y-103018959D02*
X132395000Y-103413959D01*
X135158959Y-101560000D02*
X134721041Y-101560000D01*
X135463959Y-101865000D02*
X135158959Y-101560000D01*
X136310000Y-101865000D02*
X135463959Y-101865000D01*
X136615000Y-101560000D02*
X136310000Y-101865000D01*
D15*
%TO.N,VDD_3V3*%
X147487651Y-96364450D02*
X145269383Y-96364450D01*
D16*
%TO.N,TPU_POW_EN*%
X137556249Y-101560000D02*
X136615000Y-101560000D01*
X133291432Y-102122527D02*
X132395000Y-103018959D01*
X138202764Y-100579255D02*
X138202764Y-100913485D01*
X138423019Y-100359000D02*
X138202764Y-100579255D01*
X139034635Y-100359000D02*
X138423019Y-100359000D01*
X139065635Y-100390000D02*
X139034635Y-100359000D01*
X134158514Y-102122527D02*
X133291432Y-102122527D01*
%TO.N,BRD_STAT_LED*%
X144320050Y-97100000D02*
X143995050Y-97425000D01*
%TO.N,TPU_POW_EN*%
X141246951Y-100390000D02*
X139065635Y-100390000D01*
D15*
%TO.N,VDD_3V3*%
X145158833Y-96475000D02*
X144061166Y-96475000D01*
D16*
%TO.N,TPU_POW_EN*%
X142129971Y-99506980D02*
X141246951Y-100390000D01*
X142129971Y-99305055D02*
X142129971Y-99506980D01*
X143521632Y-97913394D02*
X142129971Y-99305055D01*
X143846128Y-97750000D02*
X143682734Y-97913394D01*
%TO.N,BRD_STAT_LED*%
X143558470Y-97613394D02*
X143370001Y-97613394D01*
%TO.N,TPU_POW_EN*%
X144094314Y-97750000D02*
X143846128Y-97750000D01*
X144444314Y-97400000D02*
X144094314Y-97750000D01*
D15*
%TO.N,VDD_3V3*%
X145269383Y-96364450D02*
X145158833Y-96475000D01*
D16*
%TO.N,TPU_POW_EN*%
X144775686Y-97400000D02*
X144444314Y-97400000D01*
X145558018Y-97489227D02*
X144864913Y-97489227D01*
X146442996Y-97419215D02*
X146169761Y-97692450D01*
X146487550Y-97419215D02*
X146442996Y-97419215D01*
D15*
%TO.N,TPU_RST_L*%
X144624649Y-97814649D02*
X144610000Y-97800000D01*
D16*
%TO.N,USER_LED*%
X147820753Y-97160000D02*
X147352203Y-96691450D01*
%TO.N,TPU_POW_EN*%
X130920000Y-104718411D02*
X130920000Y-106538959D01*
D15*
%TO.N,TPU_RST_L*%
X144624649Y-98145088D02*
X144624649Y-97814649D01*
X142137009Y-100632728D02*
X144624649Y-98145088D01*
D16*
%TO.N,TPU_POW_EN*%
X143682734Y-97913394D02*
X143521632Y-97913394D01*
D15*
%TO.N,TPU_RST_L*%
X142137009Y-102385787D02*
X142137009Y-100632728D01*
X141746000Y-102776796D02*
X142137009Y-102385787D01*
X141746000Y-103607383D02*
X141746000Y-102776796D01*
D16*
%TO.N,BRD_STAT_LED*%
X155569781Y-100206946D02*
X154847382Y-99484548D01*
D15*
%TO.N,TPU_RST_L*%
X140874000Y-104479383D02*
X141746000Y-103607383D01*
D16*
%TO.N,TPU_POW_EN*%
X134721041Y-101560000D02*
X134158514Y-102122527D01*
D15*
%TO.N,TPU_RST_L*%
X140874000Y-108215745D02*
X140874000Y-104479383D01*
X141397585Y-108739330D02*
X140874000Y-108215745D01*
X144776286Y-108807044D02*
X144708572Y-108739330D01*
D16*
%TO.N,TPU_POW_EN*%
X138202764Y-100913485D02*
X137556249Y-101560000D01*
X132395000Y-103413959D02*
X131478878Y-104330081D01*
X146169761Y-97692450D02*
X145761241Y-97692450D01*
X144864913Y-97489227D02*
X144775686Y-97400000D01*
X130920000Y-106538959D02*
X130975000Y-106593959D01*
%TO.N,USER_LED*%
X156581116Y-99955000D02*
X156378495Y-99955000D01*
%TO.N,TPU_POW_EN*%
X145761241Y-97692450D02*
X145558018Y-97489227D01*
D15*
%TO.N,TPU_RST_L*%
X144708572Y-108739330D02*
X141397585Y-108739330D01*
%TO.N,TPU_BOOT_FAIL*%
X142096000Y-103752357D02*
X141533446Y-104314911D01*
X142096000Y-102923185D02*
X142096000Y-103752357D01*
X142745000Y-102274185D02*
X142096000Y-102923185D01*
X142745000Y-100519711D02*
X142745000Y-102274185D01*
X144540524Y-98724187D02*
X142745000Y-100519711D01*
X145415000Y-98699316D02*
X145390129Y-98724187D01*
X145390129Y-98724187D02*
X144540524Y-98724187D01*
X141533446Y-104314911D02*
X141533446Y-107146034D01*
D16*
%TO.N,DCDC_1V8_OUT*%
X142045505Y-108060000D02*
X142274266Y-107831239D01*
X143407351Y-106412649D02*
X143407351Y-106401825D01*
X142274266Y-107831239D02*
X142274266Y-107545734D01*
X141250000Y-108060000D02*
X142045505Y-108060000D01*
X142274266Y-107545734D02*
X143407351Y-106412649D01*
D15*
%TO.N,VDD_1V8*%
X131755000Y-101305000D02*
X134123959Y-101305000D01*
X137964284Y-112764284D02*
X139890000Y-114690000D01*
X136369917Y-101018876D02*
X136561041Y-101210000D01*
X135699144Y-100695000D02*
X136023020Y-101018876D01*
X130820000Y-100370000D02*
X131755000Y-101305000D01*
X136561041Y-101210000D02*
X137251761Y-101210000D01*
X137251761Y-101210000D02*
X137447979Y-101013782D01*
X135981210Y-112764284D02*
X137964284Y-112764284D01*
X134123959Y-101305000D02*
X134733959Y-100695000D01*
X134733959Y-100695000D02*
X135699144Y-100695000D01*
X136023020Y-101018876D02*
X136369917Y-101018876D01*
%TO.N,MCM_3V3*%
X135726267Y-111102464D02*
X135310000Y-111518731D01*
X135464998Y-106944998D02*
X135464998Y-103391728D01*
X135464998Y-103391728D02*
X135508719Y-103348007D01*
X135464998Y-106944998D02*
X135330543Y-107079453D01*
X135310000Y-111518731D02*
X135310000Y-118000000D01*
X135726267Y-107206267D02*
X135726267Y-111102464D01*
X133841588Y-107079453D02*
X133186041Y-107735000D01*
X135464998Y-106944998D02*
X135726267Y-107206267D01*
X133186041Y-107735000D02*
X132833959Y-107735000D01*
X132833959Y-107735000D02*
X132440000Y-107341041D01*
X135330543Y-107079453D02*
X133841588Y-107079453D01*
X132440000Y-107341041D02*
X132440000Y-106440000D01*
D16*
%TO.N,VDD_SNVS_ANA*%
X155417605Y-98847655D02*
X154992638Y-98422688D01*
X139378764Y-94095161D02*
X139378764Y-92642874D01*
X147241585Y-95658764D02*
X144614749Y-95658764D01*
X147825697Y-96242876D02*
X147241585Y-95658764D01*
X157830627Y-100220000D02*
X157265627Y-99655000D01*
X142833596Y-96663394D02*
X142664010Y-96493808D01*
X139852764Y-95124050D02*
X139778764Y-95050050D01*
X154839538Y-98271000D02*
X154341236Y-98271000D01*
X144614749Y-95658764D02*
X144160064Y-96113449D01*
X140934620Y-95935000D02*
X140662300Y-95935000D01*
X148817369Y-96897369D02*
X148817369Y-96600980D01*
X141493428Y-96493808D02*
X140934620Y-95935000D01*
X153826236Y-97756000D02*
X153492862Y-97756000D01*
X144160064Y-96113449D02*
X143714913Y-96113449D01*
X139778764Y-94495161D02*
X139378764Y-94095161D01*
X143714913Y-96113449D02*
X143164968Y-96663394D01*
X154341236Y-98271000D02*
X153826236Y-97756000D01*
X139852764Y-95125464D02*
X139852764Y-95124050D01*
X155695414Y-98847655D02*
X155417605Y-98847655D01*
X156502759Y-99655000D02*
X155695414Y-98847655D01*
X142664010Y-96493808D02*
X141493428Y-96493808D01*
X148459265Y-96242876D02*
X147825697Y-96242876D01*
X140662300Y-95935000D02*
X139852764Y-95125464D01*
X154992638Y-98422688D02*
X154991225Y-98422687D01*
X143164968Y-96663394D02*
X142833596Y-96663394D01*
X153323862Y-97925000D02*
X149845000Y-97925000D01*
X149845000Y-97925000D02*
X148817369Y-96897369D01*
X153492862Y-97756000D02*
X153323862Y-97925000D01*
X148817369Y-96600980D02*
X148459265Y-96242876D01*
X154991225Y-98422687D02*
X154839538Y-98271000D01*
X157265627Y-99655000D02*
X156502759Y-99655000D01*
X139778764Y-95050050D02*
X139778764Y-94495161D01*
D15*
%TO.N,Net-(U3A-VDD_SNVS_IN)*%
X130440000Y-95065000D02*
X129400299Y-95065000D01*
X132168259Y-91430000D02*
X133691850Y-91430000D01*
X135552940Y-91550000D02*
X138370000Y-91550000D01*
X129163531Y-94828232D02*
X129163531Y-94434728D01*
X138370000Y-91550000D02*
X138600000Y-91780000D01*
X134365643Y-90756207D02*
X134759147Y-90756207D01*
X134759147Y-90756207D02*
X135552940Y-91550000D01*
X129163531Y-94434728D02*
X132168259Y-91430000D01*
X133691850Y-91430000D02*
X134365643Y-90756207D01*
X129400299Y-95065000D02*
X129163531Y-94828232D01*
%TO.N,Net-(U3E-XTALO)*%
X133043919Y-93196380D02*
X133290414Y-93442875D01*
X133290414Y-93442875D02*
X135378765Y-93442875D01*
D16*
%TO.N,USER_BUTTON*%
X141250971Y-95725000D02*
X141798850Y-95725000D01*
X140170000Y-94250000D02*
X140170000Y-94644029D01*
X155127258Y-98097688D02*
X155493073Y-98463503D01*
X154728530Y-97946000D02*
X154974158Y-97946000D01*
X154974158Y-97946000D02*
X155125845Y-98097688D01*
X149099894Y-95879851D02*
X150050000Y-96829957D01*
X148840745Y-95099000D02*
X149099894Y-95358149D01*
X153189242Y-97600000D02*
X153358243Y-97431000D01*
X142782357Y-95704275D02*
X143481403Y-95704275D01*
X142425630Y-96061002D02*
X142782357Y-95704275D01*
X140170000Y-94644029D02*
X141250971Y-95725000D01*
X148529255Y-95099000D02*
X148840745Y-95099000D01*
X150050000Y-97600000D02*
X153189242Y-97600000D01*
X149099894Y-95358149D02*
X149099894Y-95879851D01*
X153358243Y-97431000D02*
X154213528Y-97431000D01*
X141798850Y-95725000D02*
X142134852Y-96061002D01*
X143866423Y-95319255D02*
X148309000Y-95319255D01*
X155493073Y-98463503D02*
X155708619Y-98463503D01*
X148309000Y-95319255D02*
X148529255Y-95099000D01*
X154213528Y-97431000D02*
X154728530Y-97946000D01*
X143481403Y-95704275D02*
X143866423Y-95319255D01*
X142134852Y-96061002D02*
X142425630Y-96061002D01*
X155125845Y-98097688D02*
X155127258Y-98097688D01*
X150050000Y-96829957D02*
X150050000Y-97600000D01*
D15*
%TO.N,DA_nONKEY*%
X152880000Y-110990000D02*
X152945000Y-111055000D01*
X152945000Y-111055000D02*
X153419923Y-111055000D01*
X159731000Y-97541000D02*
X159500000Y-97310000D01*
X153419923Y-111055000D02*
X159730000Y-104744923D01*
X159730000Y-104744923D02*
X159730000Y-104223508D01*
X159730000Y-104223508D02*
X159731000Y-104222508D01*
X159731000Y-104222508D02*
X159731000Y-97541000D01*
D16*
%TO.N,BOOT_MODE1*%
X148490254Y-93180000D02*
X148994927Y-93684673D01*
X144325405Y-93180000D02*
X148490254Y-93180000D01*
X155183617Y-94745642D02*
X156489172Y-94745642D01*
X148994927Y-93684673D02*
X154122648Y-93684673D01*
X143820732Y-93684673D02*
X144325405Y-93180000D01*
X142578764Y-93442874D02*
X142820563Y-93684673D01*
X154122648Y-93684673D02*
X155183617Y-94745642D01*
X142820563Y-93684673D02*
X143820732Y-93684673D01*
D15*
%TO.N,I2C5_SDA*%
X153080889Y-109314111D02*
X153080889Y-109575889D01*
X144692703Y-93998000D02*
X143322895Y-95367808D01*
X155409493Y-96895000D02*
X155561180Y-97046687D01*
X153960000Y-96368000D02*
X154636868Y-96368000D01*
X150720830Y-96368000D02*
X148350830Y-93998000D01*
X153188000Y-96368000D02*
X153170000Y-96350000D01*
X159031000Y-103932560D02*
X153913560Y-109050000D01*
X153960000Y-96368000D02*
X150720830Y-96368000D01*
X148350830Y-93998000D02*
X144692703Y-93998000D01*
X142622435Y-95367808D02*
X142280241Y-95710002D01*
X155561180Y-97046687D02*
X156888049Y-97046687D01*
X156888049Y-97046687D02*
X159031000Y-99189638D01*
X153913560Y-109050000D02*
X153345000Y-109050000D01*
X143322895Y-95367808D02*
X142622435Y-95367808D01*
X153960000Y-96368000D02*
X153188000Y-96368000D01*
X159031000Y-99189638D02*
X159031000Y-103932560D01*
X153345000Y-109050000D02*
X153080889Y-109314111D01*
X155163868Y-96895000D02*
X155409493Y-96895000D01*
X154636868Y-96368000D02*
X155163868Y-96895000D01*
D16*
%TO.N,POR_B*%
X158040000Y-107340000D02*
X157985000Y-107340000D01*
D15*
X151006239Y-115095000D02*
X150894910Y-115206329D01*
D16*
X140538126Y-93091874D02*
X141938399Y-93091874D01*
X143122255Y-92995000D02*
X143591167Y-92995000D01*
X160549733Y-104309340D02*
X160549733Y-104830267D01*
D15*
X157985000Y-107395000D02*
X157985000Y-107340000D01*
D16*
X144056166Y-92530000D02*
X148759492Y-92530000D01*
X142862255Y-92735000D02*
X143122255Y-92995000D01*
X140180000Y-93450000D02*
X140538126Y-93091874D01*
X155595375Y-92805000D02*
X155902992Y-93112617D01*
X155902992Y-93112617D02*
X157642286Y-93112617D01*
X141938399Y-93091874D02*
X142295273Y-92735000D01*
X160549733Y-104830267D02*
X158040000Y-107340000D01*
X142295273Y-92735000D02*
X142862255Y-92735000D01*
D15*
X157116388Y-107880000D02*
X157500000Y-107880000D01*
X146175867Y-115206329D02*
X145725878Y-114756340D01*
X145725878Y-114444848D02*
X146180726Y-113990000D01*
D16*
X157642286Y-93112617D02*
X160681000Y-96151331D01*
D15*
X151006388Y-113990000D02*
X157116388Y-107880000D01*
X150894910Y-115206329D02*
X146175867Y-115206329D01*
D16*
X143591167Y-92995000D02*
X144056166Y-92530000D01*
X149034492Y-92805000D02*
X155595375Y-92805000D01*
D15*
X145725878Y-114756340D02*
X145725878Y-114444848D01*
D16*
X160681000Y-96151331D02*
X160681000Y-104178072D01*
D15*
X157500000Y-107880000D02*
X157985000Y-107395000D01*
X146180726Y-113990000D02*
X151006388Y-113990000D01*
D16*
X160681000Y-104178072D02*
X160549733Y-104309340D01*
X148759492Y-92530000D02*
X149034492Y-92805000D01*
D15*
%TO.N,I2C5_SCL*%
X159380000Y-104370000D02*
X159380000Y-104078534D01*
X154781841Y-96017999D02*
X153372973Y-96017999D01*
X143687113Y-93358673D02*
X143026308Y-93358673D01*
X144190785Y-92855000D02*
X143687113Y-93358673D01*
X155554467Y-96545000D02*
X155308842Y-96545000D01*
X149128547Y-93358673D02*
X148624873Y-92855000D01*
X153372973Y-96017999D02*
X153234974Y-95880000D01*
X141390763Y-94099130D02*
X141390763Y-95368403D01*
X155308842Y-96545000D02*
X154781841Y-96017999D01*
X159381000Y-99044664D02*
X157673168Y-97336832D01*
X142734509Y-93066874D02*
X142423019Y-93066874D01*
X157673168Y-95257886D02*
X156685924Y-94270642D01*
X157673168Y-97336832D02*
X157033023Y-96696687D01*
X143026308Y-93358673D02*
X142734509Y-93066874D01*
X153170000Y-110580000D02*
X159380000Y-104370000D01*
X159381000Y-104077534D02*
X159381000Y-99044664D01*
X157033023Y-96696687D02*
X155706155Y-96696687D01*
X155689428Y-93358673D02*
X149128547Y-93358673D01*
X148624873Y-92855000D02*
X144190785Y-92855000D01*
X156601397Y-94270642D02*
X155689428Y-93358673D01*
X153234974Y-95880000D02*
X150833872Y-95880000D01*
X156685924Y-94270642D02*
X156601397Y-94270642D01*
X155706155Y-96696687D02*
X155554467Y-96545000D01*
X150833872Y-95880000D02*
X150000550Y-95046678D01*
X159380000Y-104078534D02*
X159381000Y-104077534D01*
X157673168Y-97336832D02*
X157673168Y-95257886D01*
X142423019Y-93066874D02*
X141390763Y-94099130D01*
%TO.N,DA_GPIO4_SYS_EN*%
X151118248Y-90870000D02*
X151333248Y-90655000D01*
X155860703Y-90870000D02*
X161007000Y-96016297D01*
X151333248Y-90655000D02*
X151726752Y-90655000D01*
X151941752Y-90870000D02*
X155860703Y-90870000D01*
X161007000Y-104311692D02*
X160874733Y-104443959D01*
X148480000Y-90870000D02*
X151118248Y-90870000D01*
X146248143Y-114454329D02*
X146101878Y-114600594D01*
X151835671Y-114454329D02*
X146248143Y-114454329D01*
X160874733Y-105415267D02*
X151835671Y-114454329D01*
X161007000Y-96016297D02*
X161007000Y-104311692D01*
X151726752Y-90655000D02*
X151941752Y-90870000D01*
X160874733Y-104443959D02*
X160874733Y-105415267D01*
%TO.N,MCM_SD_ALARM*%
X143110000Y-101761041D02*
X143645000Y-101226041D01*
X141874266Y-107665553D02*
X141874266Y-107475734D01*
X143645000Y-100114685D02*
X144384711Y-99374974D01*
X145480001Y-99374974D02*
X145880000Y-98974975D01*
X141874266Y-107475734D02*
X143027351Y-106322649D01*
X143027351Y-106180784D02*
X143110000Y-106098135D01*
X144384711Y-99374974D02*
X145480001Y-99374974D01*
X143027351Y-106322649D02*
X143027351Y-106180784D01*
X145880000Y-98974975D02*
X145880000Y-98412250D01*
X143645000Y-101226041D02*
X143645000Y-100114685D01*
X143110000Y-106098135D02*
X143110000Y-101761041D01*
X145880000Y-98412250D02*
X145393048Y-97925298D01*
%TO.N,I2C5_SDA_MCM*%
X155264518Y-97245000D02*
X155018893Y-97245000D01*
X153024990Y-96774306D02*
X152523338Y-96774306D01*
X158680000Y-99335026D02*
X156741662Y-97396688D01*
X156741662Y-97396688D02*
X155416207Y-97396688D01*
X153843172Y-108624000D02*
X158680000Y-103787172D01*
X153829039Y-96718000D02*
X153817039Y-96730000D01*
X145375877Y-114298461D02*
X151050338Y-108624000D01*
X152082622Y-115556329D02*
X146030893Y-115556329D01*
X146030893Y-115556329D02*
X145375877Y-114901313D01*
X153817039Y-96730000D02*
X153069295Y-96730000D01*
X155416207Y-97396688D02*
X155264518Y-97245000D01*
X152425438Y-115213513D02*
X152082622Y-115556329D01*
X155018893Y-97245000D02*
X154491892Y-96718000D01*
X145375877Y-114901313D02*
X145375877Y-114298461D01*
X154491892Y-96718000D02*
X153829039Y-96718000D01*
X151050338Y-108624000D02*
X153843172Y-108624000D01*
X153069295Y-96730000D02*
X153024990Y-96774306D01*
X158680000Y-103787172D02*
X158680000Y-99335026D01*
%TO.N,I2C5_SCL_MCM*%
X155119544Y-97595000D02*
X155271233Y-97746688D01*
X151054332Y-97199306D02*
X149579132Y-95724106D01*
X152810000Y-97143000D02*
X152753694Y-97199306D01*
X145024877Y-113353717D02*
X145024877Y-114151658D01*
X145023877Y-114152657D02*
X145023877Y-115047116D01*
X152334077Y-115907329D02*
X152851438Y-115389968D01*
X156315689Y-97746689D02*
X158220000Y-99651000D01*
X152830000Y-97143000D02*
X153151270Y-97143000D01*
X153214270Y-97080000D02*
X154358917Y-97080000D01*
X153151270Y-97143000D02*
X153214270Y-97080000D01*
X152851438Y-115389968D02*
X152851438Y-114981438D01*
X149579132Y-95724106D02*
X149475894Y-95724106D01*
X152229426Y-115907329D02*
X152334077Y-115907329D01*
X154873918Y-97595000D02*
X155119544Y-97595000D01*
X145023877Y-115047116D02*
X145885089Y-115908329D01*
X158220000Y-103749368D02*
X154385368Y-107584000D01*
X154358917Y-97080000D02*
X154873918Y-97595000D01*
X155271233Y-97746688D02*
X156315689Y-97746689D01*
X152851438Y-114981438D02*
X152555000Y-114685000D01*
X145024877Y-114151658D02*
X145023877Y-114152657D01*
X154385368Y-107584000D02*
X150794594Y-107584000D01*
X158220000Y-99651000D02*
X158220000Y-103749368D01*
X152228425Y-115908329D02*
X152229426Y-115907329D01*
X150794594Y-107584000D02*
X145024877Y-113353717D01*
X152753694Y-97199306D02*
X151054332Y-97199306D01*
X145885089Y-115908329D02*
X152228425Y-115908329D01*
%TO.N,Net-(U3L-VDD_USB_3V3)*%
X136653766Y-102567872D02*
X135182012Y-102567872D01*
X137662637Y-101950000D02*
X137271638Y-101950000D01*
X138578764Y-100735000D02*
X138578764Y-101033873D01*
X137271638Y-101950000D02*
X136653766Y-102567872D01*
X134948400Y-106679669D02*
X133640331Y-106679669D01*
X135004808Y-106623261D02*
X134948400Y-106679669D01*
X135182012Y-102567872D02*
X135004808Y-102745076D01*
X135004808Y-102745076D02*
X135004808Y-106623261D01*
X133640331Y-106679669D02*
X133010000Y-107310000D01*
X138578764Y-101033873D02*
X137662637Y-101950000D01*
%TO.N,FLEXPWM1_PWM1_A*%
X130424000Y-108062313D02*
X130445000Y-108083313D01*
X133308289Y-96142741D02*
X133059330Y-96391700D01*
X130075000Y-106956041D02*
X130424000Y-107305041D01*
X136650000Y-93930000D02*
X135627545Y-93930000D01*
X133975000Y-95582545D02*
X133975000Y-95826041D01*
X133658300Y-96142741D02*
X133308289Y-96142741D01*
X133059330Y-96741711D02*
X130345000Y-99456041D01*
X135627545Y-93930000D02*
X133975000Y-95582545D01*
X130345000Y-100566752D02*
X130075000Y-100836752D01*
X133059330Y-96391700D02*
X133059330Y-96741711D01*
X130075000Y-100836752D02*
X130075000Y-106956041D01*
X133975000Y-95826041D02*
X133658300Y-96142741D01*
X137360000Y-94640000D02*
X136650000Y-93930000D01*
X130345000Y-99456041D02*
X130345000Y-100566752D01*
X130424000Y-107305041D02*
X130424000Y-108062313D01*
%TO.N,BOOT_MODE0*%
X146659818Y-93646000D02*
X148496634Y-93646000D01*
X153889896Y-94010000D02*
X155657281Y-95777385D01*
X143243662Y-94948534D02*
X144609184Y-93583012D01*
X146596830Y-93583012D02*
X146659818Y-93646000D01*
X155617190Y-96091293D02*
X155617190Y-96092336D01*
X148496634Y-93646000D02*
X148860634Y-94010000D01*
X144609184Y-93583012D02*
X146596830Y-93583012D01*
X148860634Y-94010000D02*
X153889896Y-94010000D01*
X155657281Y-95777385D02*
X155657281Y-96051202D01*
X155657281Y-96051202D02*
X155617190Y-96091293D01*
%TO.N,Net-(U3L-VDD_USB_1P8)*%
X135183959Y-100345000D02*
X134548799Y-100345000D01*
X137610041Y-100009000D02*
X137136041Y-99535000D01*
X138671393Y-99750245D02*
X138412638Y-100009000D01*
X137136041Y-99535000D02*
X135993959Y-99535000D01*
X134548799Y-100345000D02*
X134050622Y-100843177D01*
X135993959Y-99535000D02*
X135183959Y-100345000D01*
X138412638Y-100009000D02*
X137610041Y-100009000D01*
%TO.N,Net-(U3K-VDD_MIPI_1P8)*%
X137040000Y-107100000D02*
X140596718Y-103543282D01*
X140552764Y-102419329D02*
X140552764Y-101828071D01*
X140596718Y-102463283D02*
X140552764Y-102419329D01*
X140596718Y-103543282D02*
X140596718Y-102463283D01*
X140552764Y-101828071D02*
X140922964Y-101457871D01*
%TO.N,Net-(D3-K)*%
X134097283Y-92452605D02*
X134382012Y-92167876D01*
X145942886Y-91617875D02*
X150869368Y-91617875D01*
X135280590Y-92672950D02*
X136366009Y-92672950D01*
X151200771Y-91949278D02*
X151594275Y-91949278D01*
X134382012Y-92167876D02*
X134775516Y-92167876D01*
X138824138Y-92150000D02*
X143986550Y-92150000D01*
X138594138Y-92380000D02*
X138824138Y-92150000D01*
X136366009Y-92672950D02*
X136793959Y-92245000D01*
X150869368Y-91617875D02*
X151200771Y-91949278D01*
X143986550Y-92150000D02*
X144056550Y-92080000D01*
X137281041Y-92380000D02*
X138594138Y-92380000D01*
X131717406Y-92452605D02*
X134097283Y-92452605D01*
X137146041Y-92245000D02*
X137281041Y-92380000D01*
X151594275Y-91949278D02*
X151925678Y-91617875D01*
X129638531Y-94631480D02*
X129638531Y-94531480D01*
X136793959Y-92245000D02*
X137146041Y-92245000D01*
X153831675Y-92360000D02*
X154000000Y-92360000D01*
X153089550Y-91617875D02*
X153831675Y-92360000D01*
X145480761Y-92080000D02*
X145942886Y-91617875D01*
X144056550Y-92080000D02*
X145480761Y-92080000D01*
X134775516Y-92167876D02*
X135280590Y-92672950D01*
X129638531Y-94531480D02*
X131717406Y-92452605D01*
X151925678Y-91617875D02*
X153089550Y-91617875D01*
D17*
%TO.N,SEMC_D5*%
X154195110Y-104789000D02*
X154434781Y-105028671D01*
X153027470Y-104512845D02*
X153570092Y-104512845D01*
X146922868Y-104395341D02*
X147241814Y-104395341D01*
X146470000Y-103747181D02*
X146470000Y-104848209D01*
X145090000Y-101560000D02*
X145090000Y-101959644D01*
X147635473Y-104789000D02*
X152751315Y-104789000D01*
X145090000Y-101959644D02*
X146115000Y-102984644D01*
X147241814Y-104395341D02*
X147635473Y-104789000D01*
X146115000Y-103392181D02*
X146470000Y-103747181D01*
X154434781Y-105631847D02*
X154098781Y-105967847D01*
X146115000Y-102984644D02*
X146115000Y-103392181D01*
X154434781Y-105028671D02*
X154434781Y-105631847D01*
X152751315Y-104789000D02*
X153027470Y-104512845D01*
X153570092Y-104512845D02*
X153846247Y-104789000D01*
X153846247Y-104789000D02*
X154195110Y-104789000D01*
X144990000Y-101460000D02*
X145090000Y-101560000D01*
X146470000Y-104848209D02*
X146922868Y-104395341D01*
%TO.N,SEMC_D3*%
X152730000Y-102490000D02*
X151944473Y-102490000D01*
X150738583Y-102720000D02*
X146394830Y-102720000D01*
X151395527Y-102490000D02*
X150968583Y-102490000D01*
X151944473Y-102490000D02*
X151829473Y-102375000D01*
X150968583Y-102490000D02*
X150738583Y-102720000D01*
X151510527Y-102375000D02*
X151395527Y-102490000D01*
X146394830Y-102720000D02*
X146312730Y-102637900D01*
X151829473Y-102375000D02*
X151510527Y-102375000D01*
%TO.N,SEMC_D6*%
X144971998Y-102408719D02*
X144655000Y-102091721D01*
X144720000Y-103497778D02*
X144720000Y-102979663D01*
X152913781Y-105059000D02*
X152534318Y-105059000D01*
X144971998Y-102727665D02*
X144971998Y-102408719D01*
X144655000Y-102091721D02*
X144655000Y-101143706D01*
X144655000Y-101143706D02*
X144597560Y-101086266D01*
X152534318Y-105059000D02*
X151797318Y-105796000D01*
X154098781Y-105167847D02*
X153989934Y-105059000D01*
X153189936Y-104782845D02*
X152913781Y-105059000D01*
X144450000Y-104920000D02*
X144450000Y-103767778D01*
X153989934Y-105059000D02*
X153734409Y-105059000D01*
X153458254Y-104782845D02*
X153189936Y-104782845D01*
X144450000Y-103767778D02*
X144720000Y-103497778D01*
X145326000Y-105796000D02*
X144450000Y-104920000D01*
X151797318Y-105796000D02*
X145326000Y-105796000D01*
X144720000Y-102979663D02*
X144971998Y-102727665D01*
X153734409Y-105059000D02*
X153458254Y-104782845D01*
%TO.N,SEMC_DM0*%
X148819243Y-106490000D02*
X144940000Y-106490000D01*
X152962781Y-105921692D02*
X152818473Y-106066000D01*
X149243243Y-106066000D02*
X148819243Y-106490000D01*
X153298781Y-105444000D02*
X152962781Y-105780000D01*
X144940000Y-106490000D02*
X144180000Y-105730000D01*
X153298781Y-105167845D02*
X153298781Y-105444000D01*
X144180000Y-105730000D02*
X144180000Y-103545948D01*
X144450000Y-103275948D02*
X144450000Y-102912697D01*
X152818473Y-106066000D02*
X149243243Y-106066000D01*
X144244176Y-102336411D02*
X144300000Y-102280587D01*
X144300000Y-102280587D02*
X144300000Y-101440000D01*
X144450000Y-102912697D02*
X144244176Y-102706873D01*
X144180000Y-103545948D02*
X144450000Y-103275948D01*
X144244176Y-102706873D02*
X144244176Y-102336411D01*
X152962781Y-105780000D02*
X152962781Y-105921692D01*
%TO.N,SEMC_D13*%
X148755527Y-102071615D02*
X149595690Y-102071615D01*
X149595690Y-102071615D02*
X149778984Y-102254909D01*
X148282912Y-101599000D02*
X148755527Y-102071615D01*
X150321606Y-102254909D02*
X150741515Y-101835000D01*
X147720000Y-101677491D02*
X147798491Y-101599000D01*
X149778984Y-102254909D02*
X150321606Y-102254909D01*
X147798491Y-101599000D02*
X148282912Y-101599000D01*
X152925000Y-101835000D02*
X153080521Y-101990521D01*
X150741515Y-101835000D02*
X152925000Y-101835000D01*
%TO.N,SEMC_DM1*%
X147960340Y-99567847D02*
X152291628Y-99567847D01*
X152291628Y-99567847D02*
X152498781Y-99775000D01*
X147370000Y-98977507D02*
X147960340Y-99567847D01*
%TO.N,SEMC_D10*%
X150030724Y-103340000D02*
X151733199Y-103340000D01*
X151733199Y-103340000D02*
X152133199Y-102940000D01*
X154980000Y-100801838D02*
X155283781Y-100498057D01*
X154208923Y-99982847D02*
X154083323Y-99857247D01*
X155283781Y-100498057D02*
X155283781Y-100325411D01*
X152133199Y-102940000D02*
X153574473Y-102940000D01*
X154941216Y-99982847D02*
X154208923Y-99982847D01*
X153574473Y-102940000D02*
X154980000Y-101534473D01*
X154980000Y-101534473D02*
X154980000Y-100801838D01*
X149795724Y-103105000D02*
X150030724Y-103340000D01*
X155283781Y-100325411D02*
X154941216Y-99982847D01*
X147314309Y-103105000D02*
X149795724Y-103105000D01*
%TO.N,SEMC_D11*%
X149394754Y-101434754D02*
X149394754Y-101288664D01*
X154825630Y-100411734D02*
X152930070Y-100411734D01*
X148890617Y-101063137D02*
X148624754Y-101329000D01*
X149394754Y-101288664D02*
X149169227Y-101063137D01*
X151776804Y-101565000D02*
X150629677Y-101565000D01*
X149944909Y-101984909D02*
X149394754Y-101434754D01*
X147314646Y-101329000D02*
X146578766Y-102064880D01*
X148624754Y-101329000D02*
X147314646Y-101329000D01*
X150629677Y-101565000D02*
X150209768Y-101984909D01*
X149169227Y-101063137D02*
X148890617Y-101063137D01*
X150209768Y-101984909D02*
X149944909Y-101984909D01*
X152930070Y-100411734D02*
X151776804Y-101565000D01*
X146578766Y-102064880D02*
X146578766Y-102242873D01*
%TO.N,SEMC_D9*%
X151881126Y-104178874D02*
X152312499Y-103747501D01*
X152312499Y-103747501D02*
X152410775Y-103747501D01*
X152410775Y-103747501D02*
X152693368Y-103464908D01*
X146451000Y-103253005D02*
X146638995Y-103441000D01*
X147452066Y-103441000D02*
X148189940Y-104178874D01*
X146638995Y-103441000D02*
X147452066Y-103441000D01*
X148189940Y-104178874D02*
X151881126Y-104178874D01*
%TO.N,SEMC_A4*%
X143955000Y-101354447D02*
X143955000Y-101245960D01*
X147006311Y-100980000D02*
X148551580Y-100980000D01*
X144105000Y-103042873D02*
X143562418Y-102500291D01*
X148551580Y-100980000D02*
X148738443Y-100793137D01*
X144927731Y-100273229D02*
X146014939Y-100273229D01*
X143562418Y-102500291D02*
X143562418Y-101747029D01*
X148738443Y-100793137D02*
X149281065Y-100793137D01*
X146861311Y-100835000D02*
X147006311Y-100980000D01*
X150050295Y-101562367D02*
X150050295Y-101599909D01*
X146576710Y-100835000D02*
X146861311Y-100835000D01*
X149281065Y-100793137D02*
X150050295Y-101562367D01*
X146014939Y-100273229D02*
X146576710Y-100835000D01*
X143562418Y-101747029D02*
X143955000Y-101354447D01*
X143955000Y-101245960D02*
X144927731Y-100273229D01*
%TO.N,SEMC_A1*%
X150837808Y-105106874D02*
X147001765Y-105106874D01*
X147001765Y-105106874D02*
X146664639Y-105444000D01*
X150898781Y-105167847D02*
X150837808Y-105106874D01*
%TD*%
M02*
