M48
; DRILL file {KiCad 9.0.5} date 2025-11-20T16:18:24-0500
; FORMAT={-:-/ absolute / metric / decimal}
; #@! TF.CreationDate,2025-11-20T16:18:24-05:00
; #@! TF.GenerationSoftware,Kicad,Pcbnew,9.0.5
; #@! TF.FileFunction,Plated,1,6,PTH
FMAT,2
METRIC
; #@! TA.AperFunction,Plated,PTH,ViaDrill
T1C0.150
; #@! TA.AperFunction,Plated,PTH,ComponentDrill
T2C0.650
; #@! TA.AperFunction,Plated,PTH,ComponentDrill
T3C1.000
; #@! TA.AperFunction,Plated,PTH,ComponentDrill
T4C2.100
%
G90
G05
T1
X123.66Y-94.27
X126.705Y-92.365
X127.955Y-104.156
X128.503Y-102.531
X128.54Y-103.65
X128.798Y-111.305
X128.88Y-103.0
X129.126Y-98.909
X129.316Y-102.538
X129.508Y-101.209
X129.612Y-97.292
X129.639Y-94.631
X130.44Y-95.065
X130.445Y-108.083
X130.5Y-106.78
X130.82Y-100.37
X130.92Y-113.08
X131.157Y-96.528
X131.268Y-99.268
X131.32Y-115.22
X131.462Y-117.001
X131.462Y-117.951
X131.517Y-104.708
X131.693Y-86.461
X131.75Y-113.05
X132.174Y-100.476
X132.44Y-106.44
X132.7Y-114.138
X132.74Y-116.31
X132.841Y-103.557
X133.01Y-107.31
X133.044Y-93.196
X133.734Y-100.524
X134.051Y-100.843
X134.185Y-110.15
X134.579Y-92.643
X134.579Y-94.243
X134.6Y-110.04
X134.88Y-101.15
X134.943Y-111.117
X135.008Y-101.946
X135.301Y-110.939
X135.31Y-118.0
X135.379Y-93.443
X135.475Y-101.346
X135.509Y-103.348
X135.85Y-94.69
X135.98Y-92.04
X135.981Y-112.764
X136.179Y-105.443
X136.179Y-97.443
X136.179Y-100.643
X136.19Y-101.44
X136.202Y-100.006
X136.58Y-97.725
X136.796Y-94.679
X136.91Y-109.5
X136.918Y-104.8
X136.96Y-99.96
X136.97Y-92.67
X136.979Y-103.843
X136.979Y-105.443
X136.98Y-100.63
X137.04Y-107.1
X137.046Y-103.126
X137.05Y-108.69
X137.36Y-94.64
X137.37Y-97.83
X137.448Y-101.014
X137.841Y-108.145
X137.954Y-104.138
X138.145Y-102.556
X138.579Y-94.243
X138.579Y-94.934
X138.579Y-100.735
X138.579Y-102.243
X138.6Y-91.78
X138.671Y-99.75
X138.96Y-93.06
X138.973Y-98.677
X139.092Y-99.75
X139.29Y-88.74
X139.352Y-94.934
X139.379Y-92.643
X139.379Y-95.965
X139.89Y-114.69
X139.91Y-116.44
X140.17Y-94.25
X140.171Y-101.443
X140.179Y-96.643
X140.179Y-103.043
X140.18Y-93.45
X140.916Y-92.643
X140.923Y-101.458
X140.943Y-97.578
X140.979Y-102.243
X140.979Y-103.843
X141.25Y-108.06
X141.369Y-101.825
X141.37Y-102.66
X141.391Y-95.368
X141.397Y-107.575
X141.533Y-107.146
X141.761Y-102.22
X141.779Y-97.565
X141.829Y-109.745
X141.874Y-107.666
X142.07Y-106.34
X142.28Y-95.71
X142.306Y-99.932
X142.432Y-113.056
X142.447Y-97.696
X142.568Y-94.957
X142.579Y-103.843
X142.579Y-93.443
X142.579Y-103.043
X142.58Y-94.25
X142.8Y-114.84
X142.999Y-96.263
X143.0Y-90.37
X143.07Y-84.2
X143.21Y-85.03
X143.219Y-94.94
X143.27Y-100.643
X143.407Y-106.402
X143.87Y-116.6
X143.947Y-102.119
X143.985Y-106.975
X144.105Y-103.043
X144.112Y-100.545
X144.3Y-101.44
X144.51Y-85.0
X144.587Y-102.568
X144.598Y-101.086
X144.61Y-97.8
X144.76Y-96.01
X144.776Y-108.807
X144.99Y-101.46
X145.016Y-104.655
X145.037Y-103.957
X145.19Y-111.53
X145.31Y-84.2
X145.328Y-94.725
X145.34Y-107.63
X145.393Y-97.925
X145.412Y-103.383
X145.415Y-98.699
X145.502Y-101.897
X145.546Y-113.435
X145.715Y-99.888
X145.715Y-100.643
X145.779Y-103.843
X145.779Y-104.643
X145.779Y-101.443
X145.964Y-97.342
X146.102Y-114.601
X146.13Y-94.71
X146.313Y-102.638
X146.451Y-103.253
X146.488Y-97.419
X146.575Y-99.934
X146.579Y-102.243
X146.59Y-101.48
X146.622Y-98.971
X146.665Y-105.444
X147.09Y-104.748
X147.288Y-97.547
X147.314Y-103.105
X147.37Y-98.978
X147.379Y-98.214
X147.379Y-103.925
X147.379Y-105.443
X147.649Y-102.178
X147.72Y-101.677
X147.725Y-92.055
X147.754Y-107.528
X148.07Y-94.86
X148.143Y-96.643
X148.34Y-98.12
X148.37Y-98.84
X148.48Y-90.87
X148.543Y-100.284
X148.685Y-95.475
X148.82Y-98.82
X149.01Y-101.448
X149.261Y-106.664
X149.476Y-95.724
X149.68Y-118.445
X149.749Y-103.656
X149.95Y-114.83
X150.001Y-95.047
X150.05Y-101.6
X150.512Y-97.22
X150.899Y-105.168
X150.978Y-101.197
X151.006Y-115.095
X151.24Y-98.955
X151.398Y-91.474
X151.67Y-102.859
X151.677Y-95.268
X151.68Y-100.37
X151.699Y-105.168
X151.704Y-101.126
X152.255Y-103.363
X152.425Y-115.214
X152.499Y-99.775
X152.5Y-107.96
X152.523Y-96.774
X152.555Y-114.685
X152.61Y-105.73
X152.693Y-103.465
X152.73Y-102.49
X152.88Y-110.99
X152.939Y-112.729
X153.046Y-110.075
X153.08Y-103.345
X153.081Y-101.991
X153.081Y-109.576
X153.17Y-96.35
X153.17Y-110.58
X153.263Y-99.524
X153.29Y-101.18
X153.299Y-105.168
X153.299Y-105.968
X153.66Y-98.155
X153.85Y-103.238
X153.98Y-101.96
X154.0Y-92.36
X154.083Y-99.857
X154.099Y-101.168
X154.099Y-105.168
X154.099Y-105.968
X154.1Y-104.39
X154.124Y-94.916
X154.236Y-99.065
X154.25Y-102.89
X154.826Y-100.412
X154.86Y-103.3
X155.538Y-99.611
X155.617Y-96.092
X155.68Y-104.36
X155.69Y-101.21
X155.699Y-105.168
X155.709Y-98.464
X155.82Y-109.73
X155.895Y-102.49
X155.908Y-92.383
X156.16Y-94.36
X156.32Y-102.63
X156.341Y-98.997
X156.465Y-100.335
X156.489Y-94.746
X156.559Y-95.696
X157.052Y-104.339
X157.45Y-101.62
X157.54Y-101.21
X157.831Y-100.22
X157.985Y-107.34
X158.46Y-114.75
X159.5Y-97.31
X159.795Y-95.834
X160.631Y-98.32
X161.3Y-104.62
T3
X122.45Y-82.5
X122.45Y-120.5
X122.46Y-84.969
X122.46Y-87.509
X122.46Y-90.049
X122.46Y-92.589
X122.504Y-110.422
X122.504Y-112.962
X122.504Y-115.502
X122.504Y-118.042
X124.99Y-82.5
X124.99Y-120.5
X127.53Y-82.5
X127.53Y-120.5
X130.07Y-82.5
X130.07Y-120.5
X132.61Y-82.5
X132.61Y-120.5
X135.15Y-82.5
X135.15Y-120.5
X137.69Y-82.5
X137.69Y-120.5
X140.23Y-82.5
X140.23Y-120.5
X142.77Y-82.5
X142.77Y-120.5
X145.31Y-82.5
X145.31Y-120.5
X147.85Y-82.5
X147.85Y-120.5
X150.39Y-82.5
X150.39Y-120.5
X152.93Y-82.5
X152.93Y-120.5
X155.47Y-82.5
X155.47Y-120.5
X158.01Y-82.5
X158.01Y-120.5
X160.546Y-110.392
X160.546Y-112.932
X160.546Y-115.472
X160.546Y-118.012
X160.548Y-85.01
X160.548Y-87.55
X160.548Y-90.09
X160.548Y-92.63
X160.55Y-82.5
X160.55Y-120.5
T4
X127.22Y-87.22
X127.22Y-115.78
X155.78Y-87.22
X155.78Y-115.78
T2
X122.862Y-97.461G85X121.562Y-97.461
G05
X122.862Y-106.101G85X121.562Y-106.101
G05
X126.537Y-97.461G85X125.537Y-97.461
G05
X126.537Y-106.101G85X125.537Y-106.101
G05
M30
