%TF.GenerationSoftware,KiCad,Pcbnew,9.0.4*%
%TF.CreationDate,2025-12-30T15:29:52-05:00*%
%TF.ProjectId,sb-tpu,73622d74-7075-42e6-9b69-6361645f7063,rev?*%
%TF.SameCoordinates,Original*%
%TF.FileFunction,Drillmap*%
%TF.FilePolarity,Positive*%
%FSLAX45Y45*%
G04 Gerber Fmt 4.5, Leading zero omitted, Abs format (unit mm)*
G04 Created by KiCad (PCBNEW 9.0.4) date 2025-12-30 15:29:52*
%MOMM*%
%LPD*%
G01*
G04 APERTURE LIST*
%ADD10C,0.050000*%
%ADD11C,0.200000*%
%ADD12C,0.100000*%
%ADD13C,0.210000*%
G04 APERTURE END LIST*
D10*
X16300000Y-12046000D02*
X16300000Y-8254000D01*
X16300000Y-12046000D02*
G75*
G02*
X16046000Y-12300000I-254000J0D01*
G01*
X16046000Y-8000000D02*
G75*
G02*
X16300000Y-8254000I0J-254000D01*
G01*
X12254000Y-12300000D02*
G75*
G02*
X12000000Y-12046000I0J254000D01*
G01*
X12254000Y-8000000D02*
X16046000Y-8000000D01*
X12000000Y-8254000D02*
G75*
G02*
X12254000Y-8000000I254000J0D01*
G01*
X12000000Y-12046000D02*
X12000000Y-8254000D01*
X12254000Y-12300000D02*
X16046000Y-12300000D01*
D11*
D12*
X12358500Y-9419500D02*
X12373500Y-9434500D01*
X12373500Y-9419500D02*
X12358500Y-9434500D01*
X12385500Y-10016299D02*
X12400500Y-10031299D01*
X12400500Y-10016299D02*
X12385500Y-10031299D01*
X12477500Y-10383500D02*
X12492500Y-10398500D01*
X12492500Y-10383500D02*
X12477500Y-10398500D01*
X12618500Y-9257500D02*
X12633500Y-9272500D01*
X12633500Y-9257500D02*
X12618500Y-9272500D01*
X12741500Y-9126500D02*
X12756500Y-9141500D01*
X12756500Y-9126500D02*
X12741500Y-9141500D01*
X12783500Y-10260500D02*
X12798500Y-10275500D01*
X12798500Y-10260500D02*
X12783500Y-10275500D01*
X12842500Y-11111500D02*
X12857500Y-11126500D01*
X12857500Y-11111500D02*
X12842500Y-11126500D01*
X12846500Y-10357500D02*
X12861500Y-10372500D01*
X12861500Y-10357500D02*
X12846500Y-10372500D01*
X12867500Y-10284500D02*
X12882500Y-10299500D01*
X12882500Y-10284500D02*
X12867500Y-10299500D01*
X12905100Y-9883388D02*
X12920100Y-9898388D01*
X12920100Y-9883388D02*
X12905100Y-9898388D01*
X12921500Y-10130500D02*
X12936500Y-10145500D01*
X12936500Y-10130500D02*
X12921500Y-10145500D01*
X12924069Y-10246319D02*
X12939069Y-10261319D01*
X12939069Y-10246319D02*
X12924069Y-10261319D01*
X12953663Y-9721663D02*
X12968663Y-9736663D01*
X12968663Y-9721663D02*
X12953663Y-9736663D01*
X13015643Y-10029617D02*
X13030643Y-10044617D01*
X13030643Y-10029617D02*
X13015643Y-10044617D01*
X13073500Y-10698500D02*
X13088500Y-10713500D01*
X13088500Y-10698500D02*
X13073500Y-10713500D01*
X13081579Y-11228936D02*
X13096579Y-11243936D01*
X13096579Y-11228936D02*
X13081579Y-11243936D01*
X13108197Y-9645259D02*
X13123197Y-9660259D01*
X13123197Y-9645259D02*
X13108197Y-9660259D01*
X13119336Y-9919336D02*
X13134336Y-9934336D01*
X13134336Y-9919336D02*
X13119336Y-9934336D01*
X13124500Y-11514500D02*
X13139500Y-11529500D01*
X13139500Y-11514500D02*
X13124500Y-11529500D01*
X13138707Y-11692640D02*
X13153707Y-11707640D01*
X13153707Y-11692640D02*
X13138707Y-11707640D01*
X13138707Y-11787640D02*
X13153707Y-11802640D01*
X13153707Y-11787640D02*
X13138707Y-11802640D01*
X13144197Y-10463330D02*
X13159197Y-10478330D01*
X13159197Y-10463330D02*
X13144197Y-10478330D01*
X13161822Y-8638559D02*
X13176822Y-8653559D01*
X13176822Y-8638559D02*
X13161822Y-8653559D01*
X13167500Y-11297500D02*
X13182500Y-11312500D01*
X13182500Y-11297500D02*
X13167500Y-11312500D01*
X13176052Y-10928948D02*
X13191052Y-10943948D01*
X13191052Y-10928948D02*
X13176052Y-10943948D01*
X13236500Y-10636500D02*
X13251500Y-10651500D01*
X13251500Y-10636500D02*
X13236500Y-10651500D01*
X13262494Y-11406263D02*
X13277494Y-11421263D01*
X13277494Y-11406263D02*
X13262494Y-11421263D01*
X13266500Y-11623500D02*
X13281500Y-11638500D01*
X13281500Y-11623500D02*
X13266500Y-11638500D01*
X13284558Y-10339500D02*
X13299558Y-10354500D01*
X13299558Y-10339500D02*
X13284558Y-10354500D01*
X13293500Y-10723500D02*
X13308500Y-10738500D01*
X13308500Y-10723500D02*
X13293500Y-10738500D01*
X13365889Y-10044851D02*
X13380889Y-10059851D01*
X13380889Y-10044851D02*
X13365889Y-10059851D01*
X13397562Y-10076818D02*
X13412562Y-10091818D01*
X13412562Y-10076818D02*
X13397562Y-10091818D01*
X13410956Y-11007500D02*
X13425956Y-11022500D01*
X13425956Y-11007500D02*
X13410956Y-11022500D01*
X13450376Y-9256788D02*
X13465376Y-9271788D01*
X13465376Y-9256788D02*
X13450376Y-9271788D01*
X13450376Y-9416788D02*
X13465376Y-9431788D01*
X13465376Y-9416788D02*
X13450376Y-9431788D01*
X13452500Y-10996500D02*
X13467500Y-11011500D01*
X13467500Y-10996500D02*
X13452500Y-11011500D01*
X13478841Y-10096500D02*
X13493841Y-10111500D01*
X13493841Y-10096500D02*
X13478841Y-10111500D01*
X13486833Y-11104167D02*
X13501833Y-11119167D01*
X13501833Y-11104167D02*
X13486833Y-11119167D01*
X13487500Y-10176500D02*
X13502500Y-10191500D01*
X13502500Y-10176500D02*
X13487500Y-10191500D01*
X13522627Y-11086373D02*
X13537627Y-11101373D01*
X13537627Y-11086373D02*
X13522627Y-11101373D01*
X13523500Y-11792500D02*
X13538500Y-11807500D01*
X13538500Y-11792500D02*
X13523500Y-11807500D01*
X13528076Y-10324666D02*
X13543076Y-10339666D01*
X13543076Y-10324666D02*
X13528076Y-10339666D01*
X13544246Y-10120109D02*
X13559246Y-10135109D01*
X13559246Y-10120109D02*
X13544246Y-10135109D01*
X13577500Y-9461500D02*
X13592500Y-9476500D01*
X13592500Y-9461500D02*
X13577500Y-9476500D01*
X13590500Y-9196500D02*
X13605500Y-9211500D01*
X13605500Y-9196500D02*
X13590500Y-9211500D01*
X13594853Y-11264000D02*
X13609853Y-11279000D01*
X13609853Y-11264000D02*
X13594853Y-11279000D01*
X13610376Y-10536787D02*
X13625376Y-10551787D01*
X13625376Y-10536787D02*
X13610376Y-10551787D01*
X13610376Y-9736787D02*
X13625376Y-9751787D01*
X13625376Y-9736787D02*
X13610376Y-9751787D01*
X13610376Y-10056788D02*
X13625376Y-10071788D01*
X13625376Y-10056788D02*
X13610376Y-10071788D01*
X13611500Y-10136500D02*
X13626500Y-10151500D01*
X13626500Y-10136500D02*
X13611500Y-10151500D01*
X13612726Y-9993076D02*
X13627726Y-10008076D01*
X13627726Y-9993076D02*
X13612726Y-10008076D01*
X13650500Y-9765027D02*
X13665500Y-9780027D01*
X13665500Y-9765027D02*
X13650500Y-9780027D01*
X13672060Y-9460355D02*
X13687060Y-9475355D01*
X13687060Y-9460355D02*
X13672060Y-9475355D01*
X13683500Y-10942500D02*
X13698500Y-10957500D01*
X13698500Y-10942500D02*
X13683500Y-10957500D01*
X13688500Y-9988500D02*
X13703500Y-10003500D01*
X13703500Y-9988500D02*
X13688500Y-10003500D01*
X13689500Y-9259500D02*
X13704500Y-9274500D01*
X13704500Y-9259500D02*
X13689500Y-9274500D01*
X13690376Y-10376787D02*
X13705376Y-10391787D01*
X13705376Y-10376787D02*
X13690376Y-10391787D01*
X13690376Y-10536787D02*
X13705376Y-10551787D01*
X13705376Y-10536787D02*
X13690376Y-10551787D01*
X13690376Y-10456787D02*
X13705376Y-10471787D01*
X13705376Y-10456787D02*
X13690376Y-10471787D01*
X13690500Y-10055500D02*
X13705500Y-10070500D01*
X13705500Y-10055500D02*
X13690500Y-10070500D01*
X13696500Y-10702500D02*
X13711500Y-10717500D01*
X13711500Y-10702500D02*
X13696500Y-10717500D01*
X13697143Y-10305143D02*
X13712143Y-10320143D01*
X13712143Y-10305143D02*
X13697143Y-10320143D01*
X13697500Y-10861500D02*
X13712500Y-10876500D01*
X13712500Y-10861500D02*
X13697500Y-10876500D01*
X13728500Y-9456500D02*
X13743500Y-9471500D01*
X13743500Y-9456500D02*
X13728500Y-9471500D01*
X13729500Y-9775500D02*
X13744500Y-9790500D01*
X13744500Y-9775500D02*
X13729500Y-9790500D01*
X13737298Y-10093878D02*
X13752298Y-10108878D01*
X13752298Y-10093878D02*
X13737298Y-10108878D01*
X13770376Y-10376787D02*
X13785376Y-10391787D01*
X13785376Y-10376787D02*
X13770376Y-10391787D01*
X13776600Y-10777000D02*
X13791600Y-10792000D01*
X13791600Y-10777000D02*
X13776600Y-10792000D01*
X13806988Y-10248103D02*
X13821988Y-10263103D01*
X13821988Y-10248103D02*
X13806988Y-10263103D01*
X13850376Y-9976788D02*
X13865376Y-9991788D01*
X13865376Y-9976788D02*
X13850376Y-9991788D01*
X13850376Y-9416787D02*
X13865376Y-9431787D01*
X13865376Y-9416787D02*
X13850376Y-9431787D01*
X13850376Y-9485916D02*
X13865376Y-9500916D01*
X13865376Y-9485916D02*
X13850376Y-9500916D01*
X13850376Y-10066000D02*
X13865376Y-10081000D01*
X13865376Y-10066000D02*
X13850376Y-10081000D01*
X13850376Y-10216787D02*
X13865376Y-10231787D01*
X13865376Y-10216787D02*
X13850376Y-10231787D01*
X13852500Y-9170500D02*
X13867500Y-9185500D01*
X13867500Y-9170500D02*
X13852500Y-9185500D01*
X13888500Y-9298500D02*
X13903500Y-9313500D01*
X13903500Y-9298500D02*
X13888500Y-9313500D01*
X13889803Y-9860197D02*
X13904803Y-9875197D01*
X13904803Y-9860197D02*
X13889803Y-9875197D01*
X13901749Y-9967527D02*
X13916749Y-9982527D01*
X13916749Y-9967527D02*
X13901749Y-9982527D01*
X13921500Y-8866500D02*
X13936500Y-8881500D01*
X13936500Y-8866500D02*
X13921500Y-8881500D01*
X13927669Y-9485916D02*
X13942669Y-9500916D01*
X13942669Y-9485916D02*
X13927669Y-9500916D01*
X13930376Y-9256787D02*
X13945376Y-9271787D01*
X13945376Y-9256787D02*
X13930376Y-9271787D01*
X13930376Y-9589000D02*
X13945376Y-9604000D01*
X13945376Y-9589000D02*
X13930376Y-9604000D01*
X13981500Y-11461500D02*
X13996500Y-11476500D01*
X13996500Y-11461500D02*
X13981500Y-11476500D01*
X13983500Y-11636500D02*
X13998500Y-11651500D01*
X13998500Y-11636500D02*
X13983500Y-11651500D01*
X14009500Y-9417500D02*
X14024500Y-9432500D01*
X14024500Y-9417500D02*
X14009500Y-9432500D01*
X14009600Y-10136787D02*
X14024600Y-10151787D01*
X14024600Y-10136787D02*
X14009600Y-10151787D01*
X14010376Y-9656787D02*
X14025376Y-9671787D01*
X14025376Y-9656787D02*
X14010376Y-9671787D01*
X14010376Y-10296787D02*
X14025376Y-10311787D01*
X14025376Y-10296787D02*
X14010376Y-10311787D01*
X14010500Y-9337500D02*
X14025500Y-9352500D01*
X14025500Y-9337500D02*
X14010500Y-9352500D01*
X14084076Y-9256787D02*
X14099076Y-9271787D01*
X14099076Y-9256787D02*
X14084076Y-9271787D01*
X14090376Y-10136787D02*
X14105376Y-10151787D01*
X14105376Y-10136787D02*
X14090376Y-10151787D01*
X14090376Y-10216787D02*
X14105376Y-10231787D01*
X14105376Y-10216787D02*
X14090376Y-10231787D01*
X14090376Y-10376787D02*
X14105376Y-10391787D01*
X14105376Y-10376787D02*
X14090376Y-10391787D01*
X14092676Y-9750322D02*
X14107676Y-9765322D01*
X14107676Y-9750322D02*
X14092676Y-9765322D01*
X14117500Y-10175500D02*
X14132500Y-10190500D01*
X14132500Y-10175500D02*
X14117500Y-10190500D01*
X14117500Y-10798500D02*
X14132500Y-10813500D01*
X14132500Y-10798500D02*
X14117500Y-10813500D01*
X14119500Y-10257500D02*
X14134500Y-10272500D01*
X14134500Y-10257500D02*
X14119500Y-10272500D01*
X14131576Y-9529340D02*
X14146576Y-9544340D01*
X14146576Y-9529340D02*
X14131576Y-9544340D01*
X14132247Y-10750000D02*
X14147247Y-10765000D01*
X14147247Y-10750000D02*
X14132247Y-10765000D01*
X14145845Y-10707103D02*
X14160845Y-10722103D01*
X14160845Y-10707103D02*
X14145845Y-10722103D01*
X14147500Y-11546433D02*
X14162500Y-11561433D01*
X14162500Y-11546433D02*
X14147500Y-11561433D01*
X14150500Y-11226433D02*
X14165500Y-11241433D01*
X14165500Y-11226433D02*
X14150500Y-11241433D01*
X14170376Y-9749000D02*
X14185376Y-9764000D01*
X14185376Y-9749000D02*
X14170376Y-9764000D01*
X14175411Y-10967017D02*
X14190411Y-10982017D01*
X14190411Y-10967017D02*
X14175411Y-10982017D01*
X14179927Y-10759055D02*
X14194927Y-10774055D01*
X14194927Y-10759055D02*
X14179927Y-10774055D01*
X14199500Y-10626518D02*
X14214500Y-10641518D01*
X14214500Y-10626518D02*
X14199500Y-10641518D01*
X14200638Y-10181914D02*
X14215638Y-10196914D01*
X14215638Y-10181914D02*
X14200638Y-10196914D01*
X14220524Y-9563500D02*
X14235524Y-9578500D01*
X14235524Y-9563500D02*
X14220524Y-9578500D01*
X14235700Y-11298111D02*
X14250700Y-11313111D01*
X14250700Y-11298111D02*
X14235700Y-11313111D01*
X14241265Y-9967676D02*
X14256265Y-9982676D01*
X14256265Y-9967676D02*
X14241265Y-9982676D01*
X14249276Y-9488242D02*
X14264276Y-9503242D01*
X14264276Y-9488242D02*
X14249276Y-9503242D01*
X14250376Y-10376788D02*
X14265376Y-10391788D01*
X14265376Y-10376788D02*
X14250376Y-10391788D01*
X14250376Y-9336787D02*
X14265376Y-9351787D01*
X14265376Y-9336787D02*
X14250376Y-9351787D01*
X14250376Y-10296788D02*
X14265376Y-10311788D01*
X14265376Y-10296788D02*
X14250376Y-10311788D01*
X14250376Y-9748285D02*
X14265376Y-9763285D01*
X14265376Y-9748285D02*
X14250376Y-9763285D01*
X14250500Y-9417500D02*
X14265500Y-9432500D01*
X14265500Y-9417500D02*
X14250500Y-9432500D01*
X14269035Y-11453535D02*
X14284035Y-11468535D01*
X14284035Y-11453535D02*
X14269035Y-11468535D01*
X14288674Y-9608185D02*
X14303674Y-9623185D01*
X14303674Y-9608185D02*
X14288674Y-9623185D01*
X14292500Y-9029500D02*
X14307500Y-9044500D01*
X14307500Y-9029500D02*
X14292500Y-9044500D01*
X14303500Y-11066433D02*
X14318500Y-11081433D01*
X14318500Y-11066433D02*
X14303500Y-11081433D01*
X14312583Y-9473824D02*
X14327583Y-9488824D01*
X14327583Y-9473824D02*
X14312583Y-9488824D01*
X14330377Y-10056787D02*
X14345377Y-10071787D01*
X14345377Y-10056787D02*
X14330377Y-10071787D01*
X14333235Y-10632683D02*
X14348235Y-10647683D01*
X14348235Y-10632683D02*
X14333235Y-10647683D01*
X14356500Y-8406500D02*
X14371500Y-8421500D01*
X14371500Y-8406500D02*
X14356500Y-8421500D01*
X14357481Y-11630878D02*
X14372481Y-11645878D01*
X14372481Y-11630878D02*
X14357481Y-11645878D01*
X14382500Y-10206500D02*
X14397500Y-10221500D01*
X14397500Y-10206500D02*
X14382500Y-10221500D01*
X14390965Y-10690000D02*
X14405965Y-10705000D01*
X14405965Y-10690000D02*
X14390965Y-10705000D01*
X14404676Y-10306946D02*
X14419676Y-10321946D01*
X14419676Y-10306946D02*
X14404676Y-10321946D01*
X14411571Y-10033414D02*
X14426571Y-10048414D01*
X14426571Y-10033414D02*
X14411571Y-10048414D01*
X14427461Y-10142932D02*
X14442461Y-10157932D01*
X14442461Y-10142932D02*
X14427461Y-10157932D01*
X14449447Y-9769186D02*
X14464447Y-9784186D01*
X14464447Y-9769186D02*
X14449447Y-9784186D01*
X14449832Y-10249666D02*
X14464832Y-10264666D01*
X14464832Y-10249666D02*
X14449832Y-10264666D01*
X14451258Y-10102225D02*
X14466258Y-10117225D01*
X14466258Y-10102225D02*
X14451258Y-10117225D01*
X14470129Y-10873204D02*
X14485129Y-10888204D01*
X14485129Y-10873204D02*
X14470129Y-10888204D01*
X14470500Y-8530500D02*
X14485500Y-8545500D01*
X14485500Y-8530500D02*
X14470500Y-8545500D01*
X14472500Y-8490500D02*
X14487500Y-8505500D01*
X14487500Y-8490500D02*
X14472500Y-8505500D01*
X14482500Y-11673378D02*
X14497500Y-11688378D01*
X14497500Y-11673378D02*
X14482500Y-11688378D01*
X14490376Y-10376787D02*
X14505376Y-10391787D01*
X14505376Y-10376787D02*
X14490376Y-10391787D01*
X14490376Y-9591684D02*
X14505376Y-9606684D01*
X14505376Y-9591684D02*
X14490376Y-9606684D01*
X14494076Y-10458000D02*
X14509076Y-10473000D01*
X14509076Y-10458000D02*
X14494076Y-10473000D01*
X14503500Y-10813500D02*
X14518500Y-10828500D01*
X14518500Y-10813500D02*
X14503500Y-10828500D01*
X14504461Y-10134866D02*
X14519461Y-10149866D01*
X14519461Y-10134866D02*
X14504461Y-10149866D01*
X14519232Y-10307235D02*
X14534232Y-10322235D01*
X14534232Y-10307235D02*
X14519232Y-10322235D01*
X14531805Y-9785030D02*
X14546805Y-9800030D01*
X14546805Y-9785030D02*
X14531805Y-9800030D01*
X14534000Y-9862432D02*
X14549000Y-9877432D01*
X14549000Y-9862432D02*
X14534000Y-9877432D01*
X14558473Y-10189748D02*
X14573473Y-10204748D01*
X14573473Y-10189748D02*
X14558473Y-10204748D01*
X14560500Y-8376500D02*
X14575500Y-8391500D01*
X14575500Y-8376500D02*
X14560500Y-8391500D01*
X14564000Y-9981323D02*
X14579000Y-9996323D01*
X14579000Y-9981323D02*
X14564000Y-9996323D01*
X14564000Y-10056787D02*
X14579000Y-10071787D01*
X14579000Y-10056787D02*
X14564000Y-10071787D01*
X14570376Y-10376787D02*
X14585376Y-10391787D01*
X14585376Y-10376787D02*
X14570376Y-10391787D01*
X14570376Y-10456787D02*
X14585376Y-10471787D01*
X14585376Y-10456787D02*
X14570376Y-10471787D01*
X14581461Y-10133278D02*
X14596461Y-10148278D01*
X14596461Y-10133278D02*
X14581461Y-10148278D01*
X14588909Y-9726745D02*
X14603909Y-9741745D01*
X14603909Y-9726745D02*
X14588909Y-9741745D01*
X14608085Y-9466188D02*
X14623085Y-9481188D01*
X14623085Y-9466188D02*
X14608085Y-9481188D01*
X14616500Y-11122500D02*
X14631500Y-11137500D01*
X14631500Y-11122500D02*
X14616500Y-11137500D01*
X14623773Y-10256290D02*
X14638773Y-10271290D01*
X14638773Y-10256290D02*
X14623773Y-10271290D01*
X14637600Y-10317801D02*
X14652600Y-10332801D01*
X14652600Y-10317801D02*
X14637600Y-10332801D01*
X14641976Y-11672939D02*
X14656976Y-11687939D01*
X14656976Y-11672939D02*
X14641976Y-11687939D01*
X14649261Y-9726994D02*
X14664261Y-9741994D01*
X14664261Y-9726994D02*
X14649261Y-9741994D01*
X14650043Y-9985851D02*
X14665043Y-10000851D01*
X14665043Y-9985851D02*
X14650043Y-10000851D01*
X14650377Y-10216787D02*
X14665377Y-10231787D01*
X14665377Y-10216787D02*
X14650377Y-10231787D01*
X14652862Y-9891851D02*
X14667862Y-9906851D01*
X14667862Y-9891851D02*
X14652862Y-9906851D01*
X14658461Y-10140500D02*
X14673461Y-10155500D01*
X14673461Y-10140500D02*
X14658461Y-10155500D01*
X14658964Y-10536900D02*
X14673964Y-10551900D01*
X14673964Y-10536900D02*
X14658964Y-10551900D01*
X14688930Y-9465053D02*
X14703930Y-9480053D01*
X14703930Y-9465053D02*
X14688930Y-9480053D01*
X14701505Y-10467311D02*
X14716505Y-10482311D01*
X14716505Y-10467311D02*
X14701505Y-10482311D01*
X14725206Y-10297087D02*
X14740206Y-10312087D01*
X14740206Y-10297087D02*
X14725206Y-10312087D01*
X14730376Y-9813875D02*
X14745376Y-9828875D01*
X14745376Y-9813875D02*
X14730376Y-9828875D01*
X14730376Y-9896788D02*
X14745376Y-9911788D01*
X14745376Y-9896788D02*
X14730376Y-9911788D01*
X14730376Y-10374087D02*
X14745376Y-10389087D01*
X14745376Y-10374087D02*
X14730376Y-10389087D01*
X14730376Y-10536787D02*
X14745376Y-10551787D01*
X14745376Y-10536787D02*
X14730376Y-10551787D01*
X14730376Y-9736787D02*
X14745376Y-9751787D01*
X14745376Y-9736787D02*
X14730376Y-9751787D01*
X14753500Y-10934500D02*
X14768500Y-10949500D01*
X14768500Y-10934500D02*
X14753500Y-10949500D01*
X14753500Y-11066433D02*
X14768500Y-11081433D01*
X14768500Y-11066433D02*
X14753500Y-11081433D01*
X14757377Y-10210345D02*
X14772377Y-10225345D01*
X14772377Y-10210345D02*
X14757377Y-10225345D01*
X14764500Y-10160249D02*
X14779500Y-10175249D01*
X14779500Y-10160249D02*
X14764500Y-10175249D01*
X14765000Y-9198000D02*
X14780000Y-9213000D01*
X14780000Y-9198000D02*
X14765000Y-9213000D01*
X14806848Y-9656788D02*
X14821848Y-9671788D01*
X14821848Y-9656788D02*
X14806848Y-9671788D01*
X14826500Y-9804500D02*
X14841500Y-9819500D01*
X14841500Y-9804500D02*
X14826500Y-9819500D01*
X14829500Y-9876500D02*
X14844500Y-9891500D01*
X14844500Y-9876500D02*
X14829500Y-9891500D01*
X14836909Y-9504195D02*
X14851909Y-9519195D01*
X14851909Y-9504195D02*
X14836909Y-9519195D01*
X14840509Y-11308500D02*
X14855509Y-11323500D01*
X14855509Y-11308500D02*
X14840509Y-11323500D01*
X14846848Y-10020918D02*
X14861848Y-10035918D01*
X14861848Y-10020918D02*
X14846848Y-10035918D01*
X14874500Y-9874500D02*
X14889500Y-9889500D01*
X14889500Y-9874500D02*
X14874500Y-9889500D01*
X14893475Y-10137314D02*
X14908475Y-10152314D01*
X14908475Y-10137314D02*
X14893475Y-10152314D01*
X14921470Y-9535684D02*
X14936470Y-9550684D01*
X14936470Y-9535684D02*
X14921470Y-9550684D01*
X14925500Y-10664500D02*
X14940500Y-10679500D01*
X14940500Y-10664500D02*
X14925500Y-10679500D01*
X14949500Y-11066433D02*
X14964500Y-11081433D01*
X14964500Y-11066433D02*
X14949500Y-11081433D01*
X14958980Y-9566832D02*
X14973980Y-9581832D01*
X14973980Y-9566832D02*
X14958980Y-9581832D01*
X14971490Y-10347515D02*
X14986490Y-10362515D01*
X14986490Y-10347515D02*
X14971490Y-10362515D01*
X14997529Y-10152491D02*
X15012529Y-10167491D01*
X15012529Y-10152491D02*
X14997529Y-10167491D01*
X15018500Y-10932500D02*
X15033500Y-10947500D01*
X15033500Y-10932500D02*
X15018500Y-10947500D01*
X15043700Y-9714500D02*
X15058700Y-9729500D01*
X15058700Y-9714500D02*
X15043700Y-9729500D01*
X15059500Y-9532500D02*
X15074500Y-9547500D01*
X15074500Y-9532500D02*
X15059500Y-9547500D01*
X15082378Y-10509285D02*
X15097378Y-10524285D01*
X15097378Y-10509285D02*
X15082378Y-10524285D01*
X15089500Y-11161310D02*
X15104500Y-11176310D01*
X15104500Y-11161310D02*
X15089500Y-11176310D01*
X15090295Y-10112239D02*
X15105295Y-10127239D01*
X15105295Y-10112239D02*
X15090295Y-10127239D01*
X15090857Y-11644500D02*
X15105857Y-11659500D01*
X15105857Y-11644500D02*
X15090857Y-11659500D01*
X15116500Y-9888000D02*
X15131500Y-9903000D01*
X15131500Y-9888000D02*
X15116500Y-9903000D01*
X15159500Y-10278373D02*
X15174500Y-10293373D01*
X15174500Y-10278373D02*
X15159500Y-10293373D01*
X15160188Y-9519299D02*
X15175188Y-9534299D01*
X15175188Y-9519299D02*
X15160188Y-9534299D01*
X15160500Y-10029500D02*
X15175500Y-10044500D01*
X15175500Y-10029500D02*
X15160500Y-10044500D01*
X15162378Y-10509285D02*
X15177378Y-10524285D01*
X15177378Y-10509285D02*
X15162378Y-10524285D01*
X15162918Y-10105075D02*
X15177918Y-10120075D01*
X15177918Y-10105075D02*
X15162918Y-10120075D01*
X15218017Y-10328750D02*
X15233017Y-10343750D01*
X15233017Y-10328750D02*
X15218017Y-10343750D01*
X15235044Y-11513851D02*
X15250044Y-11528851D01*
X15250044Y-11513851D02*
X15235044Y-11528851D01*
X15241500Y-11172500D02*
X15256500Y-11187500D01*
X15256500Y-11172500D02*
X15241500Y-11187500D01*
X15242378Y-9970000D02*
X15257378Y-9985000D01*
X15257378Y-9970000D02*
X15242378Y-9985000D01*
X15244834Y-9669931D02*
X15259834Y-9684931D01*
X15259834Y-9669931D02*
X15244834Y-9684931D01*
X15248000Y-11461000D02*
X15263000Y-11476000D01*
X15263000Y-11461000D02*
X15248000Y-11476000D01*
X15253500Y-10565500D02*
X15268500Y-10580500D01*
X15268500Y-10565500D02*
X15253500Y-10580500D01*
X15261837Y-10338991D02*
X15276837Y-10353991D01*
X15276837Y-10338991D02*
X15261837Y-10353991D01*
X15265500Y-10241500D02*
X15280500Y-10256500D01*
X15280500Y-10241500D02*
X15265500Y-10256500D01*
X15273500Y-11335000D02*
X15288500Y-11350000D01*
X15288500Y-11335000D02*
X15273500Y-11350000D01*
X15300505Y-10326986D02*
X15315505Y-10341986D01*
X15315505Y-10326986D02*
X15300505Y-10341986D01*
X15300552Y-10191552D02*
X15315552Y-10206552D01*
X15315552Y-10191552D02*
X15300552Y-10206552D01*
X15309500Y-9627500D02*
X15324500Y-9642500D01*
X15324500Y-9627500D02*
X15309500Y-9642500D01*
X15318838Y-9944922D02*
X15333838Y-9959922D01*
X15333838Y-9944922D02*
X15318838Y-9959922D01*
X15321500Y-10110500D02*
X15336500Y-10125500D01*
X15336500Y-10110500D02*
X15321500Y-10125500D01*
X15322378Y-10509285D02*
X15337378Y-10524285D01*
X15337378Y-10509285D02*
X15322378Y-10524285D01*
X15322378Y-10589285D02*
X15337378Y-10604285D01*
X15337378Y-10589285D02*
X15322378Y-10604285D01*
X15358455Y-9808000D02*
X15373455Y-9823000D01*
X15373455Y-9808000D02*
X15358455Y-9823000D01*
X15377505Y-10316312D02*
X15392505Y-10331312D01*
X15392505Y-10316312D02*
X15377505Y-10331312D01*
X15390500Y-10188500D02*
X15405500Y-10203500D01*
X15405500Y-10188500D02*
X15390500Y-10203500D01*
X15400832Y-9978225D02*
X15415832Y-9993225D01*
X15415832Y-9978225D02*
X15400832Y-9993225D01*
X15402378Y-10109285D02*
X15417378Y-10124285D01*
X15417378Y-10109285D02*
X15402378Y-10124285D01*
X15402378Y-10509285D02*
X15417378Y-10524285D01*
X15417378Y-10509285D02*
X15402378Y-10524285D01*
X15402378Y-10589285D02*
X15417378Y-10604285D01*
X15417378Y-10589285D02*
X15402378Y-10604285D01*
X15402500Y-10431500D02*
X15417500Y-10446500D01*
X15417500Y-10431500D02*
X15402500Y-10446500D01*
X15416093Y-9899020D02*
X15431093Y-9914020D01*
X15431093Y-9899020D02*
X15416093Y-9914020D01*
X15417450Y-10281500D02*
X15432450Y-10296500D01*
X15432450Y-10281500D02*
X15417450Y-10296500D01*
X15425284Y-9240716D02*
X15440284Y-9255716D01*
X15440284Y-9240716D02*
X15425284Y-9255716D01*
X15475063Y-10033673D02*
X15490063Y-10048673D01*
X15490063Y-10033673D02*
X15475063Y-10048673D01*
X15523500Y-10320500D02*
X15538500Y-10335500D01*
X15538500Y-10320500D02*
X15523500Y-10335500D01*
X15546313Y-9953603D02*
X15561313Y-9968603D01*
X15561313Y-9953603D02*
X15546313Y-9968603D01*
X15554219Y-9601734D02*
X15569219Y-9616734D01*
X15569219Y-9601734D02*
X15554219Y-9616734D01*
X15560500Y-10428500D02*
X15575500Y-10443500D01*
X15575500Y-10428500D02*
X15560500Y-10443500D01*
X15561500Y-10113500D02*
X15576500Y-10128500D01*
X15576500Y-10113500D02*
X15561500Y-10128500D01*
X15562378Y-10509285D02*
X15577378Y-10524285D01*
X15577378Y-10509285D02*
X15562378Y-10524285D01*
X15563362Y-9838850D02*
X15578362Y-9853850D01*
X15578362Y-9838850D02*
X15563362Y-9853850D01*
X15566580Y-11252762D02*
X15581580Y-11267762D01*
X15581580Y-11252762D02*
X15566580Y-11267762D01*
X15581969Y-10241500D02*
X15596969Y-10256500D01*
X15596969Y-10241500D02*
X15581969Y-10256500D01*
X15583289Y-9230771D02*
X15598289Y-9245771D01*
X15598289Y-9230771D02*
X15583289Y-9245771D01*
X15608450Y-9428550D02*
X15623450Y-9443550D01*
X15623450Y-9428550D02*
X15608450Y-9443550D01*
X15624500Y-10255500D02*
X15639500Y-10270500D01*
X15639500Y-10255500D02*
X15624500Y-10270500D01*
X15626647Y-9892233D02*
X15641647Y-9907233D01*
X15641647Y-9892233D02*
X15626647Y-9907233D01*
X15639000Y-10026000D02*
X15654000Y-10041000D01*
X15654000Y-10026000D02*
X15639000Y-10041000D01*
X15641417Y-9467064D02*
X15656417Y-9482064D01*
X15656417Y-9467064D02*
X15641417Y-9482064D01*
X15648421Y-9562064D02*
X15663421Y-9577064D01*
X15663421Y-9562064D02*
X15648421Y-9577064D01*
X15697661Y-10426368D02*
X15712661Y-10441368D01*
X15712661Y-10426368D02*
X15697661Y-10441368D01*
X15737500Y-10154500D02*
X15752500Y-10169500D01*
X15752500Y-10154500D02*
X15737500Y-10169500D01*
X15746500Y-10113500D02*
X15761500Y-10128500D01*
X15761500Y-10113500D02*
X15746500Y-10128500D01*
X15775563Y-10014500D02*
X15790563Y-10029500D01*
X15790563Y-10014500D02*
X15775563Y-10029500D01*
X15791000Y-10726500D02*
X15806000Y-10741500D01*
X15806000Y-10726500D02*
X15791000Y-10741500D01*
X15942500Y-9723500D02*
X15957500Y-9738500D01*
X15957500Y-9723500D02*
X15942500Y-9738500D01*
X15951437Y-9555355D02*
X15966437Y-9570355D01*
X15966437Y-9555355D02*
X15951437Y-9570355D01*
X16055600Y-9824500D02*
X16070600Y-9839500D01*
X16070600Y-9824500D02*
X16055600Y-9839500D01*
X16122473Y-10454500D02*
X16137473Y-10469500D01*
X16137473Y-10454500D02*
X16122473Y-10469500D01*
X14888700Y-10985000D02*
G75*
G02*
X14863300Y-10985000I-12700J0D01*
G01*
X14863300Y-10985000D02*
G75*
G02*
X14888700Y-10985000I12700J0D01*
G01*
X15070700Y-9211000D02*
G75*
G02*
X15045300Y-9211000I-12700J0D01*
G01*
X15045300Y-9211000D02*
G75*
G02*
X15070700Y-9211000I12700J0D01*
G01*
X15075700Y-9377000D02*
G75*
G02*
X15050300Y-9377000I-12700J0D01*
G01*
X15050300Y-9377000D02*
G75*
G02*
X15075700Y-9377000I12700J0D01*
G01*
X15122512Y-8915921D02*
G75*
G02*
X15097112Y-8915921I-12700J0D01*
G01*
X15097112Y-8915921D02*
G75*
G02*
X15122512Y-8915921I12700J0D01*
G01*
X15169700Y-9379000D02*
G75*
G02*
X15144300Y-9379000I-12700J0D01*
G01*
X15144300Y-9379000D02*
G75*
G02*
X15169700Y-9379000I12700J0D01*
G01*
X15172700Y-9214000D02*
G75*
G02*
X15147300Y-9214000I-12700J0D01*
G01*
X15147300Y-9214000D02*
G75*
G02*
X15172700Y-9214000I12700J0D01*
G01*
X12221250Y-9713575D02*
X12221250Y-9778575D01*
X12188750Y-9746075D02*
X12253750Y-9746075D01*
X12286250Y-9713575D02*
X12156250Y-9713575D01*
X12156250Y-9778575D02*
G75*
G02*
X12156250Y-9713575I0J32500D01*
G01*
X12156250Y-9778575D02*
X12286250Y-9778575D01*
X12286250Y-9778575D02*
G75*
G03*
X12286250Y-9713575I0J32500D01*
G01*
X12221250Y-10577575D02*
X12221250Y-10642575D01*
X12188750Y-10610075D02*
X12253750Y-10610075D01*
X12286250Y-10577575D02*
X12156250Y-10577575D01*
X12156250Y-10642575D02*
G75*
G02*
X12156250Y-10577575I0J32500D01*
G01*
X12156250Y-10642575D02*
X12286250Y-10642575D01*
X12286250Y-10642575D02*
G75*
G03*
X12286250Y-10577575I0J32500D01*
G01*
X12603750Y-9713575D02*
X12603750Y-9778575D01*
X12571250Y-9746075D02*
X12636250Y-9746075D01*
X12653750Y-9713575D02*
X12553750Y-9713575D01*
X12553750Y-9778575D02*
G75*
G02*
X12553750Y-9713575I0J32500D01*
G01*
X12553750Y-9778575D02*
X12653750Y-9778575D01*
X12653750Y-9778575D02*
G75*
G03*
X12653750Y-9713575I0J32500D01*
G01*
X12603750Y-10577575D02*
X12603750Y-10642575D01*
X12571250Y-10610075D02*
X12636250Y-10610075D01*
X12653750Y-10577575D02*
X12553750Y-10577575D01*
X12553750Y-10642575D02*
G75*
G02*
X12553750Y-10577575I0J32500D01*
G01*
X12553750Y-10642575D02*
X12653750Y-10642575D01*
X12653750Y-10642575D02*
G75*
G03*
X12653750Y-10577575I0J32500D01*
G01*
X12280356Y-8285356D02*
X12280356Y-8214644D01*
X12209644Y-8214644D01*
X12209644Y-8285356D01*
X12280356Y-8285356D01*
X12280356Y-12085356D02*
X12280356Y-12014644D01*
X12209644Y-12014644D01*
X12209644Y-12085356D01*
X12280356Y-12085356D01*
X12281369Y-8532262D02*
X12281369Y-8461551D01*
X12210658Y-8461551D01*
X12210658Y-8532262D01*
X12281369Y-8532262D01*
X12281369Y-8786262D02*
X12281369Y-8715551D01*
X12210658Y-8715551D01*
X12210658Y-8786262D01*
X12281369Y-8786262D01*
X12281369Y-9040262D02*
X12281369Y-8969551D01*
X12210658Y-8969551D01*
X12210658Y-9040262D01*
X12281369Y-9040262D01*
X12281369Y-9294262D02*
X12281369Y-9223551D01*
X12210658Y-9223551D01*
X12210658Y-9294262D01*
X12281369Y-9294262D01*
X12285755Y-11077581D02*
X12285755Y-11006870D01*
X12215043Y-11006870D01*
X12215043Y-11077581D01*
X12285755Y-11077581D01*
X12285755Y-11331581D02*
X12285755Y-11260870D01*
X12215043Y-11260870D01*
X12215043Y-11331581D01*
X12285755Y-11331581D01*
X12285755Y-11585581D02*
X12285755Y-11514870D01*
X12215043Y-11514870D01*
X12215043Y-11585581D01*
X12285755Y-11585581D01*
X12285755Y-11839581D02*
X12285755Y-11768870D01*
X12215043Y-11768870D01*
X12215043Y-11839581D01*
X12285755Y-11839581D01*
X12534356Y-8285356D02*
X12534356Y-8214644D01*
X12463644Y-8214644D01*
X12463644Y-8285356D01*
X12534356Y-8285356D01*
X12534356Y-12085356D02*
X12534356Y-12014644D01*
X12463644Y-12014644D01*
X12463644Y-12085356D01*
X12534356Y-12085356D01*
X12788356Y-8285356D02*
X12788356Y-8214644D01*
X12717644Y-8214644D01*
X12717644Y-8285356D01*
X12788356Y-8285356D01*
X12788356Y-12085356D02*
X12788356Y-12014644D01*
X12717644Y-12014644D01*
X12717644Y-12085356D01*
X12788356Y-12085356D01*
X13042356Y-8285356D02*
X13042356Y-8214644D01*
X12971644Y-8214644D01*
X12971644Y-8285356D01*
X13042356Y-8285356D01*
X13042356Y-12085356D02*
X13042356Y-12014644D01*
X12971644Y-12014644D01*
X12971644Y-12085356D01*
X13042356Y-12085356D01*
X13296356Y-8285356D02*
X13296356Y-8214644D01*
X13225644Y-8214644D01*
X13225644Y-8285356D01*
X13296356Y-8285356D01*
X13296356Y-12085356D02*
X13296356Y-12014644D01*
X13225644Y-12014644D01*
X13225644Y-12085356D01*
X13296356Y-12085356D01*
X13550356Y-8285356D02*
X13550356Y-8214644D01*
X13479644Y-8214644D01*
X13479644Y-8285356D01*
X13550356Y-8285356D01*
X13550356Y-12085356D02*
X13550356Y-12014644D01*
X13479644Y-12014644D01*
X13479644Y-12085356D01*
X13550356Y-12085356D01*
X13804356Y-8285356D02*
X13804356Y-8214644D01*
X13733644Y-8214644D01*
X13733644Y-8285356D01*
X13804356Y-8285356D01*
X13804356Y-12085356D02*
X13804356Y-12014644D01*
X13733644Y-12014644D01*
X13733644Y-12085356D01*
X13804356Y-12085356D01*
X14058356Y-8285356D02*
X14058356Y-8214644D01*
X13987644Y-8214644D01*
X13987644Y-8285356D01*
X14058356Y-8285356D01*
X14058356Y-12085356D02*
X14058356Y-12014644D01*
X13987644Y-12014644D01*
X13987644Y-12085356D01*
X14058356Y-12085356D01*
X14312356Y-8285356D02*
X14312356Y-8214644D01*
X14241644Y-8214644D01*
X14241644Y-8285356D01*
X14312356Y-8285356D01*
X14312356Y-12085356D02*
X14312356Y-12014644D01*
X14241644Y-12014644D01*
X14241644Y-12085356D01*
X14312356Y-12085356D01*
X14566356Y-8285356D02*
X14566356Y-8214644D01*
X14495644Y-8214644D01*
X14495644Y-8285356D01*
X14566356Y-8285356D01*
X14566356Y-12085356D02*
X14566356Y-12014644D01*
X14495644Y-12014644D01*
X14495644Y-12085356D01*
X14566356Y-12085356D01*
X14820356Y-8285356D02*
X14820356Y-8214644D01*
X14749644Y-8214644D01*
X14749644Y-8285356D01*
X14820356Y-8285356D01*
X14820356Y-12085356D02*
X14820356Y-12014644D01*
X14749644Y-12014644D01*
X14749644Y-12085356D01*
X14820356Y-12085356D01*
X15074356Y-8285356D02*
X15074356Y-8214644D01*
X15003644Y-8214644D01*
X15003644Y-8285356D01*
X15074356Y-8285356D01*
X15074356Y-12085356D02*
X15074356Y-12014644D01*
X15003644Y-12014644D01*
X15003644Y-12085356D01*
X15074356Y-12085356D01*
X15328356Y-8285356D02*
X15328356Y-8214644D01*
X15257644Y-8214644D01*
X15257644Y-8285356D01*
X15328356Y-8285356D01*
X15328356Y-12085356D02*
X15328356Y-12014644D01*
X15257644Y-12014644D01*
X15257644Y-12085356D01*
X15328356Y-12085356D01*
X15582356Y-8285356D02*
X15582356Y-8214644D01*
X15511644Y-8214644D01*
X15511644Y-8285356D01*
X15582356Y-8285356D01*
X15582356Y-12085356D02*
X15582356Y-12014644D01*
X15511644Y-12014644D01*
X15511644Y-12085356D01*
X15582356Y-12085356D01*
X15836356Y-8285356D02*
X15836356Y-8214644D01*
X15765644Y-8214644D01*
X15765644Y-8285356D01*
X15836356Y-8285356D01*
X15836356Y-12085356D02*
X15836356Y-12014644D01*
X15765644Y-12014644D01*
X15765644Y-12085356D01*
X15836356Y-12085356D01*
X16089965Y-11074521D02*
X16089965Y-11003810D01*
X16019254Y-11003810D01*
X16019254Y-11074521D01*
X16089965Y-11074521D01*
X16089965Y-11328521D02*
X16089965Y-11257809D01*
X16019254Y-11257809D01*
X16019254Y-11328521D01*
X16089965Y-11328521D01*
X16089965Y-11582521D02*
X16089965Y-11511809D01*
X16019254Y-11511809D01*
X16019254Y-11582521D01*
X16089965Y-11582521D01*
X16089965Y-11836521D02*
X16089965Y-11765809D01*
X16019254Y-11765809D01*
X16019254Y-11836521D01*
X16089965Y-11836521D01*
X16090196Y-8536394D02*
X16090196Y-8465683D01*
X16019485Y-8465683D01*
X16019485Y-8536394D01*
X16090196Y-8536394D01*
X16090196Y-8790394D02*
X16090196Y-8719683D01*
X16019485Y-8719683D01*
X16019485Y-8790394D01*
X16090196Y-8790394D01*
X16090196Y-9044394D02*
X16090196Y-8973683D01*
X16019485Y-8973683D01*
X16019485Y-9044394D01*
X16090196Y-9044394D01*
X16090196Y-9298394D02*
X16090196Y-9227683D01*
X16019485Y-9227683D01*
X16019485Y-9298394D01*
X16090196Y-9298394D01*
X16090356Y-8285356D02*
X16090356Y-8214644D01*
X16019644Y-8214644D01*
X16019644Y-8285356D01*
X16090356Y-8285356D01*
X16090356Y-12085356D02*
X16090356Y-12014644D01*
X16019644Y-12014644D01*
X16019644Y-12085356D01*
X16090356Y-12085356D01*
D13*
X12722000Y-8827000D02*
X12827000Y-8722000D01*
X12722000Y-8617000D01*
X12617000Y-8722000D01*
X12722000Y-8827000D01*
X12722000Y-11683000D02*
X12827000Y-11578000D01*
X12722000Y-11473000D01*
X12617000Y-11578000D01*
X12722000Y-11683000D01*
X15578000Y-8827000D02*
X15683000Y-8722000D01*
X15578000Y-8617000D01*
X15473000Y-8722000D01*
X15578000Y-8827000D01*
X15578000Y-11683000D02*
X15683000Y-11578000D01*
X15578000Y-11473000D01*
X15473000Y-11578000D01*
X15578000Y-11683000D01*
D11*
X12258277Y-12613984D02*
X12258277Y-12413984D01*
X12258277Y-12413984D02*
X12305896Y-12413984D01*
X12305896Y-12413984D02*
X12334467Y-12423508D01*
X12334467Y-12423508D02*
X12353515Y-12442555D01*
X12353515Y-12442555D02*
X12363039Y-12461603D01*
X12363039Y-12461603D02*
X12372562Y-12499698D01*
X12372562Y-12499698D02*
X12372562Y-12528269D01*
X12372562Y-12528269D02*
X12363039Y-12566365D01*
X12363039Y-12566365D02*
X12353515Y-12585412D01*
X12353515Y-12585412D02*
X12334467Y-12604460D01*
X12334467Y-12604460D02*
X12305896Y-12613984D01*
X12305896Y-12613984D02*
X12258277Y-12613984D01*
X12458277Y-12613984D02*
X12458277Y-12480650D01*
X12458277Y-12518746D02*
X12467801Y-12499698D01*
X12467801Y-12499698D02*
X12477324Y-12490174D01*
X12477324Y-12490174D02*
X12496372Y-12480650D01*
X12496372Y-12480650D02*
X12515420Y-12480650D01*
X12582086Y-12613984D02*
X12582086Y-12480650D01*
X12582086Y-12413984D02*
X12572562Y-12423508D01*
X12572562Y-12423508D02*
X12582086Y-12433031D01*
X12582086Y-12433031D02*
X12591610Y-12423508D01*
X12591610Y-12423508D02*
X12582086Y-12413984D01*
X12582086Y-12413984D02*
X12582086Y-12433031D01*
X12705896Y-12613984D02*
X12686848Y-12604460D01*
X12686848Y-12604460D02*
X12677324Y-12585412D01*
X12677324Y-12585412D02*
X12677324Y-12413984D01*
X12810658Y-12613984D02*
X12791610Y-12604460D01*
X12791610Y-12604460D02*
X12782086Y-12585412D01*
X12782086Y-12585412D02*
X12782086Y-12413984D01*
X13039229Y-12613984D02*
X13039229Y-12413984D01*
X13039229Y-12413984D02*
X13105896Y-12556841D01*
X13105896Y-12556841D02*
X13172562Y-12413984D01*
X13172562Y-12413984D02*
X13172562Y-12613984D01*
X13353515Y-12613984D02*
X13353515Y-12509222D01*
X13353515Y-12509222D02*
X13343991Y-12490174D01*
X13343991Y-12490174D02*
X13324943Y-12480650D01*
X13324943Y-12480650D02*
X13286848Y-12480650D01*
X13286848Y-12480650D02*
X13267801Y-12490174D01*
X13353515Y-12604460D02*
X13334467Y-12613984D01*
X13334467Y-12613984D02*
X13286848Y-12613984D01*
X13286848Y-12613984D02*
X13267801Y-12604460D01*
X13267801Y-12604460D02*
X13258277Y-12585412D01*
X13258277Y-12585412D02*
X13258277Y-12566365D01*
X13258277Y-12566365D02*
X13267801Y-12547317D01*
X13267801Y-12547317D02*
X13286848Y-12537793D01*
X13286848Y-12537793D02*
X13334467Y-12537793D01*
X13334467Y-12537793D02*
X13353515Y-12528269D01*
X13448753Y-12480650D02*
X13448753Y-12680650D01*
X13448753Y-12490174D02*
X13467801Y-12480650D01*
X13467801Y-12480650D02*
X13505896Y-12480650D01*
X13505896Y-12480650D02*
X13524943Y-12490174D01*
X13524943Y-12490174D02*
X13534467Y-12499698D01*
X13534467Y-12499698D02*
X13543991Y-12518746D01*
X13543991Y-12518746D02*
X13543991Y-12575888D01*
X13543991Y-12575888D02*
X13534467Y-12594936D01*
X13534467Y-12594936D02*
X13524943Y-12604460D01*
X13524943Y-12604460D02*
X13505896Y-12613984D01*
X13505896Y-12613984D02*
X13467801Y-12613984D01*
X13467801Y-12613984D02*
X13448753Y-12604460D01*
X13629705Y-12594936D02*
X13639229Y-12604460D01*
X13639229Y-12604460D02*
X13629705Y-12613984D01*
X13629705Y-12613984D02*
X13620182Y-12604460D01*
X13620182Y-12604460D02*
X13629705Y-12594936D01*
X13629705Y-12594936D02*
X13629705Y-12613984D01*
X13629705Y-12490174D02*
X13639229Y-12499698D01*
X13639229Y-12499698D02*
X13629705Y-12509222D01*
X13629705Y-12509222D02*
X13620182Y-12499698D01*
X13620182Y-12499698D02*
X13629705Y-12490174D01*
X13629705Y-12490174D02*
X13629705Y-12509222D01*
D12*
X11982500Y-12935000D02*
X11997500Y-12950000D01*
X11997500Y-12935000D02*
X11982500Y-12950000D01*
D11*
X12296372Y-12833984D02*
X12315420Y-12833984D01*
X12315420Y-12833984D02*
X12334467Y-12843508D01*
X12334467Y-12843508D02*
X12343991Y-12853031D01*
X12343991Y-12853031D02*
X12353515Y-12872079D01*
X12353515Y-12872079D02*
X12363039Y-12910174D01*
X12363039Y-12910174D02*
X12363039Y-12957793D01*
X12363039Y-12957793D02*
X12353515Y-12995888D01*
X12353515Y-12995888D02*
X12343991Y-13014936D01*
X12343991Y-13014936D02*
X12334467Y-13024460D01*
X12334467Y-13024460D02*
X12315420Y-13033984D01*
X12315420Y-13033984D02*
X12296372Y-13033984D01*
X12296372Y-13033984D02*
X12277324Y-13024460D01*
X12277324Y-13024460D02*
X12267801Y-13014936D01*
X12267801Y-13014936D02*
X12258277Y-12995888D01*
X12258277Y-12995888D02*
X12248753Y-12957793D01*
X12248753Y-12957793D02*
X12248753Y-12910174D01*
X12248753Y-12910174D02*
X12258277Y-12872079D01*
X12258277Y-12872079D02*
X12267801Y-12853031D01*
X12267801Y-12853031D02*
X12277324Y-12843508D01*
X12277324Y-12843508D02*
X12296372Y-12833984D01*
X12448753Y-13014936D02*
X12458277Y-13024460D01*
X12458277Y-13024460D02*
X12448753Y-13033984D01*
X12448753Y-13033984D02*
X12439229Y-13024460D01*
X12439229Y-13024460D02*
X12448753Y-13014936D01*
X12448753Y-13014936D02*
X12448753Y-13033984D01*
X12648753Y-13033984D02*
X12534467Y-13033984D01*
X12591610Y-13033984D02*
X12591610Y-12833984D01*
X12591610Y-12833984D02*
X12572562Y-12862555D01*
X12572562Y-12862555D02*
X12553515Y-12881603D01*
X12553515Y-12881603D02*
X12534467Y-12891127D01*
X12829705Y-12833984D02*
X12734467Y-12833984D01*
X12734467Y-12833984D02*
X12724943Y-12929222D01*
X12724943Y-12929222D02*
X12734467Y-12919698D01*
X12734467Y-12919698D02*
X12753515Y-12910174D01*
X12753515Y-12910174D02*
X12801134Y-12910174D01*
X12801134Y-12910174D02*
X12820182Y-12919698D01*
X12820182Y-12919698D02*
X12829705Y-12929222D01*
X12829705Y-12929222D02*
X12839229Y-12948269D01*
X12839229Y-12948269D02*
X12839229Y-12995888D01*
X12839229Y-12995888D02*
X12829705Y-13014936D01*
X12829705Y-13014936D02*
X12820182Y-13024460D01*
X12820182Y-13024460D02*
X12801134Y-13033984D01*
X12801134Y-13033984D02*
X12753515Y-13033984D01*
X12753515Y-13033984D02*
X12734467Y-13024460D01*
X12734467Y-13024460D02*
X12724943Y-13014936D01*
X12963039Y-12833984D02*
X12982086Y-12833984D01*
X12982086Y-12833984D02*
X13001134Y-12843508D01*
X13001134Y-12843508D02*
X13010658Y-12853031D01*
X13010658Y-12853031D02*
X13020182Y-12872079D01*
X13020182Y-12872079D02*
X13029705Y-12910174D01*
X13029705Y-12910174D02*
X13029705Y-12957793D01*
X13029705Y-12957793D02*
X13020182Y-12995888D01*
X13020182Y-12995888D02*
X13010658Y-13014936D01*
X13010658Y-13014936D02*
X13001134Y-13024460D01*
X13001134Y-13024460D02*
X12982086Y-13033984D01*
X12982086Y-13033984D02*
X12963039Y-13033984D01*
X12963039Y-13033984D02*
X12943991Y-13024460D01*
X12943991Y-13024460D02*
X12934467Y-13014936D01*
X12934467Y-13014936D02*
X12924943Y-12995888D01*
X12924943Y-12995888D02*
X12915420Y-12957793D01*
X12915420Y-12957793D02*
X12915420Y-12910174D01*
X12915420Y-12910174D02*
X12924943Y-12872079D01*
X12924943Y-12872079D02*
X12934467Y-12853031D01*
X12934467Y-12853031D02*
X12943991Y-12843508D01*
X12943991Y-12843508D02*
X12963039Y-12833984D01*
X13115420Y-13033984D02*
X13115420Y-12900650D01*
X13115420Y-12919698D02*
X13124943Y-12910174D01*
X13124943Y-12910174D02*
X13143991Y-12900650D01*
X13143991Y-12900650D02*
X13172563Y-12900650D01*
X13172563Y-12900650D02*
X13191610Y-12910174D01*
X13191610Y-12910174D02*
X13201134Y-12929222D01*
X13201134Y-12929222D02*
X13201134Y-13033984D01*
X13201134Y-12929222D02*
X13210658Y-12910174D01*
X13210658Y-12910174D02*
X13229705Y-12900650D01*
X13229705Y-12900650D02*
X13258277Y-12900650D01*
X13258277Y-12900650D02*
X13277324Y-12910174D01*
X13277324Y-12910174D02*
X13286848Y-12929222D01*
X13286848Y-12929222D02*
X13286848Y-13033984D01*
X13382086Y-13033984D02*
X13382086Y-12900650D01*
X13382086Y-12919698D02*
X13391610Y-12910174D01*
X13391610Y-12910174D02*
X13410658Y-12900650D01*
X13410658Y-12900650D02*
X13439229Y-12900650D01*
X13439229Y-12900650D02*
X13458277Y-12910174D01*
X13458277Y-12910174D02*
X13467801Y-12929222D01*
X13467801Y-12929222D02*
X13467801Y-13033984D01*
X13467801Y-12929222D02*
X13477324Y-12910174D01*
X13477324Y-12910174D02*
X13496372Y-12900650D01*
X13496372Y-12900650D02*
X13524943Y-12900650D01*
X13524943Y-12900650D02*
X13543991Y-12910174D01*
X13543991Y-12910174D02*
X13553515Y-12929222D01*
X13553515Y-12929222D02*
X13553515Y-13033984D01*
X13943991Y-12824460D02*
X13772563Y-13081603D01*
X14201134Y-12833984D02*
X14220182Y-12833984D01*
X14220182Y-12833984D02*
X14239229Y-12843508D01*
X14239229Y-12843508D02*
X14248753Y-12853031D01*
X14248753Y-12853031D02*
X14258277Y-12872079D01*
X14258277Y-12872079D02*
X14267801Y-12910174D01*
X14267801Y-12910174D02*
X14267801Y-12957793D01*
X14267801Y-12957793D02*
X14258277Y-12995888D01*
X14258277Y-12995888D02*
X14248753Y-13014936D01*
X14248753Y-13014936D02*
X14239229Y-13024460D01*
X14239229Y-13024460D02*
X14220182Y-13033984D01*
X14220182Y-13033984D02*
X14201134Y-13033984D01*
X14201134Y-13033984D02*
X14182086Y-13024460D01*
X14182086Y-13024460D02*
X14172563Y-13014936D01*
X14172563Y-13014936D02*
X14163039Y-12995888D01*
X14163039Y-12995888D02*
X14153515Y-12957793D01*
X14153515Y-12957793D02*
X14153515Y-12910174D01*
X14153515Y-12910174D02*
X14163039Y-12872079D01*
X14163039Y-12872079D02*
X14172563Y-12853031D01*
X14172563Y-12853031D02*
X14182086Y-12843508D01*
X14182086Y-12843508D02*
X14201134Y-12833984D01*
X14353515Y-13014936D02*
X14363039Y-13024460D01*
X14363039Y-13024460D02*
X14353515Y-13033984D01*
X14353515Y-13033984D02*
X14343991Y-13024460D01*
X14343991Y-13024460D02*
X14353515Y-13014936D01*
X14353515Y-13014936D02*
X14353515Y-13033984D01*
X14486848Y-12833984D02*
X14505896Y-12833984D01*
X14505896Y-12833984D02*
X14524944Y-12843508D01*
X14524944Y-12843508D02*
X14534467Y-12853031D01*
X14534467Y-12853031D02*
X14543991Y-12872079D01*
X14543991Y-12872079D02*
X14553515Y-12910174D01*
X14553515Y-12910174D02*
X14553515Y-12957793D01*
X14553515Y-12957793D02*
X14543991Y-12995888D01*
X14543991Y-12995888D02*
X14534467Y-13014936D01*
X14534467Y-13014936D02*
X14524944Y-13024460D01*
X14524944Y-13024460D02*
X14505896Y-13033984D01*
X14505896Y-13033984D02*
X14486848Y-13033984D01*
X14486848Y-13033984D02*
X14467801Y-13024460D01*
X14467801Y-13024460D02*
X14458277Y-13014936D01*
X14458277Y-13014936D02*
X14448753Y-12995888D01*
X14448753Y-12995888D02*
X14439229Y-12957793D01*
X14439229Y-12957793D02*
X14439229Y-12910174D01*
X14439229Y-12910174D02*
X14448753Y-12872079D01*
X14448753Y-12872079D02*
X14458277Y-12853031D01*
X14458277Y-12853031D02*
X14467801Y-12843508D01*
X14467801Y-12843508D02*
X14486848Y-12833984D01*
X14677325Y-12833984D02*
X14696372Y-12833984D01*
X14696372Y-12833984D02*
X14715420Y-12843508D01*
X14715420Y-12843508D02*
X14724944Y-12853031D01*
X14724944Y-12853031D02*
X14734467Y-12872079D01*
X14734467Y-12872079D02*
X14743991Y-12910174D01*
X14743991Y-12910174D02*
X14743991Y-12957793D01*
X14743991Y-12957793D02*
X14734467Y-12995888D01*
X14734467Y-12995888D02*
X14724944Y-13014936D01*
X14724944Y-13014936D02*
X14715420Y-13024460D01*
X14715420Y-13024460D02*
X14696372Y-13033984D01*
X14696372Y-13033984D02*
X14677325Y-13033984D01*
X14677325Y-13033984D02*
X14658277Y-13024460D01*
X14658277Y-13024460D02*
X14648753Y-13014936D01*
X14648753Y-13014936D02*
X14639229Y-12995888D01*
X14639229Y-12995888D02*
X14629706Y-12957793D01*
X14629706Y-12957793D02*
X14629706Y-12910174D01*
X14629706Y-12910174D02*
X14639229Y-12872079D01*
X14639229Y-12872079D02*
X14648753Y-12853031D01*
X14648753Y-12853031D02*
X14658277Y-12843508D01*
X14658277Y-12843508D02*
X14677325Y-12833984D01*
X14924944Y-12833984D02*
X14829706Y-12833984D01*
X14829706Y-12833984D02*
X14820182Y-12929222D01*
X14820182Y-12929222D02*
X14829706Y-12919698D01*
X14829706Y-12919698D02*
X14848753Y-12910174D01*
X14848753Y-12910174D02*
X14896372Y-12910174D01*
X14896372Y-12910174D02*
X14915420Y-12919698D01*
X14915420Y-12919698D02*
X14924944Y-12929222D01*
X14924944Y-12929222D02*
X14934467Y-12948269D01*
X14934467Y-12948269D02*
X14934467Y-12995888D01*
X14934467Y-12995888D02*
X14924944Y-13014936D01*
X14924944Y-13014936D02*
X14915420Y-13024460D01*
X14915420Y-13024460D02*
X14896372Y-13033984D01*
X14896372Y-13033984D02*
X14848753Y-13033984D01*
X14848753Y-13033984D02*
X14829706Y-13024460D01*
X14829706Y-13024460D02*
X14820182Y-13014936D01*
X15029706Y-13033984D02*
X15067801Y-13033984D01*
X15067801Y-13033984D02*
X15086848Y-13024460D01*
X15086848Y-13024460D02*
X15096372Y-13014936D01*
X15096372Y-13014936D02*
X15115420Y-12986365D01*
X15115420Y-12986365D02*
X15124944Y-12948269D01*
X15124944Y-12948269D02*
X15124944Y-12872079D01*
X15124944Y-12872079D02*
X15115420Y-12853031D01*
X15115420Y-12853031D02*
X15105896Y-12843508D01*
X15105896Y-12843508D02*
X15086848Y-12833984D01*
X15086848Y-12833984D02*
X15048753Y-12833984D01*
X15048753Y-12833984D02*
X15029706Y-12843508D01*
X15029706Y-12843508D02*
X15020182Y-12853031D01*
X15020182Y-12853031D02*
X15010658Y-12872079D01*
X15010658Y-12872079D02*
X15010658Y-12919698D01*
X15010658Y-12919698D02*
X15020182Y-12938746D01*
X15020182Y-12938746D02*
X15029706Y-12948269D01*
X15029706Y-12948269D02*
X15048753Y-12957793D01*
X15048753Y-12957793D02*
X15086848Y-12957793D01*
X15086848Y-12957793D02*
X15105896Y-12948269D01*
X15105896Y-12948269D02*
X15115420Y-12938746D01*
X15115420Y-12938746D02*
X15124944Y-12919698D01*
X15201134Y-12833984D02*
X15201134Y-12872079D01*
X15277325Y-12833984D02*
X15277325Y-12872079D01*
X15572563Y-13110174D02*
X15563039Y-13100650D01*
X15563039Y-13100650D02*
X15543991Y-13072079D01*
X15543991Y-13072079D02*
X15534468Y-13053031D01*
X15534468Y-13053031D02*
X15524944Y-13024460D01*
X15524944Y-13024460D02*
X15515420Y-12976841D01*
X15515420Y-12976841D02*
X15515420Y-12938746D01*
X15515420Y-12938746D02*
X15524944Y-12891127D01*
X15524944Y-12891127D02*
X15534468Y-12862555D01*
X15534468Y-12862555D02*
X15543991Y-12843508D01*
X15543991Y-12843508D02*
X15563039Y-12814936D01*
X15563039Y-12814936D02*
X15572563Y-12805412D01*
X15639229Y-12853031D02*
X15648753Y-12843508D01*
X15648753Y-12843508D02*
X15667801Y-12833984D01*
X15667801Y-12833984D02*
X15715420Y-12833984D01*
X15715420Y-12833984D02*
X15734468Y-12843508D01*
X15734468Y-12843508D02*
X15743991Y-12853031D01*
X15743991Y-12853031D02*
X15753515Y-12872079D01*
X15753515Y-12872079D02*
X15753515Y-12891127D01*
X15753515Y-12891127D02*
X15743991Y-12919698D01*
X15743991Y-12919698D02*
X15629706Y-13033984D01*
X15629706Y-13033984D02*
X15753515Y-13033984D01*
X15934468Y-12833984D02*
X15839229Y-12833984D01*
X15839229Y-12833984D02*
X15829706Y-12929222D01*
X15829706Y-12929222D02*
X15839229Y-12919698D01*
X15839229Y-12919698D02*
X15858277Y-12910174D01*
X15858277Y-12910174D02*
X15905896Y-12910174D01*
X15905896Y-12910174D02*
X15924944Y-12919698D01*
X15924944Y-12919698D02*
X15934468Y-12929222D01*
X15934468Y-12929222D02*
X15943991Y-12948269D01*
X15943991Y-12948269D02*
X15943991Y-12995888D01*
X15943991Y-12995888D02*
X15934468Y-13014936D01*
X15934468Y-13014936D02*
X15924944Y-13024460D01*
X15924944Y-13024460D02*
X15905896Y-13033984D01*
X15905896Y-13033984D02*
X15858277Y-13033984D01*
X15858277Y-13033984D02*
X15839229Y-13024460D01*
X15839229Y-13024460D02*
X15829706Y-13014936D01*
X16058277Y-12919698D02*
X16039229Y-12910174D01*
X16039229Y-12910174D02*
X16029706Y-12900650D01*
X16029706Y-12900650D02*
X16020182Y-12881603D01*
X16020182Y-12881603D02*
X16020182Y-12872079D01*
X16020182Y-12872079D02*
X16029706Y-12853031D01*
X16029706Y-12853031D02*
X16039229Y-12843508D01*
X16039229Y-12843508D02*
X16058277Y-12833984D01*
X16058277Y-12833984D02*
X16096372Y-12833984D01*
X16096372Y-12833984D02*
X16115420Y-12843508D01*
X16115420Y-12843508D02*
X16124944Y-12853031D01*
X16124944Y-12853031D02*
X16134468Y-12872079D01*
X16134468Y-12872079D02*
X16134468Y-12881603D01*
X16134468Y-12881603D02*
X16124944Y-12900650D01*
X16124944Y-12900650D02*
X16115420Y-12910174D01*
X16115420Y-12910174D02*
X16096372Y-12919698D01*
X16096372Y-12919698D02*
X16058277Y-12919698D01*
X16058277Y-12919698D02*
X16039229Y-12929222D01*
X16039229Y-12929222D02*
X16029706Y-12938746D01*
X16029706Y-12938746D02*
X16020182Y-12957793D01*
X16020182Y-12957793D02*
X16020182Y-12995888D01*
X16020182Y-12995888D02*
X16029706Y-13014936D01*
X16029706Y-13014936D02*
X16039229Y-13024460D01*
X16039229Y-13024460D02*
X16058277Y-13033984D01*
X16058277Y-13033984D02*
X16096372Y-13033984D01*
X16096372Y-13033984D02*
X16115420Y-13024460D01*
X16115420Y-13024460D02*
X16124944Y-13014936D01*
X16124944Y-13014936D02*
X16134468Y-12995888D01*
X16134468Y-12995888D02*
X16134468Y-12957793D01*
X16134468Y-12957793D02*
X16124944Y-12938746D01*
X16124944Y-12938746D02*
X16115420Y-12929222D01*
X16115420Y-12929222D02*
X16096372Y-12919698D01*
X16372563Y-13033984D02*
X16372563Y-12833984D01*
X16458277Y-13033984D02*
X16458277Y-12929222D01*
X16458277Y-12929222D02*
X16448753Y-12910174D01*
X16448753Y-12910174D02*
X16429706Y-12900650D01*
X16429706Y-12900650D02*
X16401134Y-12900650D01*
X16401134Y-12900650D02*
X16382087Y-12910174D01*
X16382087Y-12910174D02*
X16372563Y-12919698D01*
X16582087Y-13033984D02*
X16563039Y-13024460D01*
X16563039Y-13024460D02*
X16553515Y-13014936D01*
X16553515Y-13014936D02*
X16543991Y-12995888D01*
X16543991Y-12995888D02*
X16543991Y-12938746D01*
X16543991Y-12938746D02*
X16553515Y-12919698D01*
X16553515Y-12919698D02*
X16563039Y-12910174D01*
X16563039Y-12910174D02*
X16582087Y-12900650D01*
X16582087Y-12900650D02*
X16610658Y-12900650D01*
X16610658Y-12900650D02*
X16629706Y-12910174D01*
X16629706Y-12910174D02*
X16639230Y-12919698D01*
X16639230Y-12919698D02*
X16648753Y-12938746D01*
X16648753Y-12938746D02*
X16648753Y-12995888D01*
X16648753Y-12995888D02*
X16639230Y-13014936D01*
X16639230Y-13014936D02*
X16629706Y-13024460D01*
X16629706Y-13024460D02*
X16610658Y-13033984D01*
X16610658Y-13033984D02*
X16582087Y-13033984D01*
X16763039Y-13033984D02*
X16743991Y-13024460D01*
X16743991Y-13024460D02*
X16734468Y-13005412D01*
X16734468Y-13005412D02*
X16734468Y-12833984D01*
X16915420Y-13024460D02*
X16896373Y-13033984D01*
X16896373Y-13033984D02*
X16858277Y-13033984D01*
X16858277Y-13033984D02*
X16839230Y-13024460D01*
X16839230Y-13024460D02*
X16829706Y-13005412D01*
X16829706Y-13005412D02*
X16829706Y-12929222D01*
X16829706Y-12929222D02*
X16839230Y-12910174D01*
X16839230Y-12910174D02*
X16858277Y-12900650D01*
X16858277Y-12900650D02*
X16896373Y-12900650D01*
X16896373Y-12900650D02*
X16915420Y-12910174D01*
X16915420Y-12910174D02*
X16924944Y-12929222D01*
X16924944Y-12929222D02*
X16924944Y-12948269D01*
X16924944Y-12948269D02*
X16829706Y-12967317D01*
X17001134Y-13024460D02*
X17020182Y-13033984D01*
X17020182Y-13033984D02*
X17058277Y-13033984D01*
X17058277Y-13033984D02*
X17077325Y-13024460D01*
X17077325Y-13024460D02*
X17086849Y-13005412D01*
X17086849Y-13005412D02*
X17086849Y-12995888D01*
X17086849Y-12995888D02*
X17077325Y-12976841D01*
X17077325Y-12976841D02*
X17058277Y-12967317D01*
X17058277Y-12967317D02*
X17029706Y-12967317D01*
X17029706Y-12967317D02*
X17010658Y-12957793D01*
X17010658Y-12957793D02*
X17001134Y-12938746D01*
X17001134Y-12938746D02*
X17001134Y-12929222D01*
X17001134Y-12929222D02*
X17010658Y-12910174D01*
X17010658Y-12910174D02*
X17029706Y-12900650D01*
X17029706Y-12900650D02*
X17058277Y-12900650D01*
X17058277Y-12900650D02*
X17077325Y-12910174D01*
X17153515Y-13110174D02*
X17163039Y-13100650D01*
X17163039Y-13100650D02*
X17182087Y-13072079D01*
X17182087Y-13072079D02*
X17191611Y-13053031D01*
X17191611Y-13053031D02*
X17201134Y-13024460D01*
X17201134Y-13024460D02*
X17210658Y-12976841D01*
X17210658Y-12976841D02*
X17210658Y-12938746D01*
X17210658Y-12938746D02*
X17201134Y-12891127D01*
X17201134Y-12891127D02*
X17191611Y-12862555D01*
X17191611Y-12862555D02*
X17182087Y-12843508D01*
X17182087Y-12843508D02*
X17163039Y-12814936D01*
X17163039Y-12814936D02*
X17153515Y-12805412D01*
D12*
X11997500Y-13206500D02*
G75*
G02*
X11972100Y-13206500I-12700J0D01*
G01*
X11972100Y-13206500D02*
G75*
G02*
X11997500Y-13206500I12700J0D01*
G01*
D11*
X12296372Y-13097984D02*
X12315420Y-13097984D01*
X12315420Y-13097984D02*
X12334467Y-13107508D01*
X12334467Y-13107508D02*
X12343991Y-13117031D01*
X12343991Y-13117031D02*
X12353515Y-13136079D01*
X12353515Y-13136079D02*
X12363039Y-13174174D01*
X12363039Y-13174174D02*
X12363039Y-13221793D01*
X12363039Y-13221793D02*
X12353515Y-13259888D01*
X12353515Y-13259888D02*
X12343991Y-13278936D01*
X12343991Y-13278936D02*
X12334467Y-13288460D01*
X12334467Y-13288460D02*
X12315420Y-13297984D01*
X12315420Y-13297984D02*
X12296372Y-13297984D01*
X12296372Y-13297984D02*
X12277324Y-13288460D01*
X12277324Y-13288460D02*
X12267801Y-13278936D01*
X12267801Y-13278936D02*
X12258277Y-13259888D01*
X12258277Y-13259888D02*
X12248753Y-13221793D01*
X12248753Y-13221793D02*
X12248753Y-13174174D01*
X12248753Y-13174174D02*
X12258277Y-13136079D01*
X12258277Y-13136079D02*
X12267801Y-13117031D01*
X12267801Y-13117031D02*
X12277324Y-13107508D01*
X12277324Y-13107508D02*
X12296372Y-13097984D01*
X12448753Y-13278936D02*
X12458277Y-13288460D01*
X12458277Y-13288460D02*
X12448753Y-13297984D01*
X12448753Y-13297984D02*
X12439229Y-13288460D01*
X12439229Y-13288460D02*
X12448753Y-13278936D01*
X12448753Y-13278936D02*
X12448753Y-13297984D01*
X12534467Y-13117031D02*
X12543991Y-13107508D01*
X12543991Y-13107508D02*
X12563039Y-13097984D01*
X12563039Y-13097984D02*
X12610658Y-13097984D01*
X12610658Y-13097984D02*
X12629705Y-13107508D01*
X12629705Y-13107508D02*
X12639229Y-13117031D01*
X12639229Y-13117031D02*
X12648753Y-13136079D01*
X12648753Y-13136079D02*
X12648753Y-13155127D01*
X12648753Y-13155127D02*
X12639229Y-13183698D01*
X12639229Y-13183698D02*
X12524943Y-13297984D01*
X12524943Y-13297984D02*
X12648753Y-13297984D01*
X12829705Y-13097984D02*
X12734467Y-13097984D01*
X12734467Y-13097984D02*
X12724943Y-13193222D01*
X12724943Y-13193222D02*
X12734467Y-13183698D01*
X12734467Y-13183698D02*
X12753515Y-13174174D01*
X12753515Y-13174174D02*
X12801134Y-13174174D01*
X12801134Y-13174174D02*
X12820182Y-13183698D01*
X12820182Y-13183698D02*
X12829705Y-13193222D01*
X12829705Y-13193222D02*
X12839229Y-13212269D01*
X12839229Y-13212269D02*
X12839229Y-13259888D01*
X12839229Y-13259888D02*
X12829705Y-13278936D01*
X12829705Y-13278936D02*
X12820182Y-13288460D01*
X12820182Y-13288460D02*
X12801134Y-13297984D01*
X12801134Y-13297984D02*
X12753515Y-13297984D01*
X12753515Y-13297984D02*
X12734467Y-13288460D01*
X12734467Y-13288460D02*
X12724943Y-13278936D01*
X13010658Y-13164650D02*
X13010658Y-13297984D01*
X12963039Y-13088460D02*
X12915420Y-13231317D01*
X12915420Y-13231317D02*
X13039229Y-13231317D01*
X13115420Y-13297984D02*
X13115420Y-13164650D01*
X13115420Y-13183698D02*
X13124943Y-13174174D01*
X13124943Y-13174174D02*
X13143991Y-13164650D01*
X13143991Y-13164650D02*
X13172563Y-13164650D01*
X13172563Y-13164650D02*
X13191610Y-13174174D01*
X13191610Y-13174174D02*
X13201134Y-13193222D01*
X13201134Y-13193222D02*
X13201134Y-13297984D01*
X13201134Y-13193222D02*
X13210658Y-13174174D01*
X13210658Y-13174174D02*
X13229705Y-13164650D01*
X13229705Y-13164650D02*
X13258277Y-13164650D01*
X13258277Y-13164650D02*
X13277324Y-13174174D01*
X13277324Y-13174174D02*
X13286848Y-13193222D01*
X13286848Y-13193222D02*
X13286848Y-13297984D01*
X13382086Y-13297984D02*
X13382086Y-13164650D01*
X13382086Y-13183698D02*
X13391610Y-13174174D01*
X13391610Y-13174174D02*
X13410658Y-13164650D01*
X13410658Y-13164650D02*
X13439229Y-13164650D01*
X13439229Y-13164650D02*
X13458277Y-13174174D01*
X13458277Y-13174174D02*
X13467801Y-13193222D01*
X13467801Y-13193222D02*
X13467801Y-13297984D01*
X13467801Y-13193222D02*
X13477324Y-13174174D01*
X13477324Y-13174174D02*
X13496372Y-13164650D01*
X13496372Y-13164650D02*
X13524943Y-13164650D01*
X13524943Y-13164650D02*
X13543991Y-13174174D01*
X13543991Y-13174174D02*
X13553515Y-13193222D01*
X13553515Y-13193222D02*
X13553515Y-13297984D01*
X13943991Y-13088460D02*
X13772563Y-13345603D01*
X14201134Y-13097984D02*
X14220182Y-13097984D01*
X14220182Y-13097984D02*
X14239229Y-13107508D01*
X14239229Y-13107508D02*
X14248753Y-13117031D01*
X14248753Y-13117031D02*
X14258277Y-13136079D01*
X14258277Y-13136079D02*
X14267801Y-13174174D01*
X14267801Y-13174174D02*
X14267801Y-13221793D01*
X14267801Y-13221793D02*
X14258277Y-13259888D01*
X14258277Y-13259888D02*
X14248753Y-13278936D01*
X14248753Y-13278936D02*
X14239229Y-13288460D01*
X14239229Y-13288460D02*
X14220182Y-13297984D01*
X14220182Y-13297984D02*
X14201134Y-13297984D01*
X14201134Y-13297984D02*
X14182086Y-13288460D01*
X14182086Y-13288460D02*
X14172563Y-13278936D01*
X14172563Y-13278936D02*
X14163039Y-13259888D01*
X14163039Y-13259888D02*
X14153515Y-13221793D01*
X14153515Y-13221793D02*
X14153515Y-13174174D01*
X14153515Y-13174174D02*
X14163039Y-13136079D01*
X14163039Y-13136079D02*
X14172563Y-13117031D01*
X14172563Y-13117031D02*
X14182086Y-13107508D01*
X14182086Y-13107508D02*
X14201134Y-13097984D01*
X14353515Y-13278936D02*
X14363039Y-13288460D01*
X14363039Y-13288460D02*
X14353515Y-13297984D01*
X14353515Y-13297984D02*
X14343991Y-13288460D01*
X14343991Y-13288460D02*
X14353515Y-13278936D01*
X14353515Y-13278936D02*
X14353515Y-13297984D01*
X14486848Y-13097984D02*
X14505896Y-13097984D01*
X14505896Y-13097984D02*
X14524944Y-13107508D01*
X14524944Y-13107508D02*
X14534467Y-13117031D01*
X14534467Y-13117031D02*
X14543991Y-13136079D01*
X14543991Y-13136079D02*
X14553515Y-13174174D01*
X14553515Y-13174174D02*
X14553515Y-13221793D01*
X14553515Y-13221793D02*
X14543991Y-13259888D01*
X14543991Y-13259888D02*
X14534467Y-13278936D01*
X14534467Y-13278936D02*
X14524944Y-13288460D01*
X14524944Y-13288460D02*
X14505896Y-13297984D01*
X14505896Y-13297984D02*
X14486848Y-13297984D01*
X14486848Y-13297984D02*
X14467801Y-13288460D01*
X14467801Y-13288460D02*
X14458277Y-13278936D01*
X14458277Y-13278936D02*
X14448753Y-13259888D01*
X14448753Y-13259888D02*
X14439229Y-13221793D01*
X14439229Y-13221793D02*
X14439229Y-13174174D01*
X14439229Y-13174174D02*
X14448753Y-13136079D01*
X14448753Y-13136079D02*
X14458277Y-13117031D01*
X14458277Y-13117031D02*
X14467801Y-13107508D01*
X14467801Y-13107508D02*
X14486848Y-13097984D01*
X14743991Y-13297984D02*
X14629706Y-13297984D01*
X14686848Y-13297984D02*
X14686848Y-13097984D01*
X14686848Y-13097984D02*
X14667801Y-13126555D01*
X14667801Y-13126555D02*
X14648753Y-13145603D01*
X14648753Y-13145603D02*
X14629706Y-13155127D01*
X14867801Y-13097984D02*
X14886848Y-13097984D01*
X14886848Y-13097984D02*
X14905896Y-13107508D01*
X14905896Y-13107508D02*
X14915420Y-13117031D01*
X14915420Y-13117031D02*
X14924944Y-13136079D01*
X14924944Y-13136079D02*
X14934467Y-13174174D01*
X14934467Y-13174174D02*
X14934467Y-13221793D01*
X14934467Y-13221793D02*
X14924944Y-13259888D01*
X14924944Y-13259888D02*
X14915420Y-13278936D01*
X14915420Y-13278936D02*
X14905896Y-13288460D01*
X14905896Y-13288460D02*
X14886848Y-13297984D01*
X14886848Y-13297984D02*
X14867801Y-13297984D01*
X14867801Y-13297984D02*
X14848753Y-13288460D01*
X14848753Y-13288460D02*
X14839229Y-13278936D01*
X14839229Y-13278936D02*
X14829706Y-13259888D01*
X14829706Y-13259888D02*
X14820182Y-13221793D01*
X14820182Y-13221793D02*
X14820182Y-13174174D01*
X14820182Y-13174174D02*
X14829706Y-13136079D01*
X14829706Y-13136079D02*
X14839229Y-13117031D01*
X14839229Y-13117031D02*
X14848753Y-13107508D01*
X14848753Y-13107508D02*
X14867801Y-13097984D01*
X15058277Y-13097984D02*
X15077325Y-13097984D01*
X15077325Y-13097984D02*
X15096372Y-13107508D01*
X15096372Y-13107508D02*
X15105896Y-13117031D01*
X15105896Y-13117031D02*
X15115420Y-13136079D01*
X15115420Y-13136079D02*
X15124944Y-13174174D01*
X15124944Y-13174174D02*
X15124944Y-13221793D01*
X15124944Y-13221793D02*
X15115420Y-13259888D01*
X15115420Y-13259888D02*
X15105896Y-13278936D01*
X15105896Y-13278936D02*
X15096372Y-13288460D01*
X15096372Y-13288460D02*
X15077325Y-13297984D01*
X15077325Y-13297984D02*
X15058277Y-13297984D01*
X15058277Y-13297984D02*
X15039229Y-13288460D01*
X15039229Y-13288460D02*
X15029706Y-13278936D01*
X15029706Y-13278936D02*
X15020182Y-13259888D01*
X15020182Y-13259888D02*
X15010658Y-13221793D01*
X15010658Y-13221793D02*
X15010658Y-13174174D01*
X15010658Y-13174174D02*
X15020182Y-13136079D01*
X15020182Y-13136079D02*
X15029706Y-13117031D01*
X15029706Y-13117031D02*
X15039229Y-13107508D01*
X15039229Y-13107508D02*
X15058277Y-13097984D01*
X15201134Y-13097984D02*
X15201134Y-13136079D01*
X15277325Y-13097984D02*
X15277325Y-13136079D01*
X15572563Y-13374174D02*
X15563039Y-13364650D01*
X15563039Y-13364650D02*
X15543991Y-13336079D01*
X15543991Y-13336079D02*
X15534468Y-13317031D01*
X15534468Y-13317031D02*
X15524944Y-13288460D01*
X15524944Y-13288460D02*
X15515420Y-13240841D01*
X15515420Y-13240841D02*
X15515420Y-13202746D01*
X15515420Y-13202746D02*
X15524944Y-13155127D01*
X15524944Y-13155127D02*
X15534468Y-13126555D01*
X15534468Y-13126555D02*
X15543991Y-13107508D01*
X15543991Y-13107508D02*
X15563039Y-13078936D01*
X15563039Y-13078936D02*
X15572563Y-13069412D01*
X15734468Y-13097984D02*
X15696372Y-13097984D01*
X15696372Y-13097984D02*
X15677325Y-13107508D01*
X15677325Y-13107508D02*
X15667801Y-13117031D01*
X15667801Y-13117031D02*
X15648753Y-13145603D01*
X15648753Y-13145603D02*
X15639229Y-13183698D01*
X15639229Y-13183698D02*
X15639229Y-13259888D01*
X15639229Y-13259888D02*
X15648753Y-13278936D01*
X15648753Y-13278936D02*
X15658277Y-13288460D01*
X15658277Y-13288460D02*
X15677325Y-13297984D01*
X15677325Y-13297984D02*
X15715420Y-13297984D01*
X15715420Y-13297984D02*
X15734468Y-13288460D01*
X15734468Y-13288460D02*
X15743991Y-13278936D01*
X15743991Y-13278936D02*
X15753515Y-13259888D01*
X15753515Y-13259888D02*
X15753515Y-13212269D01*
X15753515Y-13212269D02*
X15743991Y-13193222D01*
X15743991Y-13193222D02*
X15734468Y-13183698D01*
X15734468Y-13183698D02*
X15715420Y-13174174D01*
X15715420Y-13174174D02*
X15677325Y-13174174D01*
X15677325Y-13174174D02*
X15658277Y-13183698D01*
X15658277Y-13183698D02*
X15648753Y-13193222D01*
X15648753Y-13193222D02*
X15639229Y-13212269D01*
X15991610Y-13297984D02*
X15991610Y-13097984D01*
X16077325Y-13297984D02*
X16077325Y-13193222D01*
X16077325Y-13193222D02*
X16067801Y-13174174D01*
X16067801Y-13174174D02*
X16048753Y-13164650D01*
X16048753Y-13164650D02*
X16020182Y-13164650D01*
X16020182Y-13164650D02*
X16001134Y-13174174D01*
X16001134Y-13174174D02*
X15991610Y-13183698D01*
X16201134Y-13297984D02*
X16182087Y-13288460D01*
X16182087Y-13288460D02*
X16172563Y-13278936D01*
X16172563Y-13278936D02*
X16163039Y-13259888D01*
X16163039Y-13259888D02*
X16163039Y-13202746D01*
X16163039Y-13202746D02*
X16172563Y-13183698D01*
X16172563Y-13183698D02*
X16182087Y-13174174D01*
X16182087Y-13174174D02*
X16201134Y-13164650D01*
X16201134Y-13164650D02*
X16229706Y-13164650D01*
X16229706Y-13164650D02*
X16248753Y-13174174D01*
X16248753Y-13174174D02*
X16258277Y-13183698D01*
X16258277Y-13183698D02*
X16267801Y-13202746D01*
X16267801Y-13202746D02*
X16267801Y-13259888D01*
X16267801Y-13259888D02*
X16258277Y-13278936D01*
X16258277Y-13278936D02*
X16248753Y-13288460D01*
X16248753Y-13288460D02*
X16229706Y-13297984D01*
X16229706Y-13297984D02*
X16201134Y-13297984D01*
X16382087Y-13297984D02*
X16363039Y-13288460D01*
X16363039Y-13288460D02*
X16353515Y-13269412D01*
X16353515Y-13269412D02*
X16353515Y-13097984D01*
X16534468Y-13288460D02*
X16515420Y-13297984D01*
X16515420Y-13297984D02*
X16477325Y-13297984D01*
X16477325Y-13297984D02*
X16458277Y-13288460D01*
X16458277Y-13288460D02*
X16448753Y-13269412D01*
X16448753Y-13269412D02*
X16448753Y-13193222D01*
X16448753Y-13193222D02*
X16458277Y-13174174D01*
X16458277Y-13174174D02*
X16477325Y-13164650D01*
X16477325Y-13164650D02*
X16515420Y-13164650D01*
X16515420Y-13164650D02*
X16534468Y-13174174D01*
X16534468Y-13174174D02*
X16543991Y-13193222D01*
X16543991Y-13193222D02*
X16543991Y-13212269D01*
X16543991Y-13212269D02*
X16448753Y-13231317D01*
X16620182Y-13288460D02*
X16639230Y-13297984D01*
X16639230Y-13297984D02*
X16677325Y-13297984D01*
X16677325Y-13297984D02*
X16696372Y-13288460D01*
X16696372Y-13288460D02*
X16705896Y-13269412D01*
X16705896Y-13269412D02*
X16705896Y-13259888D01*
X16705896Y-13259888D02*
X16696372Y-13240841D01*
X16696372Y-13240841D02*
X16677325Y-13231317D01*
X16677325Y-13231317D02*
X16648753Y-13231317D01*
X16648753Y-13231317D02*
X16629706Y-13221793D01*
X16629706Y-13221793D02*
X16620182Y-13202746D01*
X16620182Y-13202746D02*
X16620182Y-13193222D01*
X16620182Y-13193222D02*
X16629706Y-13174174D01*
X16629706Y-13174174D02*
X16648753Y-13164650D01*
X16648753Y-13164650D02*
X16677325Y-13164650D01*
X16677325Y-13164650D02*
X16696372Y-13174174D01*
X16772563Y-13374174D02*
X16782087Y-13364650D01*
X16782087Y-13364650D02*
X16801134Y-13336079D01*
X16801134Y-13336079D02*
X16810658Y-13317031D01*
X16810658Y-13317031D02*
X16820182Y-13288460D01*
X16820182Y-13288460D02*
X16829706Y-13240841D01*
X16829706Y-13240841D02*
X16829706Y-13202746D01*
X16829706Y-13202746D02*
X16820182Y-13155127D01*
X16820182Y-13155127D02*
X16810658Y-13126555D01*
X16810658Y-13126555D02*
X16801134Y-13107508D01*
X16801134Y-13107508D02*
X16782087Y-13078936D01*
X16782087Y-13078936D02*
X16772563Y-13069412D01*
D12*
X11965000Y-13438000D02*
X11965000Y-13503000D01*
X11932500Y-13470500D02*
X11997500Y-13470500D01*
D11*
X12296372Y-13361984D02*
X12315420Y-13361984D01*
X12315420Y-13361984D02*
X12334467Y-13371508D01*
X12334467Y-13371508D02*
X12343991Y-13381031D01*
X12343991Y-13381031D02*
X12353515Y-13400079D01*
X12353515Y-13400079D02*
X12363039Y-13438174D01*
X12363039Y-13438174D02*
X12363039Y-13485793D01*
X12363039Y-13485793D02*
X12353515Y-13523888D01*
X12353515Y-13523888D02*
X12343991Y-13542936D01*
X12343991Y-13542936D02*
X12334467Y-13552460D01*
X12334467Y-13552460D02*
X12315420Y-13561984D01*
X12315420Y-13561984D02*
X12296372Y-13561984D01*
X12296372Y-13561984D02*
X12277324Y-13552460D01*
X12277324Y-13552460D02*
X12267801Y-13542936D01*
X12267801Y-13542936D02*
X12258277Y-13523888D01*
X12258277Y-13523888D02*
X12248753Y-13485793D01*
X12248753Y-13485793D02*
X12248753Y-13438174D01*
X12248753Y-13438174D02*
X12258277Y-13400079D01*
X12258277Y-13400079D02*
X12267801Y-13381031D01*
X12267801Y-13381031D02*
X12277324Y-13371508D01*
X12277324Y-13371508D02*
X12296372Y-13361984D01*
X12448753Y-13542936D02*
X12458277Y-13552460D01*
X12458277Y-13552460D02*
X12448753Y-13561984D01*
X12448753Y-13561984D02*
X12439229Y-13552460D01*
X12439229Y-13552460D02*
X12448753Y-13542936D01*
X12448753Y-13542936D02*
X12448753Y-13561984D01*
X12629705Y-13361984D02*
X12591610Y-13361984D01*
X12591610Y-13361984D02*
X12572562Y-13371508D01*
X12572562Y-13371508D02*
X12563039Y-13381031D01*
X12563039Y-13381031D02*
X12543991Y-13409603D01*
X12543991Y-13409603D02*
X12534467Y-13447698D01*
X12534467Y-13447698D02*
X12534467Y-13523888D01*
X12534467Y-13523888D02*
X12543991Y-13542936D01*
X12543991Y-13542936D02*
X12553515Y-13552460D01*
X12553515Y-13552460D02*
X12572562Y-13561984D01*
X12572562Y-13561984D02*
X12610658Y-13561984D01*
X12610658Y-13561984D02*
X12629705Y-13552460D01*
X12629705Y-13552460D02*
X12639229Y-13542936D01*
X12639229Y-13542936D02*
X12648753Y-13523888D01*
X12648753Y-13523888D02*
X12648753Y-13476269D01*
X12648753Y-13476269D02*
X12639229Y-13457222D01*
X12639229Y-13457222D02*
X12629705Y-13447698D01*
X12629705Y-13447698D02*
X12610658Y-13438174D01*
X12610658Y-13438174D02*
X12572562Y-13438174D01*
X12572562Y-13438174D02*
X12553515Y-13447698D01*
X12553515Y-13447698D02*
X12543991Y-13457222D01*
X12543991Y-13457222D02*
X12534467Y-13476269D01*
X12829705Y-13361984D02*
X12734467Y-13361984D01*
X12734467Y-13361984D02*
X12724943Y-13457222D01*
X12724943Y-13457222D02*
X12734467Y-13447698D01*
X12734467Y-13447698D02*
X12753515Y-13438174D01*
X12753515Y-13438174D02*
X12801134Y-13438174D01*
X12801134Y-13438174D02*
X12820182Y-13447698D01*
X12820182Y-13447698D02*
X12829705Y-13457222D01*
X12829705Y-13457222D02*
X12839229Y-13476269D01*
X12839229Y-13476269D02*
X12839229Y-13523888D01*
X12839229Y-13523888D02*
X12829705Y-13542936D01*
X12829705Y-13542936D02*
X12820182Y-13552460D01*
X12820182Y-13552460D02*
X12801134Y-13561984D01*
X12801134Y-13561984D02*
X12753515Y-13561984D01*
X12753515Y-13561984D02*
X12734467Y-13552460D01*
X12734467Y-13552460D02*
X12724943Y-13542936D01*
X12963039Y-13361984D02*
X12982086Y-13361984D01*
X12982086Y-13361984D02*
X13001134Y-13371508D01*
X13001134Y-13371508D02*
X13010658Y-13381031D01*
X13010658Y-13381031D02*
X13020182Y-13400079D01*
X13020182Y-13400079D02*
X13029705Y-13438174D01*
X13029705Y-13438174D02*
X13029705Y-13485793D01*
X13029705Y-13485793D02*
X13020182Y-13523888D01*
X13020182Y-13523888D02*
X13010658Y-13542936D01*
X13010658Y-13542936D02*
X13001134Y-13552460D01*
X13001134Y-13552460D02*
X12982086Y-13561984D01*
X12982086Y-13561984D02*
X12963039Y-13561984D01*
X12963039Y-13561984D02*
X12943991Y-13552460D01*
X12943991Y-13552460D02*
X12934467Y-13542936D01*
X12934467Y-13542936D02*
X12924943Y-13523888D01*
X12924943Y-13523888D02*
X12915420Y-13485793D01*
X12915420Y-13485793D02*
X12915420Y-13438174D01*
X12915420Y-13438174D02*
X12924943Y-13400079D01*
X12924943Y-13400079D02*
X12934467Y-13381031D01*
X12934467Y-13381031D02*
X12943991Y-13371508D01*
X12943991Y-13371508D02*
X12963039Y-13361984D01*
X13115420Y-13561984D02*
X13115420Y-13428650D01*
X13115420Y-13447698D02*
X13124943Y-13438174D01*
X13124943Y-13438174D02*
X13143991Y-13428650D01*
X13143991Y-13428650D02*
X13172563Y-13428650D01*
X13172563Y-13428650D02*
X13191610Y-13438174D01*
X13191610Y-13438174D02*
X13201134Y-13457222D01*
X13201134Y-13457222D02*
X13201134Y-13561984D01*
X13201134Y-13457222D02*
X13210658Y-13438174D01*
X13210658Y-13438174D02*
X13229705Y-13428650D01*
X13229705Y-13428650D02*
X13258277Y-13428650D01*
X13258277Y-13428650D02*
X13277324Y-13438174D01*
X13277324Y-13438174D02*
X13286848Y-13457222D01*
X13286848Y-13457222D02*
X13286848Y-13561984D01*
X13382086Y-13561984D02*
X13382086Y-13428650D01*
X13382086Y-13447698D02*
X13391610Y-13438174D01*
X13391610Y-13438174D02*
X13410658Y-13428650D01*
X13410658Y-13428650D02*
X13439229Y-13428650D01*
X13439229Y-13428650D02*
X13458277Y-13438174D01*
X13458277Y-13438174D02*
X13467801Y-13457222D01*
X13467801Y-13457222D02*
X13467801Y-13561984D01*
X13467801Y-13457222D02*
X13477324Y-13438174D01*
X13477324Y-13438174D02*
X13496372Y-13428650D01*
X13496372Y-13428650D02*
X13524943Y-13428650D01*
X13524943Y-13428650D02*
X13543991Y-13438174D01*
X13543991Y-13438174D02*
X13553515Y-13457222D01*
X13553515Y-13457222D02*
X13553515Y-13561984D01*
X13943991Y-13352460D02*
X13772563Y-13609603D01*
X14201134Y-13361984D02*
X14220182Y-13361984D01*
X14220182Y-13361984D02*
X14239229Y-13371508D01*
X14239229Y-13371508D02*
X14248753Y-13381031D01*
X14248753Y-13381031D02*
X14258277Y-13400079D01*
X14258277Y-13400079D02*
X14267801Y-13438174D01*
X14267801Y-13438174D02*
X14267801Y-13485793D01*
X14267801Y-13485793D02*
X14258277Y-13523888D01*
X14258277Y-13523888D02*
X14248753Y-13542936D01*
X14248753Y-13542936D02*
X14239229Y-13552460D01*
X14239229Y-13552460D02*
X14220182Y-13561984D01*
X14220182Y-13561984D02*
X14201134Y-13561984D01*
X14201134Y-13561984D02*
X14182086Y-13552460D01*
X14182086Y-13552460D02*
X14172563Y-13542936D01*
X14172563Y-13542936D02*
X14163039Y-13523888D01*
X14163039Y-13523888D02*
X14153515Y-13485793D01*
X14153515Y-13485793D02*
X14153515Y-13438174D01*
X14153515Y-13438174D02*
X14163039Y-13400079D01*
X14163039Y-13400079D02*
X14172563Y-13381031D01*
X14172563Y-13381031D02*
X14182086Y-13371508D01*
X14182086Y-13371508D02*
X14201134Y-13361984D01*
X14353515Y-13542936D02*
X14363039Y-13552460D01*
X14363039Y-13552460D02*
X14353515Y-13561984D01*
X14353515Y-13561984D02*
X14343991Y-13552460D01*
X14343991Y-13552460D02*
X14353515Y-13542936D01*
X14353515Y-13542936D02*
X14353515Y-13561984D01*
X14486848Y-13361984D02*
X14505896Y-13361984D01*
X14505896Y-13361984D02*
X14524944Y-13371508D01*
X14524944Y-13371508D02*
X14534467Y-13381031D01*
X14534467Y-13381031D02*
X14543991Y-13400079D01*
X14543991Y-13400079D02*
X14553515Y-13438174D01*
X14553515Y-13438174D02*
X14553515Y-13485793D01*
X14553515Y-13485793D02*
X14543991Y-13523888D01*
X14543991Y-13523888D02*
X14534467Y-13542936D01*
X14534467Y-13542936D02*
X14524944Y-13552460D01*
X14524944Y-13552460D02*
X14505896Y-13561984D01*
X14505896Y-13561984D02*
X14486848Y-13561984D01*
X14486848Y-13561984D02*
X14467801Y-13552460D01*
X14467801Y-13552460D02*
X14458277Y-13542936D01*
X14458277Y-13542936D02*
X14448753Y-13523888D01*
X14448753Y-13523888D02*
X14439229Y-13485793D01*
X14439229Y-13485793D02*
X14439229Y-13438174D01*
X14439229Y-13438174D02*
X14448753Y-13400079D01*
X14448753Y-13400079D02*
X14458277Y-13381031D01*
X14458277Y-13381031D02*
X14467801Y-13371508D01*
X14467801Y-13371508D02*
X14486848Y-13361984D01*
X14629706Y-13381031D02*
X14639229Y-13371508D01*
X14639229Y-13371508D02*
X14658277Y-13361984D01*
X14658277Y-13361984D02*
X14705896Y-13361984D01*
X14705896Y-13361984D02*
X14724944Y-13371508D01*
X14724944Y-13371508D02*
X14734467Y-13381031D01*
X14734467Y-13381031D02*
X14743991Y-13400079D01*
X14743991Y-13400079D02*
X14743991Y-13419127D01*
X14743991Y-13419127D02*
X14734467Y-13447698D01*
X14734467Y-13447698D02*
X14620182Y-13561984D01*
X14620182Y-13561984D02*
X14743991Y-13561984D01*
X14924944Y-13361984D02*
X14829706Y-13361984D01*
X14829706Y-13361984D02*
X14820182Y-13457222D01*
X14820182Y-13457222D02*
X14829706Y-13447698D01*
X14829706Y-13447698D02*
X14848753Y-13438174D01*
X14848753Y-13438174D02*
X14896372Y-13438174D01*
X14896372Y-13438174D02*
X14915420Y-13447698D01*
X14915420Y-13447698D02*
X14924944Y-13457222D01*
X14924944Y-13457222D02*
X14934467Y-13476269D01*
X14934467Y-13476269D02*
X14934467Y-13523888D01*
X14934467Y-13523888D02*
X14924944Y-13542936D01*
X14924944Y-13542936D02*
X14915420Y-13552460D01*
X14915420Y-13552460D02*
X14896372Y-13561984D01*
X14896372Y-13561984D02*
X14848753Y-13561984D01*
X14848753Y-13561984D02*
X14829706Y-13552460D01*
X14829706Y-13552460D02*
X14820182Y-13542936D01*
X15105896Y-13361984D02*
X15067801Y-13361984D01*
X15067801Y-13361984D02*
X15048753Y-13371508D01*
X15048753Y-13371508D02*
X15039229Y-13381031D01*
X15039229Y-13381031D02*
X15020182Y-13409603D01*
X15020182Y-13409603D02*
X15010658Y-13447698D01*
X15010658Y-13447698D02*
X15010658Y-13523888D01*
X15010658Y-13523888D02*
X15020182Y-13542936D01*
X15020182Y-13542936D02*
X15029706Y-13552460D01*
X15029706Y-13552460D02*
X15048753Y-13561984D01*
X15048753Y-13561984D02*
X15086848Y-13561984D01*
X15086848Y-13561984D02*
X15105896Y-13552460D01*
X15105896Y-13552460D02*
X15115420Y-13542936D01*
X15115420Y-13542936D02*
X15124944Y-13523888D01*
X15124944Y-13523888D02*
X15124944Y-13476269D01*
X15124944Y-13476269D02*
X15115420Y-13457222D01*
X15115420Y-13457222D02*
X15105896Y-13447698D01*
X15105896Y-13447698D02*
X15086848Y-13438174D01*
X15086848Y-13438174D02*
X15048753Y-13438174D01*
X15048753Y-13438174D02*
X15029706Y-13447698D01*
X15029706Y-13447698D02*
X15020182Y-13457222D01*
X15020182Y-13457222D02*
X15010658Y-13476269D01*
X15201134Y-13361984D02*
X15201134Y-13400079D01*
X15277325Y-13361984D02*
X15277325Y-13400079D01*
X15572563Y-13638174D02*
X15563039Y-13628650D01*
X15563039Y-13628650D02*
X15543991Y-13600079D01*
X15543991Y-13600079D02*
X15534468Y-13581031D01*
X15534468Y-13581031D02*
X15524944Y-13552460D01*
X15524944Y-13552460D02*
X15515420Y-13504841D01*
X15515420Y-13504841D02*
X15515420Y-13466746D01*
X15515420Y-13466746D02*
X15524944Y-13419127D01*
X15524944Y-13419127D02*
X15534468Y-13390555D01*
X15534468Y-13390555D02*
X15543991Y-13371508D01*
X15543991Y-13371508D02*
X15563039Y-13342936D01*
X15563039Y-13342936D02*
X15572563Y-13333412D01*
X15686848Y-13361984D02*
X15705896Y-13361984D01*
X15705896Y-13361984D02*
X15724944Y-13371508D01*
X15724944Y-13371508D02*
X15734468Y-13381031D01*
X15734468Y-13381031D02*
X15743991Y-13400079D01*
X15743991Y-13400079D02*
X15753515Y-13438174D01*
X15753515Y-13438174D02*
X15753515Y-13485793D01*
X15753515Y-13485793D02*
X15743991Y-13523888D01*
X15743991Y-13523888D02*
X15734468Y-13542936D01*
X15734468Y-13542936D02*
X15724944Y-13552460D01*
X15724944Y-13552460D02*
X15705896Y-13561984D01*
X15705896Y-13561984D02*
X15686848Y-13561984D01*
X15686848Y-13561984D02*
X15667801Y-13552460D01*
X15667801Y-13552460D02*
X15658277Y-13542936D01*
X15658277Y-13542936D02*
X15648753Y-13523888D01*
X15648753Y-13523888D02*
X15639229Y-13485793D01*
X15639229Y-13485793D02*
X15639229Y-13438174D01*
X15639229Y-13438174D02*
X15648753Y-13400079D01*
X15648753Y-13400079D02*
X15658277Y-13381031D01*
X15658277Y-13381031D02*
X15667801Y-13371508D01*
X15667801Y-13371508D02*
X15686848Y-13361984D01*
X15991610Y-13561984D02*
X15991610Y-13361984D01*
X16077325Y-13561984D02*
X16077325Y-13457222D01*
X16077325Y-13457222D02*
X16067801Y-13438174D01*
X16067801Y-13438174D02*
X16048753Y-13428650D01*
X16048753Y-13428650D02*
X16020182Y-13428650D01*
X16020182Y-13428650D02*
X16001134Y-13438174D01*
X16001134Y-13438174D02*
X15991610Y-13447698D01*
X16201134Y-13561984D02*
X16182087Y-13552460D01*
X16182087Y-13552460D02*
X16172563Y-13542936D01*
X16172563Y-13542936D02*
X16163039Y-13523888D01*
X16163039Y-13523888D02*
X16163039Y-13466746D01*
X16163039Y-13466746D02*
X16172563Y-13447698D01*
X16172563Y-13447698D02*
X16182087Y-13438174D01*
X16182087Y-13438174D02*
X16201134Y-13428650D01*
X16201134Y-13428650D02*
X16229706Y-13428650D01*
X16229706Y-13428650D02*
X16248753Y-13438174D01*
X16248753Y-13438174D02*
X16258277Y-13447698D01*
X16258277Y-13447698D02*
X16267801Y-13466746D01*
X16267801Y-13466746D02*
X16267801Y-13523888D01*
X16267801Y-13523888D02*
X16258277Y-13542936D01*
X16258277Y-13542936D02*
X16248753Y-13552460D01*
X16248753Y-13552460D02*
X16229706Y-13561984D01*
X16229706Y-13561984D02*
X16201134Y-13561984D01*
X16382087Y-13561984D02*
X16363039Y-13552460D01*
X16363039Y-13552460D02*
X16353515Y-13533412D01*
X16353515Y-13533412D02*
X16353515Y-13361984D01*
X16534468Y-13552460D02*
X16515420Y-13561984D01*
X16515420Y-13561984D02*
X16477325Y-13561984D01*
X16477325Y-13561984D02*
X16458277Y-13552460D01*
X16458277Y-13552460D02*
X16448753Y-13533412D01*
X16448753Y-13533412D02*
X16448753Y-13457222D01*
X16448753Y-13457222D02*
X16458277Y-13438174D01*
X16458277Y-13438174D02*
X16477325Y-13428650D01*
X16477325Y-13428650D02*
X16515420Y-13428650D01*
X16515420Y-13428650D02*
X16534468Y-13438174D01*
X16534468Y-13438174D02*
X16543991Y-13457222D01*
X16543991Y-13457222D02*
X16543991Y-13476269D01*
X16543991Y-13476269D02*
X16448753Y-13495317D01*
X16620182Y-13552460D02*
X16639230Y-13561984D01*
X16639230Y-13561984D02*
X16677325Y-13561984D01*
X16677325Y-13561984D02*
X16696372Y-13552460D01*
X16696372Y-13552460D02*
X16705896Y-13533412D01*
X16705896Y-13533412D02*
X16705896Y-13523888D01*
X16705896Y-13523888D02*
X16696372Y-13504841D01*
X16696372Y-13504841D02*
X16677325Y-13495317D01*
X16677325Y-13495317D02*
X16648753Y-13495317D01*
X16648753Y-13495317D02*
X16629706Y-13485793D01*
X16629706Y-13485793D02*
X16620182Y-13466746D01*
X16620182Y-13466746D02*
X16620182Y-13457222D01*
X16620182Y-13457222D02*
X16629706Y-13438174D01*
X16629706Y-13438174D02*
X16648753Y-13428650D01*
X16648753Y-13428650D02*
X16677325Y-13428650D01*
X16677325Y-13428650D02*
X16696372Y-13438174D01*
X16943992Y-13485793D02*
X17096373Y-13485793D01*
X17020182Y-13561984D02*
X17020182Y-13409603D01*
X17429706Y-13428650D02*
X17429706Y-13561984D01*
X17382087Y-13352460D02*
X17334468Y-13495317D01*
X17334468Y-13495317D02*
X17458277Y-13495317D01*
X17677325Y-13552460D02*
X17696373Y-13561984D01*
X17696373Y-13561984D02*
X17734468Y-13561984D01*
X17734468Y-13561984D02*
X17753516Y-13552460D01*
X17753516Y-13552460D02*
X17763039Y-13533412D01*
X17763039Y-13533412D02*
X17763039Y-13523888D01*
X17763039Y-13523888D02*
X17753516Y-13504841D01*
X17753516Y-13504841D02*
X17734468Y-13495317D01*
X17734468Y-13495317D02*
X17705896Y-13495317D01*
X17705896Y-13495317D02*
X17686849Y-13485793D01*
X17686849Y-13485793D02*
X17677325Y-13466746D01*
X17677325Y-13466746D02*
X17677325Y-13457222D01*
X17677325Y-13457222D02*
X17686849Y-13438174D01*
X17686849Y-13438174D02*
X17705896Y-13428650D01*
X17705896Y-13428650D02*
X17734468Y-13428650D01*
X17734468Y-13428650D02*
X17753516Y-13438174D01*
X17877325Y-13561984D02*
X17858277Y-13552460D01*
X17858277Y-13552460D02*
X17848754Y-13533412D01*
X17848754Y-13533412D02*
X17848754Y-13361984D01*
X17982087Y-13561984D02*
X17963039Y-13552460D01*
X17963039Y-13552460D02*
X17953516Y-13542936D01*
X17953516Y-13542936D02*
X17943992Y-13523888D01*
X17943992Y-13523888D02*
X17943992Y-13466746D01*
X17943992Y-13466746D02*
X17953516Y-13447698D01*
X17953516Y-13447698D02*
X17963039Y-13438174D01*
X17963039Y-13438174D02*
X17982087Y-13428650D01*
X17982087Y-13428650D02*
X18010658Y-13428650D01*
X18010658Y-13428650D02*
X18029706Y-13438174D01*
X18029706Y-13438174D02*
X18039230Y-13447698D01*
X18039230Y-13447698D02*
X18048754Y-13466746D01*
X18048754Y-13466746D02*
X18048754Y-13523888D01*
X18048754Y-13523888D02*
X18039230Y-13542936D01*
X18039230Y-13542936D02*
X18029706Y-13552460D01*
X18029706Y-13552460D02*
X18010658Y-13561984D01*
X18010658Y-13561984D02*
X17982087Y-13561984D01*
X18105897Y-13428650D02*
X18182087Y-13428650D01*
X18134468Y-13361984D02*
X18134468Y-13533412D01*
X18134468Y-13533412D02*
X18143992Y-13552460D01*
X18143992Y-13552460D02*
X18163039Y-13561984D01*
X18163039Y-13561984D02*
X18182087Y-13561984D01*
X18239230Y-13552460D02*
X18258277Y-13561984D01*
X18258277Y-13561984D02*
X18296373Y-13561984D01*
X18296373Y-13561984D02*
X18315420Y-13552460D01*
X18315420Y-13552460D02*
X18324944Y-13533412D01*
X18324944Y-13533412D02*
X18324944Y-13523888D01*
X18324944Y-13523888D02*
X18315420Y-13504841D01*
X18315420Y-13504841D02*
X18296373Y-13495317D01*
X18296373Y-13495317D02*
X18267801Y-13495317D01*
X18267801Y-13495317D02*
X18248754Y-13485793D01*
X18248754Y-13485793D02*
X18239230Y-13466746D01*
X18239230Y-13466746D02*
X18239230Y-13457222D01*
X18239230Y-13457222D02*
X18248754Y-13438174D01*
X18248754Y-13438174D02*
X18267801Y-13428650D01*
X18267801Y-13428650D02*
X18296373Y-13428650D01*
X18296373Y-13428650D02*
X18315420Y-13438174D01*
X18391611Y-13638174D02*
X18401135Y-13628650D01*
X18401135Y-13628650D02*
X18420182Y-13600079D01*
X18420182Y-13600079D02*
X18429706Y-13581031D01*
X18429706Y-13581031D02*
X18439230Y-13552460D01*
X18439230Y-13552460D02*
X18448754Y-13504841D01*
X18448754Y-13504841D02*
X18448754Y-13466746D01*
X18448754Y-13466746D02*
X18439230Y-13419127D01*
X18439230Y-13419127D02*
X18429706Y-13390555D01*
X18429706Y-13390555D02*
X18420182Y-13371508D01*
X18420182Y-13371508D02*
X18401135Y-13342936D01*
X18401135Y-13342936D02*
X18391611Y-13333412D01*
D12*
X11982856Y-13769856D02*
X11982856Y-13699144D01*
X11912144Y-13699144D01*
X11912144Y-13769856D01*
X11982856Y-13769856D01*
D11*
X12363039Y-13825984D02*
X12248753Y-13825984D01*
X12305896Y-13825984D02*
X12305896Y-13625984D01*
X12305896Y-13625984D02*
X12286848Y-13654555D01*
X12286848Y-13654555D02*
X12267801Y-13673603D01*
X12267801Y-13673603D02*
X12248753Y-13683127D01*
X12448753Y-13806936D02*
X12458277Y-13816460D01*
X12458277Y-13816460D02*
X12448753Y-13825984D01*
X12448753Y-13825984D02*
X12439229Y-13816460D01*
X12439229Y-13816460D02*
X12448753Y-13806936D01*
X12448753Y-13806936D02*
X12448753Y-13825984D01*
X12582086Y-13625984D02*
X12601134Y-13625984D01*
X12601134Y-13625984D02*
X12620182Y-13635508D01*
X12620182Y-13635508D02*
X12629705Y-13645031D01*
X12629705Y-13645031D02*
X12639229Y-13664079D01*
X12639229Y-13664079D02*
X12648753Y-13702174D01*
X12648753Y-13702174D02*
X12648753Y-13749793D01*
X12648753Y-13749793D02*
X12639229Y-13787888D01*
X12639229Y-13787888D02*
X12629705Y-13806936D01*
X12629705Y-13806936D02*
X12620182Y-13816460D01*
X12620182Y-13816460D02*
X12601134Y-13825984D01*
X12601134Y-13825984D02*
X12582086Y-13825984D01*
X12582086Y-13825984D02*
X12563039Y-13816460D01*
X12563039Y-13816460D02*
X12553515Y-13806936D01*
X12553515Y-13806936D02*
X12543991Y-13787888D01*
X12543991Y-13787888D02*
X12534467Y-13749793D01*
X12534467Y-13749793D02*
X12534467Y-13702174D01*
X12534467Y-13702174D02*
X12543991Y-13664079D01*
X12543991Y-13664079D02*
X12553515Y-13645031D01*
X12553515Y-13645031D02*
X12563039Y-13635508D01*
X12563039Y-13635508D02*
X12582086Y-13625984D01*
X12772562Y-13625984D02*
X12791610Y-13625984D01*
X12791610Y-13625984D02*
X12810658Y-13635508D01*
X12810658Y-13635508D02*
X12820182Y-13645031D01*
X12820182Y-13645031D02*
X12829705Y-13664079D01*
X12829705Y-13664079D02*
X12839229Y-13702174D01*
X12839229Y-13702174D02*
X12839229Y-13749793D01*
X12839229Y-13749793D02*
X12829705Y-13787888D01*
X12829705Y-13787888D02*
X12820182Y-13806936D01*
X12820182Y-13806936D02*
X12810658Y-13816460D01*
X12810658Y-13816460D02*
X12791610Y-13825984D01*
X12791610Y-13825984D02*
X12772562Y-13825984D01*
X12772562Y-13825984D02*
X12753515Y-13816460D01*
X12753515Y-13816460D02*
X12743991Y-13806936D01*
X12743991Y-13806936D02*
X12734467Y-13787888D01*
X12734467Y-13787888D02*
X12724943Y-13749793D01*
X12724943Y-13749793D02*
X12724943Y-13702174D01*
X12724943Y-13702174D02*
X12734467Y-13664079D01*
X12734467Y-13664079D02*
X12743991Y-13645031D01*
X12743991Y-13645031D02*
X12753515Y-13635508D01*
X12753515Y-13635508D02*
X12772562Y-13625984D01*
X12963039Y-13625984D02*
X12982086Y-13625984D01*
X12982086Y-13625984D02*
X13001134Y-13635508D01*
X13001134Y-13635508D02*
X13010658Y-13645031D01*
X13010658Y-13645031D02*
X13020182Y-13664079D01*
X13020182Y-13664079D02*
X13029705Y-13702174D01*
X13029705Y-13702174D02*
X13029705Y-13749793D01*
X13029705Y-13749793D02*
X13020182Y-13787888D01*
X13020182Y-13787888D02*
X13010658Y-13806936D01*
X13010658Y-13806936D02*
X13001134Y-13816460D01*
X13001134Y-13816460D02*
X12982086Y-13825984D01*
X12982086Y-13825984D02*
X12963039Y-13825984D01*
X12963039Y-13825984D02*
X12943991Y-13816460D01*
X12943991Y-13816460D02*
X12934467Y-13806936D01*
X12934467Y-13806936D02*
X12924943Y-13787888D01*
X12924943Y-13787888D02*
X12915420Y-13749793D01*
X12915420Y-13749793D02*
X12915420Y-13702174D01*
X12915420Y-13702174D02*
X12924943Y-13664079D01*
X12924943Y-13664079D02*
X12934467Y-13645031D01*
X12934467Y-13645031D02*
X12943991Y-13635508D01*
X12943991Y-13635508D02*
X12963039Y-13625984D01*
X13115420Y-13825984D02*
X13115420Y-13692650D01*
X13115420Y-13711698D02*
X13124943Y-13702174D01*
X13124943Y-13702174D02*
X13143991Y-13692650D01*
X13143991Y-13692650D02*
X13172563Y-13692650D01*
X13172563Y-13692650D02*
X13191610Y-13702174D01*
X13191610Y-13702174D02*
X13201134Y-13721222D01*
X13201134Y-13721222D02*
X13201134Y-13825984D01*
X13201134Y-13721222D02*
X13210658Y-13702174D01*
X13210658Y-13702174D02*
X13229705Y-13692650D01*
X13229705Y-13692650D02*
X13258277Y-13692650D01*
X13258277Y-13692650D02*
X13277324Y-13702174D01*
X13277324Y-13702174D02*
X13286848Y-13721222D01*
X13286848Y-13721222D02*
X13286848Y-13825984D01*
X13382086Y-13825984D02*
X13382086Y-13692650D01*
X13382086Y-13711698D02*
X13391610Y-13702174D01*
X13391610Y-13702174D02*
X13410658Y-13692650D01*
X13410658Y-13692650D02*
X13439229Y-13692650D01*
X13439229Y-13692650D02*
X13458277Y-13702174D01*
X13458277Y-13702174D02*
X13467801Y-13721222D01*
X13467801Y-13721222D02*
X13467801Y-13825984D01*
X13467801Y-13721222D02*
X13477324Y-13702174D01*
X13477324Y-13702174D02*
X13496372Y-13692650D01*
X13496372Y-13692650D02*
X13524943Y-13692650D01*
X13524943Y-13692650D02*
X13543991Y-13702174D01*
X13543991Y-13702174D02*
X13553515Y-13721222D01*
X13553515Y-13721222D02*
X13553515Y-13825984D01*
X13943991Y-13616460D02*
X13772563Y-13873603D01*
X14201134Y-13625984D02*
X14220182Y-13625984D01*
X14220182Y-13625984D02*
X14239229Y-13635508D01*
X14239229Y-13635508D02*
X14248753Y-13645031D01*
X14248753Y-13645031D02*
X14258277Y-13664079D01*
X14258277Y-13664079D02*
X14267801Y-13702174D01*
X14267801Y-13702174D02*
X14267801Y-13749793D01*
X14267801Y-13749793D02*
X14258277Y-13787888D01*
X14258277Y-13787888D02*
X14248753Y-13806936D01*
X14248753Y-13806936D02*
X14239229Y-13816460D01*
X14239229Y-13816460D02*
X14220182Y-13825984D01*
X14220182Y-13825984D02*
X14201134Y-13825984D01*
X14201134Y-13825984D02*
X14182086Y-13816460D01*
X14182086Y-13816460D02*
X14172563Y-13806936D01*
X14172563Y-13806936D02*
X14163039Y-13787888D01*
X14163039Y-13787888D02*
X14153515Y-13749793D01*
X14153515Y-13749793D02*
X14153515Y-13702174D01*
X14153515Y-13702174D02*
X14163039Y-13664079D01*
X14163039Y-13664079D02*
X14172563Y-13645031D01*
X14172563Y-13645031D02*
X14182086Y-13635508D01*
X14182086Y-13635508D02*
X14201134Y-13625984D01*
X14353515Y-13806936D02*
X14363039Y-13816460D01*
X14363039Y-13816460D02*
X14353515Y-13825984D01*
X14353515Y-13825984D02*
X14343991Y-13816460D01*
X14343991Y-13816460D02*
X14353515Y-13806936D01*
X14353515Y-13806936D02*
X14353515Y-13825984D01*
X14486848Y-13625984D02*
X14505896Y-13625984D01*
X14505896Y-13625984D02*
X14524944Y-13635508D01*
X14524944Y-13635508D02*
X14534467Y-13645031D01*
X14534467Y-13645031D02*
X14543991Y-13664079D01*
X14543991Y-13664079D02*
X14553515Y-13702174D01*
X14553515Y-13702174D02*
X14553515Y-13749793D01*
X14553515Y-13749793D02*
X14543991Y-13787888D01*
X14543991Y-13787888D02*
X14534467Y-13806936D01*
X14534467Y-13806936D02*
X14524944Y-13816460D01*
X14524944Y-13816460D02*
X14505896Y-13825984D01*
X14505896Y-13825984D02*
X14486848Y-13825984D01*
X14486848Y-13825984D02*
X14467801Y-13816460D01*
X14467801Y-13816460D02*
X14458277Y-13806936D01*
X14458277Y-13806936D02*
X14448753Y-13787888D01*
X14448753Y-13787888D02*
X14439229Y-13749793D01*
X14439229Y-13749793D02*
X14439229Y-13702174D01*
X14439229Y-13702174D02*
X14448753Y-13664079D01*
X14448753Y-13664079D02*
X14458277Y-13645031D01*
X14458277Y-13645031D02*
X14467801Y-13635508D01*
X14467801Y-13635508D02*
X14486848Y-13625984D01*
X14620182Y-13625984D02*
X14743991Y-13625984D01*
X14743991Y-13625984D02*
X14677325Y-13702174D01*
X14677325Y-13702174D02*
X14705896Y-13702174D01*
X14705896Y-13702174D02*
X14724944Y-13711698D01*
X14724944Y-13711698D02*
X14734467Y-13721222D01*
X14734467Y-13721222D02*
X14743991Y-13740269D01*
X14743991Y-13740269D02*
X14743991Y-13787888D01*
X14743991Y-13787888D02*
X14734467Y-13806936D01*
X14734467Y-13806936D02*
X14724944Y-13816460D01*
X14724944Y-13816460D02*
X14705896Y-13825984D01*
X14705896Y-13825984D02*
X14648753Y-13825984D01*
X14648753Y-13825984D02*
X14629706Y-13816460D01*
X14629706Y-13816460D02*
X14620182Y-13806936D01*
X14839229Y-13825984D02*
X14877325Y-13825984D01*
X14877325Y-13825984D02*
X14896372Y-13816460D01*
X14896372Y-13816460D02*
X14905896Y-13806936D01*
X14905896Y-13806936D02*
X14924944Y-13778365D01*
X14924944Y-13778365D02*
X14934467Y-13740269D01*
X14934467Y-13740269D02*
X14934467Y-13664079D01*
X14934467Y-13664079D02*
X14924944Y-13645031D01*
X14924944Y-13645031D02*
X14915420Y-13635508D01*
X14915420Y-13635508D02*
X14896372Y-13625984D01*
X14896372Y-13625984D02*
X14858277Y-13625984D01*
X14858277Y-13625984D02*
X14839229Y-13635508D01*
X14839229Y-13635508D02*
X14829706Y-13645031D01*
X14829706Y-13645031D02*
X14820182Y-13664079D01*
X14820182Y-13664079D02*
X14820182Y-13711698D01*
X14820182Y-13711698D02*
X14829706Y-13730746D01*
X14829706Y-13730746D02*
X14839229Y-13740269D01*
X14839229Y-13740269D02*
X14858277Y-13749793D01*
X14858277Y-13749793D02*
X14896372Y-13749793D01*
X14896372Y-13749793D02*
X14915420Y-13740269D01*
X14915420Y-13740269D02*
X14924944Y-13730746D01*
X14924944Y-13730746D02*
X14934467Y-13711698D01*
X15105896Y-13692650D02*
X15105896Y-13825984D01*
X15058277Y-13616460D02*
X15010658Y-13759317D01*
X15010658Y-13759317D02*
X15134467Y-13759317D01*
X15201134Y-13625984D02*
X15201134Y-13664079D01*
X15277325Y-13625984D02*
X15277325Y-13664079D01*
X15572563Y-13902174D02*
X15563039Y-13892650D01*
X15563039Y-13892650D02*
X15543991Y-13864079D01*
X15543991Y-13864079D02*
X15534468Y-13845031D01*
X15534468Y-13845031D02*
X15524944Y-13816460D01*
X15524944Y-13816460D02*
X15515420Y-13768841D01*
X15515420Y-13768841D02*
X15515420Y-13730746D01*
X15515420Y-13730746D02*
X15524944Y-13683127D01*
X15524944Y-13683127D02*
X15534468Y-13654555D01*
X15534468Y-13654555D02*
X15543991Y-13635508D01*
X15543991Y-13635508D02*
X15563039Y-13606936D01*
X15563039Y-13606936D02*
X15572563Y-13597412D01*
X15734468Y-13692650D02*
X15734468Y-13825984D01*
X15686848Y-13616460D02*
X15639229Y-13759317D01*
X15639229Y-13759317D02*
X15763039Y-13759317D01*
X15867801Y-13711698D02*
X15848753Y-13702174D01*
X15848753Y-13702174D02*
X15839229Y-13692650D01*
X15839229Y-13692650D02*
X15829706Y-13673603D01*
X15829706Y-13673603D02*
X15829706Y-13664079D01*
X15829706Y-13664079D02*
X15839229Y-13645031D01*
X15839229Y-13645031D02*
X15848753Y-13635508D01*
X15848753Y-13635508D02*
X15867801Y-13625984D01*
X15867801Y-13625984D02*
X15905896Y-13625984D01*
X15905896Y-13625984D02*
X15924944Y-13635508D01*
X15924944Y-13635508D02*
X15934468Y-13645031D01*
X15934468Y-13645031D02*
X15943991Y-13664079D01*
X15943991Y-13664079D02*
X15943991Y-13673603D01*
X15943991Y-13673603D02*
X15934468Y-13692650D01*
X15934468Y-13692650D02*
X15924944Y-13702174D01*
X15924944Y-13702174D02*
X15905896Y-13711698D01*
X15905896Y-13711698D02*
X15867801Y-13711698D01*
X15867801Y-13711698D02*
X15848753Y-13721222D01*
X15848753Y-13721222D02*
X15839229Y-13730746D01*
X15839229Y-13730746D02*
X15829706Y-13749793D01*
X15829706Y-13749793D02*
X15829706Y-13787888D01*
X15829706Y-13787888D02*
X15839229Y-13806936D01*
X15839229Y-13806936D02*
X15848753Y-13816460D01*
X15848753Y-13816460D02*
X15867801Y-13825984D01*
X15867801Y-13825984D02*
X15905896Y-13825984D01*
X15905896Y-13825984D02*
X15924944Y-13816460D01*
X15924944Y-13816460D02*
X15934468Y-13806936D01*
X15934468Y-13806936D02*
X15943991Y-13787888D01*
X15943991Y-13787888D02*
X15943991Y-13749793D01*
X15943991Y-13749793D02*
X15934468Y-13730746D01*
X15934468Y-13730746D02*
X15924944Y-13721222D01*
X15924944Y-13721222D02*
X15905896Y-13711698D01*
X16182087Y-13825984D02*
X16182087Y-13625984D01*
X16267801Y-13825984D02*
X16267801Y-13721222D01*
X16267801Y-13721222D02*
X16258277Y-13702174D01*
X16258277Y-13702174D02*
X16239230Y-13692650D01*
X16239230Y-13692650D02*
X16210658Y-13692650D01*
X16210658Y-13692650D02*
X16191610Y-13702174D01*
X16191610Y-13702174D02*
X16182087Y-13711698D01*
X16391610Y-13825984D02*
X16372563Y-13816460D01*
X16372563Y-13816460D02*
X16363039Y-13806936D01*
X16363039Y-13806936D02*
X16353515Y-13787888D01*
X16353515Y-13787888D02*
X16353515Y-13730746D01*
X16353515Y-13730746D02*
X16363039Y-13711698D01*
X16363039Y-13711698D02*
X16372563Y-13702174D01*
X16372563Y-13702174D02*
X16391610Y-13692650D01*
X16391610Y-13692650D02*
X16420182Y-13692650D01*
X16420182Y-13692650D02*
X16439230Y-13702174D01*
X16439230Y-13702174D02*
X16448753Y-13711698D01*
X16448753Y-13711698D02*
X16458277Y-13730746D01*
X16458277Y-13730746D02*
X16458277Y-13787888D01*
X16458277Y-13787888D02*
X16448753Y-13806936D01*
X16448753Y-13806936D02*
X16439230Y-13816460D01*
X16439230Y-13816460D02*
X16420182Y-13825984D01*
X16420182Y-13825984D02*
X16391610Y-13825984D01*
X16572563Y-13825984D02*
X16553515Y-13816460D01*
X16553515Y-13816460D02*
X16543991Y-13797412D01*
X16543991Y-13797412D02*
X16543991Y-13625984D01*
X16724944Y-13816460D02*
X16705896Y-13825984D01*
X16705896Y-13825984D02*
X16667801Y-13825984D01*
X16667801Y-13825984D02*
X16648753Y-13816460D01*
X16648753Y-13816460D02*
X16639230Y-13797412D01*
X16639230Y-13797412D02*
X16639230Y-13721222D01*
X16639230Y-13721222D02*
X16648753Y-13702174D01*
X16648753Y-13702174D02*
X16667801Y-13692650D01*
X16667801Y-13692650D02*
X16705896Y-13692650D01*
X16705896Y-13692650D02*
X16724944Y-13702174D01*
X16724944Y-13702174D02*
X16734468Y-13721222D01*
X16734468Y-13721222D02*
X16734468Y-13740269D01*
X16734468Y-13740269D02*
X16639230Y-13759317D01*
X16810658Y-13816460D02*
X16829706Y-13825984D01*
X16829706Y-13825984D02*
X16867801Y-13825984D01*
X16867801Y-13825984D02*
X16886849Y-13816460D01*
X16886849Y-13816460D02*
X16896373Y-13797412D01*
X16896373Y-13797412D02*
X16896373Y-13787888D01*
X16896373Y-13787888D02*
X16886849Y-13768841D01*
X16886849Y-13768841D02*
X16867801Y-13759317D01*
X16867801Y-13759317D02*
X16839230Y-13759317D01*
X16839230Y-13759317D02*
X16820182Y-13749793D01*
X16820182Y-13749793D02*
X16810658Y-13730746D01*
X16810658Y-13730746D02*
X16810658Y-13721222D01*
X16810658Y-13721222D02*
X16820182Y-13702174D01*
X16820182Y-13702174D02*
X16839230Y-13692650D01*
X16839230Y-13692650D02*
X16867801Y-13692650D01*
X16867801Y-13692650D02*
X16886849Y-13702174D01*
X16963039Y-13902174D02*
X16972563Y-13892650D01*
X16972563Y-13892650D02*
X16991611Y-13864079D01*
X16991611Y-13864079D02*
X17001134Y-13845031D01*
X17001134Y-13845031D02*
X17010658Y-13816460D01*
X17010658Y-13816460D02*
X17020182Y-13768841D01*
X17020182Y-13768841D02*
X17020182Y-13730746D01*
X17020182Y-13730746D02*
X17010658Y-13683127D01*
X17010658Y-13683127D02*
X17001134Y-13654555D01*
X17001134Y-13654555D02*
X16991611Y-13635508D01*
X16991611Y-13635508D02*
X16972563Y-13606936D01*
X16972563Y-13606936D02*
X16963039Y-13597412D01*
X11897500Y-14098500D02*
X11997500Y-13998500D01*
X11897500Y-13898500D01*
X11797500Y-13998500D01*
X11897500Y-14098500D01*
X12248753Y-13909031D02*
X12258277Y-13899508D01*
X12258277Y-13899508D02*
X12277324Y-13889984D01*
X12277324Y-13889984D02*
X12324943Y-13889984D01*
X12324943Y-13889984D02*
X12343991Y-13899508D01*
X12343991Y-13899508D02*
X12353515Y-13909031D01*
X12353515Y-13909031D02*
X12363039Y-13928079D01*
X12363039Y-13928079D02*
X12363039Y-13947127D01*
X12363039Y-13947127D02*
X12353515Y-13975698D01*
X12353515Y-13975698D02*
X12239229Y-14089984D01*
X12239229Y-14089984D02*
X12363039Y-14089984D01*
X12448753Y-14070936D02*
X12458277Y-14080460D01*
X12458277Y-14080460D02*
X12448753Y-14089984D01*
X12448753Y-14089984D02*
X12439229Y-14080460D01*
X12439229Y-14080460D02*
X12448753Y-14070936D01*
X12448753Y-14070936D02*
X12448753Y-14089984D01*
X12648753Y-14089984D02*
X12534467Y-14089984D01*
X12591610Y-14089984D02*
X12591610Y-13889984D01*
X12591610Y-13889984D02*
X12572562Y-13918555D01*
X12572562Y-13918555D02*
X12553515Y-13937603D01*
X12553515Y-13937603D02*
X12534467Y-13947127D01*
X12772562Y-13889984D02*
X12791610Y-13889984D01*
X12791610Y-13889984D02*
X12810658Y-13899508D01*
X12810658Y-13899508D02*
X12820182Y-13909031D01*
X12820182Y-13909031D02*
X12829705Y-13928079D01*
X12829705Y-13928079D02*
X12839229Y-13966174D01*
X12839229Y-13966174D02*
X12839229Y-14013793D01*
X12839229Y-14013793D02*
X12829705Y-14051888D01*
X12829705Y-14051888D02*
X12820182Y-14070936D01*
X12820182Y-14070936D02*
X12810658Y-14080460D01*
X12810658Y-14080460D02*
X12791610Y-14089984D01*
X12791610Y-14089984D02*
X12772562Y-14089984D01*
X12772562Y-14089984D02*
X12753515Y-14080460D01*
X12753515Y-14080460D02*
X12743991Y-14070936D01*
X12743991Y-14070936D02*
X12734467Y-14051888D01*
X12734467Y-14051888D02*
X12724943Y-14013793D01*
X12724943Y-14013793D02*
X12724943Y-13966174D01*
X12724943Y-13966174D02*
X12734467Y-13928079D01*
X12734467Y-13928079D02*
X12743991Y-13909031D01*
X12743991Y-13909031D02*
X12753515Y-13899508D01*
X12753515Y-13899508D02*
X12772562Y-13889984D01*
X12963039Y-13889984D02*
X12982086Y-13889984D01*
X12982086Y-13889984D02*
X13001134Y-13899508D01*
X13001134Y-13899508D02*
X13010658Y-13909031D01*
X13010658Y-13909031D02*
X13020182Y-13928079D01*
X13020182Y-13928079D02*
X13029705Y-13966174D01*
X13029705Y-13966174D02*
X13029705Y-14013793D01*
X13029705Y-14013793D02*
X13020182Y-14051888D01*
X13020182Y-14051888D02*
X13010658Y-14070936D01*
X13010658Y-14070936D02*
X13001134Y-14080460D01*
X13001134Y-14080460D02*
X12982086Y-14089984D01*
X12982086Y-14089984D02*
X12963039Y-14089984D01*
X12963039Y-14089984D02*
X12943991Y-14080460D01*
X12943991Y-14080460D02*
X12934467Y-14070936D01*
X12934467Y-14070936D02*
X12924943Y-14051888D01*
X12924943Y-14051888D02*
X12915420Y-14013793D01*
X12915420Y-14013793D02*
X12915420Y-13966174D01*
X12915420Y-13966174D02*
X12924943Y-13928079D01*
X12924943Y-13928079D02*
X12934467Y-13909031D01*
X12934467Y-13909031D02*
X12943991Y-13899508D01*
X12943991Y-13899508D02*
X12963039Y-13889984D01*
X13115420Y-14089984D02*
X13115420Y-13956650D01*
X13115420Y-13975698D02*
X13124943Y-13966174D01*
X13124943Y-13966174D02*
X13143991Y-13956650D01*
X13143991Y-13956650D02*
X13172563Y-13956650D01*
X13172563Y-13956650D02*
X13191610Y-13966174D01*
X13191610Y-13966174D02*
X13201134Y-13985222D01*
X13201134Y-13985222D02*
X13201134Y-14089984D01*
X13201134Y-13985222D02*
X13210658Y-13966174D01*
X13210658Y-13966174D02*
X13229705Y-13956650D01*
X13229705Y-13956650D02*
X13258277Y-13956650D01*
X13258277Y-13956650D02*
X13277324Y-13966174D01*
X13277324Y-13966174D02*
X13286848Y-13985222D01*
X13286848Y-13985222D02*
X13286848Y-14089984D01*
X13382086Y-14089984D02*
X13382086Y-13956650D01*
X13382086Y-13975698D02*
X13391610Y-13966174D01*
X13391610Y-13966174D02*
X13410658Y-13956650D01*
X13410658Y-13956650D02*
X13439229Y-13956650D01*
X13439229Y-13956650D02*
X13458277Y-13966174D01*
X13458277Y-13966174D02*
X13467801Y-13985222D01*
X13467801Y-13985222D02*
X13467801Y-14089984D01*
X13467801Y-13985222D02*
X13477324Y-13966174D01*
X13477324Y-13966174D02*
X13496372Y-13956650D01*
X13496372Y-13956650D02*
X13524943Y-13956650D01*
X13524943Y-13956650D02*
X13543991Y-13966174D01*
X13543991Y-13966174D02*
X13553515Y-13985222D01*
X13553515Y-13985222D02*
X13553515Y-14089984D01*
X13943991Y-13880460D02*
X13772563Y-14137603D01*
X14201134Y-13889984D02*
X14220182Y-13889984D01*
X14220182Y-13889984D02*
X14239229Y-13899508D01*
X14239229Y-13899508D02*
X14248753Y-13909031D01*
X14248753Y-13909031D02*
X14258277Y-13928079D01*
X14258277Y-13928079D02*
X14267801Y-13966174D01*
X14267801Y-13966174D02*
X14267801Y-14013793D01*
X14267801Y-14013793D02*
X14258277Y-14051888D01*
X14258277Y-14051888D02*
X14248753Y-14070936D01*
X14248753Y-14070936D02*
X14239229Y-14080460D01*
X14239229Y-14080460D02*
X14220182Y-14089984D01*
X14220182Y-14089984D02*
X14201134Y-14089984D01*
X14201134Y-14089984D02*
X14182086Y-14080460D01*
X14182086Y-14080460D02*
X14172563Y-14070936D01*
X14172563Y-14070936D02*
X14163039Y-14051888D01*
X14163039Y-14051888D02*
X14153515Y-14013793D01*
X14153515Y-14013793D02*
X14153515Y-13966174D01*
X14153515Y-13966174D02*
X14163039Y-13928079D01*
X14163039Y-13928079D02*
X14172563Y-13909031D01*
X14172563Y-13909031D02*
X14182086Y-13899508D01*
X14182086Y-13899508D02*
X14201134Y-13889984D01*
X14353515Y-14070936D02*
X14363039Y-14080460D01*
X14363039Y-14080460D02*
X14353515Y-14089984D01*
X14353515Y-14089984D02*
X14343991Y-14080460D01*
X14343991Y-14080460D02*
X14353515Y-14070936D01*
X14353515Y-14070936D02*
X14353515Y-14089984D01*
X14486848Y-13889984D02*
X14505896Y-13889984D01*
X14505896Y-13889984D02*
X14524944Y-13899508D01*
X14524944Y-13899508D02*
X14534467Y-13909031D01*
X14534467Y-13909031D02*
X14543991Y-13928079D01*
X14543991Y-13928079D02*
X14553515Y-13966174D01*
X14553515Y-13966174D02*
X14553515Y-14013793D01*
X14553515Y-14013793D02*
X14543991Y-14051888D01*
X14543991Y-14051888D02*
X14534467Y-14070936D01*
X14534467Y-14070936D02*
X14524944Y-14080460D01*
X14524944Y-14080460D02*
X14505896Y-14089984D01*
X14505896Y-14089984D02*
X14486848Y-14089984D01*
X14486848Y-14089984D02*
X14467801Y-14080460D01*
X14467801Y-14080460D02*
X14458277Y-14070936D01*
X14458277Y-14070936D02*
X14448753Y-14051888D01*
X14448753Y-14051888D02*
X14439229Y-14013793D01*
X14439229Y-14013793D02*
X14439229Y-13966174D01*
X14439229Y-13966174D02*
X14448753Y-13928079D01*
X14448753Y-13928079D02*
X14458277Y-13909031D01*
X14458277Y-13909031D02*
X14467801Y-13899508D01*
X14467801Y-13899508D02*
X14486848Y-13889984D01*
X14667801Y-13975698D02*
X14648753Y-13966174D01*
X14648753Y-13966174D02*
X14639229Y-13956650D01*
X14639229Y-13956650D02*
X14629706Y-13937603D01*
X14629706Y-13937603D02*
X14629706Y-13928079D01*
X14629706Y-13928079D02*
X14639229Y-13909031D01*
X14639229Y-13909031D02*
X14648753Y-13899508D01*
X14648753Y-13899508D02*
X14667801Y-13889984D01*
X14667801Y-13889984D02*
X14705896Y-13889984D01*
X14705896Y-13889984D02*
X14724944Y-13899508D01*
X14724944Y-13899508D02*
X14734467Y-13909031D01*
X14734467Y-13909031D02*
X14743991Y-13928079D01*
X14743991Y-13928079D02*
X14743991Y-13937603D01*
X14743991Y-13937603D02*
X14734467Y-13956650D01*
X14734467Y-13956650D02*
X14724944Y-13966174D01*
X14724944Y-13966174D02*
X14705896Y-13975698D01*
X14705896Y-13975698D02*
X14667801Y-13975698D01*
X14667801Y-13975698D02*
X14648753Y-13985222D01*
X14648753Y-13985222D02*
X14639229Y-13994746D01*
X14639229Y-13994746D02*
X14629706Y-14013793D01*
X14629706Y-14013793D02*
X14629706Y-14051888D01*
X14629706Y-14051888D02*
X14639229Y-14070936D01*
X14639229Y-14070936D02*
X14648753Y-14080460D01*
X14648753Y-14080460D02*
X14667801Y-14089984D01*
X14667801Y-14089984D02*
X14705896Y-14089984D01*
X14705896Y-14089984D02*
X14724944Y-14080460D01*
X14724944Y-14080460D02*
X14734467Y-14070936D01*
X14734467Y-14070936D02*
X14743991Y-14051888D01*
X14743991Y-14051888D02*
X14743991Y-14013793D01*
X14743991Y-14013793D02*
X14734467Y-13994746D01*
X14734467Y-13994746D02*
X14724944Y-13985222D01*
X14724944Y-13985222D02*
X14705896Y-13975698D01*
X14820182Y-13909031D02*
X14829706Y-13899508D01*
X14829706Y-13899508D02*
X14848753Y-13889984D01*
X14848753Y-13889984D02*
X14896372Y-13889984D01*
X14896372Y-13889984D02*
X14915420Y-13899508D01*
X14915420Y-13899508D02*
X14924944Y-13909031D01*
X14924944Y-13909031D02*
X14934467Y-13928079D01*
X14934467Y-13928079D02*
X14934467Y-13947127D01*
X14934467Y-13947127D02*
X14924944Y-13975698D01*
X14924944Y-13975698D02*
X14810658Y-14089984D01*
X14810658Y-14089984D02*
X14934467Y-14089984D01*
X15001134Y-13889984D02*
X15134467Y-13889984D01*
X15134467Y-13889984D02*
X15048753Y-14089984D01*
X15201134Y-13889984D02*
X15201134Y-13928079D01*
X15277325Y-13889984D02*
X15277325Y-13928079D01*
X15572563Y-14166174D02*
X15563039Y-14156650D01*
X15563039Y-14156650D02*
X15543991Y-14128079D01*
X15543991Y-14128079D02*
X15534468Y-14109031D01*
X15534468Y-14109031D02*
X15524944Y-14080460D01*
X15524944Y-14080460D02*
X15515420Y-14032841D01*
X15515420Y-14032841D02*
X15515420Y-13994746D01*
X15515420Y-13994746D02*
X15524944Y-13947127D01*
X15524944Y-13947127D02*
X15534468Y-13918555D01*
X15534468Y-13918555D02*
X15543991Y-13899508D01*
X15543991Y-13899508D02*
X15563039Y-13870936D01*
X15563039Y-13870936D02*
X15572563Y-13861412D01*
X15734468Y-13956650D02*
X15734468Y-14089984D01*
X15686848Y-13880460D02*
X15639229Y-14023317D01*
X15639229Y-14023317D02*
X15763039Y-14023317D01*
X15991610Y-14089984D02*
X15991610Y-13889984D01*
X16077325Y-14089984D02*
X16077325Y-13985222D01*
X16077325Y-13985222D02*
X16067801Y-13966174D01*
X16067801Y-13966174D02*
X16048753Y-13956650D01*
X16048753Y-13956650D02*
X16020182Y-13956650D01*
X16020182Y-13956650D02*
X16001134Y-13966174D01*
X16001134Y-13966174D02*
X15991610Y-13975698D01*
X16201134Y-14089984D02*
X16182087Y-14080460D01*
X16182087Y-14080460D02*
X16172563Y-14070936D01*
X16172563Y-14070936D02*
X16163039Y-14051888D01*
X16163039Y-14051888D02*
X16163039Y-13994746D01*
X16163039Y-13994746D02*
X16172563Y-13975698D01*
X16172563Y-13975698D02*
X16182087Y-13966174D01*
X16182087Y-13966174D02*
X16201134Y-13956650D01*
X16201134Y-13956650D02*
X16229706Y-13956650D01*
X16229706Y-13956650D02*
X16248753Y-13966174D01*
X16248753Y-13966174D02*
X16258277Y-13975698D01*
X16258277Y-13975698D02*
X16267801Y-13994746D01*
X16267801Y-13994746D02*
X16267801Y-14051888D01*
X16267801Y-14051888D02*
X16258277Y-14070936D01*
X16258277Y-14070936D02*
X16248753Y-14080460D01*
X16248753Y-14080460D02*
X16229706Y-14089984D01*
X16229706Y-14089984D02*
X16201134Y-14089984D01*
X16382087Y-14089984D02*
X16363039Y-14080460D01*
X16363039Y-14080460D02*
X16353515Y-14061412D01*
X16353515Y-14061412D02*
X16353515Y-13889984D01*
X16534468Y-14080460D02*
X16515420Y-14089984D01*
X16515420Y-14089984D02*
X16477325Y-14089984D01*
X16477325Y-14089984D02*
X16458277Y-14080460D01*
X16458277Y-14080460D02*
X16448753Y-14061412D01*
X16448753Y-14061412D02*
X16448753Y-13985222D01*
X16448753Y-13985222D02*
X16458277Y-13966174D01*
X16458277Y-13966174D02*
X16477325Y-13956650D01*
X16477325Y-13956650D02*
X16515420Y-13956650D01*
X16515420Y-13956650D02*
X16534468Y-13966174D01*
X16534468Y-13966174D02*
X16543991Y-13985222D01*
X16543991Y-13985222D02*
X16543991Y-14004269D01*
X16543991Y-14004269D02*
X16448753Y-14023317D01*
X16620182Y-14080460D02*
X16639230Y-14089984D01*
X16639230Y-14089984D02*
X16677325Y-14089984D01*
X16677325Y-14089984D02*
X16696372Y-14080460D01*
X16696372Y-14080460D02*
X16705896Y-14061412D01*
X16705896Y-14061412D02*
X16705896Y-14051888D01*
X16705896Y-14051888D02*
X16696372Y-14032841D01*
X16696372Y-14032841D02*
X16677325Y-14023317D01*
X16677325Y-14023317D02*
X16648753Y-14023317D01*
X16648753Y-14023317D02*
X16629706Y-14013793D01*
X16629706Y-14013793D02*
X16620182Y-13994746D01*
X16620182Y-13994746D02*
X16620182Y-13985222D01*
X16620182Y-13985222D02*
X16629706Y-13966174D01*
X16629706Y-13966174D02*
X16648753Y-13956650D01*
X16648753Y-13956650D02*
X16677325Y-13956650D01*
X16677325Y-13956650D02*
X16696372Y-13966174D01*
X16772563Y-14166174D02*
X16782087Y-14156650D01*
X16782087Y-14156650D02*
X16801134Y-14128079D01*
X16801134Y-14128079D02*
X16810658Y-14109031D01*
X16810658Y-14109031D02*
X16820182Y-14080460D01*
X16820182Y-14080460D02*
X16829706Y-14032841D01*
X16829706Y-14032841D02*
X16829706Y-13994746D01*
X16829706Y-13994746D02*
X16820182Y-13947127D01*
X16820182Y-13947127D02*
X16810658Y-13918555D01*
X16810658Y-13918555D02*
X16801134Y-13899508D01*
X16801134Y-13899508D02*
X16782087Y-13870936D01*
X16782087Y-13870936D02*
X16772563Y-13861412D01*
M02*
