M48
; DRILL file {KiCad 9.0.4} date 2025-12-30T15:29:52-0500
; FORMAT={-:-/ absolute / metric / decimal}
; #@! TF.CreationDate,2025-12-30T15:29:52-05:00
; #@! TF.GenerationSoftware,Kicad,Pcbnew,9.0.4
; #@! TF.FileFunction,Plated,1,6,PTH
FMAT,2
METRIC
; #@! TA.AperFunction,Plated,PTH,ViaDrill
T1C0.150
; #@! TA.AperFunction,Plated,PTH,ViaDrill
T2C0.254
; #@! TA.AperFunction,Plated,PTH,ComponentDrill
T3C0.650
; #@! TA.AperFunction,Plated,PTH,ComponentDrill
T4C1.000
; #@! TA.AperFunction,Plated,PTH,ComponentDrill
T5C2.100
%
G90
G05
T1
X123.66Y-94.27
X123.93Y-100.238
X124.85Y-103.91
X126.26Y-92.65
X127.49Y-91.34
X127.91Y-102.68
X128.5Y-111.19
X128.54Y-103.65
X128.75Y-102.92
X129.126Y-98.909
X129.29Y-101.38
X129.316Y-102.538
X129.612Y-97.292
X130.231Y-100.371
X130.81Y-107.06
X130.891Y-112.364
X131.157Y-96.528
X131.268Y-99.268
X131.32Y-115.22
X131.462Y-117.001
X131.462Y-117.951
X131.517Y-104.708
X131.693Y-86.461
X131.75Y-113.05
X131.836Y-109.364
X132.44Y-106.44
X132.7Y-114.138
X132.74Y-116.31
X132.921Y-103.47
X133.01Y-107.31
X133.734Y-100.524
X134.051Y-100.843
X134.185Y-110.15
X134.579Y-92.643
X134.579Y-94.243
X134.6Y-110.04
X134.863Y-101.04
X134.943Y-111.117
X134.95Y-101.84
X135.301Y-110.939
X135.31Y-118.0
X135.356Y-103.322
X135.517Y-101.276
X135.85Y-94.69
X135.98Y-92.04
X136.024Y-112.715
X136.179Y-105.443
X136.179Y-97.443
X136.179Y-100.643
X136.19Y-101.44
X136.202Y-100.006
X136.58Y-97.725
X136.796Y-94.679
X136.91Y-109.5
X136.96Y-99.96
X136.97Y-92.67
X136.979Y-103.843
X136.979Y-105.443
X136.979Y-104.643
X136.98Y-100.63
X137.04Y-107.1
X137.046Y-103.126
X137.05Y-108.69
X137.36Y-94.64
X137.37Y-97.83
X137.448Y-101.014
X137.779Y-103.843
X137.841Y-107.845
X138.145Y-102.556
X138.579Y-99.843
X138.579Y-94.243
X138.579Y-94.934
X138.579Y-100.735
X138.579Y-102.243
X138.6Y-91.78
X138.96Y-93.06
X138.973Y-98.677
X139.092Y-99.75
X139.29Y-88.74
X139.352Y-94.934
X139.379Y-92.643
X139.379Y-95.965
X139.89Y-114.69
X139.91Y-116.44
X140.17Y-94.25
X140.171Y-101.443
X140.179Y-96.643
X140.179Y-103.043
X140.18Y-93.45
X140.916Y-92.643
X140.979Y-101.443
X140.979Y-102.243
X140.979Y-103.843
X141.002Y-97.578
X141.25Y-101.83
X141.25Y-108.06
X141.27Y-102.65
X141.391Y-95.368
X141.397Y-107.575
X141.533Y-107.146
X141.55Y-115.539
X141.58Y-112.339
X141.779Y-97.565
X141.829Y-109.745
X141.874Y-107.666
X142.07Y-106.34
X142.081Y-101.894
X142.28Y-95.71
X142.432Y-113.056
X142.488Y-99.752
X142.568Y-94.957
X142.579Y-103.843
X142.579Y-93.443
X142.579Y-103.043
X142.579Y-97.558
X142.58Y-94.25
X142.765Y-114.61
X142.962Y-96.157
X143.0Y-90.37
X143.11Y-110.739
X143.201Y-94.813
X143.379Y-100.643
X143.407Y-106.402
X143.64Y-84.14
X143.65Y-116.384
X143.9Y-102.14
X143.985Y-106.975
X144.122Y-103.144
X144.191Y-100.409
X144.35Y-101.504
X144.569Y-97.767
X144.573Y-102.572
X144.588Y-101.097
X144.776Y-108.807
X144.78Y-85.38
X144.8Y-84.98
X144.9Y-116.809
X144.979Y-103.843
X144.979Y-95.992
X145.016Y-104.655
X145.11Y-108.21
X145.12Y-101.424
X145.267Y-103.147
X145.393Y-97.925
X145.415Y-98.699
X145.66Y-101.972
X145.68Y-83.84
X145.715Y-99.888
X145.715Y-100.643
X145.779Y-103.843
X145.779Y-104.643
X145.89Y-101.408
X145.964Y-97.342
X146.156Y-94.737
X146.24Y-111.3
X146.313Y-102.638
X146.451Y-103.253
X146.495Y-116.804
X146.568Y-97.345
X146.575Y-99.934
X146.579Y-102.243
X146.604Y-98.994
X146.66Y-101.48
X146.665Y-105.444
X146.964Y-94.726
X147.09Y-104.748
X147.327Y-103.046
X147.379Y-98.214
X147.379Y-99.043
X147.379Y-103.816
X147.379Y-105.443
X147.379Y-97.443
X147.61Y-109.42
X147.61Y-110.739
X147.649Y-102.178
X147.72Y-101.677
X147.725Y-92.055
X148.143Y-96.643
X148.34Y-98.12
X148.37Y-98.84
X148.444Y-95.117
X148.48Y-113.16
X148.543Y-100.284
X148.82Y-98.82
X149.01Y-101.448
X149.29Y-95.432
X149.33Y-106.72
X149.57Y-110.739
X149.665Y-95.743
X149.79Y-103.55
X150.05Y-101.6
X150.26Y-109.4
X150.512Y-97.22
X150.67Y-95.4
X150.899Y-105.168
X150.97Y-111.688
X150.978Y-101.197
X150.984Y-116.52
X151.24Y-98.955
X151.67Y-102.859
X151.677Y-95.268
X151.68Y-100.37
X151.699Y-105.168
X151.704Y-101.126
X152.255Y-103.363
X152.425Y-115.214
X152.49Y-111.8
X152.499Y-99.775
X152.523Y-96.774
X152.555Y-114.685
X152.61Y-105.73
X152.693Y-103.465
X152.73Y-102.49
X152.81Y-113.425
X153.08Y-103.345
X153.081Y-101.991
X153.17Y-96.35
X153.263Y-99.524
X153.29Y-101.18
X153.299Y-105.168
X153.299Y-105.968
X153.66Y-98.155
X153.85Y-103.238
X153.98Y-101.96
X154.083Y-99.857
X154.099Y-101.168
X154.099Y-105.168
X154.099Y-105.968
X154.1Y-104.39
X154.236Y-99.065
X154.25Y-102.89
X154.328Y-92.482
X154.826Y-100.412
X155.31Y-103.28
X155.538Y-99.611
X155.617Y-96.092
X155.68Y-104.36
X155.69Y-101.21
X155.699Y-105.168
X155.709Y-98.464
X155.741Y-112.603
X155.895Y-102.49
X155.908Y-92.383
X156.16Y-94.36
X156.32Y-102.63
X156.341Y-98.997
X156.465Y-100.335
X156.489Y-94.746
X156.559Y-95.696
X157.052Y-104.339
X157.45Y-101.62
X157.54Y-101.21
X157.831Y-100.22
X157.985Y-107.34
X159.5Y-97.31
X159.589Y-95.629
X160.631Y-98.32
X161.3Y-104.62
T2
X148.76Y-109.85
X150.58Y-92.11
X150.63Y-93.77
X151.098Y-89.159
X151.57Y-93.79
X151.6Y-92.14
T4
X122.45Y-82.5
X122.45Y-120.5
X122.46Y-84.969
X122.46Y-87.509
X122.46Y-90.049
X122.46Y-92.589
X122.504Y-110.422
X122.504Y-112.962
X122.504Y-115.502
X122.504Y-118.042
X124.99Y-82.5
X124.99Y-120.5
X127.53Y-82.5
X127.53Y-120.5
X130.07Y-82.5
X130.07Y-120.5
X132.61Y-82.5
X132.61Y-120.5
X135.15Y-82.5
X135.15Y-120.5
X137.69Y-82.5
X137.69Y-120.5
X140.23Y-82.5
X140.23Y-120.5
X142.77Y-82.5
X142.77Y-120.5
X145.31Y-82.5
X145.31Y-120.5
X147.85Y-82.5
X147.85Y-120.5
X150.39Y-82.5
X150.39Y-120.5
X152.93Y-82.5
X152.93Y-120.5
X155.47Y-82.5
X155.47Y-120.5
X158.01Y-82.5
X158.01Y-120.5
X160.546Y-110.392
X160.546Y-112.932
X160.546Y-115.472
X160.546Y-118.012
X160.548Y-85.01
X160.548Y-87.55
X160.548Y-90.09
X160.548Y-92.63
X160.55Y-82.5
X160.55Y-120.5
T5
X127.22Y-87.22
X127.22Y-115.78
X155.78Y-87.22
X155.78Y-115.78
T3
X122.862Y-97.461G85X121.562Y-97.461
G05
X122.862Y-106.101G85X121.562Y-106.101
G05
X126.537Y-97.461G85X125.537Y-97.461
G05
X126.537Y-106.101G85X125.537Y-106.101
G05
M30
