%TF.GenerationSoftware,KiCad,Pcbnew,9.0.5*%
%TF.CreationDate,2025-11-20T16:18:21-05:00*%
%TF.ProjectId,sb-tpu,73622d74-7075-42e6-9b69-6361645f7063,rev?*%
%TF.SameCoordinates,Original*%
%TF.FileFunction,Copper,L3,Inr*%
%TF.FilePolarity,Positive*%
%FSLAX46Y46*%
G04 Gerber Fmt 4.6, Leading zero omitted, Abs format (unit mm)*
G04 Created by KiCad (PCBNEW 9.0.5) date 2025-11-20 16:18:21*
%MOMM*%
%LPD*%
G01*
G04 APERTURE LIST*
%TA.AperFunction,ComponentPad*%
%ADD10C,4.000000*%
%TD*%
%TA.AperFunction,ComponentPad*%
%ADD11C,1.540000*%
%TD*%
%TA.AperFunction,ComponentPad*%
%ADD12O,2.316000X1.158000*%
%TD*%
%TA.AperFunction,ComponentPad*%
%ADD13O,2.400000X1.200000*%
%TD*%
%TA.AperFunction,ViaPad*%
%ADD14C,0.250000*%
%TD*%
%TA.AperFunction,Conductor*%
%ADD15C,0.200000*%
%TD*%
%TA.AperFunction,Conductor*%
%ADD16C,0.150000*%
%TD*%
%TA.AperFunction,Conductor*%
%ADD17C,0.120000*%
%TD*%
G04 APERTURE END LIST*
D10*
%TO.N,GND*%
%TO.C,J5*%
X155780000Y-115780000D03*
X127220000Y-115780000D03*
X127220000Y-87220000D03*
X155780000Y-87220000D03*
%TD*%
D11*
%TO.N,unconnected-(J3-Pad1)*%
%TO.C,J3*%
X122460133Y-92589066D03*
%TO.N,unconnected-(J3-Pad2)*%
X122460133Y-90049066D03*
%TO.N,GND*%
X122460133Y-87509066D03*
%TO.N,unconnected-(J3-Pad4)*%
X122460133Y-84969066D03*
%TD*%
%TO.N,unconnected-(J8-Pad1)*%
%TO.C,J8*%
X160546098Y-110391652D03*
%TO.N,GND*%
X160546098Y-112931652D03*
%TO.N,unconnected-(J8-Pad3)*%
X160546098Y-115471652D03*
%TO.N,unconnected-(J8-Pad4)*%
X160546098Y-118011652D03*
%TD*%
D12*
%TO.N,GND*%
%TO.C,J9*%
X126037500Y-97460750D03*
X126037500Y-106100750D03*
D13*
X122212500Y-97460750D03*
X122212500Y-106100750D03*
%TD*%
D11*
%TO.N,unconnected-(J2-Pad1)*%
%TO.C,J2*%
X122503992Y-118042254D03*
%TO.N,unconnected-(J2-Pad2)*%
X122503992Y-115502254D03*
%TO.N,GND*%
X122503992Y-112962254D03*
%TO.N,unconnected-(J2-Pad4)*%
X122503992Y-110422254D03*
%TD*%
%TO.N,unconnected-(J7-Pad1)*%
%TO.C,J7*%
X160548407Y-85010384D03*
%TO.N,unconnected-(J7-Pad2)*%
X160548407Y-87550384D03*
%TO.N,GND*%
X160548407Y-90090384D03*
%TO.N,+3V3*%
X160548407Y-92630384D03*
%TD*%
%TO.N,GND*%
%TO.C,J6*%
X122450000Y-120500000D03*
%TO.N,unconnected-(J6-Pad2)*%
X124990000Y-120500000D03*
%TO.N,unconnected-(J6-Pad3)*%
X127530000Y-120500000D03*
%TO.N,unconnected-(J6-Pad4)*%
X130070000Y-120500000D03*
%TO.N,unconnected-(J6-Pad5)*%
X132610000Y-120500000D03*
%TO.N,unconnected-(J6-Pad6)*%
X135150000Y-120500000D03*
%TO.N,unconnected-(J6-Pad7)*%
X137690000Y-120500000D03*
%TO.N,unconnected-(J6-Pad8)*%
X140230000Y-120500000D03*
%TO.N,unconnected-(J6-Pad9)*%
X142770000Y-120500000D03*
%TO.N,unconnected-(J6-Pad10)*%
X145310000Y-120500000D03*
%TO.N,unconnected-(J6-Pad11)*%
X147850000Y-120500000D03*
%TO.N,unconnected-(J6-Pad12)*%
X150390000Y-120500000D03*
%TO.N,unconnected-(J6-Pad13)*%
X152930000Y-120500000D03*
%TO.N,unconnected-(J6-Pad14)*%
X155470000Y-120500000D03*
%TO.N,unconnected-(J6-Pad15)*%
X158010000Y-120500000D03*
%TO.N,GND*%
X160550000Y-120500000D03*
%TD*%
%TO.N,unconnected-(J4-Pad1)*%
%TO.C,J4*%
X122450000Y-82500000D03*
%TO.N,unconnected-(J4-Pad2)*%
X124990000Y-82500000D03*
%TO.N,unconnected-(J4-Pad3)*%
X127530000Y-82500000D03*
%TO.N,unconnected-(J4-Pad4)*%
X130070000Y-82500000D03*
%TO.N,unconnected-(J4-Pad5)*%
X132610000Y-82500000D03*
%TO.N,unconnected-(J4-Pad6)*%
X135150000Y-82500000D03*
%TO.N,unconnected-(J4-Pad7)*%
X137690000Y-82500000D03*
%TO.N,unconnected-(J4-Pad8)*%
X140230000Y-82500000D03*
%TO.N,LPUART6_RXD*%
X142770000Y-82500000D03*
%TO.N,LPUART6_TXD*%
X145310000Y-82500000D03*
%TO.N,LPSPI6_CS0*%
X147850000Y-82500000D03*
%TO.N,LPSPI6_SCK*%
X150390000Y-82500000D03*
%TO.N,LPSPI6_SDO*%
X152930000Y-82500000D03*
%TO.N,LPSPI6_SDI*%
X155470000Y-82500000D03*
%TO.N,POR_B*%
X158010000Y-82500000D03*
%TO.N,GND*%
X160550000Y-82500000D03*
%TD*%
D14*
%TO.N,DCDC_1V8_OUT*%
X143407351Y-106401825D03*
X141250000Y-108060000D03*
%TO.N,VSYS*%
X123660000Y-94270000D03*
X131693217Y-86460585D03*
%TO.N,VDD_3V3*%
X135850000Y-94690000D03*
X147754141Y-107527874D03*
X155907891Y-92382714D03*
X156320000Y-102630000D03*
X152500000Y-107960000D03*
X156341474Y-98997326D03*
X148143479Y-96642876D03*
X132699937Y-114137629D03*
%TO.N,VDD_1V8_SENSE*%
X149950000Y-114830329D03*
X153046196Y-110074687D03*
%TO.N,VDD_1V8*%
X137046433Y-103126433D03*
X137370000Y-97830000D03*
X137447979Y-101013782D03*
X137050000Y-108690000D03*
X142567765Y-94957424D03*
X143000000Y-90370000D03*
X143270000Y-100642874D03*
X157051615Y-104338684D03*
X139890000Y-114690000D03*
X130820000Y-100370000D03*
X153659550Y-98155000D03*
X138144885Y-102556030D03*
X135981210Y-112764284D03*
X141370000Y-102660000D03*
X150512000Y-97220000D03*
X156159505Y-94360495D03*
%TO.N,MCM_3V3*%
X131320000Y-115220000D03*
X135508719Y-103348007D03*
X135310000Y-118000000D03*
X132440000Y-106440000D03*
X128798100Y-111305369D03*
X152939218Y-112728922D03*
%TO.N,VUSB*%
X132174000Y-100475998D03*
X129611629Y-97291629D03*
X127954773Y-104156261D03*
X132841401Y-103557381D03*
X131268363Y-99268363D03*
%TO.N,VDD_SNVS_ANA*%
X139378764Y-92642874D03*
X136970000Y-92670000D03*
X157830627Y-100220000D03*
%TO.N,MCM_1V8*%
X158460000Y-114750000D03*
X148070000Y-94860000D03*
X148685000Y-95475000D03*
%TO.N,MCU_DCDC_IN*%
X144760138Y-96009764D03*
X145327999Y-94725000D03*
%TO.N,VDD_SOC_IN*%
X135980000Y-92040000D03*
X142446584Y-97695663D03*
%TO.N,VDD_LPSR_IN*%
X138578764Y-94242874D03*
%TO.N,VDD_LPSR_ANA*%
X138578764Y-94934156D03*
%TO.N,Net-(U3A-VDD_SNVS_IN)*%
X138600000Y-91780000D03*
X130440000Y-95065000D03*
%TO.N,VDD_LPSR_DIG*%
X139351693Y-94934156D03*
%TO.N,DCDC_1V8_OUT_SENSE*%
X142999282Y-96263394D03*
%TO.N,VDDA_1P0*%
X139378765Y-95965000D03*
X138973029Y-98676971D03*
X140171000Y-101442874D03*
%TO.N,ADC_1V8_IN*%
X136910000Y-109500000D03*
X135008075Y-101945925D03*
%TO.N,Net-(U3C-DCDC_PSWITCH)*%
X146130012Y-94710012D03*
%TO.N,Net-(U3C-DCDC_DIG_1)*%
X141778764Y-97565000D03*
%TO.N,Net-(U3E-XTALO)*%
X133043919Y-93196380D03*
X135378765Y-93442875D03*
%TO.N,Net-(U3B-VDDA_ADC_3P3)*%
X136580000Y-97725269D03*
%TO.N,Net-(U3H-GPIO_AD_10)*%
X134578765Y-94242875D03*
%TO.N,/IO/USB_DN_CON*%
X128540000Y-103650000D03*
X128503092Y-102530751D03*
%TO.N,/IO/USB_DP_CON*%
X129315688Y-102538188D03*
%TO.N,DAC_OUT*%
X133733894Y-100523513D03*
%TO.N,USER_BUTTON*%
X140170000Y-94250000D03*
X155708619Y-98463503D03*
%TO.N,DA_nONKEY*%
X152880000Y-110990000D03*
X159500000Y-97310000D03*
%TO.N,BOOT_MODE1*%
X142578764Y-93442874D03*
X156489172Y-94745642D03*
%TO.N,Net-(Q2-D)*%
X156559213Y-95695642D03*
%TO.N,I2C5_SDA*%
X142280241Y-95710002D03*
X153080889Y-109575889D03*
X153170000Y-96350000D03*
%TO.N,POR_B*%
X151006239Y-115095000D03*
X140180000Y-93450000D03*
X157985000Y-107340000D03*
X160631000Y-98320000D03*
%TO.N,I2C5_SCL*%
X150000550Y-95046678D03*
X153170000Y-110580000D03*
X141390763Y-95368403D03*
%TO.N,DA_GPIO4_SYS_EN*%
X148480000Y-90870000D03*
X146101878Y-114600594D03*
%TO.N,/IO/USB_CC2*%
X128880000Y-103000000D03*
X129125996Y-98908880D03*
%TO.N,MCM_SD_ALARM*%
X145393048Y-97925298D03*
X141874266Y-107665553D03*
%TO.N,/TPU/MCM_BT_PHY_PRG*%
X141397468Y-107575000D03*
%TO.N,TPU_RST_L*%
X144610000Y-97800000D03*
X144776286Y-108807044D03*
%TO.N,I2C5_SDA_MCM*%
X152425438Y-115213513D03*
X152523338Y-96774306D03*
%TO.N,TPU_BOOT_FAIL*%
X145415000Y-98699316D03*
X141533446Y-107146034D03*
%TO.N,I2C5_SCL_MCM*%
X149475894Y-95724106D03*
X152555000Y-114685000D03*
%TO.N,Net-(U3J-GPIO_EMC_B1_39)*%
X146622067Y-98971423D03*
%TO.N,Net-(U3L-VDD_USB_3V3)*%
X138578764Y-100735000D03*
X133010000Y-107310000D03*
%TO.N,BRD_STAT_LED*%
X155894691Y-102490000D03*
X140943012Y-97578222D03*
%TO.N,USER_LED*%
X140178764Y-96642874D03*
X157540000Y-101210000D03*
%TO.N,FLEXPWM1_PWM1_A*%
X130445000Y-108083313D03*
X137360000Y-94640000D03*
%TO.N,PMIC_ON_REQ*%
X140915764Y-92642874D03*
%TO.N,TPU_POW_EN*%
X146487550Y-97419215D03*
X130920000Y-113080000D03*
%TO.N,FlexSPI_A_SS0*%
X134880000Y-101150000D03*
X142431997Y-113056106D03*
%TO.N,BT_CFG1_0*%
X140178764Y-103042874D03*
%TO.N,BT_CFG1_1*%
X138578764Y-102242874D03*
%TO.N,BT_CFG1_2*%
X136178764Y-105442874D03*
%TO.N,BT_CFG1_3*%
X137953612Y-104138140D03*
%TO.N,BT_CFG1_4*%
X136918107Y-104800060D03*
%TO.N,BT_CFG1_5*%
X136978764Y-105442872D03*
%TO.N,BT_CFG2_0*%
X140978764Y-102242874D03*
%TO.N,BT_CFG1_6*%
X141761009Y-102219874D03*
%TO.N,BT_CFG1_7*%
X141368974Y-101824635D03*
%TO.N,BT_CFG2_1*%
X142578764Y-103042876D03*
%TO.N,BT_CFG2_2*%
X142578763Y-103842876D03*
%TO.N,BT_CFG2_3*%
X140978764Y-103842874D03*
%TO.N,BOOT_MODE0*%
X143218847Y-94940111D03*
X155617190Y-96092336D03*
%TO.N,Net-(U3L-VDD_USB_1P8)*%
X138671393Y-99750245D03*
X134050622Y-100843177D03*
%TO.N,Net-(U3K-VDD_MIPI_1P8)*%
X137040000Y-107100000D03*
X140922964Y-101457871D03*
%TO.N,Net-(D3-K)*%
X129638531Y-94631480D03*
X154000000Y-92360000D03*
%TO.N,SEMC_D5*%
X144990000Y-101460000D03*
X154098781Y-105967847D03*
%TO.N,FlexSPI_A_D2*%
X142800000Y-114840000D03*
X136960000Y-99960000D03*
%TO.N,SEMC_A6*%
X150977946Y-101197392D03*
X147378764Y-103924726D03*
%TO.N,FlexSPI_A_D3*%
X135475464Y-101346173D03*
X134943335Y-111116665D03*
%TO.N,SEMC_D15*%
X148543478Y-100284180D03*
X156465000Y-100335000D03*
%TO.N,SEMC_D3*%
X152730000Y-102490000D03*
X146312730Y-102637900D03*
%TO.N,FlexSPI_A_CLK*%
X136980000Y-100630000D03*
X134600000Y-110040000D03*
%TO.N,SEMC_D6*%
X144597560Y-101086266D03*
X154098781Y-105167847D03*
%TO.N,SEMC_D12*%
X147648766Y-102178453D03*
X154235935Y-99065199D03*
%TO.N,SEMC_A11*%
X145037240Y-103956939D03*
X151680000Y-100370000D03*
%TO.N,SEMC_A8*%
X145778762Y-104642874D03*
X152255172Y-103362501D03*
%TO.N,SEMC_WE*%
X143947418Y-102118825D03*
X152610000Y-105730000D03*
%TO.N,SEMC_D7*%
X145715000Y-99888229D03*
X153298781Y-105967847D03*
%TO.N,LPSPI6_SDO*%
X143210000Y-85030000D03*
%TO.N,SEMC_BA1*%
X146575427Y-99933507D03*
X151698781Y-105167847D03*
%TO.N,SEMC_A12*%
X148820000Y-98820000D03*
X145778762Y-103842874D03*
%TO.N,LPUART6_RXD*%
X147287550Y-97547450D03*
%TO.N,SEMC_D2*%
X149749498Y-103655525D03*
X155698781Y-105167847D03*
%TO.N,SEMC_DM0*%
X144300000Y-101440000D03*
X153298781Y-105167845D03*
%TO.N,SEMC_CKE*%
X148340000Y-98120000D03*
X144111764Y-100544723D03*
%TO.N,SEMC_A5*%
X147090048Y-104748113D03*
X151670000Y-102858726D03*
%TO.N,SEMC_D13*%
X153080521Y-101990521D03*
X147720000Y-101677491D03*
%TO.N,FlexSPI_A_D0*%
X136190000Y-101440000D03*
X134184559Y-110150000D03*
%TO.N,SEMC_D14*%
X149009754Y-101448137D03*
X155538132Y-99611026D03*
%TO.N,SEMC_A9*%
X145015764Y-104655000D03*
X151704181Y-101125749D03*
%TO.N,LPSPI6_SDI*%
X144510000Y-85000000D03*
%TO.N,SEMC_DM1*%
X152498781Y-99775000D03*
X147370000Y-98977507D03*
%TO.N,LPUART6_TXD*%
X147378764Y-98213754D03*
X143070000Y-84200000D03*
%TO.N,FlexSPI_A_D1*%
X135301267Y-110938733D03*
X136202256Y-100005755D03*
%TO.N,SEMC_D10*%
X147314309Y-103105000D03*
X154083323Y-99857247D03*
%TO.N,LPSPI6_SCK*%
X145310000Y-84200000D03*
%TO.N,SEMC_D11*%
X154825630Y-100411734D03*
X146578766Y-102242873D03*
%TO.N,SEMC_D9*%
X152693368Y-103464908D03*
X146451000Y-103253005D03*
%TO.N,SEMC_A7*%
X148370000Y-98840000D03*
X144586998Y-102568192D03*
%TO.N,SEMC_D8*%
X145502235Y-101896703D03*
X153263381Y-99524215D03*
%TO.N,GND*%
X141829112Y-109745172D03*
X139092488Y-99750273D03*
X147725000Y-92055000D03*
X131516967Y-104708303D03*
X145546465Y-113434584D03*
X137841000Y-108145172D03*
X136178765Y-97442873D03*
X136978762Y-103842874D03*
X145190000Y-111530000D03*
X130500000Y-106780000D03*
X145715000Y-100642874D03*
X151397523Y-91474278D03*
X153980000Y-101960000D03*
X151240000Y-98955000D03*
X157450000Y-101620000D03*
X142580000Y-94250000D03*
X153290000Y-101180000D03*
X155820000Y-109730000D03*
X147378764Y-105442874D03*
X131750000Y-113050000D03*
X126705000Y-92365000D03*
X142070000Y-106340184D03*
X131462073Y-117001398D03*
X155680000Y-104360000D03*
X134578764Y-92642876D03*
X142306012Y-99931980D03*
X129508171Y-101208666D03*
X159795140Y-95834313D03*
X145412116Y-103382876D03*
X143870000Y-116600000D03*
X145340000Y-107630000D03*
X136178765Y-100642876D03*
X161299733Y-104620000D03*
X139910000Y-116440000D03*
X149260751Y-106663675D03*
X151676882Y-95267988D03*
X136795604Y-94678554D03*
X131156971Y-96527586D03*
X138960000Y-93060000D03*
X139290000Y-88740000D03*
X145964086Y-97342451D03*
X154100000Y-104390000D03*
%TO.N,Net-(IC3-OUT)*%
X132740000Y-116310000D03*
%TO.N,SEMC_D1*%
X154249501Y-102890000D03*
X146590000Y-101480000D03*
%TO.N,Net-(IC3-EN)*%
X131462073Y-117951398D03*
%TO.N,SEMC_A4*%
X150050295Y-101599909D03*
X144105000Y-103042873D03*
%TO.N,SEMC_A1*%
X150898781Y-105167847D03*
X146664639Y-105444000D03*
%TO.N,SEMC_D0*%
X145778764Y-101442874D03*
X143984651Y-106975000D03*
%TO.N,SDRAM_1V8*%
X154098781Y-101167847D03*
X155690000Y-101210000D03*
X153850046Y-103238116D03*
X153080046Y-103344857D03*
X154860000Y-103300000D03*
%TO.N,/Power_Sys/VBUCK_3V3_OUT*%
X154123826Y-94915682D03*
X149680000Y-118445000D03*
%TD*%
D15*
%TO.N,/Power_Sys/VBUCK_3V3_OUT*%
X149931605Y-118445000D02*
X149680000Y-118445000D01*
X153199903Y-115176702D02*
X149931605Y-118445000D01*
X153199903Y-114880097D02*
X153199903Y-115176702D01*
X157476047Y-110603953D02*
X153199903Y-114880097D01*
X157476047Y-104230248D02*
X157476047Y-110603953D01*
X157074000Y-103828201D02*
X157476047Y-104230248D01*
X157074000Y-101118696D02*
X157074000Y-103828201D01*
X157324000Y-100868696D02*
X157074000Y-101118696D01*
X157324000Y-98509875D02*
X157324000Y-100868696D01*
X155241664Y-96427539D02*
X157324000Y-98509875D01*
X155080709Y-96427539D02*
X155241664Y-96427539D01*
X154802461Y-96149291D02*
X155080709Y-96427539D01*
X154802461Y-95988336D02*
X154802461Y-96149291D01*
X154123826Y-94915682D02*
X154123826Y-95309701D01*
X154123826Y-95309701D02*
X154802461Y-95988336D01*
%TO.N,VUSB*%
X132314002Y-100475998D02*
X132395000Y-100395000D01*
X132174000Y-100475998D02*
X132314002Y-100475998D01*
%TO.N,VDD_3V3*%
X155907891Y-92382714D02*
X153630000Y-94660605D01*
X156261628Y-105136745D02*
X156261628Y-102688372D01*
X156320000Y-101130000D02*
X156840000Y-100610000D01*
X150999621Y-97175876D02*
X150304566Y-96480821D01*
X149240000Y-96460000D02*
X148326355Y-96460000D01*
X156320000Y-102630000D02*
X156320000Y-101130000D01*
X153714124Y-97175876D02*
X150999621Y-97175876D01*
X153714124Y-97175876D02*
X153819951Y-97175876D01*
X154116153Y-106343847D02*
X155054526Y-106343847D01*
X153630000Y-94660605D02*
X153630000Y-97091752D01*
X156840000Y-100610000D02*
X156840000Y-99495852D01*
X153630000Y-97091752D02*
X153714124Y-97175876D01*
X155054526Y-106343847D02*
X156261628Y-105136745D01*
X136062308Y-117500000D02*
X142438255Y-117500000D01*
X153819951Y-97175876D02*
X155641401Y-98997326D01*
X142438255Y-117500000D02*
X145713661Y-114224594D01*
X132699937Y-114137629D02*
X136062308Y-117500000D01*
X150304566Y-96480821D02*
X149260821Y-96480821D01*
X146235406Y-114224594D02*
X154116153Y-106343847D01*
X156840000Y-99495852D02*
X156341474Y-98997326D01*
X155641401Y-98997326D02*
X156341474Y-98997326D01*
X148326355Y-96460000D02*
X148143479Y-96642876D01*
X145713661Y-114224594D02*
X146235406Y-114224594D01*
X156261628Y-102688372D02*
X156320000Y-102630000D01*
X149260821Y-96480821D02*
X149240000Y-96460000D01*
%TO.N,VDD_1V8_SENSE*%
X152655000Y-110415000D02*
X152655000Y-110333248D01*
X152991509Y-110020000D02*
X153046196Y-110074687D01*
X152655000Y-110333248D02*
X152968248Y-110020000D01*
X152968248Y-110020000D02*
X152991509Y-110020000D01*
X149950000Y-113120000D02*
X152655000Y-110415000D01*
X149950000Y-114830329D02*
X149950000Y-113120000D01*
%TO.N,VDD_1V8*%
X142210727Y-98060847D02*
X142270543Y-98120663D01*
X142199917Y-98106000D02*
X144254732Y-98106000D01*
X147540246Y-98589754D02*
X147964000Y-98166000D01*
X146957581Y-98324316D02*
X147223019Y-98589754D01*
X142154764Y-98060847D02*
X142199917Y-98106000D01*
X151216307Y-98274307D02*
X151575449Y-98274307D01*
X148678255Y-97220000D02*
X150512000Y-97220000D01*
X142656241Y-95045900D02*
X142567765Y-94957424D01*
X140854145Y-102650000D02*
X140521000Y-102316855D01*
X142954764Y-97673361D02*
X142954764Y-96819917D01*
D16*
X142672576Y-94957424D02*
X142567765Y-94957424D01*
D15*
X140546000Y-101284255D02*
X140546000Y-101681948D01*
X137391000Y-108349000D02*
X137050000Y-108690000D01*
X142270543Y-98120663D02*
X142622625Y-98120663D01*
X139802764Y-104868981D02*
X137391000Y-107280745D01*
X140570000Y-99743611D02*
X140570000Y-101260255D01*
X142574282Y-96439435D02*
X142574282Y-95966767D01*
X140521000Y-99694611D02*
X140570000Y-99743611D01*
X140521000Y-102204249D02*
X140058375Y-102666874D01*
X137370000Y-97830000D02*
X138656389Y-97830000D01*
X141370000Y-102660000D02*
X141430000Y-102660000D01*
X147223019Y-98589754D02*
X147540246Y-98589754D01*
X140546000Y-101681948D02*
X140570000Y-101705948D01*
X141430000Y-102660000D02*
X141440000Y-102650000D01*
X140570000Y-102155249D02*
X140521000Y-102204249D01*
X144254732Y-98106000D02*
X144473048Y-98324316D01*
X142871584Y-97871704D02*
X142871584Y-97756541D01*
X140058375Y-102666874D02*
X140023019Y-102666874D01*
X142154764Y-98060847D02*
X142210727Y-98060847D01*
X143270000Y-99176083D02*
X143270000Y-100642874D01*
X144473048Y-98324316D02*
X146957581Y-98324316D01*
X139802764Y-102887129D02*
X139802764Y-104868981D01*
X142154764Y-98060847D02*
X140521000Y-99694611D01*
X140521000Y-102316855D02*
X140521000Y-102204249D01*
X147964000Y-98166000D02*
X147964000Y-97934255D01*
X141440000Y-102650000D02*
X140854145Y-102650000D01*
X142954764Y-96819917D02*
X142574282Y-96439435D01*
X140570000Y-101705948D02*
X140570000Y-102155249D01*
D16*
X143000000Y-90370000D02*
X143000000Y-94630000D01*
X143000000Y-94630000D02*
X142672576Y-94957424D01*
D15*
X150512000Y-97220000D02*
X150512000Y-97570000D01*
X142199917Y-98106000D02*
X143270000Y-99176083D01*
X151575449Y-98274307D02*
X151694756Y-98155000D01*
X138656389Y-97830000D02*
X140521000Y-99694611D01*
X140023019Y-102666874D02*
X139802764Y-102887129D01*
X142622625Y-98120663D02*
X142871584Y-97871704D01*
X150512000Y-97570000D02*
X151216307Y-98274307D01*
X151694756Y-98155000D02*
X153659550Y-98155000D01*
X137391000Y-107280745D02*
X137391000Y-108349000D01*
X147964000Y-97934255D02*
X148678255Y-97220000D01*
X142574282Y-95966767D02*
X142656241Y-95884808D01*
X142871584Y-97756541D02*
X142954764Y-97673361D01*
X142656241Y-95884808D02*
X142656241Y-95045900D01*
X140570000Y-101260255D02*
X140546000Y-101284255D01*
%TO.N,MCM_3V3*%
X131871884Y-114563629D02*
X132630963Y-114563629D01*
X151950438Y-115410265D02*
X149360703Y-118000000D01*
X151950438Y-113717702D02*
X151950438Y-115410265D01*
X135310000Y-117242666D02*
X135310000Y-118000000D01*
X131320000Y-115220000D02*
X131320000Y-114880000D01*
X149360703Y-118000000D02*
X135310000Y-118000000D01*
X131320000Y-114880000D02*
X131636371Y-114563629D01*
X128798100Y-111305369D02*
X128798100Y-111489845D01*
X131636371Y-114563629D02*
X131871884Y-114563629D01*
X132630963Y-114563629D02*
X135310000Y-117242666D01*
X128798100Y-111489845D02*
X131871884Y-114563629D01*
X152939218Y-112728922D02*
X151950438Y-113717702D01*
%TO.N,VUSB*%
X132395000Y-100395000D02*
X132395000Y-103110980D01*
X131530000Y-99530000D02*
X132395000Y-100395000D01*
X131530000Y-99530000D02*
X129611629Y-97611629D01*
X129611629Y-97611629D02*
X129611629Y-97291629D01*
X131268363Y-99268363D02*
X131530000Y-99530000D01*
X132395000Y-103110980D02*
X132841401Y-103557381D01*
%TO.N,MCM_1V8*%
X152280000Y-91880000D02*
X157010000Y-91880000D01*
X148685000Y-95475000D02*
X152280000Y-91880000D01*
X158460000Y-93330000D02*
X158460000Y-114640000D01*
X157010000Y-91880000D02*
X158460000Y-93330000D01*
%TO.N,MCU_DCDC_IN*%
X144760138Y-96009764D02*
X144760138Y-96004936D01*
X145327999Y-95437075D02*
X145327999Y-94725000D01*
X144760138Y-96004936D02*
X145327999Y-95437075D01*
%TO.N,VDD_SOC_IN*%
X142497862Y-97644385D02*
X142446584Y-97695663D01*
X137175890Y-92040000D02*
X142497862Y-97361972D01*
X142497862Y-97361972D02*
X142497862Y-97644385D01*
X135980000Y-92040000D02*
X137175890Y-92040000D01*
%TO.N,VDDA_1P0*%
X140171000Y-101442874D02*
X140170000Y-101441874D01*
X140170000Y-101441874D02*
X140170000Y-99873942D01*
X140170000Y-99873942D02*
X138973029Y-98676971D01*
D16*
%TO.N,POR_B*%
X158010000Y-82500000D02*
X158630000Y-83120000D01*
X160631000Y-94992186D02*
X160631000Y-98320000D01*
X158630000Y-83120000D02*
X158630000Y-92991186D01*
X158630000Y-92991186D02*
X160631000Y-94992186D01*
D15*
%TO.N,FlexSPI_A_SS0*%
X142348103Y-113140000D02*
X142431997Y-113056106D01*
X133483559Y-109824281D02*
X133458559Y-109849281D01*
X133458559Y-110813533D02*
X133751669Y-111106643D01*
X134632075Y-101397925D02*
X134632075Y-102177925D01*
X133751669Y-111106643D02*
X133751669Y-111899039D01*
X133410000Y-105947924D02*
X133470000Y-106007924D01*
X134992630Y-113140000D02*
X142348103Y-113140000D01*
X133410000Y-103400000D02*
X133410000Y-105947924D01*
X133470000Y-107159924D02*
X133483559Y-107173483D01*
X134632075Y-102177925D02*
X133410000Y-103400000D01*
X133470000Y-106007924D02*
X133470000Y-107159924D01*
X133483559Y-107173483D02*
X133483559Y-109824281D01*
X133458559Y-109849281D02*
X133458559Y-110813533D01*
X134880000Y-101150000D02*
X134632075Y-101397925D01*
X133751669Y-111899039D02*
X134992630Y-113140000D01*
%TO.N,FlexSPI_A_D2*%
X136023020Y-101018876D02*
X135474000Y-100469856D01*
X136554765Y-100365235D02*
X136554765Y-100798621D01*
X142856997Y-112713065D02*
X142856997Y-113336997D01*
X138954764Y-104653491D02*
X136534000Y-107074255D01*
X137585509Y-99210000D02*
X138954764Y-100579255D01*
X136754255Y-109124000D02*
X139267932Y-109124000D01*
X136425025Y-99210000D02*
X137585509Y-99210000D01*
X136334510Y-101018876D02*
X136023020Y-101018876D01*
X135474000Y-100469856D02*
X135474000Y-100161025D01*
X136960000Y-99960000D02*
X136554765Y-100365235D01*
X142856997Y-113336997D02*
X142800000Y-113393994D01*
X136534000Y-108903745D02*
X136754255Y-109124000D01*
X142800000Y-113393994D02*
X142800000Y-114840000D01*
X138954764Y-100579255D02*
X138954764Y-104653491D01*
X136534000Y-107074255D02*
X136534000Y-108903745D01*
X139267932Y-109124000D02*
X142856997Y-112713065D01*
X136554765Y-100798621D02*
X136334510Y-101018876D01*
X135474000Y-100161025D02*
X136425025Y-99210000D01*
D17*
%TO.N,SEMC_A6*%
X148886324Y-102670000D02*
X147631598Y-103924726D01*
X149663676Y-102670000D02*
X148886324Y-102670000D01*
X147631598Y-103924726D02*
X147378764Y-103924726D01*
X150664474Y-101510864D02*
X150664474Y-101867364D01*
X150321838Y-102210000D02*
X150123676Y-102210000D01*
X150977946Y-101197392D02*
X150664474Y-101510864D01*
X150123676Y-102210000D02*
X149663676Y-102670000D01*
X150664474Y-101867364D02*
X150321838Y-102210000D01*
D15*
%TO.N,FlexSPI_A_D3*%
X134943335Y-111116665D02*
X134619479Y-111116665D01*
X133808559Y-109994255D02*
X133833559Y-109969255D01*
X133833559Y-109969255D02*
X133833559Y-103881415D01*
X133833559Y-103881415D02*
X135475464Y-102239510D01*
X135475464Y-102239510D02*
X135475464Y-101346173D01*
X134619479Y-111116665D02*
X133808559Y-110305745D01*
X133808559Y-110305745D02*
X133808559Y-109994255D01*
D17*
%TO.N,SEMC_D15*%
X153928075Y-98830000D02*
X151963190Y-98830000D01*
X156465000Y-100335000D02*
X155786930Y-100335000D01*
X149370000Y-101423190D02*
X149370000Y-101563067D01*
X154148075Y-98610000D02*
X153928075Y-98830000D01*
X148870578Y-101784137D02*
X148543478Y-101457037D01*
X154578069Y-99126139D02*
X154578069Y-98918069D01*
X151963190Y-98830000D02*
X149370000Y-101423190D01*
X154270000Y-98610000D02*
X154148075Y-98610000D01*
X154578069Y-98918069D02*
X154270000Y-98610000D01*
X155786930Y-100335000D02*
X154578069Y-99126139D01*
X148543478Y-101457037D02*
X148543478Y-100284180D01*
X149370000Y-101563067D02*
X149148930Y-101784137D01*
X149148930Y-101784137D02*
X148870578Y-101784137D01*
D15*
%TO.N,FlexSPI_A_CLK*%
X134590000Y-110030000D02*
X134600000Y-110040000D01*
X136980000Y-102095437D02*
X135983719Y-103091718D01*
X136980000Y-100630000D02*
X136980000Y-102095437D01*
X135983719Y-103091718D02*
X135983719Y-103544759D01*
X135983719Y-103544759D02*
X134590000Y-104938478D01*
X134590000Y-104938478D02*
X134590000Y-110030000D01*
D17*
%TO.N,SEMC_D12*%
X149911119Y-101263909D02*
X150054415Y-101263909D01*
X148662234Y-102129000D02*
X149222838Y-102129000D01*
X147701804Y-102130000D02*
X148661234Y-102130000D01*
X148661234Y-102130000D02*
X148662234Y-102129000D01*
X150726932Y-100591392D02*
X150968608Y-100591392D01*
X147653351Y-102178453D02*
X147701804Y-102130000D01*
X149714295Y-101637543D02*
X149714295Y-101460733D01*
X149222838Y-102129000D02*
X149714295Y-101637543D01*
X149714295Y-101460733D02*
X149911119Y-101263909D01*
X150968608Y-100591392D02*
X152371785Y-99188215D01*
X150054415Y-101263909D02*
X150726932Y-100591392D01*
X147648766Y-102178453D02*
X147653351Y-102178453D01*
X152371785Y-99188215D02*
X154112919Y-99188215D01*
X154112919Y-99188215D02*
X154235935Y-99065199D01*
%TO.N,SEMC_A11*%
X151680000Y-100370000D02*
X151188608Y-100861392D01*
X146567588Y-104178874D02*
X145259175Y-104178874D01*
X150393474Y-101755112D02*
X150209586Y-101939000D01*
X150838770Y-100861392D02*
X150641946Y-101058216D01*
X145259175Y-104178874D02*
X145037240Y-103956939D01*
X147683072Y-103490000D02*
X147256462Y-103490000D01*
X149551424Y-102399000D02*
X148774072Y-102399000D01*
X148774072Y-102399000D02*
X147683072Y-103490000D01*
X150641946Y-101058216D02*
X150641946Y-101091730D01*
X150011424Y-101939000D02*
X149551424Y-102399000D01*
X151188608Y-100861392D02*
X150838770Y-100861392D01*
X150641946Y-101091730D02*
X150393474Y-101340202D01*
X150393474Y-101340202D02*
X150393474Y-101755112D01*
X150209586Y-101939000D02*
X150011424Y-101939000D01*
X147256462Y-103490000D02*
X146567588Y-104178874D01*
%TO.N,SEMC_WE*%
X144514766Y-105764766D02*
X144514766Y-105066604D01*
X143769000Y-102297243D02*
X143947418Y-102118825D01*
X152170000Y-106170000D02*
X144920000Y-106170000D01*
X143769000Y-104320838D02*
X143769000Y-102297243D01*
X144920000Y-106170000D02*
X144514766Y-105764766D01*
X144514766Y-105066604D02*
X143769000Y-104320838D01*
X152610000Y-105730000D02*
X152170000Y-106170000D01*
%TO.N,SEMC_A12*%
X148820000Y-98990000D02*
X146963766Y-100846234D01*
X146422302Y-103842874D02*
X145778762Y-103842874D01*
X146963766Y-100846234D02*
X146963766Y-103301410D01*
X146963766Y-103301410D02*
X146422302Y-103842874D01*
X148820000Y-98820000D02*
X148820000Y-98990000D01*
D15*
%TO.N,LPUART6_RXD*%
X144120000Y-85278255D02*
X144446000Y-85604255D01*
X144446000Y-85604255D02*
X144446000Y-92308735D01*
X147370000Y-97465000D02*
X147287550Y-97547450D01*
X144446000Y-92308735D02*
X147370000Y-95232735D01*
X144120000Y-83850000D02*
X144120000Y-85278255D01*
X147370000Y-95232735D02*
X147370000Y-97465000D01*
X142770000Y-82500000D02*
X144120000Y-83850000D01*
D17*
%TO.N,SEMC_D2*%
X155698781Y-105167847D02*
X154380842Y-103849908D01*
X152185435Y-103849908D02*
X151938774Y-103603247D01*
X149801776Y-103603247D02*
X149749498Y-103655525D01*
X154380842Y-103849908D02*
X152185435Y-103849908D01*
X151938774Y-103603247D02*
X149801776Y-103603247D01*
%TO.N,SEMC_CKE*%
X146221838Y-99110000D02*
X144870000Y-99110000D01*
X148340000Y-98260151D02*
X148034000Y-98566151D01*
X144870000Y-99110000D02*
X144580000Y-99400000D01*
X148034000Y-98566151D02*
X148034000Y-98979176D01*
X144580000Y-99400000D02*
X144580000Y-100076487D01*
X146440345Y-99328507D02*
X146221838Y-99110000D01*
X147684669Y-99328507D02*
X146440345Y-99328507D01*
X144580000Y-100076487D02*
X144111764Y-100544723D01*
X148340000Y-98120000D02*
X148340000Y-98260151D01*
X148034000Y-98979176D02*
X147684669Y-99328507D01*
D15*
%TO.N,FlexSPI_A_D0*%
X136190000Y-101440000D02*
X136190000Y-102034974D01*
X135580000Y-102644974D02*
X135580000Y-102669949D01*
X134184559Y-104065389D02*
X134184559Y-110150000D01*
X135580000Y-102669949D02*
X134184559Y-104065389D01*
X136190000Y-102034974D02*
X135580000Y-102644974D01*
D17*
%TO.N,SEMC_D14*%
X151669162Y-98619000D02*
X151100824Y-98619000D01*
X155538132Y-99413659D02*
X154464473Y-98340000D01*
X149009754Y-101168372D02*
X149009754Y-101448137D01*
X150838126Y-99340000D02*
X149009754Y-101168372D01*
X151100824Y-98619000D02*
X150838126Y-98881698D01*
X153824823Y-98550000D02*
X151738162Y-98550000D01*
X151738162Y-98550000D02*
X151669162Y-98619000D01*
X154034823Y-98340000D02*
X153824823Y-98550000D01*
X150838126Y-98881698D02*
X150838126Y-99340000D01*
X154464473Y-98340000D02*
X154034823Y-98340000D01*
X155538132Y-99611026D02*
X155538132Y-99413659D01*
%TO.N,SEMC_A9*%
X150933474Y-101980202D02*
X150433676Y-102480000D01*
X151704181Y-101125749D02*
X151704181Y-101162447D01*
X148998162Y-102940000D02*
X147542821Y-104395341D01*
X150433676Y-102480000D02*
X150386628Y-102480000D01*
X146786987Y-104395341D02*
X146156973Y-105025355D01*
X150386628Y-102480000D02*
X149926628Y-102940000D01*
X149926628Y-102940000D02*
X148998162Y-102940000D01*
X146156973Y-105025355D02*
X145674645Y-105025355D01*
X150933474Y-101933154D02*
X150933474Y-101980202D01*
X147542821Y-104395341D02*
X146786987Y-104395341D01*
X145304290Y-104655000D02*
X145015764Y-104655000D01*
X145674645Y-105025355D02*
X145304290Y-104655000D01*
X151704181Y-101162447D02*
X150933474Y-101933154D01*
D15*
%TO.N,LPUART6_TXD*%
X143660000Y-92339358D02*
X143660000Y-84790000D01*
X147378764Y-98213754D02*
X146862550Y-97697540D01*
X145706427Y-94385785D02*
X143660000Y-92339358D01*
X145706427Y-94917443D02*
X145706427Y-94385785D01*
X146862550Y-96073566D02*
X145706427Y-94917443D01*
X146862550Y-97697540D02*
X146862550Y-96073566D01*
X143660000Y-84790000D02*
X143070000Y-84200000D01*
%TO.N,FlexSPI_A_D1*%
X138007922Y-100327524D02*
X137250398Y-99570000D01*
X138007922Y-101563903D02*
X138007922Y-100327524D01*
X136333719Y-103689733D02*
X136333719Y-103238106D01*
X134980000Y-105043452D02*
X136333719Y-103689733D01*
X136333719Y-103238106D02*
X138007922Y-101563903D01*
X134980000Y-110617466D02*
X134980000Y-105043452D01*
X136638011Y-99570000D02*
X136202256Y-100005755D01*
X135301267Y-110938733D02*
X134980000Y-110617466D01*
X137250398Y-99570000D02*
X136638011Y-99570000D01*
D17*
%TO.N,SEMC_A7*%
X148304000Y-98906000D02*
X148304000Y-99091014D01*
X143775000Y-101401934D02*
X144586998Y-102213932D01*
X148304000Y-99091014D02*
X147796507Y-99598507D01*
X144271237Y-100929723D02*
X144125804Y-100929723D01*
X145330000Y-99900000D02*
X144525804Y-100704196D01*
X143775000Y-101280527D02*
X143775000Y-101401934D01*
X144125804Y-100929723D02*
X143775000Y-101280527D01*
X144525804Y-100704196D02*
X144496764Y-100704196D01*
X144586998Y-102213932D02*
X144586998Y-102568192D01*
X146231815Y-99503229D02*
X145555527Y-99503229D01*
X146327093Y-99598507D02*
X146231815Y-99503229D01*
X147796507Y-99598507D02*
X146327093Y-99598507D01*
X144496764Y-100704196D02*
X144271237Y-100929723D01*
X148370000Y-98840000D02*
X148304000Y-98906000D01*
X145330000Y-99728756D02*
X145330000Y-99900000D01*
X145555527Y-99503229D02*
X145330000Y-99728756D01*
%TO.N,SEMC_D8*%
X146824112Y-105059000D02*
X146957112Y-105192000D01*
X146279639Y-105295355D02*
X146515994Y-105059000D01*
X144652240Y-103668990D02*
X144652240Y-104822240D01*
X145022000Y-105192000D02*
X145459452Y-105192000D01*
X149994551Y-103319525D02*
X153310000Y-100004076D01*
X145562807Y-105295355D02*
X146279639Y-105295355D01*
X145440271Y-102386230D02*
X145440271Y-102880959D01*
X145502235Y-101896703D02*
X145370000Y-102028938D01*
X146957112Y-105192000D02*
X147130000Y-105192000D01*
X153310000Y-99680418D02*
X153263381Y-99633799D01*
X145370000Y-102315959D02*
X145440271Y-102386230D01*
X153263381Y-99633799D02*
X153263381Y-99524215D01*
X145370000Y-102028938D02*
X145370000Y-102315959D01*
X146515994Y-105059000D02*
X146824112Y-105059000D01*
X145440271Y-102880959D02*
X144652240Y-103668990D01*
X144652240Y-104822240D02*
X145022000Y-105192000D01*
X149002475Y-103319525D02*
X149994551Y-103319525D01*
X147130000Y-105192000D02*
X149002475Y-103319525D01*
X153310000Y-100004076D02*
X153310000Y-99680418D01*
X145459452Y-105192000D02*
X145562807Y-105295355D01*
D16*
%TO.N,SDRAM_1V8*%
X154860000Y-101929066D02*
X154098781Y-101167847D01*
X154970934Y-101929066D02*
X155690000Y-101210000D01*
X154860000Y-103300000D02*
X154860000Y-101929066D01*
X153901930Y-103290000D02*
X153850046Y-103238116D01*
X154850000Y-103290000D02*
X153901930Y-103290000D01*
X153850046Y-103238116D02*
X153743305Y-103344857D01*
X153743305Y-103344857D02*
X153080046Y-103344857D01*
X154860000Y-101929066D02*
X154970934Y-101929066D01*
X154860000Y-103300000D02*
X154850000Y-103290000D01*
%TD*%
M02*
