%TF.GenerationSoftware,KiCad,Pcbnew,9.0.4*%
%TF.CreationDate,2025-12-30T15:29:56-05:00*%
%TF.ProjectId,sb-tpu,73622d74-7075-42e6-9b69-6361645f7063,rev?*%
%TF.SameCoordinates,Original*%
%TF.FileFunction,Copper,L3,Inr*%
%TF.FilePolarity,Positive*%
%FSLAX46Y46*%
G04 Gerber Fmt 4.6, Leading zero omitted, Abs format (unit mm)*
G04 Created by KiCad (PCBNEW 9.0.4) date 2025-12-30 15:29:56*
%MOMM*%
%LPD*%
G01*
G04 APERTURE LIST*
%TA.AperFunction,ComponentPad*%
%ADD10C,1.540000*%
%TD*%
%TA.AperFunction,ViaPad*%
%ADD11C,0.250000*%
%TD*%
%TA.AperFunction,Conductor*%
%ADD12C,0.200000*%
%TD*%
%TA.AperFunction,Conductor*%
%ADD13C,0.150000*%
%TD*%
%TA.AperFunction,Conductor*%
%ADD14C,0.120000*%
%TD*%
G04 APERTURE END LIST*
D10*
%TO.N,LPUART6_RXD*%
%TO.C,J4*%
X142770000Y-82500000D03*
%TO.N,POR_B*%
X158010000Y-82500000D03*
%TD*%
D11*
%TO.N,VSYS*%
X123930000Y-100237992D03*
X150970000Y-111688100D03*
X146240000Y-111300000D03*
X149330000Y-106720000D03*
X148480095Y-113160000D03*
X152490000Y-111800000D03*
%TO.N,VDD_3V3*%
X155907891Y-92382714D03*
X150983571Y-116520000D03*
X156320000Y-102630000D03*
X156341474Y-98997326D03*
X148143479Y-96642876D03*
X132699937Y-114137629D03*
%TO.N,VDD_1V8*%
X137370000Y-97830000D03*
X137050000Y-108690000D03*
X142567765Y-94957424D03*
X143000000Y-90370000D03*
X143378766Y-100642874D03*
X153659550Y-98155000D03*
X141270000Y-102650000D03*
X150512000Y-97220000D03*
%TO.N,MCM_3V3*%
X131320000Y-115220000D03*
X135310000Y-118000000D03*
X128500000Y-111190000D03*
X152810000Y-113425000D03*
%TO.N,VUSB*%
X129611629Y-97291629D03*
X132920580Y-103470000D03*
X131268363Y-99268363D03*
%TO.N,MCM_1V8*%
X155740802Y-112602622D03*
X149289696Y-95431839D03*
%TO.N,MCU_DCDC_IN*%
X144978764Y-95991844D03*
X146964303Y-94725529D03*
%TO.N,VDD_SOC_IN*%
X135980000Y-92040000D03*
X142578765Y-97557849D03*
%TO.N,VDDA_1P0*%
X138973029Y-98676971D03*
X140171000Y-101442874D03*
%TO.N,POR_B*%
X160631000Y-98320000D03*
%TO.N,FlexSPI_A_SS0*%
X134863410Y-101040000D03*
X142431997Y-113056106D03*
%TO.N,FlexSPI_A_D2*%
X142765352Y-114610352D03*
X136960000Y-99960000D03*
%TO.N,SEMC_A6*%
X150977946Y-101197392D03*
X147378764Y-103815874D03*
%TO.N,FlexSPI_A_D3*%
X135517459Y-101276087D03*
X134943335Y-111116665D03*
%TO.N,SEMC_D15*%
X148543478Y-100284180D03*
X156465000Y-100335000D03*
%TO.N,FlexSPI_A_CLK*%
X136980000Y-100630000D03*
X134600000Y-110040000D03*
%TO.N,SEMC_D12*%
X147648766Y-102178453D03*
X154235935Y-99065199D03*
%TO.N,SEMC_A11*%
X144978763Y-103842872D03*
X151680000Y-100370000D03*
%TO.N,SEMC_WE*%
X143900000Y-102140000D03*
X152610000Y-105730000D03*
%TO.N,SEMC_A12*%
X148820000Y-98820000D03*
X145778762Y-103842874D03*
%TO.N,LPUART6_RXD*%
X147378765Y-97442873D03*
%TO.N,SEMC_D2*%
X149789903Y-103550145D03*
X155698781Y-105167847D03*
%TO.N,SEMC_CKE*%
X148340000Y-98120000D03*
X144190714Y-100409141D03*
%TO.N,FlexSPI_A_D0*%
X136190000Y-101440000D03*
X134184559Y-110150000D03*
%TO.N,SEMC_D14*%
X149009754Y-101448137D03*
X155538132Y-99611026D03*
%TO.N,SEMC_A9*%
X145015764Y-104655000D03*
X151704181Y-101125749D03*
%TO.N,LPUART6_TXD*%
X147378764Y-98213754D03*
X143640000Y-84140000D03*
%TO.N,FlexSPI_A_D1*%
X135301267Y-110938733D03*
X136202256Y-100005755D03*
%TO.N,SEMC_A7*%
X148370000Y-98840000D03*
X144573321Y-102571663D03*
%TO.N,SEMC_D8*%
X145659734Y-101972478D03*
X153263381Y-99524215D03*
%TO.N,SDRAM_1V8*%
X154098781Y-101167847D03*
X155690000Y-101210000D03*
X153850046Y-103238116D03*
X153080046Y-103344857D03*
X155310000Y-103280000D03*
%TD*%
D12*
%TO.N,VSYS*%
X149330000Y-106720000D02*
X149330000Y-106940000D01*
X146240000Y-111300000D02*
X146240000Y-111736745D01*
X146240000Y-111736745D02*
X142906745Y-115070000D01*
X149330000Y-106940000D02*
X146240000Y-110030000D01*
X146240000Y-111300000D02*
X148550000Y-111300000D01*
X148550000Y-111300000D02*
X150581900Y-111300000D01*
X146240000Y-110030000D02*
X146240000Y-111300000D01*
X137009296Y-115070000D02*
X129570000Y-107630704D01*
X129570000Y-107630704D02*
X129570000Y-105877992D01*
X148480095Y-113160000D02*
X148480095Y-111369905D01*
X152378100Y-111688100D02*
X152490000Y-111800000D01*
X150970000Y-111688100D02*
X152378100Y-111688100D01*
X142906745Y-115070000D02*
X137009296Y-115070000D01*
X148480095Y-111369905D02*
X148550000Y-111300000D01*
X129570000Y-105877992D02*
X123930000Y-100237992D01*
X150581900Y-111300000D02*
X150970000Y-111688100D01*
%TO.N,VDD_3V3*%
X145713661Y-114224594D02*
X146500000Y-114224594D01*
X146500000Y-114224594D02*
X147909679Y-114224594D01*
X155907891Y-92382714D02*
X153630000Y-94660605D01*
X148415406Y-114224594D02*
X149610000Y-113030000D01*
X143224813Y-116713442D02*
X143224813Y-116207743D01*
X153330000Y-113030000D02*
X155054526Y-111305474D01*
X156320000Y-101130000D02*
X156840000Y-100610000D01*
X143979471Y-115958784D02*
X145713661Y-114224594D01*
X142438255Y-117500000D02*
X143224813Y-116713442D01*
X150999621Y-97175876D02*
X150304566Y-96480821D01*
X149240000Y-96460000D02*
X148326355Y-96460000D01*
X143224813Y-116207743D02*
X143473772Y-115958784D01*
X150205085Y-116520000D02*
X150983571Y-116520000D01*
X156320000Y-102630000D02*
X156320000Y-101130000D01*
X155054526Y-111305474D02*
X155054526Y-106343847D01*
X153714124Y-97175876D02*
X150999621Y-97175876D01*
X153714124Y-97175876D02*
X153819951Y-97175876D01*
X132699937Y-114137629D02*
X136062308Y-117500000D01*
X153630000Y-94660605D02*
X153630000Y-97091752D01*
X156840000Y-100610000D02*
X156840000Y-99495852D01*
X153630000Y-97091752D02*
X153714124Y-97175876D01*
X147909679Y-114224594D02*
X150205085Y-116520000D01*
X156261628Y-105136745D02*
X156261628Y-102688372D01*
X155054526Y-106343847D02*
X156261628Y-105136745D01*
X136062308Y-117500000D02*
X142438255Y-117500000D01*
X153819951Y-97175876D02*
X155641401Y-98997326D01*
X156261628Y-102688372D02*
X156320000Y-102630000D01*
X150304566Y-96480821D02*
X149260821Y-96480821D01*
X146500000Y-114224594D02*
X148415406Y-114224594D01*
X156840000Y-99495852D02*
X156341474Y-98997326D01*
X155641401Y-98997326D02*
X156341474Y-98997326D01*
X143473772Y-115958784D02*
X143979471Y-115958784D01*
X148326355Y-96460000D02*
X148143479Y-96642876D01*
X149610000Y-113030000D02*
X153330000Y-113030000D01*
X149260821Y-96480821D02*
X149240000Y-96460000D01*
%TO.N,VDD_1V8*%
X140546000Y-102179249D02*
X140521000Y-102204249D01*
X142199917Y-98106000D02*
X144254732Y-98106000D01*
X147540246Y-98589754D02*
X147964000Y-98166000D01*
X139802764Y-104868981D02*
X137391000Y-107280745D01*
X146957581Y-98324316D02*
X147223019Y-98589754D01*
X142154764Y-98060847D02*
X142199917Y-98106000D01*
X151216307Y-98274307D02*
X151575449Y-98274307D01*
X148678255Y-97220000D02*
X150512000Y-97220000D01*
X142656241Y-95045900D02*
X142567765Y-94957424D01*
X142676808Y-98060847D02*
X142954764Y-97782891D01*
X142154764Y-98060847D02*
X142676808Y-98060847D01*
D13*
X143000000Y-94448386D02*
X142567765Y-94880621D01*
D12*
X137391000Y-107280745D02*
X137391000Y-108349000D01*
X142656241Y-95884808D02*
X142656241Y-95045900D01*
X140546000Y-99719611D02*
X140546000Y-102179249D01*
X143270000Y-99176083D02*
X143270000Y-100534108D01*
X137370000Y-97830000D02*
X138656389Y-97830000D01*
D13*
X142567765Y-94880621D02*
X142567765Y-94957424D01*
D12*
X147223019Y-98589754D02*
X147540246Y-98589754D01*
X140485644Y-102204249D02*
X139802764Y-102887129D01*
X144254732Y-98106000D02*
X144473048Y-98324316D01*
X140521000Y-102204249D02*
X140485644Y-102204249D01*
X144473048Y-98324316D02*
X146957581Y-98324316D01*
X142154764Y-98060847D02*
X140521000Y-99694611D01*
X142199917Y-98106000D02*
X143270000Y-99176083D01*
X147964000Y-98166000D02*
X147964000Y-97934255D01*
X139802764Y-102887129D02*
X139802764Y-104868981D01*
X140521000Y-102316855D02*
X140854145Y-102650000D01*
X143270000Y-100534108D02*
X143378766Y-100642874D01*
X140521000Y-102204249D02*
X140521000Y-102316855D01*
X137391000Y-108349000D02*
X137050000Y-108690000D01*
X142954764Y-96819917D02*
X142574282Y-96439435D01*
X150512000Y-97220000D02*
X150512000Y-97570000D01*
X151575449Y-98274307D02*
X151694756Y-98155000D01*
X138656389Y-97830000D02*
X140521000Y-99694611D01*
X142574282Y-95966767D02*
X142656241Y-95884808D01*
X140854145Y-102650000D02*
X141270000Y-102650000D01*
X150512000Y-97570000D02*
X151216307Y-98274307D01*
X151694756Y-98155000D02*
X153659550Y-98155000D01*
X147964000Y-97934255D02*
X148678255Y-97220000D01*
X142954764Y-97782891D02*
X142954764Y-96819917D01*
D13*
X143000000Y-90370000D02*
X143000000Y-94448386D01*
D12*
X140521000Y-99694611D02*
X140546000Y-99719611D01*
X142574282Y-96439435D02*
X142574282Y-95966767D01*
%TO.N,MCM_3V3*%
X131871884Y-114563629D02*
X132630963Y-114563629D01*
X151740000Y-117296126D02*
X151740000Y-113928140D01*
X135310000Y-118000000D02*
X151036126Y-118000000D01*
X135310000Y-117242666D02*
X135310000Y-118000000D01*
X131320000Y-115220000D02*
X131320000Y-114880000D01*
X131871884Y-114561884D02*
X128500000Y-111190000D01*
X131320000Y-114880000D02*
X131636371Y-114563629D01*
X152243140Y-113425000D02*
X152810000Y-113425000D01*
X131636371Y-114563629D02*
X131871884Y-114563629D01*
X132630963Y-114563629D02*
X135310000Y-117242666D01*
X131871884Y-114563629D02*
X131871884Y-114561884D01*
X151036126Y-118000000D02*
X151740000Y-117296126D01*
X151740000Y-113928140D02*
X152243140Y-113425000D01*
%TO.N,VUSB*%
X132395000Y-100395000D02*
X132395000Y-102944420D01*
X131530000Y-99530000D02*
X129611629Y-97611629D01*
X129611629Y-97611629D02*
X129611629Y-97291629D01*
X131268363Y-99268363D02*
X131530000Y-99530000D01*
X131530000Y-99530000D02*
X132395000Y-100395000D01*
X132395000Y-102944420D02*
X132920580Y-103470000D01*
%TO.N,MCM_1V8*%
X153140000Y-92060000D02*
X152531400Y-92668600D01*
X149499894Y-95221641D02*
X149289696Y-95431839D01*
X149499894Y-93920106D02*
X149499894Y-95221641D01*
X152531400Y-92668600D02*
X150751400Y-92668600D01*
X155698860Y-92060000D02*
X153140000Y-92060000D01*
X155752146Y-92006714D02*
X155698860Y-92060000D01*
X157136714Y-92006714D02*
X155752146Y-92006714D01*
X150751400Y-92668600D02*
X149499894Y-93920106D01*
X155740802Y-112602622D02*
X158450000Y-109893424D01*
X158450000Y-93320000D02*
X157136714Y-92006714D01*
X158450000Y-109893424D02*
X158450000Y-93320000D01*
%TO.N,MCU_DCDC_IN*%
X145476530Y-95494078D02*
X146085922Y-95494078D01*
X146854471Y-94725529D02*
X146964303Y-94725529D01*
X146085922Y-95494078D02*
X146854471Y-94725529D01*
X144978764Y-95991844D02*
X145476530Y-95494078D01*
%TO.N,VDD_SOC_IN*%
X142578765Y-97442875D02*
X142578765Y-97557849D01*
X135980000Y-92040000D02*
X137175890Y-92040000D01*
X137175890Y-92040000D02*
X142578765Y-97442875D01*
%TO.N,VDDA_1P0*%
X140171000Y-101442874D02*
X140170000Y-101441874D01*
X140170000Y-101441874D02*
X140170000Y-99873942D01*
X140170000Y-99873942D02*
X138973029Y-98676971D01*
D13*
%TO.N,POR_B*%
X158860000Y-83350000D02*
X158860000Y-93221186D01*
X158860000Y-93221186D02*
X160631000Y-94992186D01*
X158010000Y-82500000D02*
X158860000Y-83350000D01*
X160631000Y-94992186D02*
X160631000Y-98320000D01*
D12*
%TO.N,FlexSPI_A_SS0*%
X133458559Y-109849281D02*
X133470000Y-109837840D01*
X133410000Y-103400000D02*
X134525000Y-102285000D01*
X142348103Y-113140000D02*
X135840533Y-113140000D01*
X142431997Y-113056106D02*
X142348103Y-113140000D01*
X133410000Y-105947924D02*
X133410000Y-103400000D01*
X134525000Y-101378410D02*
X134863410Y-101040000D01*
X133458559Y-110758026D02*
X133458559Y-109849281D01*
X133470000Y-109837840D02*
X133470000Y-106007924D01*
X135840533Y-113140000D02*
X133458559Y-110758026D01*
X134525000Y-102285000D02*
X134525000Y-101378410D01*
X133470000Y-106007924D02*
X133410000Y-105947924D01*
%TO.N,FlexSPI_A_D2*%
X142856997Y-113336997D02*
X142800000Y-113393994D01*
X136554765Y-100798621D02*
X136334510Y-101018876D01*
X136334510Y-101018876D02*
X136023020Y-101018876D01*
X138954764Y-100579255D02*
X138954764Y-104653491D01*
X135474000Y-100161025D02*
X136425025Y-99210000D01*
X136554765Y-100365235D02*
X136554765Y-100798621D01*
X136534000Y-108903745D02*
X136754255Y-109124000D01*
X138643384Y-100267875D02*
X138954764Y-100579255D01*
X137344847Y-99210000D02*
X138402722Y-100267875D01*
X142800000Y-114575704D02*
X142765352Y-114610352D01*
X136425025Y-99210000D02*
X137344847Y-99210000D01*
X136754255Y-109124000D02*
X139267932Y-109124000D01*
X142800000Y-113393994D02*
X142800000Y-114575704D01*
X136534000Y-107074255D02*
X136534000Y-108903745D01*
X142856997Y-112713065D02*
X142856997Y-113336997D01*
X138402722Y-100267875D02*
X138643384Y-100267875D01*
X136960000Y-99960000D02*
X136554765Y-100365235D01*
X139267932Y-109124000D02*
X142856997Y-112713065D01*
X136023020Y-101018876D02*
X135474000Y-100469856D01*
X135474000Y-100469856D02*
X135474000Y-100161025D01*
X138954764Y-104653491D02*
X136534000Y-107074255D01*
D14*
%TO.N,SEMC_A6*%
X148931179Y-102625145D02*
X147740450Y-103815874D01*
X150977946Y-101197392D02*
X150990000Y-101209446D01*
X150990000Y-101517218D02*
X149882073Y-102625145D01*
X150990000Y-101209446D02*
X150990000Y-101517218D01*
X147740450Y-103815874D02*
X147378764Y-103815874D01*
X149882073Y-102625145D02*
X148931179Y-102625145D01*
D12*
%TO.N,FlexSPI_A_D3*%
X134632478Y-103000646D02*
X135086462Y-102546662D01*
X135517459Y-102197515D02*
X135517459Y-101276087D01*
X133833559Y-109969255D02*
X133833559Y-103881415D01*
X134619479Y-111116665D02*
X133808559Y-110305745D01*
X133808559Y-110305745D02*
X133808559Y-109994255D01*
X135168312Y-102546662D02*
X135517459Y-102197515D01*
X133808559Y-109994255D02*
X133833559Y-109969255D01*
X134943335Y-111116665D02*
X134619479Y-111116665D01*
X134632478Y-103082496D02*
X134632478Y-103000646D01*
X135086462Y-102546662D02*
X135168312Y-102546662D01*
X133833559Y-103881415D02*
X134632478Y-103082496D01*
D14*
%TO.N,SEMC_D15*%
X153928075Y-98830000D02*
X151963190Y-98830000D01*
X156465000Y-100335000D02*
X155786930Y-100335000D01*
X149370000Y-101423190D02*
X149370000Y-101563067D01*
X154148075Y-98610000D02*
X153928075Y-98830000D01*
X148870578Y-101784137D02*
X148543478Y-101457037D01*
X154578069Y-99126139D02*
X154578069Y-98918069D01*
X151963190Y-98830000D02*
X149370000Y-101423190D01*
X154270000Y-98610000D02*
X154148075Y-98610000D01*
X154578069Y-98918069D02*
X154270000Y-98610000D01*
X155786930Y-100335000D02*
X154578069Y-99126139D01*
X148543478Y-101457037D02*
X148543478Y-100284180D01*
X149370000Y-101563067D02*
X149148930Y-101784137D01*
X149148930Y-101784137D02*
X148870578Y-101784137D01*
D12*
%TO.N,FlexSPI_A_CLK*%
X134590000Y-110030000D02*
X134600000Y-110040000D01*
X136980000Y-102095437D02*
X135983719Y-103091718D01*
X136980000Y-100630000D02*
X136980000Y-102095437D01*
X135983719Y-103091718D02*
X135983719Y-103544759D01*
X135983719Y-103544759D02*
X134590000Y-104938478D01*
X134590000Y-104938478D02*
X134590000Y-110030000D01*
D14*
%TO.N,SEMC_D12*%
X149714295Y-101460733D02*
X149911119Y-101263909D01*
X149911119Y-101263909D02*
X150054415Y-101263909D01*
X149714295Y-101637543D02*
X149714295Y-101460733D01*
X147742074Y-102085145D02*
X149266693Y-102085145D01*
X150726932Y-100591392D02*
X150968608Y-100591392D01*
X149266693Y-102085145D02*
X149714295Y-101637543D01*
X150968608Y-100591392D02*
X152371785Y-99188215D01*
X154112919Y-99188215D02*
X154235935Y-99065199D01*
X150054415Y-101263909D02*
X150726932Y-100591392D01*
X147648766Y-102178453D02*
X147742074Y-102085145D01*
X152371785Y-99188215D02*
X154112919Y-99188215D01*
%TO.N,SEMC_A11*%
X150641946Y-101058216D02*
X150641946Y-101091730D01*
X150393474Y-101340202D02*
X150393474Y-101731906D01*
X147219291Y-103430874D02*
X146993764Y-103656401D01*
X146993764Y-103656401D02*
X146993764Y-103752698D01*
X150393474Y-101731906D02*
X149770235Y-102355145D01*
X150838770Y-100861392D02*
X150641946Y-101058216D01*
X151188608Y-100861392D02*
X150838770Y-100861392D01*
X145314765Y-104178874D02*
X144978763Y-103842872D01*
X151680000Y-100370000D02*
X151188608Y-100861392D01*
X148817927Y-102355145D02*
X147742198Y-103430874D01*
X149770235Y-102355145D02*
X148817927Y-102355145D01*
X146993764Y-103752698D02*
X146567588Y-104178874D01*
X147742198Y-103430874D02*
X147219291Y-103430874D01*
X146567588Y-104178874D02*
X145314765Y-104178874D01*
X150641946Y-101091730D02*
X150393474Y-101340202D01*
%TO.N,SEMC_WE*%
X152170000Y-106170000D02*
X145618162Y-106170000D01*
X143769000Y-104320838D02*
X143769000Y-102271000D01*
X143769000Y-102271000D02*
X143900000Y-102140000D01*
X145618162Y-106170000D02*
X143769000Y-104320838D01*
X152610000Y-105730000D02*
X152170000Y-106170000D01*
%TO.N,SEMC_A12*%
X146963766Y-101720313D02*
X146963766Y-103301410D01*
X147044606Y-101639473D02*
X146963766Y-101720313D01*
X146963766Y-100846234D02*
X146963766Y-101239687D01*
X146422302Y-103842874D02*
X145778762Y-103842874D01*
X146963766Y-101239687D02*
X147044606Y-101320527D01*
X146963766Y-103301410D02*
X146422302Y-103842874D01*
X148820000Y-98820000D02*
X148820000Y-98990000D01*
X148820000Y-98990000D02*
X146963766Y-100846234D01*
X147044606Y-101320527D02*
X147044606Y-101639473D01*
D12*
%TO.N,LPUART6_RXD*%
X147370000Y-95430882D02*
X147370000Y-97434108D01*
X142770000Y-82500000D02*
X144210000Y-83940000D01*
X144210000Y-89520000D02*
X147762136Y-93072136D01*
X147370000Y-97434108D02*
X147378765Y-97442873D01*
X144210000Y-83940000D02*
X144210000Y-89520000D01*
X147762136Y-95038746D02*
X147370000Y-95430882D01*
X147762136Y-93072136D02*
X147762136Y-95038746D01*
D14*
%TO.N,SEMC_D2*%
X155698781Y-105167847D02*
X154380842Y-103849908D01*
X152185435Y-103849908D02*
X151938774Y-103603247D01*
X149843005Y-103603247D02*
X149789903Y-103550145D01*
X151938774Y-103603247D02*
X149843005Y-103603247D01*
X154380842Y-103849908D02*
X152185435Y-103849908D01*
%TO.N,SEMC_CKE*%
X147219291Y-99427876D02*
X147119922Y-99328507D01*
X144870000Y-99110000D02*
X144580000Y-99400000D01*
X146221838Y-99110000D02*
X144870000Y-99110000D01*
X148340000Y-98120000D02*
X148340000Y-98260151D01*
X147119922Y-99328507D02*
X146440345Y-99328507D01*
X144580000Y-99400000D02*
X144580000Y-100019855D01*
X146440345Y-99328507D02*
X146221838Y-99110000D01*
X148034000Y-98566151D02*
X148034000Y-98979176D01*
X144580000Y-100019855D02*
X144190714Y-100409141D01*
X147585300Y-99427876D02*
X147219291Y-99427876D01*
X148340000Y-98260151D02*
X148034000Y-98566151D01*
X148034000Y-98979176D02*
X147585300Y-99427876D01*
D12*
%TO.N,FlexSPI_A_D0*%
X135353287Y-102896662D02*
X135231437Y-102896662D01*
X134982478Y-103267471D02*
X134184559Y-104065389D01*
X135580000Y-102669949D02*
X135353287Y-102896662D01*
X136190000Y-102034974D02*
X135580000Y-102644974D01*
X134982478Y-103145621D02*
X134982478Y-103267471D01*
X135580000Y-102644974D02*
X135580000Y-102669949D01*
X134184559Y-104065389D02*
X134184559Y-110150000D01*
X136190000Y-101440000D02*
X136190000Y-102034974D01*
X135231437Y-102896662D02*
X134982478Y-103145621D01*
D14*
%TO.N,SEMC_D14*%
X151669162Y-98619000D02*
X151100824Y-98619000D01*
X155538132Y-99413659D02*
X154464473Y-98340000D01*
X149009754Y-101168372D02*
X149009754Y-101448137D01*
X150838126Y-99340000D02*
X149009754Y-101168372D01*
X151100824Y-98619000D02*
X150838126Y-98881698D01*
X153824823Y-98550000D02*
X151738162Y-98550000D01*
X151738162Y-98550000D02*
X151669162Y-98619000D01*
X154034823Y-98340000D02*
X153824823Y-98550000D01*
X150838126Y-98881698D02*
X150838126Y-99340000D01*
X154464473Y-98340000D02*
X154034823Y-98340000D01*
X155538132Y-99611026D02*
X155538132Y-99413659D01*
%TO.N,SEMC_A9*%
X146156973Y-105025355D02*
X145674645Y-105025355D01*
X149043017Y-102895145D02*
X147542821Y-104395341D01*
X151704181Y-101125749D02*
X151704181Y-101345819D01*
X150154855Y-102895145D02*
X149043017Y-102895145D01*
X146786987Y-104395341D02*
X146156973Y-105025355D01*
X145674645Y-105025355D02*
X145304290Y-104655000D01*
X151704181Y-101345819D02*
X150154855Y-102895145D01*
X147542821Y-104395341D02*
X146786987Y-104395341D01*
X145304290Y-104655000D02*
X145015764Y-104655000D01*
D12*
%TO.N,LPUART6_TXD*%
X146992612Y-97827602D02*
X146992612Y-95313295D01*
X147412136Y-93412136D02*
X143640000Y-89640000D01*
X147378764Y-98213754D02*
X146992612Y-97827602D01*
X147412136Y-94893771D02*
X147412136Y-93412136D01*
X146992612Y-95313295D02*
X147412136Y-94893771D01*
X143640000Y-89640000D02*
X143640000Y-84140000D01*
%TO.N,FlexSPI_A_D1*%
X136638011Y-99570000D02*
X136202256Y-100005755D01*
X138007922Y-101563903D02*
X138007922Y-100368050D01*
X136333719Y-103689733D02*
X136333719Y-103238106D01*
X135301267Y-110938733D02*
X134980000Y-110617466D01*
X134980000Y-110617466D02*
X134980000Y-105043452D01*
X138007922Y-100368050D02*
X137209873Y-99570000D01*
X136333719Y-103238106D02*
X138007922Y-101563903D01*
X137209873Y-99570000D02*
X136638011Y-99570000D01*
X134980000Y-105043452D02*
X136333719Y-103689733D01*
D14*
%TO.N,SEMC_A7*%
X143964606Y-101236354D02*
X143964606Y-101663788D01*
X147107453Y-99697876D02*
X147008084Y-99598507D01*
X146327093Y-99598507D02*
X146231815Y-99503229D01*
X147008084Y-99598507D02*
X146327093Y-99598507D01*
X148304000Y-99091014D02*
X147697138Y-99697876D01*
X146231815Y-99503229D02*
X145555527Y-99503229D01*
X147697138Y-99697876D02*
X147107453Y-99697876D01*
X145330000Y-99900000D02*
X144525804Y-100704196D01*
X148370000Y-98840000D02*
X148304000Y-98906000D01*
X144573321Y-102272503D02*
X144573321Y-102571663D01*
X145555527Y-99503229D02*
X145330000Y-99728756D01*
X145330000Y-99728756D02*
X145330000Y-99900000D01*
X143964606Y-101663788D02*
X144573321Y-102272503D01*
X148304000Y-98906000D02*
X148304000Y-99091014D01*
X144525804Y-100704196D02*
X144496764Y-100704196D01*
X144496764Y-100704196D02*
X143964606Y-101236354D01*
%TO.N,SEMC_D8*%
X153310000Y-99680418D02*
X153310000Y-100280000D01*
X145125355Y-105295355D02*
X144593763Y-104763763D01*
X144593763Y-104763763D02*
X144593763Y-103092196D01*
X150424855Y-103165145D02*
X149156855Y-103165145D01*
X149156855Y-103165145D02*
X147130000Y-105192000D01*
X153310000Y-100280000D02*
X150424855Y-103165145D01*
X145370000Y-102315959D02*
X145370000Y-102262212D01*
X144593763Y-103092196D02*
X145370000Y-102315959D01*
X153263381Y-99524215D02*
X153263381Y-99633799D01*
X146824112Y-105059000D02*
X146515994Y-105059000D01*
X146279639Y-105295355D02*
X145125355Y-105295355D01*
X153263381Y-99633799D02*
X153310000Y-99680418D01*
X147130000Y-105192000D02*
X146957112Y-105192000D01*
X146957112Y-105192000D02*
X146824112Y-105059000D01*
X146515994Y-105059000D02*
X146279639Y-105295355D01*
X145370000Y-102262212D02*
X145659734Y-101972478D01*
D13*
%TO.N,SDRAM_1V8*%
X154860000Y-101929066D02*
X154098781Y-101167847D01*
X154860000Y-102830000D02*
X155310000Y-103280000D01*
X154970934Y-101929066D02*
X155690000Y-101210000D01*
X153850046Y-103238116D02*
X153891930Y-103280000D01*
X153891930Y-103280000D02*
X155310000Y-103280000D01*
X154860000Y-101929066D02*
X154860000Y-102830000D01*
X153850046Y-103238116D02*
X153743305Y-103344857D01*
X153743305Y-103344857D02*
X153080046Y-103344857D01*
X154860000Y-101929066D02*
X154970934Y-101929066D01*
%TD*%
M02*
